<svg width="646" height="627" viewBox="0 0 646 627" fill="none" xmlns="http://www.w3.org/2000/svg">
<path d="M368 335L314 379.167V290.833L368 335Z" fill="#4CC9F0"/>
<path fill-rule="evenodd" clip-rule="evenodd" d="M0.204543 379L54 335L0.204543 291H314V379H0.204543ZM0 379L1.51992e-06 291H0V379Z" fill="#4CC9F0"/>
<path d="M128.011 349V346.443L137.614 335.932C138.741 334.701 139.669 333.631 140.398 332.722C141.127 331.803 141.667 330.941 142.017 330.136C142.377 329.322 142.557 328.47 142.557 327.58C142.557 326.557 142.311 325.671 141.818 324.923C141.335 324.175 140.672 323.598 139.83 323.19C138.987 322.783 138.04 322.58 136.989 322.58C135.871 322.58 134.896 322.812 134.062 323.276C133.239 323.73 132.599 324.369 132.145 325.193C131.7 326.017 131.477 326.983 131.477 328.091H128.125C128.125 326.386 128.518 324.89 129.304 323.602C130.09 322.314 131.16 321.311 132.514 320.591C133.878 319.871 135.407 319.511 137.102 319.511C138.807 319.511 140.317 319.871 141.634 320.591C142.95 321.311 143.982 322.281 144.73 323.503C145.478 324.724 145.852 326.083 145.852 327.58C145.852 328.65 145.658 329.696 145.27 330.719C144.891 331.732 144.228 332.864 143.281 334.114C142.344 335.354 141.042 336.869 139.375 338.659L132.841 345.648V345.875H146.364V349H128.011ZM161.719 349.398C159.579 349.398 157.756 348.815 156.25 347.651C154.744 346.476 153.594 344.777 152.798 342.551C152.003 340.316 151.605 337.617 151.605 334.455C151.605 331.311 152.003 328.626 152.798 326.401C153.603 324.166 154.759 322.461 156.264 321.287C157.779 320.103 159.598 319.511 161.719 319.511C163.84 319.511 165.653 320.103 167.159 321.287C168.674 322.461 169.83 324.166 170.625 326.401C171.43 328.626 171.832 331.311 171.832 334.455C171.832 337.617 171.435 340.316 170.639 342.551C169.844 344.777 168.693 346.476 167.188 347.651C165.682 348.815 163.859 349.398 161.719 349.398ZM161.719 346.273C163.84 346.273 165.488 345.25 166.662 343.205C167.836 341.159 168.423 338.242 168.423 334.455C168.423 331.936 168.153 329.791 167.614 328.02C167.083 326.249 166.316 324.9 165.312 323.972C164.318 323.044 163.12 322.58 161.719 322.58C159.616 322.58 157.973 323.616 156.79 325.69C155.606 327.755 155.014 330.676 155.014 334.455C155.014 336.973 155.279 339.114 155.81 340.875C156.34 342.636 157.102 343.976 158.097 344.895C159.1 345.813 160.308 346.273 161.719 346.273ZM177.23 349V346.443L186.832 335.932C187.959 334.701 188.887 333.631 189.616 332.722C190.346 331.803 190.885 330.941 191.236 330.136C191.596 329.322 191.776 328.47 191.776 327.58C191.776 326.557 191.529 325.671 191.037 324.923C190.554 324.175 189.891 323.598 189.048 323.19C188.205 322.783 187.259 322.58 186.207 322.58C185.09 322.58 184.115 322.812 183.281 323.276C182.457 323.73 181.818 324.369 181.364 325.193C180.919 326.017 180.696 326.983 180.696 328.091H177.344C177.344 326.386 177.737 324.89 178.523 323.602C179.309 322.314 180.379 321.311 181.733 320.591C183.097 319.871 184.626 319.511 186.321 319.511C188.026 319.511 189.536 319.871 190.852 320.591C192.169 321.311 193.201 322.281 193.949 323.503C194.697 324.724 195.071 326.083 195.071 327.58C195.071 328.65 194.877 329.696 194.489 330.719C194.11 331.732 193.447 332.864 192.5 334.114C191.562 335.354 190.26 336.869 188.594 338.659L182.06 345.648V345.875H195.582V349H177.23ZM200.142 343.034V340.136L212.926 319.909H215.028V324.398H213.608L203.949 339.682V339.909H221.165V343.034H200.142ZM213.835 349V342.153V340.804V319.909H217.188V349H213.835ZM248.817 339.909H252.681L255.92 344.17L256.772 345.307L261.602 351.727H257.738L254.556 347.466L253.761 346.386L248.817 339.909ZM262.795 334.455C262.795 337.523 262.241 340.174 261.133 342.409C260.025 344.644 258.505 346.367 256.573 347.58C254.641 348.792 252.435 349.398 249.954 349.398C247.473 349.398 245.266 348.792 243.335 347.58C241.403 346.367 239.883 344.644 238.775 342.409C237.667 340.174 237.113 337.523 237.113 334.455C237.113 331.386 237.667 328.735 238.775 326.5C239.883 324.265 241.403 322.542 243.335 321.33C245.266 320.117 247.473 319.511 249.954 319.511C252.435 319.511 254.641 320.117 256.573 321.33C258.505 322.542 260.025 324.265 261.133 326.5C262.241 328.735 262.795 331.386 262.795 334.455ZM259.386 334.455C259.386 331.936 258.964 329.81 258.121 328.077C257.288 326.344 256.156 325.032 254.727 324.142C253.306 323.252 251.715 322.807 249.954 322.807C248.192 322.807 246.597 323.252 245.167 324.142C243.746 325.032 242.615 326.344 241.772 328.077C240.939 329.81 240.522 331.936 240.522 334.455C240.522 336.973 240.939 339.099 241.772 340.832C242.615 342.565 243.746 343.877 245.167 344.767C246.597 345.657 248.192 346.102 249.954 346.102C251.715 346.102 253.306 345.657 254.727 344.767C256.156 343.877 257.288 342.565 258.121 340.832C258.964 339.099 259.386 336.973 259.386 334.455ZM278.434 319.909V349H274.911V323.602H274.741L267.638 328.318V324.739L274.911 319.909H278.434Z" fill="black"/>
<circle cx="93.5" cy="335.5" r="8.5" fill="#D9D9D9"/>
<path d="M93.2136 26.7273C92.2969 26.7273 91.4598 26.5038 90.7022 26.0568C89.9447 25.6023 89.3386 24.9962 88.8841 24.2386C88.4371 23.4811 88.2136 22.6439 88.2136 21.7273C88.2136 20.803 88.4371 19.9659 88.8841 19.2159C89.3386 18.4583 89.9447 17.8561 90.7022 17.4091C91.4598 16.9545 92.2969 16.7273 93.2136 16.7273C94.1378 16.7273 94.975 16.9545 95.725 17.4091C96.4825 17.8561 97.0848 18.4583 97.5318 19.2159C97.9863 19.9659 98.2136 20.803 98.2136 21.7273C98.2136 22.6439 97.9863 23.4811 97.5318 24.2386C97.0848 24.9962 96.4825 25.6023 95.725 26.0568C94.975 26.5038 94.1378 26.7273 93.2136 26.7273ZM124.319 31L117.864 7.72727H121.557L126.091 25.75H126.307L131.023 7.72727H134.682L139.398 25.7614H139.614L144.137 7.72727H147.841L141.376 31H137.841L132.944 13.5682H132.762L127.864 31H124.319ZM154.168 20.6364V31H150.77V7.72727H154.123V16.3864H154.339C154.748 15.447 155.373 14.7008 156.214 14.1477C157.055 13.5947 158.153 13.3182 159.509 13.3182C160.706 13.3182 161.751 13.5644 162.645 14.0568C163.547 14.5492 164.244 15.2841 164.736 16.2614C165.236 17.2311 165.486 18.4432 165.486 19.8977V31H162.089V20.3068C162.089 19.0265 161.759 18.0341 161.1 17.3295C160.441 16.6174 159.524 16.2614 158.35 16.2614C157.547 16.2614 156.827 16.4318 156.191 16.7727C155.562 17.1136 155.066 17.6136 154.702 18.2727C154.346 18.9242 154.168 19.7121 154.168 20.6364ZM170.02 31V13.5455H173.418V31H170.02ZM171.736 10.8523C171.145 10.8523 170.638 10.6553 170.214 10.2614C169.797 9.85985 169.589 9.38257 169.589 8.82954C169.589 8.26894 169.797 7.79167 170.214 7.39773C170.638 6.99621 171.145 6.79545 171.736 6.79545C172.327 6.79545 172.831 6.99621 173.248 7.39773C173.672 7.79167 173.884 8.26894 173.884 8.82954C173.884 9.38257 173.672 9.85985 173.248 10.2614C172.831 10.6553 172.327 10.8523 171.736 10.8523ZM186.137 13.5455V16.2727H176.603V13.5455H186.137ZM179.16 9.36364H182.557V25.875C182.557 26.5341 182.656 27.0303 182.853 27.3636C183.05 27.6894 183.304 27.9129 183.614 28.0341C183.932 28.1477 184.277 28.2045 184.648 28.2045C184.921 28.2045 185.16 28.1856 185.364 28.1477C185.569 28.1098 185.728 28.0795 185.841 28.0568L186.455 30.8636C186.258 30.9394 185.978 31.0152 185.614 31.0909C185.251 31.1742 184.796 31.2197 184.251 31.2273C183.357 31.2424 182.523 31.0833 181.751 30.75C180.978 30.4167 180.353 29.9015 179.876 29.2045C179.398 28.5076 179.16 27.6326 179.16 26.5795V9.36364ZM197.231 31.3523C195.511 31.3523 194.03 30.9848 192.787 30.25C191.553 29.5076 190.598 28.4659 189.924 27.125C189.257 25.7765 188.924 24.197 188.924 22.3864C188.924 20.5985 189.257 19.0227 189.924 17.6591C190.598 16.2955 191.537 15.2311 192.742 14.4659C193.954 13.7008 195.371 13.3182 196.992 13.3182C197.977 13.3182 198.931 13.4811 199.856 13.8068C200.78 14.1326 201.609 14.6439 202.344 15.3409C203.079 16.0379 203.659 16.9432 204.083 18.0568C204.507 19.1629 204.719 20.5076 204.719 22.0909V23.2955H190.844V20.75H201.39C201.39 19.8561 201.208 19.0644 200.844 18.375C200.481 17.678 199.969 17.1288 199.31 16.7273C198.659 16.3258 197.894 16.125 197.015 16.125C196.06 16.125 195.227 16.3598 194.515 16.8295C193.81 17.2917 193.265 17.8977 192.878 18.6477C192.5 19.3902 192.31 20.197 192.31 21.0682V23.0568C192.31 24.2235 192.515 25.2159 192.924 26.0341C193.34 26.8523 193.92 27.4773 194.662 27.9091C195.405 28.3333 196.272 28.5455 197.265 28.5455C197.909 28.5455 198.496 28.4545 199.026 28.2727C199.556 28.0833 200.015 27.803 200.401 27.4318C200.787 27.0606 201.083 26.6023 201.287 26.0568L204.503 26.6364C204.246 27.5833 203.784 28.4129 203.117 29.125C202.458 29.8295 201.628 30.3788 200.628 30.7727C199.636 31.1591 198.503 31.3523 197.231 31.3523ZM208.489 37.5455V13.5455H211.807V16.375H212.091C212.288 16.0114 212.573 15.5909 212.944 15.1136C213.315 14.6364 213.83 14.2197 214.489 13.8636C215.148 13.5 216.019 13.3182 217.103 13.3182C218.512 13.3182 219.769 13.6742 220.876 14.3864C221.982 15.0985 222.849 16.125 223.478 17.4659C224.114 18.8068 224.432 20.4205 224.432 22.3068C224.432 24.1932 224.118 25.8106 223.489 27.1591C222.86 28.5 221.997 29.5341 220.898 30.2614C219.8 30.9811 218.546 31.3409 217.137 31.3409C216.076 31.3409 215.209 31.1629 214.535 30.8068C213.868 30.4508 213.345 30.0341 212.966 29.5568C212.588 29.0795 212.296 28.6553 212.091 28.2841H211.887V37.5455H208.489ZM211.819 22.2727C211.819 23.5 211.997 24.5758 212.353 25.5C212.709 26.4242 213.224 27.1477 213.898 27.6705C214.573 28.1856 215.398 28.4432 216.376 28.4432C217.391 28.4432 218.239 28.1742 218.921 27.6364C219.603 27.0909 220.118 26.3523 220.466 25.4205C220.823 24.4886 221.001 23.4394 221.001 22.2727C221.001 21.1212 220.826 20.0871 220.478 19.1705C220.137 18.2538 219.622 17.5303 218.932 17C218.251 16.4697 217.398 16.2045 216.376 16.2045C215.391 16.2045 214.557 16.4583 213.876 16.9659C213.201 17.4735 212.69 18.1818 212.341 19.0909C211.993 20 211.819 21.0606 211.819 22.2727ZM233.319 31.3864C232.213 31.3864 231.213 31.1818 230.319 30.7727C229.425 30.3561 228.716 29.7538 228.194 28.9659C227.679 28.178 227.421 27.2121 227.421 26.0682C227.421 25.0833 227.61 24.2727 227.989 23.6364C228.368 23 228.879 22.4962 229.523 22.125C230.167 21.7538 230.887 21.4735 231.682 21.2841C232.478 21.0947 233.288 20.9508 234.114 20.8523C235.16 20.7311 236.008 20.6326 236.66 20.5568C237.311 20.4735 237.785 20.3409 238.08 20.1591C238.376 19.9773 238.523 19.6818 238.523 19.2727V19.1932C238.523 18.2008 238.243 17.4318 237.682 16.8864C237.129 16.3409 236.304 16.0682 235.205 16.0682C234.061 16.0682 233.16 16.322 232.501 16.8295C231.849 17.3295 231.398 17.8864 231.148 18.5L227.955 17.7727C228.334 16.7121 228.887 15.8561 229.614 15.2045C230.349 14.5455 231.194 14.0682 232.148 13.7727C233.103 13.4697 234.107 13.3182 235.16 13.3182C235.857 13.3182 236.595 13.4015 237.376 13.5682C238.163 13.7273 238.898 14.0227 239.58 14.4545C240.269 14.8864 240.834 15.5038 241.273 16.3068C241.713 17.1023 241.932 18.1364 241.932 19.4091V31H238.614V28.6136H238.478C238.258 29.053 237.929 29.4848 237.489 29.9091C237.05 30.3333 236.485 30.6856 235.796 30.9659C235.107 31.2462 234.281 31.3864 233.319 31.3864ZM234.057 28.6591C234.997 28.6591 235.8 28.4735 236.466 28.1023C237.141 27.7311 237.652 27.2462 238.001 26.6477C238.357 26.0417 238.535 25.3939 238.535 24.7045V22.4545C238.413 22.5758 238.179 22.6894 237.83 22.7955C237.489 22.8939 237.099 22.9811 236.66 23.0568C236.22 23.125 235.792 23.1894 235.376 23.25C234.959 23.303 234.61 23.3485 234.33 23.3864C233.671 23.4697 233.069 23.6098 232.523 23.8068C231.985 24.0038 231.554 24.2879 231.228 24.6591C230.91 25.0227 230.751 25.5076 230.751 26.1136C230.751 26.9545 231.061 27.5909 231.682 28.0227C232.304 28.447 233.095 28.6591 234.057 28.6591ZM246.458 37.5455V13.5455H249.776V16.375H250.06C250.257 16.0114 250.541 15.5909 250.912 15.1136C251.284 14.6364 251.799 14.2197 252.458 13.8636C253.117 13.5 253.988 13.3182 255.072 13.3182C256.481 13.3182 257.738 13.6742 258.844 14.3864C259.95 15.0985 260.818 16.125 261.447 17.4659C262.083 18.8068 262.401 20.4205 262.401 22.3068C262.401 24.1932 262.087 25.8106 261.458 27.1591C260.829 28.5 259.965 29.5341 258.867 30.2614C257.769 30.9811 256.515 31.3409 255.106 31.3409C254.045 31.3409 253.178 31.1629 252.503 30.8068C251.837 30.4508 251.314 30.0341 250.935 29.5568C250.556 29.0795 250.265 28.6553 250.06 28.2841H249.856V37.5455H246.458ZM249.787 22.2727C249.787 23.5 249.965 24.5758 250.322 25.5C250.678 26.4242 251.193 27.1477 251.867 27.6705C252.541 28.1856 253.367 28.4432 254.344 28.4432C255.359 28.4432 256.208 28.1742 256.89 27.6364C257.572 27.0909 258.087 26.3523 258.435 25.4205C258.791 24.4886 258.969 23.4394 258.969 22.2727C258.969 21.1212 258.795 20.0871 258.447 19.1705C258.106 18.2538 257.59 17.5303 256.901 17C256.219 16.4697 255.367 16.2045 254.344 16.2045C253.359 16.2045 252.526 16.4583 251.844 16.9659C251.17 17.4735 250.659 18.1818 250.31 19.0909C249.962 20 249.787 21.0606 249.787 22.2727ZM273.731 31.3523C272.011 31.3523 270.53 30.9848 269.287 30.25C268.053 29.5076 267.098 28.4659 266.424 27.125C265.757 25.7765 265.424 24.197 265.424 22.3864C265.424 20.5985 265.757 19.0227 266.424 17.6591C267.098 16.2955 268.037 15.2311 269.242 14.4659C270.454 13.7008 271.871 13.3182 273.492 13.3182C274.477 13.3182 275.431 13.4811 276.356 13.8068C277.28 14.1326 278.109 14.6439 278.844 15.3409C279.579 16.0379 280.159 16.9432 280.583 18.0568C281.007 19.1629 281.219 20.5076 281.219 22.0909V23.2955H267.344V20.75H277.89C277.89 19.8561 277.708 19.0644 277.344 18.375C276.981 17.678 276.469 17.1288 275.81 16.7273C275.159 16.3258 274.394 16.125 273.515 16.125C272.56 16.125 271.727 16.3598 271.015 16.8295C270.31 17.2917 269.765 17.8977 269.378 18.6477C269 19.3902 268.81 20.197 268.81 21.0682V23.0568C268.81 24.2235 269.015 25.2159 269.424 26.0341C269.84 26.8523 270.42 27.4773 271.162 27.9091C271.905 28.3333 272.772 28.5455 273.765 28.5455C274.409 28.5455 274.996 28.4545 275.526 28.2727C276.056 28.0833 276.515 27.803 276.901 27.4318C277.287 27.0606 277.583 26.6023 277.787 26.0568L281.003 26.6364C280.746 27.5833 280.284 28.4129 279.617 29.125C278.958 29.8295 278.128 30.3788 277.128 30.7727C276.136 31.1591 275.003 31.3523 273.731 31.3523ZM284.989 31V13.5455H288.273V16.3182H288.455C288.773 15.3788 289.334 14.6402 290.137 14.1023C290.948 13.5568 291.864 13.2841 292.887 13.2841C293.099 13.2841 293.349 13.2917 293.637 13.3068C293.932 13.322 294.163 13.3409 294.33 13.3636V16.6136C294.194 16.5758 293.951 16.5341 293.603 16.4886C293.254 16.4356 292.906 16.4091 292.557 16.4091C291.754 16.4091 291.038 16.5795 290.41 16.9205C289.788 17.2538 289.296 17.7197 288.932 18.3182C288.569 18.9091 288.387 19.5833 288.387 20.3409V31H284.989ZM320.671 13.5455L314.341 31H310.705L304.364 13.5455H308.012L312.432 26.9773H312.614L317.023 13.5455H320.671ZM323.819 31V28.4545L331.694 20.2955C332.535 19.4091 333.228 18.6326 333.773 17.9659C334.326 17.2917 334.739 16.6515 335.012 16.0455C335.285 15.4394 335.421 14.7955 335.421 14.1136C335.421 13.3409 335.239 12.6742 334.876 12.1136C334.512 11.5455 334.016 11.1098 333.387 10.8068C332.758 10.4962 332.05 10.3409 331.262 10.3409C330.429 10.3409 329.701 10.5114 329.08 10.8523C328.459 11.1932 327.982 11.6742 327.648 12.2955C327.315 12.9167 327.148 13.6439 327.148 14.4773H323.796C323.796 13.0606 324.122 11.822 324.773 10.7614C325.425 9.70076 326.319 8.87879 327.455 8.29545C328.591 7.70454 329.883 7.40909 331.33 7.40909C332.792 7.40909 334.08 7.70076 335.194 8.28409C336.315 8.85985 337.19 9.64773 337.819 10.6477C338.448 11.6402 338.762 12.7614 338.762 14.0114C338.762 14.875 338.599 15.7197 338.273 16.5455C337.955 17.3712 337.398 18.2917 336.603 19.3068C335.807 20.3144 334.701 21.5379 333.285 22.9773L328.66 27.8182V27.9886H339.137V31H323.819ZM93.2136 65.7273C92.2969 65.7273 91.4598 65.5038 90.7022 65.0568C89.9447 64.6023 89.3386 63.9962 88.8841 63.2386C88.4371 62.4811 88.2136 61.6439 88.2136 60.7273C88.2136 59.803 88.4371 58.9659 88.8841 58.2159C89.3386 57.4583 89.9447 56.8561 90.7022 56.4091C91.4598 55.9545 92.2969 55.7273 93.2136 55.7273C94.1378 55.7273 94.975 55.9545 95.725 56.4091C96.4825 56.8561 97.0848 57.4583 97.5318 58.2159C97.9863 58.9659 98.2136 59.803 98.2136 60.7273C98.2136 61.6439 97.9863 62.4811 97.5318 63.2386C97.0848 63.9962 96.4825 64.6023 95.725 65.0568C94.975 65.5038 94.1378 65.7273 93.2136 65.7273ZM138.546 46.7273V70H135.319L123.489 52.9318H123.273V70H119.762V46.7273H123.012L134.853 63.8182H135.069V46.7273H138.546ZM150.748 70.3523C149.111 70.3523 147.683 69.9773 146.464 69.2273C145.244 68.4773 144.297 67.428 143.623 66.0795C142.948 64.7311 142.611 63.1553 142.611 61.3523C142.611 59.5417 142.948 57.9583 143.623 56.6023C144.297 55.2462 145.244 54.1932 146.464 53.4432C147.683 52.6932 149.111 52.3182 150.748 52.3182C152.384 52.3182 153.812 52.6932 155.032 53.4432C156.251 54.1932 157.198 55.2462 157.873 56.6023C158.547 57.9583 158.884 59.5417 158.884 61.3523C158.884 63.1553 158.547 64.7311 157.873 66.0795C157.198 67.428 156.251 68.4773 155.032 69.2273C153.812 69.9773 152.384 70.3523 150.748 70.3523ZM150.759 67.5C151.82 67.5 152.698 67.2197 153.395 66.6591C154.092 66.0985 154.608 65.3523 154.941 64.4205C155.282 63.4886 155.452 62.4621 155.452 61.3409C155.452 60.2273 155.282 59.2045 154.941 58.2727C154.608 57.3333 154.092 56.5795 153.395 56.0114C152.698 55.4432 151.82 55.1591 150.759 55.1591C149.691 55.1591 148.805 55.4432 148.1 56.0114C147.403 56.5795 146.884 57.3333 146.543 58.2727C146.21 59.2045 146.043 60.2273 146.043 61.3409C146.043 62.4621 146.21 63.4886 146.543 64.4205C146.884 65.3523 147.403 66.0985 148.1 66.6591C148.805 67.2197 149.691 67.5 150.759 67.5ZM166.074 59.6364V70H162.677V52.5455H165.938V55.3864H166.154C166.555 54.4621 167.184 53.7197 168.04 53.1591C168.904 52.5985 169.991 52.3182 171.302 52.3182C172.491 52.3182 173.533 52.5682 174.427 53.0682C175.321 53.5606 176.014 54.2955 176.506 55.2727C176.999 56.25 177.245 57.4583 177.245 58.8977V70H173.847V59.3068C173.847 58.0417 173.518 57.053 172.858 56.3409C172.199 55.6212 171.294 55.2614 170.143 55.2614C169.355 55.2614 168.654 55.4318 168.04 55.7727C167.434 56.1136 166.953 56.6136 166.597 57.2727C166.249 57.9242 166.074 58.7121 166.074 59.6364ZM192.086 58.6932V61.6364H181.768V58.6932H192.086ZM216.216 54.2955H212.671C212.535 53.5379 212.281 52.8712 211.91 52.2955C211.538 51.7197 211.084 51.2311 210.546 50.8295C210.008 50.428 209.406 50.125 208.739 49.9205C208.08 49.7159 207.379 49.6136 206.637 49.6136C205.296 49.6136 204.095 49.9508 203.035 50.625C201.982 51.2992 201.148 52.2879 200.535 53.5909C199.929 54.8939 199.626 56.4848 199.626 58.3636C199.626 60.2576 199.929 61.8561 200.535 63.1591C201.148 64.4621 201.985 65.447 203.046 66.1136C204.107 66.7803 205.3 67.1136 206.626 67.1136C207.36 67.1136 208.057 67.0152 208.716 66.8182C209.383 66.6136 209.985 66.3144 210.523 65.9205C211.061 65.5265 211.516 65.0455 211.887 64.4773C212.266 63.9015 212.527 63.2424 212.671 62.5L216.216 62.5114C216.027 63.6553 215.66 64.7083 215.114 65.6705C214.576 66.625 213.883 67.4508 213.035 68.1477C212.194 68.8371 211.232 69.3712 210.148 69.75C209.065 70.1288 207.883 70.3182 206.603 70.3182C204.588 70.3182 202.792 69.8409 201.216 68.8864C199.641 67.9242 198.398 66.5492 197.489 64.7614C196.588 62.9735 196.137 60.8409 196.137 58.3636C196.137 55.8788 196.591 53.7462 197.501 51.9659C198.41 50.178 199.652 48.8068 201.228 47.8523C202.804 46.8902 204.595 46.4091 206.603 46.4091C207.838 46.4091 208.989 46.5871 210.057 46.9432C211.133 47.2917 212.099 47.8068 212.955 48.4886C213.811 49.1629 214.519 49.9886 215.08 50.9659C215.641 51.9356 216.019 53.0455 216.216 54.2955ZM231.202 62.7614V52.5455H234.611V70H231.27V66.9773H231.089C230.687 67.9091 230.043 68.6856 229.157 69.3068C228.278 69.9205 227.183 70.2273 225.873 70.2273C224.751 70.2273 223.759 69.9811 222.895 69.4886C222.039 68.9886 221.365 68.25 220.873 67.2727C220.388 66.2955 220.145 65.0871 220.145 63.6477V52.5455H223.543V63.2386C223.543 64.428 223.873 65.375 224.532 66.0795C225.191 66.7841 226.047 67.1364 227.1 67.1364C227.736 67.1364 228.369 66.9773 228.998 66.6591C229.634 66.3409 230.161 65.8598 230.577 65.2159C231.001 64.572 231.21 63.7538 231.202 62.7614ZM252.256 56.8068L249.177 57.3523C249.048 56.9583 248.843 56.5833 248.563 56.2273C248.29 55.8712 247.919 55.5795 247.449 55.3523C246.98 55.125 246.393 55.0114 245.688 55.0114C244.726 55.0114 243.923 55.2273 243.279 55.6591C242.635 56.0833 242.313 56.6326 242.313 57.3068C242.313 57.8902 242.529 58.3598 242.961 58.7159C243.393 59.072 244.09 59.3636 245.052 59.5909L247.824 60.2273C249.43 60.5985 250.627 61.1705 251.415 61.9432C252.203 62.7159 252.597 63.7197 252.597 64.9545C252.597 66 252.294 66.9318 251.688 67.75C251.09 68.5606 250.252 69.197 249.177 69.6591C248.108 70.1212 246.87 70.3523 245.461 70.3523C243.506 70.3523 241.912 69.9356 240.677 69.1023C239.442 68.2614 238.684 67.0682 238.404 65.5227L241.688 65.0227C241.893 65.8788 242.313 66.5265 242.949 66.9659C243.586 67.3977 244.415 67.6136 245.438 67.6136C246.552 67.6136 247.442 67.3826 248.108 66.9205C248.775 66.4508 249.108 65.8788 249.108 65.2045C249.108 64.6591 248.904 64.2008 248.495 63.8295C248.093 63.4583 247.476 63.178 246.643 62.9886L243.688 62.3409C242.059 61.9697 240.855 61.3788 240.074 60.5682C239.302 59.7576 238.915 58.7311 238.915 57.4886C238.915 56.4583 239.203 55.5568 239.779 54.7841C240.355 54.0114 241.15 53.4091 242.165 52.9773C243.18 52.5379 244.343 52.3182 245.654 52.3182C247.54 52.3182 249.025 52.7273 250.108 53.5455C251.192 54.3561 251.908 55.4432 252.256 56.8068ZM264.481 52.5455V55.2727H254.947V52.5455H264.481ZM257.503 48.3636H260.901V64.875C260.901 65.5341 261 66.0303 261.197 66.3636C261.394 66.6894 261.647 66.9129 261.958 67.0341C262.276 67.1477 262.621 67.2045 262.992 67.2045C263.265 67.2045 263.503 67.1856 263.708 67.1477C263.912 67.1098 264.072 67.0795 264.185 67.0568L264.799 69.8636C264.602 69.9394 264.322 70.0152 263.958 70.0909C263.594 70.1742 263.14 70.2197 262.594 70.2273C261.7 70.2424 260.867 70.0833 260.094 69.75C259.322 69.4167 258.697 68.9015 258.219 68.2045C257.742 67.5076 257.503 66.6326 257.503 65.5795V48.3636ZM275.404 70.3523C273.768 70.3523 272.34 69.9773 271.12 69.2273C269.9 68.4773 268.953 67.428 268.279 66.0795C267.605 64.7311 267.268 63.1553 267.268 61.3523C267.268 59.5417 267.605 57.9583 268.279 56.6023C268.953 55.2462 269.9 54.1932 271.12 53.4432C272.34 52.6932 273.768 52.3182 275.404 52.3182C277.04 52.3182 278.468 52.6932 279.688 53.4432C280.908 54.1932 281.855 55.2462 282.529 56.6023C283.203 57.9583 283.54 59.5417 283.54 61.3523C283.54 63.1553 283.203 64.7311 282.529 66.0795C281.855 67.428 280.908 68.4773 279.688 69.2273C278.468 69.9773 277.04 70.3523 275.404 70.3523ZM275.415 67.5C276.476 67.5 277.355 67.2197 278.052 66.6591C278.749 66.0985 279.264 65.3523 279.597 64.4205C279.938 63.4886 280.108 62.4621 280.108 61.3409C280.108 60.2273 279.938 59.2045 279.597 58.2727C279.264 57.3333 278.749 56.5795 278.052 56.0114C277.355 55.4432 276.476 55.1591 275.415 55.1591C274.347 55.1591 273.461 55.4432 272.756 56.0114C272.059 56.5795 271.54 57.3333 271.199 58.2727C270.866 59.2045 270.699 60.2273 270.699 61.3409C270.699 62.4621 270.866 63.4886 271.199 64.4205C271.54 65.3523 272.059 66.0985 272.756 66.6591C273.461 67.2197 274.347 67.5 275.415 67.5ZM293.867 70.3409C292.458 70.3409 291.2 69.9811 290.094 69.2614C288.996 68.5341 288.132 67.5 287.503 66.1591C286.882 64.8106 286.572 63.1932 286.572 61.3068C286.572 59.4205 286.886 57.8068 287.515 56.4659C288.151 55.125 289.022 54.0985 290.128 53.3864C291.234 52.6742 292.488 52.3182 293.89 52.3182C294.973 52.3182 295.844 52.5 296.503 52.8636C297.17 53.2197 297.685 53.6364 298.049 54.1136C298.42 54.5909 298.708 55.0114 298.912 55.375H299.117V46.7273H302.515V70H299.197V67.2841H298.912C298.708 67.6553 298.412 68.0795 298.026 68.5568C297.647 69.0341 297.125 69.4508 296.458 69.8068C295.791 70.1629 294.928 70.3409 293.867 70.3409ZM294.617 67.4432C295.594 67.4432 296.42 67.1856 297.094 66.6705C297.776 66.1477 298.291 65.4242 298.64 64.5C298.996 63.5758 299.174 62.5 299.174 61.2727C299.174 60.0606 299 59 298.651 58.0909C298.303 57.1818 297.791 56.4735 297.117 55.9659C296.443 55.4583 295.609 55.2045 294.617 55.2045C293.594 55.2045 292.742 55.4697 292.06 56C291.378 56.5303 290.863 57.2538 290.515 58.1705C290.174 59.0871 290.003 60.1212 290.003 61.2727C290.003 62.4394 290.178 63.4886 290.526 64.4205C290.875 65.3523 291.39 66.0909 292.072 66.6364C292.761 67.1742 293.609 67.4432 294.617 67.4432ZM307.364 70V52.5455H310.762V70H307.364ZM309.08 49.8523C308.489 49.8523 307.982 49.6553 307.557 49.2614C307.141 48.8598 306.932 48.3826 306.932 47.8295C306.932 47.2689 307.141 46.7917 307.557 46.3977C307.982 45.9962 308.489 45.7955 309.08 45.7955C309.671 45.7955 310.175 45.9962 310.591 46.3977C311.016 46.7917 311.228 47.2689 311.228 47.8295C311.228 48.3826 311.016 48.8598 310.591 49.2614C310.175 49.6553 309.671 49.8523 309.08 49.8523ZM320.412 70.3864C319.306 70.3864 318.306 70.1818 317.412 69.7727C316.519 69.3561 315.81 68.7538 315.287 67.9659C314.772 67.178 314.515 66.2121 314.515 65.0682C314.515 64.0833 314.704 63.2727 315.083 62.6364C315.462 62 315.973 61.4962 316.617 61.125C317.261 60.7538 317.981 60.4735 318.776 60.2841C319.572 60.0947 320.382 59.9508 321.208 59.8523C322.253 59.7311 323.102 59.6326 323.753 59.5568C324.405 59.4735 324.878 59.3409 325.174 59.1591C325.469 58.9773 325.617 58.6818 325.617 58.2727V58.1932C325.617 57.2008 325.337 56.4318 324.776 55.8864C324.223 55.3409 323.397 55.0682 322.299 55.0682C321.155 55.0682 320.253 55.322 319.594 55.8295C318.943 56.3295 318.492 56.8864 318.242 57.5L315.049 56.7727C315.428 55.7121 315.981 54.8561 316.708 54.2045C317.443 53.5455 318.287 53.0682 319.242 52.7727C320.197 52.4697 321.2 52.3182 322.253 52.3182C322.95 52.3182 323.689 52.4015 324.469 52.5682C325.257 52.7273 325.992 53.0227 326.674 53.4545C327.363 53.8864 327.928 54.5038 328.367 55.3068C328.806 56.1023 329.026 57.1364 329.026 58.4091V70H325.708V67.6136H325.572C325.352 68.053 325.022 68.4848 324.583 68.9091C324.144 69.3333 323.579 69.6856 322.89 69.9659C322.2 70.2462 321.375 70.3864 320.412 70.3864ZM321.151 67.6591C322.09 67.6591 322.894 67.4735 323.56 67.1023C324.234 66.7311 324.746 66.2462 325.094 65.6477C325.45 65.0417 325.628 64.3939 325.628 63.7045V61.4545C325.507 61.5758 325.272 61.6894 324.924 61.7955C324.583 61.8939 324.193 61.9811 323.753 62.0568C323.314 62.125 322.886 62.1894 322.469 62.25C322.053 62.303 321.704 62.3485 321.424 62.3864C320.765 62.4697 320.162 62.6098 319.617 62.8068C319.079 63.0038 318.647 63.2879 318.322 63.6591C318.003 64.0227 317.844 64.5076 317.844 65.1136C317.844 65.9545 318.155 66.5909 318.776 67.0227C319.397 67.447 320.189 67.6591 321.151 67.6591ZM336.949 59.6364V70H333.552V52.5455H336.813V55.3864H337.029C337.43 54.4621 338.059 53.7197 338.915 53.1591C339.779 52.5985 340.866 52.3182 342.177 52.3182C343.366 52.3182 344.408 52.5682 345.302 53.0682C346.196 53.5606 346.889 54.2955 347.381 55.2727C347.874 56.25 348.12 57.4583 348.12 58.8977V70H344.722V59.3068C344.722 58.0417 344.393 57.053 343.733 56.3409C343.074 55.6212 342.169 55.2614 341.018 55.2614C340.23 55.2614 339.529 55.4318 338.915 55.7727C338.309 56.1136 337.828 56.6136 337.472 57.2727C337.124 57.9242 336.949 58.7121 336.949 59.6364ZM368.952 70H361.418V46.7273H369.191C371.471 46.7273 373.43 47.1932 375.066 48.125C376.702 49.0492 377.956 50.3788 378.827 52.1136C379.706 53.8409 380.145 55.9129 380.145 58.3295C380.145 60.7538 379.702 62.8371 378.816 64.5795C377.937 66.322 376.664 67.6629 374.998 68.6023C373.331 69.5341 371.316 70 368.952 70ZM364.93 66.9318H368.759C370.532 66.9318 372.005 66.5985 373.18 65.9318C374.354 65.2576 375.233 64.2841 375.816 63.0114C376.399 61.7311 376.691 60.1705 376.691 58.3295C376.691 56.5038 376.399 54.9545 375.816 53.6818C375.24 52.4091 374.38 51.4432 373.236 50.7841C372.092 50.125 370.672 49.7955 368.975 49.7955H364.93V66.9318ZM391.762 70.3523C390.042 70.3523 388.561 69.9848 387.319 69.25C386.084 68.5076 385.129 67.4659 384.455 66.125C383.788 64.7765 383.455 63.197 383.455 61.3864C383.455 59.5985 383.788 58.0227 384.455 56.6591C385.129 55.2955 386.069 54.2311 387.273 53.4659C388.485 52.7008 389.902 52.3182 391.523 52.3182C392.508 52.3182 393.463 52.4811 394.387 52.8068C395.311 53.1326 396.141 53.6439 396.876 54.3409C397.61 55.0379 398.19 55.9432 398.614 57.0568C399.038 58.1629 399.251 59.5076 399.251 61.0909V62.2955H385.376V59.75H395.921C395.921 58.8561 395.739 58.0644 395.376 57.375C395.012 56.678 394.501 56.1288 393.841 55.7273C393.19 55.3258 392.425 55.125 391.546 55.125C390.591 55.125 389.758 55.3598 389.046 55.8295C388.341 56.2917 387.796 56.8977 387.41 57.6477C387.031 58.3902 386.841 59.197 386.841 60.0682V62.0568C386.841 63.2235 387.046 64.2159 387.455 65.0341C387.872 65.8523 388.451 66.4773 389.194 66.9091C389.936 67.3333 390.804 67.5455 391.796 67.5455C392.44 67.5455 393.027 67.4545 393.557 67.2727C394.088 67.0833 394.546 66.803 394.932 66.4318C395.319 66.0606 395.614 65.6023 395.819 65.0568L399.035 65.6364C398.777 66.5833 398.315 67.4129 397.648 68.125C396.989 68.8295 396.16 69.3788 395.16 69.7727C394.167 70.1591 393.035 70.3523 391.762 70.3523ZM410.373 70.3523C408.683 70.3523 407.229 69.9697 406.009 69.2045C404.797 68.4318 403.865 67.3674 403.214 66.0114C402.562 64.6553 402.236 63.1023 402.236 61.3523C402.236 59.5795 402.57 58.0152 403.236 56.6591C403.903 55.2955 404.842 54.2311 406.055 53.4659C407.267 52.7008 408.695 52.3182 410.339 52.3182C411.664 52.3182 412.846 52.5644 413.884 53.0568C414.922 53.5417 415.759 54.2235 416.395 55.1023C417.039 55.9811 417.422 57.0076 417.543 58.1818H414.236C414.055 57.3636 413.638 56.6591 412.986 56.0682C412.342 55.4773 411.479 55.1818 410.395 55.1818C409.448 55.1818 408.619 55.4318 407.907 55.9318C407.202 56.4242 406.653 57.1288 406.259 58.0455C405.865 58.9545 405.668 60.0303 405.668 61.2727C405.668 62.5455 405.861 63.6439 406.248 64.5682C406.634 65.4924 407.18 66.2083 407.884 66.7159C408.596 67.2235 409.433 67.4773 410.395 67.4773C411.039 67.4773 411.623 67.3598 412.145 67.125C412.676 66.8826 413.119 66.5379 413.475 66.0909C413.839 65.6439 414.092 65.1061 414.236 64.4773H417.543C417.422 65.6061 417.055 66.6136 416.441 67.5C415.827 68.3864 415.005 69.0833 413.975 69.5909C412.952 70.0985 411.751 70.3523 410.373 70.3523ZM428.699 70.3523C426.98 70.3523 425.499 69.9848 424.256 69.25C423.021 68.5076 422.067 67.4659 421.393 66.125C420.726 64.7765 420.393 63.197 420.393 61.3864C420.393 59.5985 420.726 58.0227 421.393 56.6591C422.067 55.2955 423.006 54.2311 424.211 53.4659C425.423 52.7008 426.84 52.3182 428.461 52.3182C429.446 52.3182 430.4 52.4811 431.324 52.8068C432.249 53.1326 433.078 53.6439 433.813 54.3409C434.548 55.0379 435.127 55.9432 435.552 57.0568C435.976 58.1629 436.188 59.5076 436.188 61.0909V62.2955H422.313V59.75H432.858C432.858 58.8561 432.677 58.0644 432.313 57.375C431.949 56.678 431.438 56.1288 430.779 55.7273C430.127 55.3258 429.362 55.125 428.483 55.125C427.529 55.125 426.696 55.3598 425.983 55.8295C425.279 56.2917 424.733 56.8977 424.347 57.6477C423.968 58.3902 423.779 59.197 423.779 60.0682V62.0568C423.779 63.2235 423.983 64.2159 424.393 65.0341C424.809 65.8523 425.389 66.4773 426.131 66.9091C426.874 67.3333 427.741 67.5455 428.733 67.5455C429.377 67.5455 429.965 67.4545 430.495 67.2727C431.025 67.0833 431.483 66.803 431.87 66.4318C432.256 66.0606 432.552 65.6023 432.756 65.0568L435.972 65.6364C435.715 66.5833 435.252 67.4129 434.586 68.125C433.927 68.8295 433.097 69.3788 432.097 69.7727C431.105 70.1591 429.972 70.3523 428.699 70.3523ZM443.356 59.6364V70H439.958V52.5455H443.219V55.3864H443.435C443.837 54.4621 444.465 53.7197 445.322 53.1591C446.185 52.5985 447.272 52.3182 448.583 52.3182C449.772 52.3182 450.814 52.5682 451.708 53.0682C452.602 53.5606 453.295 54.2955 453.787 55.2727C454.28 56.25 454.526 57.4583 454.526 58.8977V70H451.128V59.3068C451.128 58.0417 450.799 57.053 450.14 56.3409C449.481 55.6212 448.575 55.2614 447.424 55.2614C446.636 55.2614 445.935 55.4318 445.322 55.7727C444.715 56.1136 444.234 56.6136 443.878 57.2727C443.53 57.9242 443.356 58.7121 443.356 59.6364ZM467.231 52.5455V55.2727H457.697V52.5455H467.231ZM460.253 48.3636H463.651V64.875C463.651 65.5341 463.75 66.0303 463.947 66.3636C464.144 66.6894 464.397 66.9129 464.708 67.0341C465.026 67.1477 465.371 67.2045 465.742 67.2045C466.015 67.2045 466.253 67.1856 466.458 67.1477C466.662 67.1098 466.822 67.0795 466.935 67.0568L467.549 69.8636C467.352 69.9394 467.072 70.0152 466.708 70.0909C466.344 70.1742 465.89 70.2197 465.344 70.2273C464.45 70.2424 463.617 70.0833 462.844 69.75C462.072 69.4167 461.447 68.9015 460.969 68.2045C460.492 67.5076 460.253 66.6326 460.253 65.5795V48.3636ZM470.989 70V52.5455H474.273V55.3182H474.455C474.773 54.3788 475.334 53.6402 476.137 53.1023C476.948 52.5568 477.864 52.2841 478.887 52.2841C479.099 52.2841 479.349 52.2917 479.637 52.3068C479.932 52.322 480.163 52.3409 480.33 52.3636V55.6136C480.194 55.5758 479.951 55.5341 479.603 55.4886C479.254 55.4356 478.906 55.4091 478.557 55.4091C477.754 55.4091 477.038 55.5795 476.41 55.9205C475.788 56.2538 475.296 56.7197 474.932 57.3182C474.569 57.9091 474.387 58.5833 474.387 59.3409V70H470.989ZM488.194 70.3864C487.088 70.3864 486.088 70.1818 485.194 69.7727C484.3 69.3561 483.591 68.7538 483.069 67.9659C482.554 67.178 482.296 66.2121 482.296 65.0682C482.296 64.0833 482.485 63.2727 482.864 62.6364C483.243 62 483.754 61.4962 484.398 61.125C485.042 60.7538 485.762 60.4735 486.557 60.2841C487.353 60.0947 488.163 59.9508 488.989 59.8523C490.035 59.7311 490.883 59.6326 491.535 59.5568C492.186 59.4735 492.66 59.3409 492.955 59.1591C493.251 58.9773 493.398 58.6818 493.398 58.2727V58.1932C493.398 57.2008 493.118 56.4318 492.557 55.8864C492.004 55.3409 491.179 55.0682 490.08 55.0682C488.936 55.0682 488.035 55.322 487.376 55.8295C486.724 56.3295 486.273 56.8864 486.023 57.5L482.83 56.7727C483.209 55.7121 483.762 54.8561 484.489 54.2045C485.224 53.5455 486.069 53.0682 487.023 52.7727C487.978 52.4697 488.982 52.3182 490.035 52.3182C490.732 52.3182 491.47 52.4015 492.251 52.5682C493.038 52.7273 493.773 53.0227 494.455 53.4545C495.144 53.8864 495.709 54.5038 496.148 55.3068C496.588 56.1023 496.807 57.1364 496.807 58.4091V70H493.489V67.6136H493.353C493.133 68.053 492.804 68.4848 492.364 68.9091C491.925 69.3333 491.36 69.6856 490.671 69.9659C489.982 70.2462 489.156 70.3864 488.194 70.3864ZM488.932 67.6591C489.872 67.6591 490.675 67.4735 491.341 67.1023C492.016 66.7311 492.527 66.2462 492.876 65.6477C493.232 65.0417 493.41 64.3939 493.41 63.7045V61.4545C493.288 61.5758 493.054 61.6894 492.705 61.7955C492.364 61.8939 491.974 61.9811 491.535 62.0568C491.095 62.125 490.667 62.1894 490.251 62.25C489.834 62.303 489.485 62.3485 489.205 62.3864C488.546 62.4697 487.944 62.6098 487.398 62.8068C486.86 63.0038 486.429 63.2879 486.103 63.6591C485.785 64.0227 485.626 64.5076 485.626 65.1136C485.626 65.9545 485.936 66.5909 486.557 67.0227C487.179 67.447 487.97 67.6591 488.932 67.6591ZM504.731 46.7273V70H501.333V46.7273H504.731ZM509.302 70V52.5455H512.699V70H509.302ZM511.018 49.8523C510.427 49.8523 509.919 49.6553 509.495 49.2614C509.078 48.8598 508.87 48.3826 508.87 47.8295C508.87 47.2689 509.078 46.7917 509.495 46.3977C509.919 45.9962 510.427 45.7955 511.018 45.7955C511.608 45.7955 512.112 45.9962 512.529 46.3977C512.953 46.7917 513.165 47.2689 513.165 47.8295C513.165 48.3826 512.953 48.8598 512.529 49.2614C512.112 49.6553 511.608 49.8523 511.018 49.8523ZM530.35 56.8068L527.27 57.3523C527.142 56.9583 526.937 56.5833 526.657 56.2273C526.384 55.8712 526.013 55.5795 525.543 55.3523C525.073 55.125 524.486 55.0114 523.782 55.0114C522.82 55.0114 522.017 55.2273 521.373 55.6591C520.729 56.0833 520.407 56.6326 520.407 57.3068C520.407 57.8902 520.623 58.3598 521.055 58.7159C521.486 59.072 522.183 59.3636 523.145 59.5909L525.918 60.2273C527.524 60.5985 528.721 61.1705 529.509 61.9432C530.297 62.7159 530.691 63.7197 530.691 64.9545C530.691 66 530.388 66.9318 529.782 67.75C529.183 68.5606 528.346 69.197 527.27 69.6591C526.202 70.1212 524.964 70.3523 523.555 70.3523C521.6 70.3523 520.005 69.9356 518.77 69.1023C517.536 68.2614 516.778 67.0682 516.498 65.5227L519.782 65.0227C519.986 65.8788 520.407 66.5265 521.043 66.9659C521.68 67.3977 522.509 67.6136 523.532 67.6136C524.645 67.6136 525.536 67.3826 526.202 66.9205C526.869 66.4508 527.202 65.8788 527.202 65.2045C527.202 64.6591 526.998 64.2008 526.589 63.8295C526.187 63.4583 525.57 63.178 524.736 62.9886L521.782 62.3409C520.153 61.9697 518.948 61.3788 518.168 60.5682C517.395 59.7576 517.009 58.7311 517.009 57.4886C517.009 56.4583 517.297 55.5568 517.873 54.7841C518.448 54.0114 519.244 53.4091 520.259 52.9773C521.274 52.5379 522.437 52.3182 523.748 52.3182C525.634 52.3182 527.119 52.7273 528.202 53.5455C529.286 54.3561 530.001 55.4432 530.35 56.8068ZM541.949 70.3523C540.23 70.3523 538.749 69.9848 537.506 69.25C536.271 68.5076 535.317 67.4659 534.643 66.125C533.976 64.7765 533.643 63.197 533.643 61.3864C533.643 59.5985 533.976 58.0227 534.643 56.6591C535.317 55.2955 536.256 54.2311 537.461 53.4659C538.673 52.7008 540.09 52.3182 541.711 52.3182C542.696 52.3182 543.65 52.4811 544.574 52.8068C545.499 53.1326 546.328 53.6439 547.063 54.3409C547.798 55.0379 548.377 55.9432 548.802 57.0568C549.226 58.1629 549.438 59.5076 549.438 61.0909V62.2955H535.563V59.75H546.108C546.108 58.8561 545.927 58.0644 545.563 57.375C545.199 56.678 544.688 56.1288 544.029 55.7273C543.377 55.3258 542.612 55.125 541.733 55.125C540.779 55.125 539.946 55.3598 539.233 55.8295C538.529 56.2917 537.983 56.8977 537.597 57.6477C537.218 58.3902 537.029 59.197 537.029 60.0682V62.0568C537.029 63.2235 537.233 64.2159 537.643 65.0341C538.059 65.8523 538.639 66.4773 539.381 66.9091C540.124 67.3333 540.991 67.5455 541.983 67.5455C542.627 67.5455 543.215 67.4545 543.745 67.2727C544.275 67.0833 544.733 66.803 545.12 66.4318C545.506 66.0606 545.802 65.6023 546.006 65.0568L549.222 65.6364C548.965 66.5833 548.502 67.4129 547.836 68.125C547.177 68.8295 546.347 69.3788 545.347 69.7727C544.355 70.1591 543.222 70.3523 541.949 70.3523ZM559.742 70.3409C558.333 70.3409 557.075 69.9811 555.969 69.2614C554.871 68.5341 554.007 67.5 553.378 66.1591C552.757 64.8106 552.447 63.1932 552.447 61.3068C552.447 59.4205 552.761 57.8068 553.39 56.4659C554.026 55.125 554.897 54.0985 556.003 53.3864C557.109 52.6742 558.363 52.3182 559.765 52.3182C560.848 52.3182 561.719 52.5 562.378 52.8636C563.045 53.2197 563.56 53.6364 563.924 54.1136C564.295 54.5909 564.583 55.0114 564.787 55.375H564.992V46.7273H568.39V70H565.072V67.2841H564.787C564.583 67.6553 564.287 68.0795 563.901 68.5568C563.522 69.0341 563 69.4508 562.333 69.8068C561.666 70.1629 560.803 70.3409 559.742 70.3409ZM560.492 67.4432C561.469 67.4432 562.295 67.1856 562.969 66.6705C563.651 66.1477 564.166 65.4242 564.515 64.5C564.871 63.5758 565.049 62.5 565.049 61.2727C565.049 60.0606 564.875 59 564.526 58.0909C564.178 57.1818 563.666 56.4735 562.992 55.9659C562.318 55.4583 561.484 55.2045 560.492 55.2045C559.469 55.2045 558.617 55.4697 557.935 56C557.253 56.5303 556.738 57.2538 556.39 58.1705C556.049 59.0871 555.878 60.1212 555.878 61.2727C555.878 62.4394 556.053 63.4886 556.401 64.4205C556.75 65.3523 557.265 66.0909 557.947 66.6364C558.636 67.1742 559.484 67.4432 560.492 67.4432ZM124.319 109L117.864 85.7273H121.557L126.091 103.75H126.307L131.023 85.7273H134.682L139.398 103.761H139.614L144.137 85.7273H147.841L141.376 109H137.841L132.944 91.5682H132.762L127.864 109H124.319ZM154.131 109.386C153.025 109.386 152.025 109.182 151.131 108.773C150.237 108.356 149.529 107.754 149.006 106.966C148.491 106.178 148.233 105.212 148.233 104.068C148.233 103.083 148.423 102.273 148.802 101.636C149.18 101 149.692 100.496 150.336 100.125C150.98 99.7538 151.699 99.4735 152.495 99.2841C153.29 99.0947 154.101 98.9508 154.927 98.8523C155.972 98.7311 156.821 98.6326 157.472 98.5568C158.124 98.4735 158.597 98.3409 158.893 98.1591C159.188 97.9773 159.336 97.6818 159.336 97.2727V97.1932C159.336 96.2008 159.055 95.4318 158.495 94.8864C157.942 94.3409 157.116 94.0682 156.018 94.0682C154.874 94.0682 153.972 94.322 153.313 94.8295C152.662 95.3295 152.211 95.8864 151.961 96.5L148.768 95.7727C149.146 94.7121 149.699 93.8561 150.427 93.2045C151.162 92.5455 152.006 92.0682 152.961 91.7727C153.915 91.4697 154.919 91.3182 155.972 91.3182C156.669 91.3182 157.408 91.4015 158.188 91.5682C158.976 91.7273 159.711 92.0227 160.393 92.4545C161.082 92.8864 161.646 93.5038 162.086 94.3068C162.525 95.1023 162.745 96.1364 162.745 97.4091V109H159.427V106.614H159.29C159.071 107.053 158.741 107.485 158.302 107.909C157.862 108.333 157.298 108.686 156.608 108.966C155.919 109.246 155.093 109.386 154.131 109.386ZM154.87 106.659C155.809 106.659 156.612 106.473 157.279 106.102C157.953 105.731 158.465 105.246 158.813 104.648C159.169 104.042 159.347 103.394 159.347 102.705V100.455C159.226 100.576 158.991 100.689 158.643 100.795C158.302 100.894 157.912 100.981 157.472 101.057C157.033 101.125 156.605 101.189 156.188 101.25C155.771 101.303 155.423 101.348 155.143 101.386C154.483 101.47 153.881 101.61 153.336 101.807C152.798 102.004 152.366 102.288 152.04 102.659C151.722 103.023 151.563 103.508 151.563 104.114C151.563 104.955 151.874 105.591 152.495 106.023C153.116 106.447 153.908 106.659 154.87 106.659ZM170.668 85.7273V109H167.27V85.7273H170.668ZM178.637 85.7273V109H175.239V85.7273H178.637ZM190.731 109.352C189.011 109.352 187.53 108.985 186.287 108.25C185.053 107.508 184.098 106.466 183.424 105.125C182.757 103.777 182.424 102.197 182.424 100.386C182.424 98.5985 182.757 97.0227 183.424 95.6591C184.098 94.2955 185.037 93.2311 186.242 92.4659C187.454 91.7008 188.871 91.3182 190.492 91.3182C191.477 91.3182 192.431 91.4811 193.356 91.8068C194.28 92.1326 195.109 92.6439 195.844 93.3409C196.579 94.0379 197.159 94.9432 197.583 96.0568C198.007 97.1629 198.219 98.5076 198.219 100.091V101.295H184.344V98.75H194.89C194.89 97.8561 194.708 97.0644 194.344 96.375C193.981 95.678 193.469 95.1288 192.81 94.7273C192.159 94.3258 191.394 94.125 190.515 94.125C189.56 94.125 188.727 94.3598 188.015 94.8295C187.31 95.2917 186.765 95.8977 186.378 96.6477C186 97.3902 185.81 98.197 185.81 99.0682V101.057C185.81 102.223 186.015 103.216 186.424 104.034C186.84 104.852 187.42 105.477 188.162 105.909C188.905 106.333 189.772 106.545 190.765 106.545C191.409 106.545 191.996 106.455 192.526 106.273C193.056 106.083 193.515 105.803 193.901 105.432C194.287 105.061 194.583 104.602 194.787 104.057L198.003 104.636C197.746 105.583 197.284 106.413 196.617 107.125C195.958 107.83 195.128 108.379 194.128 108.773C193.136 109.159 192.003 109.352 190.731 109.352ZM210.137 91.5455V94.2727H200.603V91.5455H210.137ZM203.16 87.3636H206.557V103.875C206.557 104.534 206.656 105.03 206.853 105.364C207.05 105.689 207.304 105.913 207.614 106.034C207.932 106.148 208.277 106.205 208.648 106.205C208.921 106.205 209.16 106.186 209.364 106.148C209.569 106.11 209.728 106.08 209.841 106.057L210.455 108.864C210.258 108.939 209.978 109.015 209.614 109.091C209.251 109.174 208.796 109.22 208.251 109.227C207.357 109.242 206.523 109.083 205.751 108.75C204.978 108.417 204.353 107.902 203.876 107.205C203.398 106.508 203.16 105.633 203.16 104.58V87.3636ZM93.2136 143.727C92.2969 143.727 91.4598 143.504 90.7022 143.057C89.9447 142.602 89.3386 141.996 88.8841 141.239C88.4371 140.481 88.2136 139.644 88.2136 138.727C88.2136 137.803 88.4371 136.966 88.8841 136.216C89.3386 135.458 89.9447 134.856 90.7022 134.409C91.4598 133.955 92.2969 133.727 93.2136 133.727C94.1378 133.727 94.975 133.955 95.725 134.409C96.4825 134.856 97.0848 135.458 97.5318 136.216C97.9863 136.966 98.2136 137.803 98.2136 138.727C98.2136 139.644 97.9863 140.481 97.5318 141.239C97.0848 141.996 96.4825 142.602 95.725 143.057C94.975 143.504 94.1378 143.727 93.2136 143.727ZM139.091 132.295H135.546C135.41 131.538 135.156 130.871 134.785 130.295C134.413 129.72 133.959 129.231 133.421 128.83C132.883 128.428 132.281 128.125 131.614 127.92C130.955 127.716 130.254 127.614 129.512 127.614C128.171 127.614 126.97 127.951 125.91 128.625C124.857 129.299 124.023 130.288 123.41 131.591C122.804 132.894 122.501 134.485 122.501 136.364C122.501 138.258 122.804 139.856 123.41 141.159C124.023 142.462 124.86 143.447 125.921 144.114C126.982 144.78 128.175 145.114 129.501 145.114C130.235 145.114 130.932 145.015 131.591 144.818C132.258 144.614 132.86 144.314 133.398 143.92C133.936 143.527 134.391 143.045 134.762 142.477C135.141 141.902 135.402 141.242 135.546 140.5L139.091 140.511C138.902 141.655 138.535 142.708 137.989 143.67C137.451 144.625 136.758 145.451 135.91 146.148C135.069 146.837 134.107 147.371 133.023 147.75C131.94 148.129 130.758 148.318 129.478 148.318C127.463 148.318 125.667 147.841 124.091 146.886C122.516 145.924 121.273 144.549 120.364 142.761C119.463 140.973 119.012 138.841 119.012 136.364C119.012 133.879 119.466 131.746 120.376 129.966C121.285 128.178 122.527 126.807 124.103 125.852C125.679 124.89 127.47 124.409 129.478 124.409C130.713 124.409 131.864 124.587 132.932 124.943C134.008 125.292 134.974 125.807 135.83 126.489C136.686 127.163 137.394 127.989 137.955 128.966C138.516 129.936 138.894 131.045 139.091 132.295ZM150.373 148.352C148.736 148.352 147.308 147.977 146.089 147.227C144.869 146.477 143.922 145.428 143.248 144.08C142.573 142.731 142.236 141.155 142.236 139.352C142.236 137.542 142.573 135.958 143.248 134.602C143.922 133.246 144.869 132.193 146.089 131.443C147.308 130.693 148.736 130.318 150.373 130.318C152.009 130.318 153.437 130.693 154.657 131.443C155.876 132.193 156.823 133.246 157.498 134.602C158.172 135.958 158.509 137.542 158.509 139.352C158.509 141.155 158.172 142.731 157.498 144.08C156.823 145.428 155.876 146.477 154.657 147.227C153.437 147.977 152.009 148.352 150.373 148.352ZM150.384 145.5C151.445 145.5 152.323 145.22 153.02 144.659C153.717 144.098 154.233 143.352 154.566 142.42C154.907 141.489 155.077 140.462 155.077 139.341C155.077 138.227 154.907 137.205 154.566 136.273C154.233 135.333 153.717 134.58 153.02 134.011C152.323 133.443 151.445 133.159 150.384 133.159C149.316 133.159 148.43 133.443 147.725 134.011C147.028 134.58 146.509 135.333 146.168 136.273C145.835 137.205 145.668 138.227 145.668 139.341C145.668 140.462 145.835 141.489 146.168 142.42C146.509 143.352 147.028 144.098 147.725 144.659C148.43 145.22 149.316 145.5 150.384 145.5ZM165.699 137.636V148H162.302V130.545H165.563V133.386H165.779C166.18 132.462 166.809 131.72 167.665 131.159C168.529 130.598 169.616 130.318 170.927 130.318C172.116 130.318 173.158 130.568 174.052 131.068C174.946 131.561 175.639 132.295 176.131 133.273C176.624 134.25 176.87 135.458 176.87 136.898V148H173.472V137.307C173.472 136.042 173.143 135.053 172.483 134.341C171.824 133.621 170.919 133.261 169.768 133.261C168.98 133.261 168.279 133.432 167.665 133.773C167.059 134.114 166.578 134.614 166.222 135.273C165.874 135.924 165.699 136.712 165.699 137.636ZM188.779 148.352C187.09 148.352 185.635 147.97 184.415 147.205C183.203 146.432 182.271 145.367 181.62 144.011C180.968 142.655 180.643 141.102 180.643 139.352C180.643 137.58 180.976 136.015 181.643 134.659C182.309 133.295 183.249 132.231 184.461 131.466C185.673 130.701 187.101 130.318 188.745 130.318C190.071 130.318 191.252 130.564 192.29 131.057C193.328 131.542 194.165 132.223 194.802 133.102C195.446 133.981 195.828 135.008 195.949 136.182H192.643C192.461 135.364 192.044 134.659 191.393 134.068C190.749 133.477 189.885 133.182 188.802 133.182C187.855 133.182 187.025 133.432 186.313 133.932C185.608 134.424 185.059 135.129 184.665 136.045C184.271 136.955 184.074 138.03 184.074 139.273C184.074 140.545 184.268 141.644 184.654 142.568C185.04 143.492 185.586 144.208 186.29 144.716C187.002 145.223 187.84 145.477 188.802 145.477C189.446 145.477 190.029 145.36 190.552 145.125C191.082 144.883 191.525 144.538 191.881 144.091C192.245 143.644 192.499 143.106 192.643 142.477H195.949C195.828 143.606 195.461 144.614 194.847 145.5C194.233 146.386 193.412 147.083 192.381 147.591C191.358 148.098 190.158 148.352 188.779 148.352ZM207.106 148.352C205.386 148.352 203.905 147.985 202.662 147.25C201.428 146.508 200.473 145.466 199.799 144.125C199.132 142.777 198.799 141.197 198.799 139.386C198.799 137.598 199.132 136.023 199.799 134.659C200.473 133.295 201.412 132.231 202.617 131.466C203.829 130.701 205.246 130.318 206.867 130.318C207.852 130.318 208.806 130.481 209.731 130.807C210.655 131.133 211.484 131.644 212.219 132.341C212.954 133.038 213.534 133.943 213.958 135.057C214.382 136.163 214.594 137.508 214.594 139.091V140.295H200.719V137.75H211.265C211.265 136.856 211.083 136.064 210.719 135.375C210.356 134.678 209.844 134.129 209.185 133.727C208.534 133.326 207.769 133.125 206.89 133.125C205.935 133.125 205.102 133.36 204.39 133.83C203.685 134.292 203.14 134.898 202.753 135.648C202.375 136.39 202.185 137.197 202.185 138.068V140.057C202.185 141.223 202.39 142.216 202.799 143.034C203.215 143.852 203.795 144.477 204.537 144.909C205.28 145.333 206.147 145.545 207.14 145.545C207.784 145.545 208.371 145.455 208.901 145.273C209.431 145.083 209.89 144.803 210.276 144.432C210.662 144.061 210.958 143.602 211.162 143.057L214.378 143.636C214.121 144.583 213.659 145.413 212.992 146.125C212.333 146.83 211.503 147.379 210.503 147.773C209.511 148.159 208.378 148.352 207.106 148.352ZM221.762 137.636V148H218.364V130.545H221.626V133.386H221.841C222.243 132.462 222.872 131.72 223.728 131.159C224.591 130.598 225.679 130.318 226.989 130.318C228.179 130.318 229.22 130.568 230.114 131.068C231.008 131.561 231.701 132.295 232.194 133.273C232.686 134.25 232.932 135.458 232.932 136.898V148H229.535V137.307C229.535 136.042 229.205 135.053 228.546 134.341C227.887 133.621 226.982 133.261 225.83 133.261C225.042 133.261 224.341 133.432 223.728 133.773C223.122 134.114 222.641 134.614 222.285 135.273C221.936 135.924 221.762 136.712 221.762 137.636ZM245.637 130.545V133.273H236.103V130.545H245.637ZM238.66 126.364H242.057V142.875C242.057 143.534 242.156 144.03 242.353 144.364C242.55 144.689 242.804 144.913 243.114 145.034C243.432 145.148 243.777 145.205 244.148 145.205C244.421 145.205 244.66 145.186 244.864 145.148C245.069 145.11 245.228 145.08 245.341 145.057L245.955 147.864C245.758 147.939 245.478 148.015 245.114 148.091C244.751 148.174 244.296 148.22 243.751 148.227C242.857 148.242 242.023 148.083 241.251 147.75C240.478 147.417 239.853 146.902 239.376 146.205C238.898 145.508 238.66 144.633 238.66 143.58V126.364ZM249.395 148V130.545H252.68V133.318H252.861C253.18 132.379 253.74 131.64 254.543 131.102C255.354 130.557 256.27 130.284 257.293 130.284C257.505 130.284 257.755 130.292 258.043 130.307C258.339 130.322 258.57 130.341 258.736 130.364V133.614C258.6 133.576 258.358 133.534 258.009 133.489C257.661 133.436 257.312 133.409 256.964 133.409C256.161 133.409 255.445 133.58 254.816 133.92C254.195 134.254 253.702 134.72 253.339 135.318C252.975 135.909 252.793 136.583 252.793 137.341V148H249.395ZM266.6 148.386C265.494 148.386 264.494 148.182 263.6 147.773C262.706 147.356 261.998 146.754 261.475 145.966C260.96 145.178 260.702 144.212 260.702 143.068C260.702 142.083 260.892 141.273 261.27 140.636C261.649 140 262.161 139.496 262.805 139.125C263.448 138.754 264.168 138.473 264.964 138.284C265.759 138.095 266.57 137.951 267.395 137.852C268.441 137.731 269.289 137.633 269.941 137.557C270.592 137.473 271.066 137.341 271.361 137.159C271.657 136.977 271.805 136.682 271.805 136.273V136.193C271.805 135.201 271.524 134.432 270.964 133.886C270.411 133.341 269.585 133.068 268.486 133.068C267.342 133.068 266.441 133.322 265.782 133.83C265.13 134.33 264.68 134.886 264.43 135.5L261.236 134.773C261.615 133.712 262.168 132.856 262.895 132.205C263.63 131.545 264.475 131.068 265.43 130.773C266.384 130.47 267.388 130.318 268.441 130.318C269.138 130.318 269.876 130.402 270.657 130.568C271.445 130.727 272.18 131.023 272.861 131.455C273.551 131.886 274.115 132.504 274.555 133.307C274.994 134.102 275.214 135.136 275.214 136.409V148H271.895V145.614H271.759C271.539 146.053 271.21 146.485 270.77 146.909C270.331 147.333 269.767 147.686 269.077 147.966C268.388 148.246 267.562 148.386 266.6 148.386ZM267.339 145.659C268.278 145.659 269.081 145.473 269.748 145.102C270.422 144.731 270.933 144.246 271.282 143.648C271.638 143.042 271.816 142.394 271.816 141.705V139.455C271.695 139.576 271.46 139.689 271.111 139.795C270.77 139.894 270.38 139.981 269.941 140.057C269.501 140.125 269.073 140.189 268.657 140.25C268.24 140.303 267.892 140.348 267.611 140.386C266.952 140.47 266.35 140.61 265.805 140.807C265.267 141.004 264.835 141.288 264.509 141.659C264.191 142.023 264.032 142.508 264.032 143.114C264.032 143.955 264.342 144.591 264.964 145.023C265.585 145.447 266.376 145.659 267.339 145.659ZM287.887 130.545V133.273H278.353V130.545H287.887ZM280.91 126.364H284.307V142.875C284.307 143.534 284.406 144.03 284.603 144.364C284.8 144.689 285.054 144.913 285.364 145.034C285.682 145.148 286.027 145.205 286.398 145.205C286.671 145.205 286.91 145.186 287.114 145.148C287.319 145.11 287.478 145.08 287.591 145.057L288.205 147.864C288.008 147.939 287.728 148.015 287.364 148.091C287.001 148.174 286.546 148.22 286.001 148.227C285.107 148.242 284.273 148.083 283.501 147.75C282.728 147.417 282.103 146.902 281.626 146.205C281.148 145.508 280.91 144.633 280.91 143.58V126.364ZM298.981 148.352C297.261 148.352 295.78 147.985 294.537 147.25C293.303 146.508 292.348 145.466 291.674 144.125C291.007 142.777 290.674 141.197 290.674 139.386C290.674 137.598 291.007 136.023 291.674 134.659C292.348 133.295 293.287 132.231 294.492 131.466C295.704 130.701 297.121 130.318 298.742 130.318C299.727 130.318 300.681 130.481 301.606 130.807C302.53 131.133 303.359 131.644 304.094 132.341C304.829 133.038 305.409 133.943 305.833 135.057C306.257 136.163 306.469 137.508 306.469 139.091V140.295H292.594V137.75H303.14C303.14 136.856 302.958 136.064 302.594 135.375C302.231 134.678 301.719 134.129 301.06 133.727C300.409 133.326 299.644 133.125 298.765 133.125C297.81 133.125 296.977 133.36 296.265 133.83C295.56 134.292 295.015 134.898 294.628 135.648C294.25 136.39 294.06 137.197 294.06 138.068V140.057C294.06 141.223 294.265 142.216 294.674 143.034C295.09 143.852 295.67 144.477 296.412 144.909C297.155 145.333 298.022 145.545 299.015 145.545C299.659 145.545 300.246 145.455 300.776 145.273C301.306 145.083 301.765 144.803 302.151 144.432C302.537 144.061 302.833 143.602 303.037 143.057L306.253 143.636C305.996 144.583 305.534 145.413 304.867 146.125C304.208 146.83 303.378 147.379 302.378 147.773C301.386 148.159 300.253 148.352 298.981 148.352ZM316.773 148.341C315.364 148.341 314.107 147.981 313.001 147.261C311.902 146.534 311.038 145.5 310.41 144.159C309.788 142.811 309.478 141.193 309.478 139.307C309.478 137.42 309.792 135.807 310.421 134.466C311.057 133.125 311.929 132.098 313.035 131.386C314.141 130.674 315.394 130.318 316.796 130.318C317.879 130.318 318.751 130.5 319.41 130.864C320.076 131.22 320.591 131.636 320.955 132.114C321.326 132.591 321.614 133.011 321.819 133.375H322.023V124.727H325.421V148H322.103V145.284H321.819C321.614 145.655 321.319 146.08 320.932 146.557C320.554 147.034 320.031 147.451 319.364 147.807C318.698 148.163 317.834 148.341 316.773 148.341ZM317.523 145.443C318.501 145.443 319.326 145.186 320.001 144.67C320.682 144.148 321.198 143.424 321.546 142.5C321.902 141.576 322.08 140.5 322.08 139.273C322.08 138.061 321.906 137 321.557 136.091C321.209 135.182 320.698 134.473 320.023 133.966C319.349 133.458 318.516 133.205 317.523 133.205C316.501 133.205 315.648 133.47 314.966 134C314.285 134.53 313.769 135.254 313.421 136.17C313.08 137.087 312.91 138.121 312.91 139.273C312.91 140.439 313.084 141.489 313.432 142.42C313.781 143.352 314.296 144.091 314.978 144.636C315.667 145.174 316.516 145.443 317.523 145.443ZM342.137 124.727V148H338.739V124.727H342.137ZM346.708 148V130.545H350.106V148H346.708ZM348.424 127.852C347.833 127.852 347.325 127.655 346.901 127.261C346.484 126.86 346.276 126.383 346.276 125.83C346.276 125.269 346.484 124.792 346.901 124.398C347.325 123.996 347.833 123.795 348.424 123.795C349.015 123.795 349.519 123.996 349.935 124.398C350.359 124.792 350.572 125.269 350.572 125.83C350.572 126.383 350.359 126.86 349.935 127.261C349.519 127.655 349.015 127.852 348.424 127.852ZM366.461 154.545V145.284H366.256C366.052 145.655 365.756 146.08 365.37 146.557C364.991 147.034 364.468 147.451 363.802 147.807C363.135 148.163 362.271 148.341 361.211 148.341C359.802 148.341 358.544 147.981 357.438 147.261C356.34 146.534 355.476 145.5 354.847 144.159C354.226 142.811 353.915 141.193 353.915 139.307C353.915 137.42 354.23 135.807 354.858 134.466C355.495 133.125 356.366 132.098 357.472 131.386C358.578 130.674 359.832 130.318 361.233 130.318C362.317 130.318 363.188 130.5 363.847 130.864C364.514 131.22 365.029 131.636 365.393 132.114C365.764 132.591 366.052 133.011 366.256 133.375H366.54V130.545H369.858V154.545H366.461ZM361.961 145.443C362.938 145.443 363.764 145.186 364.438 144.67C365.12 144.148 365.635 143.424 365.983 142.5C366.34 141.576 366.518 140.5 366.518 139.273C366.518 138.061 366.343 137 365.995 136.091C365.646 135.182 365.135 134.473 364.461 133.966C363.787 133.458 362.953 133.205 361.961 133.205C360.938 133.205 360.086 133.47 359.404 134C358.722 134.53 358.207 135.254 357.858 136.17C357.518 137.087 357.347 138.121 357.347 139.273C357.347 140.439 357.521 141.489 357.87 142.42C358.218 143.352 358.733 144.091 359.415 144.636C360.105 145.174 360.953 145.443 361.961 145.443ZM385.483 140.761V130.545H388.893V148H385.552V144.977H385.37C384.968 145.909 384.324 146.686 383.438 147.307C382.559 147.92 381.465 148.227 380.154 148.227C379.033 148.227 378.04 147.981 377.177 147.489C376.321 146.989 375.646 146.25 375.154 145.273C374.669 144.295 374.427 143.087 374.427 141.648V130.545H377.824V141.239C377.824 142.428 378.154 143.375 378.813 144.08C379.472 144.784 380.328 145.136 381.381 145.136C382.018 145.136 382.65 144.977 383.279 144.659C383.915 144.341 384.442 143.86 384.858 143.216C385.283 142.572 385.491 141.754 385.483 140.761ZM393.458 148V130.545H396.856V148H393.458ZM395.174 127.852C394.583 127.852 394.075 127.655 393.651 127.261C393.234 126.86 393.026 126.383 393.026 125.83C393.026 125.269 393.234 124.792 393.651 124.398C394.075 123.996 394.583 123.795 395.174 123.795C395.765 123.795 396.269 123.996 396.685 124.398C397.109 124.792 397.322 125.269 397.322 125.83C397.322 126.383 397.109 126.86 396.685 127.261C396.269 127.655 395.765 127.852 395.174 127.852ZM407.961 148.341C406.552 148.341 405.294 147.981 404.188 147.261C403.09 146.534 402.226 145.5 401.597 144.159C400.976 142.811 400.665 141.193 400.665 139.307C400.665 137.42 400.98 135.807 401.608 134.466C402.245 133.125 403.116 132.098 404.222 131.386C405.328 130.674 406.582 130.318 407.983 130.318C409.067 130.318 409.938 130.5 410.597 130.864C411.264 131.22 411.779 131.636 412.143 132.114C412.514 132.591 412.802 133.011 413.006 133.375H413.211V124.727H416.608V148H413.29V145.284H413.006C412.802 145.655 412.506 146.08 412.12 146.557C411.741 147.034 411.218 147.451 410.552 147.807C409.885 148.163 409.021 148.341 407.961 148.341ZM408.711 145.443C409.688 145.443 410.514 145.186 411.188 144.67C411.87 144.148 412.385 143.424 412.733 142.5C413.09 141.576 413.268 140.5 413.268 139.273C413.268 138.061 413.093 137 412.745 136.091C412.396 135.182 411.885 134.473 411.211 133.966C410.537 133.458 409.703 133.205 408.711 133.205C407.688 133.205 406.836 133.47 406.154 134C405.472 134.53 404.957 135.254 404.608 136.17C404.268 137.087 404.097 138.121 404.097 139.273C404.097 140.439 404.271 141.489 404.62 142.42C404.968 143.352 405.483 144.091 406.165 144.636C406.855 145.174 407.703 145.443 408.711 145.443ZM421.458 148V130.545H424.856V148H421.458ZM423.174 127.852C422.583 127.852 422.075 127.655 421.651 127.261C421.234 126.86 421.026 126.383 421.026 125.83C421.026 125.269 421.234 124.792 421.651 124.398C422.075 123.996 422.583 123.795 423.174 123.795C423.765 123.795 424.269 123.996 424.685 124.398C425.109 124.792 425.322 125.269 425.322 125.83C425.322 126.383 425.109 126.86 424.685 127.261C424.269 127.655 423.765 127.852 423.174 127.852ZM437.574 130.545V133.273H428.04V130.545H437.574ZM430.597 126.364H433.995V142.875C433.995 143.534 434.093 144.03 434.29 144.364C434.487 144.689 434.741 144.913 435.052 145.034C435.37 145.148 435.715 145.205 436.086 145.205C436.358 145.205 436.597 145.186 436.802 145.148C437.006 145.11 437.165 145.08 437.279 145.057L437.893 147.864C437.696 147.939 437.415 148.015 437.052 148.091C436.688 148.174 436.233 148.22 435.688 148.227C434.794 148.242 433.961 148.083 433.188 147.75C432.415 147.417 431.79 146.902 431.313 146.205C430.836 145.508 430.597 144.633 430.597 143.58V126.364ZM443.481 154.545C442.973 154.545 442.511 154.504 442.094 154.42C441.678 154.345 441.367 154.261 441.162 154.17L441.981 151.386C442.602 151.553 443.155 151.625 443.64 151.602C444.125 151.58 444.553 151.398 444.924 151.057C445.303 150.716 445.636 150.159 445.924 149.386L446.344 148.227L439.958 130.545H443.594L448.015 144.091H448.197L452.617 130.545H456.265L449.072 150.33C448.738 151.239 448.314 152.008 447.799 152.636C447.284 153.273 446.67 153.75 445.958 154.068C445.246 154.386 444.42 154.545 443.481 154.545ZM93.2136 182.727C92.2969 182.727 91.4598 182.504 90.7022 182.057C89.9447 181.602 89.3386 180.996 88.8841 180.239C88.4371 179.481 88.2136 178.644 88.2136 177.727C88.2136 176.803 88.4371 175.966 88.8841 175.216C89.3386 174.458 89.9447 173.856 90.7022 173.409C91.4598 172.955 92.2969 172.727 93.2136 172.727C94.1378 172.727 94.975 172.955 95.725 173.409C96.4825 173.856 97.0848 174.458 97.5318 175.216C97.9863 175.966 98.2136 176.803 98.2136 177.727C98.2136 178.644 97.9863 179.481 97.5318 180.239C97.0848 180.996 96.4825 181.602 95.725 182.057C94.975 182.504 94.1378 182.727 93.2136 182.727ZM119.762 187V163.727H128.057C129.868 163.727 131.368 164.057 132.557 164.716C133.747 165.375 134.637 166.277 135.228 167.42C135.819 168.557 136.114 169.837 136.114 171.261C136.114 172.693 135.815 173.981 135.216 175.125C134.626 176.261 133.732 177.163 132.535 177.83C131.345 178.489 129.849 178.818 128.046 178.818H122.341V175.841H127.728C128.872 175.841 129.8 175.644 130.512 175.25C131.224 174.848 131.747 174.303 132.08 173.614C132.413 172.924 132.58 172.14 132.58 171.261C132.58 170.383 132.413 169.602 132.08 168.92C131.747 168.239 131.22 167.705 130.501 167.318C129.788 166.932 128.849 166.739 127.682 166.739H123.273V187H119.762ZM151.015 179.761V169.545H154.424V187H151.083V183.977H150.901C150.5 184.909 149.856 185.686 148.969 186.307C148.09 186.92 146.996 187.227 145.685 187.227C144.564 187.227 143.572 186.981 142.708 186.489C141.852 185.989 141.178 185.25 140.685 184.273C140.2 183.295 139.958 182.087 139.958 180.648V169.545H143.356V180.239C143.356 181.428 143.685 182.375 144.344 183.08C145.003 183.784 145.859 184.136 146.912 184.136C147.549 184.136 148.181 183.977 148.81 183.659C149.447 183.341 149.973 182.86 150.39 182.216C150.814 181.572 151.022 180.754 151.015 179.761ZM159.262 187V163.727H162.66V172.375H162.864C163.061 172.011 163.345 171.591 163.716 171.114C164.088 170.636 164.603 170.22 165.262 169.864C165.921 169.5 166.792 169.318 167.876 169.318C169.285 169.318 170.542 169.674 171.648 170.386C172.754 171.098 173.622 172.125 174.251 173.466C174.887 174.807 175.205 176.42 175.205 178.307C175.205 180.193 174.891 181.811 174.262 183.159C173.633 184.5 172.769 185.534 171.671 186.261C170.573 186.981 169.319 187.341 167.91 187.341C166.849 187.341 165.982 187.163 165.307 186.807C164.641 186.451 164.118 186.034 163.739 185.557C163.36 185.08 163.069 184.655 162.864 184.284H162.58V187H159.262ZM162.591 178.273C162.591 179.5 162.769 180.576 163.126 181.5C163.482 182.424 163.997 183.148 164.671 183.67C165.345 184.186 166.171 184.443 167.148 184.443C168.163 184.443 169.012 184.174 169.694 183.636C170.376 183.091 170.891 182.352 171.239 181.42C171.595 180.489 171.773 179.439 171.773 178.273C171.773 177.121 171.599 176.087 171.251 175.17C170.91 174.254 170.394 173.53 169.705 173C169.023 172.47 168.171 172.205 167.148 172.205C166.163 172.205 165.33 172.458 164.648 172.966C163.974 173.473 163.463 174.182 163.114 175.091C162.766 176 162.591 177.061 162.591 178.273ZM182.418 163.727V187H179.02V163.727H182.418ZM186.989 187V169.545H190.387V187H186.989ZM188.705 166.852C188.114 166.852 187.607 166.655 187.182 166.261C186.766 165.86 186.557 165.383 186.557 164.83C186.557 164.269 186.766 163.792 187.182 163.398C187.607 162.996 188.114 162.795 188.705 162.795C189.296 162.795 189.8 162.996 190.216 163.398C190.641 163.792 190.853 164.269 190.853 164.83C190.853 165.383 190.641 165.86 190.216 166.261C189.8 166.655 189.296 166.852 188.705 166.852ZM202.31 187.352C200.621 187.352 199.166 186.97 197.947 186.205C196.734 185.432 195.803 184.367 195.151 183.011C194.5 181.655 194.174 180.102 194.174 178.352C194.174 176.58 194.507 175.015 195.174 173.659C195.84 172.295 196.78 171.231 197.992 170.466C199.204 169.701 200.632 169.318 202.276 169.318C203.602 169.318 204.784 169.564 205.822 170.057C206.859 170.542 207.697 171.223 208.333 172.102C208.977 172.981 209.359 174.008 209.481 175.182H206.174C205.992 174.364 205.575 173.659 204.924 173.068C204.28 172.477 203.416 172.182 202.333 172.182C201.386 172.182 200.556 172.432 199.844 172.932C199.14 173.424 198.59 174.129 198.197 175.045C197.803 175.955 197.606 177.03 197.606 178.273C197.606 179.545 197.799 180.644 198.185 181.568C198.572 182.492 199.117 183.208 199.822 183.716C200.534 184.223 201.371 184.477 202.333 184.477C202.977 184.477 203.56 184.36 204.083 184.125C204.613 183.883 205.056 183.538 205.412 183.091C205.776 182.644 206.03 182.106 206.174 181.477H209.481C209.359 182.606 208.992 183.614 208.378 184.5C207.765 185.386 206.943 186.083 205.912 186.591C204.89 187.098 203.689 187.352 202.31 187.352ZM234.662 173.807L231.583 174.352C231.454 173.958 231.25 173.583 230.969 173.227C230.697 172.871 230.325 172.58 229.856 172.352C229.386 172.125 228.799 172.011 228.094 172.011C227.132 172.011 226.329 172.227 225.685 172.659C225.041 173.083 224.719 173.633 224.719 174.307C224.719 174.89 224.935 175.36 225.367 175.716C225.799 176.072 226.496 176.364 227.458 176.591L230.231 177.227C231.837 177.598 233.034 178.17 233.822 178.943C234.609 179.716 235.003 180.72 235.003 181.955C235.003 183 234.7 183.932 234.094 184.75C233.496 185.561 232.659 186.197 231.583 186.659C230.515 187.121 229.276 187.352 227.867 187.352C225.912 187.352 224.318 186.936 223.083 186.102C221.848 185.261 221.09 184.068 220.81 182.523L224.094 182.023C224.299 182.879 224.719 183.527 225.356 183.966C225.992 184.398 226.822 184.614 227.844 184.614C228.958 184.614 229.848 184.383 230.515 183.92C231.181 183.451 231.515 182.879 231.515 182.205C231.515 181.659 231.31 181.201 230.901 180.83C230.5 180.458 229.882 180.178 229.049 179.989L226.094 179.341C224.465 178.97 223.261 178.379 222.481 177.568C221.708 176.758 221.322 175.731 221.322 174.489C221.322 173.458 221.609 172.557 222.185 171.784C222.761 171.011 223.556 170.409 224.572 169.977C225.587 169.538 226.75 169.318 228.06 169.318C229.947 169.318 231.431 169.727 232.515 170.545C233.598 171.356 234.314 172.443 234.662 173.807ZM243.819 187.386C242.713 187.386 241.713 187.182 240.819 186.773C239.925 186.356 239.216 185.754 238.694 184.966C238.179 184.178 237.921 183.212 237.921 182.068C237.921 181.083 238.11 180.273 238.489 179.636C238.868 179 239.379 178.496 240.023 178.125C240.667 177.754 241.387 177.473 242.182 177.284C242.978 177.095 243.788 176.951 244.614 176.852C245.66 176.731 246.508 176.633 247.16 176.557C247.811 176.473 248.285 176.341 248.58 176.159C248.876 175.977 249.023 175.682 249.023 175.273V175.193C249.023 174.201 248.743 173.432 248.182 172.886C247.629 172.341 246.804 172.068 245.705 172.068C244.561 172.068 243.66 172.322 243.001 172.83C242.349 173.33 241.898 173.886 241.648 174.5L238.455 173.773C238.834 172.712 239.387 171.856 240.114 171.205C240.849 170.545 241.694 170.068 242.648 169.773C243.603 169.47 244.607 169.318 245.66 169.318C246.357 169.318 247.095 169.402 247.876 169.568C248.663 169.727 249.398 170.023 250.08 170.455C250.769 170.886 251.334 171.504 251.773 172.307C252.213 173.102 252.432 174.136 252.432 175.409V187H249.114V184.614H248.978C248.758 185.053 248.429 185.485 247.989 185.909C247.55 186.333 246.985 186.686 246.296 186.966C245.607 187.246 244.781 187.386 243.819 187.386ZM244.557 184.659C245.497 184.659 246.3 184.473 246.966 184.102C247.641 183.731 248.152 183.246 248.501 182.648C248.857 182.042 249.035 181.394 249.035 180.705V178.455C248.913 178.576 248.679 178.689 248.33 178.795C247.989 178.894 247.599 178.981 247.16 179.057C246.72 179.125 246.292 179.189 245.876 179.25C245.459 179.303 245.11 179.348 244.83 179.386C244.171 179.47 243.569 179.61 243.023 179.807C242.485 180.004 242.054 180.288 241.728 180.659C241.41 181.023 241.251 181.508 241.251 182.114C241.251 182.955 241.561 183.591 242.182 184.023C242.804 184.447 243.595 184.659 244.557 184.659ZM260.356 163.727V187H256.958V163.727H260.356ZM272.449 187.352C270.73 187.352 269.249 186.985 268.006 186.25C266.771 185.508 265.817 184.466 265.143 183.125C264.476 181.777 264.143 180.197 264.143 178.386C264.143 176.598 264.476 175.023 265.143 173.659C265.817 172.295 266.756 171.231 267.961 170.466C269.173 169.701 270.59 169.318 272.211 169.318C273.196 169.318 274.15 169.481 275.074 169.807C275.999 170.133 276.828 170.644 277.563 171.341C278.298 172.038 278.877 172.943 279.302 174.057C279.726 175.163 279.938 176.508 279.938 178.091V179.295H266.063V176.75H276.608C276.608 175.856 276.427 175.064 276.063 174.375C275.699 173.678 275.188 173.129 274.529 172.727C273.877 172.326 273.112 172.125 272.233 172.125C271.279 172.125 270.446 172.36 269.733 172.83C269.029 173.292 268.483 173.898 268.097 174.648C267.718 175.39 267.529 176.197 267.529 177.068V179.057C267.529 180.223 267.733 181.216 268.143 182.034C268.559 182.852 269.139 183.477 269.881 183.909C270.624 184.333 271.491 184.545 272.483 184.545C273.127 184.545 273.715 184.455 274.245 184.273C274.775 184.083 275.233 183.803 275.62 183.432C276.006 183.061 276.302 182.602 276.506 182.057L279.722 182.636C279.465 183.583 279.002 184.413 278.336 185.125C277.677 185.83 276.847 186.379 275.847 186.773C274.855 187.159 273.722 187.352 272.449 187.352ZM93.2136 221.727C92.2969 221.727 91.4598 221.504 90.7022 221.057C89.9447 220.602 89.3386 219.996 88.8841 219.239C88.4371 218.481 88.2136 217.644 88.2136 216.727C88.2136 215.803 88.4371 214.966 88.8841 214.216C89.3386 213.458 89.9447 212.856 90.7022 212.409C91.4598 211.955 92.2969 211.727 93.2136 211.727C94.1378 211.727 94.975 211.955 95.725 212.409C96.4825 212.856 97.0848 213.458 97.5318 214.216C97.9863 214.966 98.2136 215.803 98.2136 216.727C98.2136 217.644 97.9863 218.481 97.5318 219.239C97.0848 219.996 96.4825 220.602 95.725 221.057C94.975 221.504 94.1378 221.727 93.2136 221.727ZM118.614 205.75V202.727H136.626V205.75H129.364V226H125.864V205.75H118.614ZM155.356 210.08C155.136 209.39 154.84 208.773 154.469 208.227C154.106 207.674 153.67 207.205 153.162 206.818C152.655 206.424 152.075 206.125 151.424 205.92C150.78 205.716 150.072 205.614 149.299 205.614C147.988 205.614 146.806 205.951 145.753 206.625C144.7 207.299 143.867 208.288 143.253 209.591C142.647 210.886 142.344 212.473 142.344 214.352C142.344 216.239 142.651 217.833 143.265 219.136C143.878 220.439 144.719 221.428 145.787 222.102C146.856 222.777 148.072 223.114 149.435 223.114C150.7 223.114 151.803 222.856 152.742 222.341C153.689 221.826 154.42 221.098 154.935 220.159C155.458 219.212 155.719 218.098 155.719 216.818L156.628 216.989H149.969V214.091H159.117V216.739C159.117 218.693 158.7 220.39 157.867 221.83C157.041 223.261 155.897 224.367 154.435 225.148C152.981 225.928 151.314 226.318 149.435 226.318C147.329 226.318 145.481 225.833 143.89 224.864C142.306 223.894 141.072 222.519 140.185 220.739C139.299 218.951 138.856 216.83 138.856 214.375C138.856 212.519 139.113 210.852 139.628 209.375C140.144 207.898 140.867 206.644 141.799 205.614C142.738 204.576 143.84 203.784 145.106 203.239C146.378 202.686 147.769 202.409 149.276 202.409C150.534 202.409 151.704 202.595 152.787 202.966C153.878 203.337 154.848 203.864 155.697 204.545C156.553 205.227 157.261 206.038 157.822 206.977C158.382 207.909 158.761 208.943 158.958 210.08H155.356ZM163.574 226V202.727H178.165V205.75H167.086V212.841H177.404V215.852H167.086V222.977H178.302V226H163.574Z" fill="#4CC9F0"/>
<line x1="93.7051" y1="20" x2="93.7051" y2="335" stroke="#0FA9D9"/>
</svg>
