<svg width="646" height="627" viewBox="0 0 646 627" fill="none" xmlns="http://www.w3.org/2000/svg">
<path d="M368 340L314 384.167V295.833L368 340Z" fill="#4CC9F0"/>
<path fill-rule="evenodd" clip-rule="evenodd" d="M0.205078 384L54.0005 340L0.205078 296H314.001V384H0.205078Z" fill="#4CC9F0"/>
<path d="M128.011 349V346.443L137.614 335.932C138.741 334.701 139.669 333.631 140.398 332.722C141.127 331.803 141.667 330.941 142.017 330.136C142.377 329.322 142.557 328.47 142.557 327.58C142.557 326.557 142.311 325.671 141.818 324.923C141.335 324.175 140.672 323.598 139.83 323.19C138.987 322.783 138.04 322.58 136.989 322.58C135.871 322.58 134.896 322.812 134.062 323.276C133.239 323.73 132.599 324.369 132.145 325.193C131.7 326.017 131.477 326.983 131.477 328.091H128.125C128.125 326.386 128.518 324.89 129.304 323.602C130.09 322.314 131.16 321.311 132.514 320.591C133.878 319.871 135.407 319.511 137.102 319.511C138.807 319.511 140.317 319.871 141.634 320.591C142.95 321.311 143.982 322.281 144.73 323.503C145.478 324.724 145.852 326.083 145.852 327.58C145.852 328.65 145.658 329.696 145.27 330.719C144.891 331.732 144.228 332.864 143.281 334.114C142.344 335.354 141.042 336.869 139.375 338.659L132.841 345.648V345.875H146.364V349H128.011ZM161.719 349.398C159.579 349.398 157.756 348.815 156.25 347.651C154.744 346.476 153.594 344.777 152.798 342.551C152.003 340.316 151.605 337.617 151.605 334.455C151.605 331.311 152.003 328.626 152.798 326.401C153.603 324.166 154.759 322.461 156.264 321.287C157.779 320.103 159.598 319.511 161.719 319.511C163.84 319.511 165.653 320.103 167.159 321.287C168.674 322.461 169.83 324.166 170.625 326.401C171.43 328.626 171.832 331.311 171.832 334.455C171.832 337.617 171.435 340.316 170.639 342.551C169.844 344.777 168.693 346.476 167.188 347.651C165.682 348.815 163.859 349.398 161.719 349.398ZM161.719 346.273C163.84 346.273 165.488 345.25 166.662 343.205C167.836 341.159 168.423 338.242 168.423 334.455C168.423 331.936 168.153 329.791 167.614 328.02C167.083 326.249 166.316 324.9 165.312 323.972C164.318 323.044 163.12 322.58 161.719 322.58C159.616 322.58 157.973 323.616 156.79 325.69C155.606 327.755 155.014 330.676 155.014 334.455C155.014 336.973 155.279 339.114 155.81 340.875C156.34 342.636 157.102 343.976 158.097 344.895C159.1 345.813 160.308 346.273 161.719 346.273ZM177.23 349V346.443L186.832 335.932C187.959 334.701 188.887 333.631 189.616 332.722C190.346 331.803 190.885 330.941 191.236 330.136C191.596 329.322 191.776 328.47 191.776 327.58C191.776 326.557 191.529 325.671 191.037 324.923C190.554 324.175 189.891 323.598 189.048 323.19C188.205 322.783 187.259 322.58 186.207 322.58C185.09 322.58 184.115 322.812 183.281 323.276C182.457 323.73 181.818 324.369 181.364 325.193C180.919 326.017 180.696 326.983 180.696 328.091H177.344C177.344 326.386 177.737 324.89 178.523 323.602C179.309 322.314 180.379 321.311 181.733 320.591C183.097 319.871 184.626 319.511 186.321 319.511C188.026 319.511 189.536 319.871 190.852 320.591C192.169 321.311 193.201 322.281 193.949 323.503C194.697 324.724 195.071 326.083 195.071 327.58C195.071 328.65 194.877 329.696 194.489 330.719C194.11 331.732 193.447 332.864 192.5 334.114C191.562 335.354 190.26 336.869 188.594 338.659L182.06 345.648V345.875H195.582V349H177.23ZM211.278 349.398C209.403 349.398 207.732 349.076 206.264 348.432C204.806 347.788 203.646 346.893 202.784 345.747C201.932 344.592 201.468 343.252 201.392 341.727H204.972C205.047 342.665 205.369 343.474 205.938 344.156C206.506 344.829 207.249 345.349 208.168 345.719C209.086 346.088 210.104 346.273 211.222 346.273C212.472 346.273 213.58 346.055 214.545 345.619C215.511 345.184 216.269 344.578 216.818 343.801C217.367 343.025 217.642 342.125 217.642 341.102C217.642 340.032 217.377 339.09 216.847 338.276C216.316 337.452 215.54 336.808 214.517 336.344C213.494 335.88 212.244 335.648 210.767 335.648H208.438V332.523H210.767C211.922 332.523 212.936 332.314 213.807 331.898C214.688 331.481 215.374 330.894 215.866 330.136C216.368 329.379 216.619 328.489 216.619 327.466C216.619 326.481 216.402 325.624 215.966 324.895C215.53 324.166 214.915 323.598 214.119 323.19C213.333 322.783 212.405 322.58 211.335 322.58C210.331 322.58 209.384 322.764 208.494 323.134C207.614 323.493 206.894 324.019 206.335 324.71C205.777 325.392 205.473 326.216 205.426 327.182H202.017C202.074 325.657 202.533 324.322 203.395 323.176C204.257 322.021 205.384 321.121 206.776 320.477C208.177 319.833 209.716 319.511 211.392 319.511C213.191 319.511 214.735 319.876 216.023 320.605C217.311 321.325 218.3 322.277 218.991 323.46C219.683 324.644 220.028 325.922 220.028 327.295C220.028 328.934 219.598 330.33 218.736 331.486C217.884 332.641 216.723 333.441 215.256 333.886V334.114C217.093 334.417 218.527 335.198 219.56 336.457C220.592 337.707 221.108 339.256 221.108 341.102C221.108 342.684 220.677 344.104 219.815 345.364C218.963 346.614 217.798 347.598 216.321 348.318C214.844 349.038 213.163 349.398 211.278 349.398ZM249.247 339.909H253.111L256.349 344.17L257.202 345.307L262.031 351.727H258.168L254.986 347.466L254.19 346.386L249.247 339.909ZM263.224 334.455C263.224 337.523 262.67 340.174 261.562 342.409C260.455 344.644 258.935 346.367 257.003 347.58C255.071 348.792 252.865 349.398 250.384 349.398C247.902 349.398 245.696 348.792 243.764 347.58C241.832 346.367 240.313 344.644 239.205 342.409C238.097 340.174 237.543 337.523 237.543 334.455C237.543 331.386 238.097 328.735 239.205 326.5C240.313 324.265 241.832 322.542 243.764 321.33C245.696 320.117 247.902 319.511 250.384 319.511C252.865 319.511 255.071 320.117 257.003 321.33C258.935 322.542 260.455 324.265 261.562 326.5C262.67 328.735 263.224 331.386 263.224 334.455ZM259.815 334.455C259.815 331.936 259.394 329.81 258.551 328.077C257.718 326.344 256.586 325.032 255.156 324.142C253.736 323.252 252.145 322.807 250.384 322.807C248.622 322.807 247.027 323.252 245.597 324.142C244.176 325.032 243.045 326.344 242.202 328.077C241.368 329.81 240.952 331.936 240.952 334.455C240.952 336.973 241.368 339.099 242.202 340.832C243.045 342.565 244.176 343.877 245.597 344.767C247.027 345.657 248.622 346.102 250.384 346.102C252.145 346.102 253.736 345.657 255.156 344.767C256.586 343.877 257.718 342.565 258.551 340.832C259.394 339.099 259.815 336.973 259.815 334.455ZM278.864 319.909V349H275.341V323.602H275.17L268.068 328.318V324.739L275.341 319.909H278.864Z" fill="black"/>
<circle cx="93.5" cy="335.5" r="8.5" fill="#D9D9D9"/>
<path d="M93.2136 26.7273C92.2969 26.7273 91.4598 26.5038 90.7022 26.0568C89.9447 25.6023 89.3386 24.9962 88.8841 24.2386C88.4371 23.4811 88.2136 22.6439 88.2136 21.7273C88.2136 20.803 88.4371 19.9659 88.8841 19.2159C89.3386 18.4583 89.9447 17.8561 90.7022 17.4091C91.4598 16.9545 92.2969 16.7273 93.2136 16.7273C94.1378 16.7273 94.975 16.9545 95.725 17.4091C96.4825 17.8561 97.0848 18.4583 97.5318 19.2159C97.9863 19.9659 98.2136 20.803 98.2136 21.7273C98.2136 22.6439 97.9863 23.4811 97.5318 24.2386C97.0848 24.9962 96.4825 25.6023 95.725 26.0568C94.975 26.5038 94.1378 26.7273 93.2136 26.7273ZM119.762 31V7.72727H128.057C129.86 7.72727 131.357 8.03788 132.546 8.65909C133.743 9.2803 134.637 10.1402 135.228 11.2386C135.819 12.3295 136.114 13.5909 136.114 15.0227C136.114 16.447 135.815 17.7008 135.216 18.7841C134.626 19.8598 133.732 20.697 132.535 21.2955C131.345 21.8939 129.849 22.1932 128.046 22.1932H121.762V19.1705H127.728C128.864 19.1705 129.788 19.0076 130.501 18.6818C131.22 18.3561 131.747 17.8826 132.08 17.2614C132.413 16.6402 132.58 15.8939 132.58 15.0227C132.58 14.1439 132.41 13.3826 132.069 12.7386C131.735 12.0947 131.209 11.6023 130.489 11.2614C129.777 10.9129 128.841 10.7386 127.682 10.7386H123.273V31H119.762ZM131.251 20.5L137.001 31H133.001L127.364 20.5H131.251ZM147.418 31.3523C145.698 31.3523 144.217 30.9848 142.975 30.25C141.74 29.5076 140.786 28.4659 140.111 27.125C139.445 25.7765 139.111 24.197 139.111 22.3864C139.111 20.5985 139.445 19.0227 140.111 17.6591C140.786 16.2955 141.725 15.2311 142.93 14.4659C144.142 13.7008 145.558 13.3182 147.18 13.3182C148.164 13.3182 149.119 13.4811 150.043 13.8068C150.967 14.1326 151.797 14.6439 152.532 15.3409C153.267 16.0379 153.846 16.9432 154.27 18.0568C154.695 19.1629 154.907 20.5076 154.907 22.0909V23.2955H141.032V20.75H151.577C151.577 19.8561 151.395 19.0644 151.032 18.375C150.668 17.678 150.157 17.1288 149.498 16.7273C148.846 16.3258 148.081 16.125 147.202 16.125C146.248 16.125 145.414 16.3598 144.702 16.8295C143.998 17.2917 143.452 17.8977 143.066 18.6477C142.687 19.3902 142.498 20.197 142.498 21.0682V23.0568C142.498 24.2235 142.702 25.2159 143.111 26.0341C143.528 26.8523 144.108 27.4773 144.85 27.9091C145.592 28.3333 146.46 28.5455 147.452 28.5455C148.096 28.5455 148.683 28.4545 149.214 28.2727C149.744 28.0833 150.202 27.803 150.589 27.4318C150.975 27.0606 151.27 26.6023 151.475 26.0568L154.691 26.6364C154.433 27.5833 153.971 28.4129 153.305 29.125C152.645 29.8295 151.816 30.3788 150.816 30.7727C149.823 31.1591 148.691 31.3523 147.418 31.3523ZM171.756 17.8068L168.677 18.3523C168.548 17.9583 168.343 17.5833 168.063 17.2273C167.79 16.8712 167.419 16.5795 166.949 16.3523C166.48 16.125 165.893 16.0114 165.188 16.0114C164.226 16.0114 163.423 16.2273 162.779 16.6591C162.135 17.0833 161.813 17.6326 161.813 18.3068C161.813 18.8902 162.029 19.3598 162.461 19.7159C162.893 20.072 163.59 20.3636 164.552 20.5909L167.324 21.2273C168.93 21.5985 170.127 22.1705 170.915 22.9432C171.703 23.7159 172.097 24.7197 172.097 25.9545C172.097 27 171.794 27.9318 171.188 28.75C170.59 29.5606 169.752 30.197 168.677 30.6591C167.608 31.1212 166.37 31.3523 164.961 31.3523C163.006 31.3523 161.412 30.9356 160.177 30.1023C158.942 29.2614 158.184 28.0682 157.904 26.5227L161.188 26.0227C161.393 26.8788 161.813 27.5265 162.449 27.9659C163.086 28.3977 163.915 28.6136 164.938 28.6136C166.052 28.6136 166.942 28.3826 167.608 27.9205C168.275 27.4508 168.608 26.8788 168.608 26.2045C168.608 25.6591 168.404 25.2008 167.995 24.8295C167.593 24.4583 166.976 24.178 166.143 23.9886L163.188 23.3409C161.559 22.9697 160.355 22.3788 159.574 21.5682C158.802 20.7576 158.415 19.7311 158.415 18.4886C158.415 17.4583 158.703 16.5568 159.279 15.7841C159.855 15.0114 160.65 14.4091 161.665 13.9773C162.68 13.5379 163.843 13.3182 165.154 13.3182C167.04 13.3182 168.525 13.7273 169.608 14.5455C170.692 15.3561 171.408 16.4432 171.756 17.8068ZM183.356 31.3523C181.636 31.3523 180.155 30.9848 178.912 30.25C177.678 29.5076 176.723 28.4659 176.049 27.125C175.382 25.7765 175.049 24.197 175.049 22.3864C175.049 20.5985 175.382 19.0227 176.049 17.6591C176.723 16.2955 177.662 15.2311 178.867 14.4659C180.079 13.7008 181.496 13.3182 183.117 13.3182C184.102 13.3182 185.056 13.4811 185.981 13.8068C186.905 14.1326 187.734 14.6439 188.469 15.3409C189.204 16.0379 189.784 16.9432 190.208 18.0568C190.632 19.1629 190.844 20.5076 190.844 22.0909V23.2955H176.969V20.75H187.515C187.515 19.8561 187.333 19.0644 186.969 18.375C186.606 17.678 186.094 17.1288 185.435 16.7273C184.784 16.3258 184.019 16.125 183.14 16.125C182.185 16.125 181.352 16.3598 180.64 16.8295C179.935 17.2917 179.39 17.8977 179.003 18.6477C178.625 19.3902 178.435 20.197 178.435 21.0682V23.0568C178.435 24.2235 178.64 25.2159 179.049 26.0341C179.465 26.8523 180.045 27.4773 180.787 27.9091C181.53 28.3333 182.397 28.5455 183.39 28.5455C184.034 28.5455 184.621 28.4545 185.151 28.2727C185.681 28.0833 186.14 27.803 186.526 27.4318C186.912 27.0606 187.208 26.6023 187.412 26.0568L190.628 26.6364C190.371 27.5833 189.909 28.4129 189.242 29.125C188.583 29.8295 187.753 30.3788 186.753 30.7727C185.761 31.1591 184.628 31.3523 183.356 31.3523ZM199.694 31.3864C198.588 31.3864 197.588 31.1818 196.694 30.7727C195.8 30.3561 195.091 29.7538 194.569 28.9659C194.054 28.178 193.796 27.2121 193.796 26.0682C193.796 25.0833 193.985 24.2727 194.364 23.6364C194.743 23 195.254 22.4962 195.898 22.125C196.542 21.7538 197.262 21.4735 198.057 21.2841C198.853 21.0947 199.663 20.9508 200.489 20.8523C201.535 20.7311 202.383 20.6326 203.035 20.5568C203.686 20.4735 204.16 20.3409 204.455 20.1591C204.751 19.9773 204.898 19.6818 204.898 19.2727V19.1932C204.898 18.2008 204.618 17.4318 204.057 16.8864C203.504 16.3409 202.679 16.0682 201.58 16.0682C200.436 16.0682 199.535 16.322 198.876 16.8295C198.224 17.3295 197.773 17.8864 197.523 18.5L194.33 17.7727C194.709 16.7121 195.262 15.8561 195.989 15.2045C196.724 14.5455 197.569 14.0682 198.523 13.7727C199.478 13.4697 200.482 13.3182 201.535 13.3182C202.232 13.3182 202.97 13.4015 203.751 13.5682C204.538 13.7273 205.273 14.0227 205.955 14.4545C206.644 14.8864 207.209 15.5038 207.648 16.3068C208.088 17.1023 208.307 18.1364 208.307 19.4091V31H204.989V28.6136H204.853C204.633 29.053 204.304 29.4848 203.864 29.9091C203.425 30.3333 202.86 30.6856 202.171 30.9659C201.482 31.2462 200.656 31.3864 199.694 31.3864ZM200.432 28.6591C201.372 28.6591 202.175 28.4735 202.841 28.1023C203.516 27.7311 204.027 27.2462 204.376 26.6477C204.732 26.0417 204.91 25.3939 204.91 24.7045V22.4545C204.788 22.5758 204.554 22.6894 204.205 22.7955C203.864 22.8939 203.474 22.9811 203.035 23.0568C202.595 23.125 202.167 23.1894 201.751 23.25C201.334 23.303 200.985 23.3485 200.705 23.3864C200.046 23.4697 199.444 23.6098 198.898 23.8068C198.36 24.0038 197.929 24.2879 197.603 24.6591C197.285 25.0227 197.126 25.5076 197.126 26.1136C197.126 26.9545 197.436 27.5909 198.057 28.0227C198.679 28.447 199.47 28.6591 200.432 28.6591ZM212.833 31V13.5455H216.117V16.3182H216.299C216.617 15.3788 217.178 14.6402 217.981 14.1023C218.791 13.5568 219.708 13.2841 220.731 13.2841C220.943 13.2841 221.193 13.2917 221.481 13.3068C221.776 13.322 222.007 13.3409 222.174 13.3636V16.6136C222.037 16.5758 221.795 16.5341 221.447 16.4886C221.098 16.4356 220.75 16.4091 220.401 16.4091C219.598 16.4091 218.882 16.5795 218.253 16.9205C217.632 17.2538 217.14 17.7197 216.776 18.3182C216.412 18.9091 216.231 19.5833 216.231 20.3409V31H212.833ZM231.841 31.3523C230.152 31.3523 228.698 30.9697 227.478 30.2045C226.266 29.4318 225.334 28.3674 224.682 27.0114C224.031 25.6553 223.705 24.1023 223.705 22.3523C223.705 20.5795 224.038 19.0152 224.705 17.6591C225.372 16.2955 226.311 15.2311 227.523 14.4659C228.735 13.7008 230.163 13.3182 231.807 13.3182C233.133 13.3182 234.315 13.5644 235.353 14.0568C236.391 14.5417 237.228 15.2235 237.864 16.1023C238.508 16.9811 238.891 18.0076 239.012 19.1818H235.705C235.523 18.3636 235.107 17.6591 234.455 17.0682C233.811 16.4773 232.948 16.1818 231.864 16.1818C230.917 16.1818 230.088 16.4318 229.376 16.9318C228.671 17.4242 228.122 18.1288 227.728 19.0455C227.334 19.9545 227.137 21.0303 227.137 22.2727C227.137 23.5455 227.33 24.6439 227.716 25.5682C228.103 26.4924 228.648 27.2083 229.353 27.7159C230.065 28.2235 230.902 28.4773 231.864 28.4773C232.508 28.4773 233.091 28.3598 233.614 28.125C234.144 27.8826 234.588 27.5379 234.944 27.0909C235.307 26.6439 235.561 26.1061 235.705 25.4773H239.012C238.891 26.6061 238.523 27.6136 237.91 28.5C237.296 29.3864 236.474 30.0833 235.444 30.5909C234.421 31.0985 233.22 31.3523 231.841 31.3523ZM246.043 20.6364V31H242.645V7.72727H245.998V16.3864H246.214C246.623 15.447 247.248 14.7008 248.089 14.1477C248.93 13.5947 250.028 13.3182 251.384 13.3182C252.581 13.3182 253.626 13.5644 254.52 14.0568C255.422 14.5492 256.119 15.2841 256.611 16.2614C257.111 17.2311 257.361 18.4432 257.361 19.8977V31H253.964V20.3068C253.964 19.0265 253.634 18.0341 252.975 17.3295C252.316 16.6174 251.399 16.2614 250.225 16.2614C249.422 16.2614 248.702 16.4318 248.066 16.7727C247.437 17.1136 246.941 17.6136 246.577 18.2727C246.221 18.9242 246.043 19.7121 246.043 20.6364ZM275.444 31.3864C274.338 31.3864 273.338 31.1818 272.444 30.7727C271.55 30.3561 270.841 29.7538 270.319 28.9659C269.804 28.178 269.546 27.2121 269.546 26.0682C269.546 25.0833 269.735 24.2727 270.114 23.6364C270.493 23 271.004 22.4962 271.648 22.125C272.292 21.7538 273.012 21.4735 273.807 21.2841C274.603 21.0947 275.413 20.9508 276.239 20.8523C277.285 20.7311 278.133 20.6326 278.785 20.5568C279.436 20.4735 279.91 20.3409 280.205 20.1591C280.501 19.9773 280.648 19.6818 280.648 19.2727V19.1932C280.648 18.2008 280.368 17.4318 279.807 16.8864C279.254 16.3409 278.429 16.0682 277.33 16.0682C276.186 16.0682 275.285 16.322 274.626 16.8295C273.974 17.3295 273.523 17.8864 273.273 18.5L270.08 17.7727C270.459 16.7121 271.012 15.8561 271.739 15.2045C272.474 14.5455 273.319 14.0682 274.273 13.7727C275.228 13.4697 276.232 13.3182 277.285 13.3182C277.982 13.3182 278.72 13.4015 279.501 13.5682C280.288 13.7273 281.023 14.0227 281.705 14.4545C282.394 14.8864 282.959 15.5038 283.398 16.3068C283.838 17.1023 284.057 18.1364 284.057 19.4091V31H280.739V28.6136H280.603C280.383 29.053 280.054 29.4848 279.614 29.9091C279.175 30.3333 278.61 30.6856 277.921 30.9659C277.232 31.2462 276.406 31.3864 275.444 31.3864ZM276.182 28.6591C277.122 28.6591 277.925 28.4735 278.591 28.1023C279.266 27.7311 279.777 27.2462 280.126 26.6477C280.482 26.0417 280.66 25.3939 280.66 24.7045V22.4545C280.538 22.5758 280.304 22.6894 279.955 22.7955C279.614 22.8939 279.224 22.9811 278.785 23.0568C278.345 23.125 277.917 23.1894 277.501 23.25C277.084 23.303 276.735 23.3485 276.455 23.3864C275.796 23.4697 275.194 23.6098 274.648 23.8068C274.11 24.0038 273.679 24.2879 273.353 24.6591C273.035 25.0227 272.876 25.5076 272.876 26.1136C272.876 26.9545 273.186 27.5909 273.807 28.0227C274.429 28.447 275.22 28.6591 276.182 28.6591ZM291.981 20.6364V31H288.583V13.5455H291.844V16.3864H292.06C292.462 15.4621 293.09 14.7197 293.947 14.1591C294.81 13.5985 295.897 13.3182 297.208 13.3182C298.397 13.3182 299.439 13.5682 300.333 14.0682C301.227 14.5606 301.92 15.2955 302.412 16.2727C302.905 17.25 303.151 18.4583 303.151 19.8977V31H299.753V20.3068C299.753 19.0417 299.424 18.053 298.765 17.3409C298.106 16.6212 297.2 16.2614 296.049 16.2614C295.261 16.2614 294.56 16.4318 293.947 16.7727C293.34 17.1136 292.859 17.6136 292.503 18.2727C292.155 18.9242 291.981 19.7121 291.981 20.6364ZM314.242 31.3409C312.833 31.3409 311.575 30.9811 310.469 30.2614C309.371 29.5341 308.507 28.5 307.878 27.1591C307.257 25.8106 306.947 24.1932 306.947 22.3068C306.947 20.4205 307.261 18.8068 307.89 17.4659C308.526 16.125 309.397 15.0985 310.503 14.3864C311.609 13.6742 312.863 13.3182 314.265 13.3182C315.348 13.3182 316.219 13.5 316.878 13.8636C317.545 14.2197 318.06 14.6364 318.424 15.1136C318.795 15.5909 319.083 16.0114 319.287 16.375H319.492V7.72727H322.89V31H319.572V28.2841H319.287C319.083 28.6553 318.787 29.0795 318.401 29.5568C318.022 30.0341 317.5 30.4508 316.833 30.8068C316.166 31.1629 315.303 31.3409 314.242 31.3409ZM314.992 28.4432C315.969 28.4432 316.795 28.1856 317.469 27.6705C318.151 27.1477 318.666 26.4242 319.015 25.5C319.371 24.5758 319.549 23.5 319.549 22.2727C319.549 21.0606 319.375 20 319.026 19.0909C318.678 18.1818 318.166 17.4735 317.492 16.9659C316.818 16.4583 315.984 16.2045 314.992 16.2045C313.969 16.2045 313.117 16.4697 312.435 17C311.753 17.5303 311.238 18.2538 310.89 19.1705C310.549 20.0871 310.378 21.1212 310.378 22.2727C310.378 23.4394 310.553 24.4886 310.901 25.4205C311.25 26.3523 311.765 27.0909 312.447 27.6364C313.136 28.1742 313.984 28.4432 314.992 28.4432ZM339.992 7.72727V31H336.481V7.72727H339.992ZM351.367 31.3409C349.958 31.3409 348.7 30.9811 347.594 30.2614C346.496 29.5341 345.632 28.5 345.003 27.1591C344.382 25.8106 344.072 24.1932 344.072 22.3068C344.072 20.4205 344.386 18.8068 345.015 17.4659C345.651 16.125 346.522 15.0985 347.628 14.3864C348.734 13.6742 349.988 13.3182 351.39 13.3182C352.473 13.3182 353.344 13.5 354.003 13.8636C354.67 14.2197 355.185 14.6364 355.549 15.1136C355.92 15.5909 356.208 16.0114 356.412 16.375H356.617V7.72727H360.015V31H356.697V28.2841H356.412C356.208 28.6553 355.912 29.0795 355.526 29.5568C355.147 30.0341 354.625 30.4508 353.958 30.8068C353.291 31.1629 352.428 31.3409 351.367 31.3409ZM352.117 28.4432C353.094 28.4432 353.92 28.1856 354.594 27.6705C355.276 27.1477 355.791 26.4242 356.14 25.5C356.496 24.5758 356.674 23.5 356.674 22.2727C356.674 21.0606 356.5 20 356.151 19.0909C355.803 18.1818 355.291 17.4735 354.617 16.9659C353.943 16.4583 353.109 16.2045 352.117 16.2045C351.094 16.2045 350.242 16.4697 349.56 17C348.878 17.5303 348.363 18.2538 348.015 19.1705C347.674 20.0871 347.503 21.1212 347.503 22.2727C347.503 23.4394 347.678 24.4886 348.026 25.4205C348.375 26.3523 348.89 27.0909 349.572 27.6364C350.261 28.1742 351.109 28.4432 352.117 28.4432ZM372.387 31.3523C370.667 31.3523 369.186 30.9848 367.944 30.25C366.709 29.5076 365.754 28.4659 365.08 27.125C364.413 25.7765 364.08 24.197 364.08 22.3864C364.08 20.5985 364.413 19.0227 365.08 17.6591C365.754 16.2955 366.694 15.2311 367.898 14.4659C369.11 13.7008 370.527 13.3182 372.148 13.3182C373.133 13.3182 374.088 13.4811 375.012 13.8068C375.936 14.1326 376.766 14.6439 377.501 15.3409C378.235 16.0379 378.815 16.9432 379.239 18.0568C379.663 19.1629 379.876 20.5076 379.876 22.0909V23.2955H366.001V20.75H376.546C376.546 19.8561 376.364 19.0644 376.001 18.375C375.637 17.678 375.126 17.1288 374.466 16.7273C373.815 16.3258 373.05 16.125 372.171 16.125C371.216 16.125 370.383 16.3598 369.671 16.8295C368.966 17.2917 368.421 17.8977 368.035 18.6477C367.656 19.3902 367.466 20.197 367.466 21.0682V23.0568C367.466 24.2235 367.671 25.2159 368.08 26.0341C368.497 26.8523 369.076 27.4773 369.819 27.9091C370.561 28.3333 371.429 28.5455 372.421 28.5455C373.065 28.5455 373.652 28.4545 374.182 28.2727C374.713 28.0833 375.171 27.803 375.557 27.4318C375.944 27.0606 376.239 26.6023 376.444 26.0568L379.66 26.6364C379.402 27.5833 378.94 28.4129 378.273 29.125C377.614 29.8295 376.785 30.3788 375.785 30.7727C374.792 31.1591 373.66 31.3523 372.387 31.3523ZM388.725 31.3864C387.619 31.3864 386.619 31.1818 385.725 30.7727C384.831 30.3561 384.123 29.7538 383.6 28.9659C383.085 28.178 382.827 27.2121 382.827 26.0682C382.827 25.0833 383.017 24.2727 383.395 23.6364C383.774 23 384.286 22.4962 384.93 22.125C385.573 21.7538 386.293 21.4735 387.089 21.2841C387.884 21.0947 388.695 20.9508 389.52 20.8523C390.566 20.7311 391.414 20.6326 392.066 20.5568C392.717 20.4735 393.191 20.3409 393.486 20.1591C393.782 19.9773 393.93 19.6818 393.93 19.2727V19.1932C393.93 18.2008 393.649 17.4318 393.089 16.8864C392.536 16.3409 391.71 16.0682 390.611 16.0682C389.467 16.0682 388.566 16.322 387.907 16.8295C387.255 17.3295 386.805 17.8864 386.555 18.5L383.361 17.7727C383.74 16.7121 384.293 15.8561 385.02 15.2045C385.755 14.5455 386.6 14.0682 387.555 13.7727C388.509 13.4697 389.513 13.3182 390.566 13.3182C391.263 13.3182 392.001 13.4015 392.782 13.5682C393.57 13.7273 394.305 14.0227 394.986 14.4545C395.676 14.8864 396.24 15.5038 396.68 16.3068C397.119 17.1023 397.339 18.1364 397.339 19.4091V31H394.02V28.6136H393.884C393.664 29.053 393.335 29.4848 392.895 29.9091C392.456 30.3333 391.892 30.6856 391.202 30.9659C390.513 31.2462 389.687 31.3864 388.725 31.3864ZM389.464 28.6591C390.403 28.6591 391.206 28.4735 391.873 28.1023C392.547 27.7311 393.058 27.2462 393.407 26.6477C393.763 26.0417 393.941 25.3939 393.941 24.7045V22.4545C393.82 22.5758 393.585 22.6894 393.236 22.7955C392.895 22.8939 392.505 22.9811 392.066 23.0568C391.626 23.125 391.198 23.1894 390.782 23.25C390.365 23.303 390.017 23.3485 389.736 23.3864C389.077 23.4697 388.475 23.6098 387.93 23.8068C387.392 24.0038 386.96 24.2879 386.634 24.6591C386.316 25.0227 386.157 25.5076 386.157 26.1136C386.157 26.9545 386.467 27.5909 387.089 28.0227C387.71 28.447 388.501 28.6591 389.464 28.6591ZM410.012 13.5455V16.2727H400.478V13.5455H410.012ZM403.035 9.36364H406.432V25.875C406.432 26.5341 406.531 27.0303 406.728 27.3636C406.925 27.6894 407.179 27.9129 407.489 28.0341C407.807 28.1477 408.152 28.2045 408.523 28.2045C408.796 28.2045 409.035 28.1856 409.239 28.1477C409.444 28.1098 409.603 28.0795 409.716 28.0568L410.33 30.8636C410.133 30.9394 409.853 31.0152 409.489 31.0909C409.126 31.1742 408.671 31.2197 408.126 31.2273C407.232 31.2424 406.398 31.0833 405.626 30.75C404.853 30.4167 404.228 29.9015 403.751 29.2045C403.273 28.5076 403.035 27.6326 403.035 26.5795V9.36364ZM413.77 31V13.5455H417.168V31H413.77ZM415.486 10.8523C414.895 10.8523 414.388 10.6553 413.964 10.2614C413.547 9.85985 413.339 9.38257 413.339 8.82954C413.339 8.26894 413.547 7.79167 413.964 7.39773C414.388 6.99621 414.895 6.79545 415.486 6.79545C416.077 6.79545 416.581 6.99621 416.998 7.39773C417.422 7.79167 417.634 8.26894 417.634 8.82954C417.634 9.38257 417.422 9.85985 416.998 10.2614C416.581 10.6553 416.077 10.8523 415.486 10.8523ZM429.091 31.3523C427.455 31.3523 426.027 30.9773 424.807 30.2273C423.588 29.4773 422.641 28.428 421.966 27.0795C421.292 25.7311 420.955 24.1553 420.955 22.3523C420.955 20.5417 421.292 18.9583 421.966 17.6023C422.641 16.2462 423.588 15.1932 424.807 14.4432C426.027 13.6932 427.455 13.3182 429.091 13.3182C430.728 13.3182 432.156 13.6932 433.376 14.4432C434.595 15.1932 435.542 16.2462 436.216 17.6023C436.891 18.9583 437.228 20.5417 437.228 22.3523C437.228 24.1553 436.891 25.7311 436.216 27.0795C435.542 28.428 434.595 29.4773 433.376 30.2273C432.156 30.9773 430.728 31.3523 429.091 31.3523ZM429.103 28.5C430.163 28.5 431.042 28.2197 431.739 27.6591C432.436 27.0985 432.951 26.3523 433.285 25.4205C433.626 24.4886 433.796 23.4621 433.796 22.3409C433.796 21.2273 433.626 20.2045 433.285 19.2727C432.951 18.3333 432.436 17.5795 431.739 17.0114C431.042 16.4432 430.163 16.1591 429.103 16.1591C428.035 16.1591 427.148 16.4432 426.444 17.0114C425.747 17.5795 425.228 18.3333 424.887 19.2727C424.554 20.2045 424.387 21.2273 424.387 22.3409C424.387 23.4621 424.554 24.4886 424.887 25.4205C425.228 26.3523 425.747 27.0985 426.444 27.6591C427.148 28.2197 428.035 28.5 429.103 28.5ZM444.418 20.6364V31H441.02V13.5455H444.282V16.3864H444.498C444.899 15.4621 445.528 14.7197 446.384 14.1591C447.248 13.5985 448.335 13.3182 449.645 13.3182C450.835 13.3182 451.876 13.5682 452.77 14.0682C453.664 14.5606 454.358 15.2955 454.85 16.2727C455.342 17.25 455.589 18.4583 455.589 19.8977V31H452.191V20.3068C452.191 19.0417 451.861 18.053 451.202 17.3409C450.543 16.6212 449.638 16.2614 448.486 16.2614C447.698 16.2614 446.998 16.4318 446.384 16.7727C445.778 17.1136 445.297 17.6136 444.941 18.2727C444.592 18.9242 444.418 19.7121 444.418 20.6364ZM93.2136 65.7273C92.2969 65.7273 91.4598 65.5038 90.7022 65.0568C89.9447 64.6023 89.3386 63.9962 88.8841 63.2386C88.4371 62.4811 88.2136 61.6439 88.2136 60.7273C88.2136 59.803 88.4371 58.9659 88.8841 58.2159C89.3386 57.4583 89.9447 56.8561 90.7022 56.4091C91.4598 55.9545 92.2969 55.7273 93.2136 55.7273C94.1378 55.7273 94.975 55.9545 95.725 56.4091C96.4825 56.8561 97.0848 57.4583 97.5318 58.2159C97.9863 58.9659 98.2136 59.803 98.2136 60.7273C98.2136 61.6439 97.9863 62.4811 97.5318 63.2386C97.0848 63.9962 96.4825 64.6023 95.725 65.0568C94.975 65.5038 94.1378 65.7273 93.2136 65.7273ZM124.319 70L117.864 46.7273H121.557L126.091 64.75H126.307L131.023 46.7273H134.682L139.398 64.7614H139.614L144.137 46.7273H147.841L141.376 70H137.841L132.944 52.5682H132.762L127.864 70H124.319ZM156.574 70.3523C154.855 70.3523 153.374 69.9848 152.131 69.25C150.896 68.5076 149.942 67.4659 149.268 66.125C148.601 64.7765 148.268 63.197 148.268 61.3864C148.268 59.5985 148.601 58.0227 149.268 56.6591C149.942 55.2955 150.881 54.2311 152.086 53.4659C153.298 52.7008 154.715 52.3182 156.336 52.3182C157.321 52.3182 158.275 52.4811 159.199 52.8068C160.124 53.1326 160.953 53.6439 161.688 54.3409C162.423 55.0379 163.002 55.9432 163.427 57.0568C163.851 58.1629 164.063 59.5076 164.063 61.0909V62.2955H150.188V59.75H160.733C160.733 58.8561 160.552 58.0644 160.188 57.375C159.824 56.678 159.313 56.1288 158.654 55.7273C158.002 55.3258 157.237 55.125 156.358 55.125C155.404 55.125 154.571 55.3598 153.858 55.8295C153.154 56.2917 152.608 56.8977 152.222 57.6477C151.843 58.3902 151.654 59.197 151.654 60.0682V62.0568C151.654 63.2235 151.858 64.2159 152.268 65.0341C152.684 65.8523 153.264 66.4773 154.006 66.9091C154.749 67.3333 155.616 67.5455 156.608 67.5455C157.252 67.5455 157.84 67.4545 158.37 67.2727C158.9 67.0833 159.358 66.803 159.745 66.4318C160.131 66.0606 160.427 65.6023 160.631 65.0568L163.847 65.6364C163.59 66.5833 163.127 67.4129 162.461 68.125C161.802 68.8295 160.972 69.3788 159.972 69.7727C158.98 70.1591 157.847 70.3523 156.574 70.3523ZM168.106 70V46.7273H171.503V55.375H171.708C171.905 55.0114 172.189 54.5909 172.56 54.1136C172.931 53.6364 173.447 53.2197 174.106 52.8636C174.765 52.5 175.636 52.3182 176.719 52.3182C178.128 52.3182 179.386 52.6742 180.492 53.3864C181.598 54.0985 182.465 55.125 183.094 56.4659C183.731 57.8068 184.049 59.4205 184.049 61.3068C184.049 63.1932 183.734 64.8106 183.106 66.1591C182.477 67.5 181.613 68.5341 180.515 69.2614C179.416 69.9811 178.162 70.3409 176.753 70.3409C175.693 70.3409 174.825 70.1629 174.151 69.8068C173.484 69.4508 172.962 69.0341 172.583 68.5568C172.204 68.0795 171.912 67.6553 171.708 67.2841H171.424V70H168.106ZM171.435 61.2727C171.435 62.5 171.613 63.5758 171.969 64.5C172.325 65.4242 172.84 66.1477 173.515 66.6705C174.189 67.1856 175.015 67.4432 175.992 67.4432C177.007 67.4432 177.856 67.1742 178.537 66.6364C179.219 66.0909 179.734 65.3523 180.083 64.4205C180.439 63.4886 180.617 62.4394 180.617 61.2727C180.617 60.1212 180.443 59.0871 180.094 58.1705C179.753 57.2538 179.238 56.5303 178.549 56C177.867 55.4697 177.015 55.2045 175.992 55.2045C175.007 55.2045 174.174 55.4583 173.492 55.9659C172.818 56.4735 172.306 57.1818 171.958 58.0909C171.609 59 171.435 60.0606 171.435 61.2727ZM200.944 56.8068L197.864 57.3523C197.735 56.9583 197.531 56.5833 197.251 56.2273C196.978 55.8712 196.607 55.5795 196.137 55.3523C195.667 55.125 195.08 55.0114 194.376 55.0114C193.413 55.0114 192.61 55.2273 191.966 55.6591C191.323 56.0833 191.001 56.6326 191.001 57.3068C191.001 57.8902 191.216 58.3598 191.648 58.7159C192.08 59.072 192.777 59.3636 193.739 59.5909L196.512 60.2273C198.118 60.5985 199.315 61.1705 200.103 61.9432C200.891 62.7159 201.285 63.7197 201.285 64.9545C201.285 66 200.982 66.9318 200.376 67.75C199.777 68.5606 198.94 69.197 197.864 69.6591C196.796 70.1212 195.557 70.3523 194.148 70.3523C192.194 70.3523 190.599 69.9356 189.364 69.1023C188.129 68.2614 187.372 67.0682 187.091 65.5227L190.376 65.0227C190.58 65.8788 191.001 66.5265 191.637 66.9659C192.273 67.3977 193.103 67.6136 194.126 67.6136C195.239 67.6136 196.129 67.3826 196.796 66.9205C197.463 66.4508 197.796 65.8788 197.796 65.2045C197.796 64.6591 197.591 64.2008 197.182 63.8295C196.781 63.4583 196.163 63.178 195.33 62.9886L192.376 62.3409C190.747 61.9697 189.542 61.3788 188.762 60.5682C187.989 59.7576 187.603 58.7311 187.603 57.4886C187.603 56.4583 187.891 55.5568 188.466 54.7841C189.042 54.0114 189.838 53.4091 190.853 52.9773C191.868 52.5379 193.031 52.3182 194.341 52.3182C196.228 52.3182 197.713 52.7273 198.796 53.5455C199.879 54.3561 200.595 55.4432 200.944 56.8068ZM205.02 70V52.5455H208.418V70H205.02ZM206.736 49.8523C206.145 49.8523 205.638 49.6553 205.214 49.2614C204.797 48.8598 204.589 48.3826 204.589 47.8295C204.589 47.2689 204.797 46.7917 205.214 46.3977C205.638 45.9962 206.145 45.7955 206.736 45.7955C207.327 45.7955 207.831 45.9962 208.248 46.3977C208.672 46.7917 208.884 47.2689 208.884 47.8295C208.884 48.3826 208.672 48.8598 208.248 49.2614C207.831 49.6553 207.327 49.8523 206.736 49.8523ZM221.137 52.5455V55.2727H211.603V52.5455H221.137ZM214.16 48.3636H217.557V64.875C217.557 65.5341 217.656 66.0303 217.853 66.3636C218.05 66.6894 218.304 66.9129 218.614 67.0341C218.932 67.1477 219.277 67.2045 219.648 67.2045C219.921 67.2045 220.16 67.1856 220.364 67.1477C220.569 67.1098 220.728 67.0795 220.841 67.0568L221.455 69.8636C221.258 69.9394 220.978 70.0152 220.614 70.0909C220.251 70.1742 219.796 70.2197 219.251 70.2273C218.357 70.2424 217.523 70.0833 216.751 69.75C215.978 69.4167 215.353 68.9015 214.876 68.2045C214.398 67.5076 214.16 66.6326 214.16 65.5795V48.3636ZM232.231 70.3523C230.511 70.3523 229.03 69.9848 227.787 69.25C226.553 68.5076 225.598 67.4659 224.924 66.125C224.257 64.7765 223.924 63.197 223.924 61.3864C223.924 59.5985 224.257 58.0227 224.924 56.6591C225.598 55.2955 226.537 54.2311 227.742 53.4659C228.954 52.7008 230.371 52.3182 231.992 52.3182C232.977 52.3182 233.931 52.4811 234.856 52.8068C235.78 53.1326 236.609 53.6439 237.344 54.3409C238.079 55.0379 238.659 55.9432 239.083 57.0568C239.507 58.1629 239.719 59.5076 239.719 61.0909V62.2955H225.844V59.75H236.39C236.39 58.8561 236.208 58.0644 235.844 57.375C235.481 56.678 234.969 56.1288 234.31 55.7273C233.659 55.3258 232.894 55.125 232.015 55.125C231.06 55.125 230.227 55.3598 229.515 55.8295C228.81 56.2917 228.265 56.8977 227.878 57.6477C227.5 58.3902 227.31 59.197 227.31 60.0682V62.0568C227.31 63.2235 227.515 64.2159 227.924 65.0341C228.34 65.8523 228.92 66.4773 229.662 66.9091C230.405 67.3333 231.272 67.5455 232.265 67.5455C232.909 67.5455 233.496 67.4545 234.026 67.2727C234.556 67.0833 235.015 66.803 235.401 66.4318C235.787 66.0606 236.083 65.6023 236.287 65.0568L239.503 65.6364C239.246 66.5833 238.784 67.4129 238.117 68.125C237.458 68.8295 236.628 69.3788 235.628 69.7727C234.636 70.1591 233.503 70.3523 232.231 70.3523ZM252.231 70V46.7273H255.742V66.9773H266.287V70H252.231ZM275.1 70.3864C273.994 70.3864 272.994 70.1818 272.1 69.7727C271.206 69.3561 270.498 68.7538 269.975 67.9659C269.46 67.178 269.202 66.2121 269.202 65.0682C269.202 64.0833 269.392 63.2727 269.77 62.6364C270.149 62 270.661 61.4962 271.305 61.125C271.948 60.7538 272.668 60.4735 273.464 60.2841C274.259 60.0947 275.07 59.9508 275.895 59.8523C276.941 59.7311 277.789 59.6326 278.441 59.5568C279.092 59.4735 279.566 59.3409 279.861 59.1591C280.157 58.9773 280.305 58.6818 280.305 58.2727V58.1932C280.305 57.2008 280.024 56.4318 279.464 55.8864C278.911 55.3409 278.085 55.0682 276.986 55.0682C275.842 55.0682 274.941 55.322 274.282 55.8295C273.63 56.3295 273.18 56.8864 272.93 57.5L269.736 56.7727C270.115 55.7121 270.668 54.8561 271.395 54.2045C272.13 53.5455 272.975 53.0682 273.93 52.7727C274.884 52.4697 275.888 52.3182 276.941 52.3182C277.638 52.3182 278.376 52.4015 279.157 52.5682C279.945 52.7273 280.68 53.0227 281.361 53.4545C282.051 53.8864 282.615 54.5038 283.055 55.3068C283.494 56.1023 283.714 57.1364 283.714 58.4091V70H280.395V67.6136H280.259C280.039 68.053 279.71 68.4848 279.27 68.9091C278.831 69.3333 278.267 69.6856 277.577 69.9659C276.888 70.2462 276.062 70.3864 275.1 70.3864ZM275.839 67.6591C276.778 67.6591 277.581 67.4735 278.248 67.1023C278.922 66.7311 279.433 66.2462 279.782 65.6477C280.138 65.0417 280.316 64.3939 280.316 63.7045V61.4545C280.195 61.5758 279.96 61.6894 279.611 61.7955C279.27 61.8939 278.88 61.9811 278.441 62.0568C278.001 62.125 277.573 62.1894 277.157 62.25C276.74 62.303 276.392 62.3485 276.111 62.3864C275.452 62.4697 274.85 62.6098 274.305 62.8068C273.767 63.0038 273.335 63.2879 273.009 63.6591C272.691 64.0227 272.532 64.5076 272.532 65.1136C272.532 65.9545 272.842 66.5909 273.464 67.0227C274.085 67.447 274.876 67.6591 275.839 67.6591ZM299.296 62.7614V52.5455H302.705V70H299.364V66.9773H299.182C298.781 67.9091 298.137 68.6856 297.251 69.3068C296.372 69.9205 295.277 70.2273 293.966 70.2273C292.845 70.2273 291.853 69.9811 290.989 69.4886C290.133 68.9886 289.459 68.25 288.966 67.2727C288.482 66.2955 288.239 65.0871 288.239 63.6477V52.5455H291.637V63.2386C291.637 64.428 291.966 65.375 292.626 66.0795C293.285 66.7841 294.141 67.1364 295.194 67.1364C295.83 67.1364 296.463 66.9773 297.091 66.6591C297.728 66.3409 298.254 65.8598 298.671 65.2159C299.095 64.572 299.304 63.7538 299.296 62.7614ZM310.668 59.6364V70H307.27V52.5455H310.532V55.3864H310.748C311.149 54.4621 311.778 53.7197 312.634 53.1591C313.498 52.5985 314.585 52.3182 315.895 52.3182C317.085 52.3182 318.126 52.5682 319.02 53.0682C319.914 53.5606 320.608 54.2955 321.1 55.2727C321.592 56.25 321.839 57.4583 321.839 58.8977V70H318.441V59.3068C318.441 58.0417 318.111 57.053 317.452 56.3409C316.793 55.6212 315.888 55.2614 314.736 55.2614C313.948 55.2614 313.248 55.4318 312.634 55.7727C312.028 56.1136 311.547 56.6136 311.191 57.2727C310.842 57.9242 310.668 58.7121 310.668 59.6364ZM333.748 70.3523C332.058 70.3523 330.604 69.9697 329.384 69.2045C328.172 68.4318 327.24 67.3674 326.589 66.0114C325.937 64.6553 325.611 63.1023 325.611 61.3523C325.611 59.5795 325.945 58.0152 326.611 56.6591C327.278 55.2955 328.217 54.2311 329.43 53.4659C330.642 52.7008 332.07 52.3182 333.714 52.3182C335.039 52.3182 336.221 52.5644 337.259 53.0568C338.297 53.5417 339.134 54.2235 339.77 55.1023C340.414 55.9811 340.797 57.0076 340.918 58.1818H337.611C337.43 57.3636 337.013 56.6591 336.361 56.0682C335.717 55.4773 334.854 55.1818 333.77 55.1818C332.823 55.1818 331.994 55.4318 331.282 55.9318C330.577 56.4242 330.028 57.1288 329.634 58.0455C329.24 58.9545 329.043 60.0303 329.043 61.2727C329.043 62.5455 329.236 63.6439 329.623 64.5682C330.009 65.4924 330.555 66.2083 331.259 66.7159C331.971 67.2235 332.808 67.4773 333.77 67.4773C334.414 67.4773 334.998 67.3598 335.52 67.125C336.051 66.8826 336.494 66.5379 336.85 66.0909C337.214 65.6439 337.467 65.1061 337.611 64.4773H340.918C340.797 65.6061 340.43 66.6136 339.816 67.5C339.202 68.3864 338.38 69.0833 337.35 69.5909C336.327 70.0985 335.126 70.3523 333.748 70.3523ZM347.949 59.6364V70H344.552V46.7273H347.904V55.3864H348.12C348.529 54.447 349.154 53.7008 349.995 53.1477C350.836 52.5947 351.934 52.3182 353.29 52.3182C354.487 52.3182 355.533 52.5644 356.427 53.0568C357.328 53.5492 358.025 54.2841 358.518 55.2614C359.018 56.2311 359.268 57.4432 359.268 58.8977V70H355.87V59.3068C355.87 58.0265 355.54 57.0341 354.881 56.3295C354.222 55.6174 353.305 55.2614 352.131 55.2614C351.328 55.2614 350.608 55.4318 349.972 55.7727C349.343 56.1136 348.847 56.6136 348.483 57.2727C348.127 57.9242 347.949 58.7121 347.949 59.6364ZM93.2136 104.727C92.2969 104.727 91.4598 104.504 90.7022 104.057C89.9447 103.602 89.3386 102.996 88.8841 102.239C88.4371 101.481 88.2136 100.644 88.2136 99.7273C88.2136 98.803 88.4371 97.9659 88.8841 97.2159C89.3386 96.4583 89.9447 95.8561 90.7022 95.4091C91.4598 94.9545 92.2969 94.7273 93.2136 94.7273C94.1378 94.7273 94.975 94.9545 95.725 95.4091C96.4825 95.8561 97.0848 96.4583 97.5318 97.2159C97.9863 97.9659 98.2136 98.803 98.2136 99.7273C98.2136 100.644 97.9863 101.481 97.5318 102.239C97.0848 102.996 96.4825 103.602 95.725 104.057C94.975 104.504 94.1378 104.727 93.2136 104.727ZM119.762 109V85.7273H123.273V105.977H133.819V109H119.762ZM137.552 109V91.5455H140.949V109H137.552ZM139.268 88.8523C138.677 88.8523 138.169 88.6553 137.745 88.2614C137.328 87.8598 137.12 87.3826 137.12 86.8295C137.12 86.2689 137.328 85.7917 137.745 85.3977C138.169 84.9962 138.677 84.7955 139.268 84.7955C139.858 84.7955 140.362 84.9962 140.779 85.3977C141.203 85.7917 141.415 86.2689 141.415 86.8295C141.415 87.3826 141.203 87.8598 140.779 88.2614C140.362 88.6553 139.858 88.8523 139.268 88.8523ZM153.668 91.5455V94.2727H144.134V91.5455H153.668ZM146.691 87.3636H150.089V103.875C150.089 104.534 150.187 105.03 150.384 105.364C150.581 105.689 150.835 105.913 151.145 106.034C151.464 106.148 151.808 106.205 152.18 106.205C152.452 106.205 152.691 106.186 152.895 106.148C153.1 106.11 153.259 106.08 153.373 106.057L153.986 108.864C153.789 108.939 153.509 109.015 153.145 109.091C152.782 109.174 152.327 109.22 151.782 109.227C150.888 109.242 150.055 109.083 149.282 108.75C148.509 108.417 147.884 107.902 147.407 107.205C146.93 106.508 146.691 105.633 146.691 104.58V87.3636ZM164.762 109.352C163.042 109.352 161.561 108.985 160.319 108.25C159.084 107.508 158.129 106.466 157.455 105.125C156.788 103.777 156.455 102.197 156.455 100.386C156.455 98.5985 156.788 97.0227 157.455 95.6591C158.129 94.2955 159.069 93.2311 160.273 92.4659C161.485 91.7008 162.902 91.3182 164.523 91.3182C165.508 91.3182 166.463 91.4811 167.387 91.8068C168.311 92.1326 169.141 92.6439 169.876 93.3409C170.61 94.0379 171.19 94.9432 171.614 96.0568C172.038 97.1629 172.251 98.5076 172.251 100.091V101.295H158.376V98.75H168.921C168.921 97.8561 168.739 97.0644 168.376 96.375C168.012 95.678 167.501 95.1288 166.841 94.7273C166.19 94.3258 165.425 94.125 164.546 94.125C163.591 94.125 162.758 94.3598 162.046 94.8295C161.341 95.2917 160.796 95.8977 160.41 96.6477C160.031 97.3902 159.841 98.197 159.841 99.0682V101.057C159.841 102.223 160.046 103.216 160.455 104.034C160.872 104.852 161.451 105.477 162.194 105.909C162.936 106.333 163.804 106.545 164.796 106.545C165.44 106.545 166.027 106.455 166.557 106.273C167.088 106.083 167.546 105.803 167.932 105.432C168.319 105.061 168.614 104.602 168.819 104.057L172.035 104.636C171.777 105.583 171.315 106.413 170.648 107.125C169.989 107.83 169.16 108.379 168.16 108.773C167.167 109.159 166.035 109.352 164.762 109.352ZM176.02 115.545V91.5455H179.339V94.375H179.623C179.82 94.0114 180.104 93.5909 180.475 93.1136C180.846 92.6364 181.361 92.2197 182.02 91.8636C182.68 91.5 183.551 91.3182 184.634 91.3182C186.043 91.3182 187.301 91.6742 188.407 92.3864C189.513 93.0985 190.38 94.125 191.009 95.4659C191.645 96.8068 191.964 98.4205 191.964 100.307C191.964 102.193 191.649 103.811 191.02 105.159C190.392 106.5 189.528 107.534 188.43 108.261C187.331 108.981 186.077 109.341 184.668 109.341C183.608 109.341 182.74 109.163 182.066 108.807C181.399 108.451 180.876 108.034 180.498 107.557C180.119 107.08 179.827 106.655 179.623 106.284H179.418V115.545H176.02ZM179.35 100.273C179.35 101.5 179.528 102.576 179.884 103.5C180.24 104.424 180.755 105.148 181.43 105.67C182.104 106.186 182.93 106.443 183.907 106.443C184.922 106.443 185.77 106.174 186.452 105.636C187.134 105.091 187.649 104.352 187.998 103.42C188.354 102.489 188.532 101.439 188.532 100.273C188.532 99.1212 188.358 98.0871 188.009 97.1705C187.668 96.2538 187.153 95.5303 186.464 95C185.782 94.4697 184.93 94.2045 183.907 94.2045C182.922 94.2045 182.089 94.4583 181.407 94.9659C180.733 95.4735 180.221 96.1818 179.873 97.0909C179.524 98 179.35 99.0606 179.35 100.273ZM200.85 109.386C199.744 109.386 198.744 109.182 197.85 108.773C196.956 108.356 196.248 107.754 195.725 106.966C195.21 106.178 194.952 105.212 194.952 104.068C194.952 103.083 195.142 102.273 195.52 101.636C195.899 101 196.411 100.496 197.055 100.125C197.698 99.7538 198.418 99.4735 199.214 99.2841C200.009 99.0947 200.82 98.9508 201.645 98.8523C202.691 98.7311 203.539 98.6326 204.191 98.5568C204.842 98.4735 205.316 98.3409 205.611 98.1591C205.907 97.9773 206.055 97.6818 206.055 97.2727V97.1932C206.055 96.2008 205.774 95.4318 205.214 94.8864C204.661 94.3409 203.835 94.0682 202.736 94.0682C201.592 94.0682 200.691 94.322 200.032 94.8295C199.38 95.3295 198.93 95.8864 198.68 96.5L195.486 95.7727C195.865 94.7121 196.418 93.8561 197.145 93.2045C197.88 92.5455 198.725 92.0682 199.68 91.7727C200.634 91.4697 201.638 91.3182 202.691 91.3182C203.388 91.3182 204.126 91.4015 204.907 91.5682C205.695 91.7273 206.43 92.0227 207.111 92.4545C207.801 92.8864 208.365 93.5038 208.805 94.3068C209.244 95.1023 209.464 96.1364 209.464 97.4091V109H206.145V106.614H206.009C205.789 107.053 205.46 107.485 205.02 107.909C204.581 108.333 204.017 108.686 203.327 108.966C202.638 109.246 201.812 109.386 200.85 109.386ZM201.589 106.659C202.528 106.659 203.331 106.473 203.998 106.102C204.672 105.731 205.183 105.246 205.532 104.648C205.888 104.042 206.066 103.394 206.066 102.705V100.455C205.945 100.576 205.71 100.689 205.361 100.795C205.02 100.894 204.63 100.981 204.191 101.057C203.751 101.125 203.323 101.189 202.907 101.25C202.49 101.303 202.142 101.348 201.861 101.386C201.202 101.47 200.6 101.61 200.055 101.807C199.517 102.004 199.085 102.288 198.759 102.659C198.441 103.023 198.282 103.508 198.282 104.114C198.282 104.955 198.592 105.591 199.214 106.023C199.835 106.447 200.626 106.659 201.589 106.659ZM213.989 115.545V91.5455H217.307V94.375H217.591C217.788 94.0114 218.073 93.5909 218.444 93.1136C218.815 92.6364 219.33 92.2197 219.989 91.8636C220.648 91.5 221.519 91.3182 222.603 91.3182C224.012 91.3182 225.269 91.6742 226.376 92.3864C227.482 93.0985 228.349 94.125 228.978 95.4659C229.614 96.8068 229.932 98.4205 229.932 100.307C229.932 102.193 229.618 103.811 228.989 105.159C228.36 106.5 227.497 107.534 226.398 108.261C225.3 108.981 224.046 109.341 222.637 109.341C221.576 109.341 220.709 109.163 220.035 108.807C219.368 108.451 218.845 108.034 218.466 107.557C218.088 107.08 217.796 106.655 217.591 106.284H217.387V115.545H213.989ZM217.319 100.273C217.319 101.5 217.497 102.576 217.853 103.5C218.209 104.424 218.724 105.148 219.398 105.67C220.073 106.186 220.898 106.443 221.876 106.443C222.891 106.443 223.739 106.174 224.421 105.636C225.103 105.091 225.618 104.352 225.966 103.42C226.323 102.489 226.501 101.439 226.501 100.273C226.501 99.1212 226.326 98.0871 225.978 97.1705C225.637 96.2538 225.122 95.5303 224.432 95C223.751 94.4697 222.898 94.2045 221.876 94.2045C220.891 94.2045 220.057 94.4583 219.376 94.9659C218.701 95.4735 218.19 96.1818 217.841 97.0909C217.493 98 217.319 99.0606 217.319 100.273ZM241.262 109.352C239.542 109.352 238.061 108.985 236.819 108.25C235.584 107.508 234.629 106.466 233.955 105.125C233.288 103.777 232.955 102.197 232.955 100.386C232.955 98.5985 233.288 97.0227 233.955 95.6591C234.629 94.2955 235.569 93.2311 236.773 92.4659C237.985 91.7008 239.402 91.3182 241.023 91.3182C242.008 91.3182 242.963 91.4811 243.887 91.8068C244.811 92.1326 245.641 92.6439 246.376 93.3409C247.11 94.0379 247.69 94.9432 248.114 96.0568C248.538 97.1629 248.751 98.5076 248.751 100.091V101.295H234.876V98.75H245.421C245.421 97.8561 245.239 97.0644 244.876 96.375C244.512 95.678 244.001 95.1288 243.341 94.7273C242.69 94.3258 241.925 94.125 241.046 94.125C240.091 94.125 239.258 94.3598 238.546 94.8295C237.841 95.2917 237.296 95.8977 236.91 96.6477C236.531 97.3902 236.341 98.197 236.341 99.0682V101.057C236.341 102.223 236.546 103.216 236.955 104.034C237.372 104.852 237.951 105.477 238.694 105.909C239.436 106.333 240.304 106.545 241.296 106.545C241.94 106.545 242.527 106.455 243.057 106.273C243.588 106.083 244.046 105.803 244.432 105.432C244.819 105.061 245.114 104.602 245.319 104.057L248.535 104.636C248.277 105.583 247.815 106.413 247.148 107.125C246.489 107.83 245.66 108.379 244.66 108.773C243.667 109.159 242.535 109.352 241.262 109.352ZM252.52 109V91.5455H255.805V94.3182H255.986C256.305 93.3788 256.865 92.6402 257.668 92.1023C258.479 91.5568 259.395 91.2841 260.418 91.2841C260.63 91.2841 260.88 91.2917 261.168 91.3068C261.464 91.322 261.695 91.3409 261.861 91.3636V94.6136C261.725 94.5758 261.483 94.5341 261.134 94.4886C260.786 94.4356 260.437 94.4091 260.089 94.4091C259.286 94.4091 258.57 94.5795 257.941 94.9205C257.32 95.2538 256.827 95.7197 256.464 96.3182C256.1 96.9091 255.918 97.5833 255.918 98.3409V109H252.52Z" fill="#4CC9F0"/>
<line x1="93.7051" y1="20" x2="93.7051" y2="335" stroke="#0FA9D9"/>
</svg>
