<svg width="646" height="627" viewBox="0 0 646 627" fill="none" xmlns="http://www.w3.org/2000/svg">
<path d="M368 335L314 379.167V290.833L368 335Z" fill="#4CC9F0"/>
<path fill-rule="evenodd" clip-rule="evenodd" d="M0.204543 379L54 335L0.204543 291H314V379H0.204543ZM0 379L1.51992e-06 291H0V379Z" fill="#4CC9F0"/>
<path d="M128.011 349V346.443L137.614 335.932C138.741 334.701 139.669 333.631 140.398 332.722C141.127 331.803 141.667 330.941 142.017 330.136C142.377 329.322 142.557 328.47 142.557 327.58C142.557 326.557 142.311 325.671 141.818 324.923C141.335 324.175 140.672 323.598 139.83 323.19C138.987 322.783 138.04 322.58 136.989 322.58C135.871 322.58 134.896 322.812 134.062 323.276C133.239 323.73 132.599 324.369 132.145 325.193C131.7 326.017 131.477 326.983 131.477 328.091H128.125C128.125 326.386 128.518 324.89 129.304 323.602C130.09 322.314 131.16 321.311 132.514 320.591C133.878 319.871 135.407 319.511 137.102 319.511C138.807 319.511 140.317 319.871 141.634 320.591C142.95 321.311 143.982 322.281 144.73 323.503C145.478 324.724 145.852 326.083 145.852 327.58C145.852 328.65 145.658 329.696 145.27 330.719C144.891 331.732 144.228 332.864 143.281 334.114C142.344 335.354 141.042 336.869 139.375 338.659L132.841 345.648V345.875H146.364V349H128.011ZM161.719 349.398C159.579 349.398 157.756 348.815 156.25 347.651C154.744 346.476 153.594 344.777 152.798 342.551C152.003 340.316 151.605 337.617 151.605 334.455C151.605 331.311 152.003 328.626 152.798 326.401C153.603 324.166 154.759 322.461 156.264 321.287C157.779 320.103 159.598 319.511 161.719 319.511C163.84 319.511 165.653 320.103 167.159 321.287C168.674 322.461 169.83 324.166 170.625 326.401C171.43 328.626 171.832 331.311 171.832 334.455C171.832 337.617 171.435 340.316 170.639 342.551C169.844 344.777 168.693 346.476 167.188 347.651C165.682 348.815 163.859 349.398 161.719 349.398ZM161.719 346.273C163.84 346.273 165.488 345.25 166.662 343.205C167.836 341.159 168.423 338.242 168.423 334.455C168.423 331.936 168.153 329.791 167.614 328.02C167.083 326.249 166.316 324.9 165.312 323.972C164.318 323.044 163.12 322.58 161.719 322.58C159.616 322.58 157.973 323.616 156.79 325.69C155.606 327.755 155.014 330.676 155.014 334.455C155.014 336.973 155.279 339.114 155.81 340.875C156.34 342.636 157.102 343.976 158.097 344.895C159.1 345.813 160.308 346.273 161.719 346.273ZM177.23 349V346.443L186.832 335.932C187.959 334.701 188.887 333.631 189.616 332.722C190.346 331.803 190.885 330.941 191.236 330.136C191.596 329.322 191.776 328.47 191.776 327.58C191.776 326.557 191.529 325.671 191.037 324.923C190.554 324.175 189.891 323.598 189.048 323.19C188.205 322.783 187.259 322.58 186.207 322.58C185.09 322.58 184.115 322.812 183.281 323.276C182.457 323.73 181.818 324.369 181.364 325.193C180.919 326.017 180.696 326.983 180.696 328.091H177.344C177.344 326.386 177.737 324.89 178.523 323.602C179.309 322.314 180.379 321.311 181.733 320.591C183.097 319.871 184.626 319.511 186.321 319.511C188.026 319.511 189.536 319.871 190.852 320.591C192.169 321.311 193.201 322.281 193.949 323.503C194.697 324.724 195.071 326.083 195.071 327.58C195.071 328.65 194.877 329.696 194.489 330.719C194.11 331.732 193.447 332.864 192.5 334.114C191.562 335.354 190.26 336.869 188.594 338.659L182.06 345.648V345.875H195.582V349H177.23ZM211.278 349.398C209.403 349.398 207.732 349.076 206.264 348.432C204.806 347.788 203.646 346.893 202.784 345.747C201.932 344.592 201.468 343.252 201.392 341.727H204.972C205.047 342.665 205.369 343.474 205.938 344.156C206.506 344.829 207.249 345.349 208.168 345.719C209.086 346.088 210.104 346.273 211.222 346.273C212.472 346.273 213.58 346.055 214.545 345.619C215.511 345.184 216.269 344.578 216.818 343.801C217.367 343.025 217.642 342.125 217.642 341.102C217.642 340.032 217.377 339.09 216.847 338.276C216.316 337.452 215.54 336.808 214.517 336.344C213.494 335.88 212.244 335.648 210.767 335.648H208.438V332.523H210.767C211.922 332.523 212.936 332.314 213.807 331.898C214.688 331.481 215.374 330.894 215.866 330.136C216.368 329.379 216.619 328.489 216.619 327.466C216.619 326.481 216.402 325.624 215.966 324.895C215.53 324.166 214.915 323.598 214.119 323.19C213.333 322.783 212.405 322.58 211.335 322.58C210.331 322.58 209.384 322.764 208.494 323.134C207.614 323.493 206.894 324.019 206.335 324.71C205.777 325.392 205.473 326.216 205.426 327.182H202.017C202.074 325.657 202.533 324.322 203.395 323.176C204.257 322.021 205.384 321.121 206.776 320.477C208.177 319.833 209.716 319.511 211.392 319.511C213.191 319.511 214.735 319.876 216.023 320.605C217.311 321.325 218.3 322.277 218.991 323.46C219.683 324.644 220.028 325.922 220.028 327.295C220.028 328.934 219.598 330.33 218.736 331.486C217.884 332.641 216.723 333.441 215.256 333.886V334.114C217.093 334.417 218.527 335.198 219.56 336.457C220.592 337.707 221.108 339.256 221.108 341.102C221.108 342.684 220.677 344.104 219.815 345.364C218.963 346.614 217.798 347.598 216.321 348.318C214.844 349.038 213.163 349.398 211.278 349.398ZM249.247 339.909H253.111L256.349 344.17L257.202 345.307L262.031 351.727H258.168L254.986 347.466L254.19 346.386L249.247 339.909ZM263.224 334.455C263.224 337.523 262.67 340.174 261.562 342.409C260.455 344.644 258.935 346.367 257.003 347.58C255.071 348.792 252.865 349.398 250.384 349.398C247.902 349.398 245.696 348.792 243.764 347.58C241.832 346.367 240.313 344.644 239.205 342.409C238.097 340.174 237.543 337.523 237.543 334.455C237.543 331.386 238.097 328.735 239.205 326.5C240.313 324.265 241.832 322.542 243.764 321.33C245.696 320.117 247.902 319.511 250.384 319.511C252.865 319.511 255.071 320.117 257.003 321.33C258.935 322.542 260.455 324.265 261.562 326.5C262.67 328.735 263.224 331.386 263.224 334.455ZM259.815 334.455C259.815 331.936 259.394 329.81 258.551 328.077C257.718 326.344 256.586 325.032 255.156 324.142C253.736 323.252 252.145 322.807 250.384 322.807C248.622 322.807 247.027 323.252 245.597 324.142C244.176 325.032 243.045 326.344 242.202 328.077C241.368 329.81 240.952 331.936 240.952 334.455C240.952 336.973 241.368 339.099 242.202 340.832C243.045 342.565 244.176 343.877 245.597 344.767C247.027 345.657 248.622 346.102 250.384 346.102C252.145 346.102 253.736 345.657 255.156 344.767C256.586 343.877 257.718 342.565 258.551 340.832C259.394 339.099 259.815 336.973 259.815 334.455ZM278.466 349.398C276.591 349.398 274.92 349.076 273.452 348.432C271.993 347.788 270.833 346.893 269.972 345.747C269.119 344.592 268.655 343.252 268.58 341.727H272.159C272.235 342.665 272.557 343.474 273.125 344.156C273.693 344.829 274.437 345.349 275.355 345.719C276.274 346.088 277.292 346.273 278.409 346.273C279.659 346.273 280.767 346.055 281.733 345.619C282.699 345.184 283.456 344.578 284.006 343.801C284.555 343.025 284.83 342.125 284.83 341.102C284.83 340.032 284.564 339.09 284.034 338.276C283.504 337.452 282.727 336.808 281.705 336.344C280.682 335.88 279.432 335.648 277.955 335.648H275.625V332.523H277.955C279.11 332.523 280.123 332.314 280.994 331.898C281.875 331.481 282.562 330.894 283.054 330.136C283.556 329.379 283.807 328.489 283.807 327.466C283.807 326.481 283.589 325.624 283.153 324.895C282.718 324.166 282.102 323.598 281.307 323.19C280.521 322.783 279.593 322.58 278.523 322.58C277.519 322.58 276.572 322.764 275.682 323.134C274.801 323.493 274.081 324.019 273.523 324.71C272.964 325.392 272.661 326.216 272.614 327.182H269.205C269.261 325.657 269.721 324.322 270.582 323.176C271.444 322.021 272.571 321.121 273.963 320.477C275.365 319.833 276.903 319.511 278.58 319.511C280.379 319.511 281.922 319.876 283.21 320.605C284.498 321.325 285.488 322.277 286.179 323.46C286.87 324.644 287.216 325.922 287.216 327.295C287.216 328.934 286.785 330.33 285.923 331.486C285.071 332.641 283.911 333.441 282.443 333.886V334.114C284.28 334.417 285.715 335.198 286.747 336.457C287.779 337.707 288.295 339.256 288.295 341.102C288.295 342.684 287.865 344.104 287.003 345.364C286.151 346.614 284.986 347.598 283.509 348.318C282.031 349.038 280.35 349.398 278.466 349.398Z" fill="black"/>
<circle cx="93.5" cy="335.5" r="8.5" fill="#D9D9D9"/>
<path d="M93.2136 26.7273C92.2969 26.7273 91.4598 26.5038 90.7022 26.0568C89.9447 25.6023 89.3386 24.9962 88.8841 24.2386C88.4371 23.4811 88.2136 22.6439 88.2136 21.7273C88.2136 20.803 88.4371 19.9659 88.8841 19.2159C89.3386 18.4583 89.9447 17.8561 90.7022 17.4091C91.4598 16.9545 92.2969 16.7273 93.2136 16.7273C94.1378 16.7273 94.975 16.9545 95.725 17.4091C96.4825 17.8561 97.0848 18.4583 97.5318 19.2159C97.9863 19.9659 98.2136 20.803 98.2136 21.7273C98.2136 22.6439 97.9863 23.4811 97.5318 24.2386C97.0848 24.9962 96.4825 25.6023 95.725 26.0568C94.975 26.5038 94.1378 26.7273 93.2136 26.7273ZM127.296 31H119.762V7.72727H127.535C129.815 7.72727 131.773 8.19318 133.41 9.125C135.046 10.0492 136.3 11.3788 137.171 13.1136C138.05 14.8409 138.489 16.9129 138.489 19.3295C138.489 21.7538 138.046 23.8371 137.16 25.5795C136.281 27.322 135.008 28.6629 133.341 29.6023C131.675 30.5341 129.66 31 127.296 31ZM123.273 27.9318H127.103C128.876 27.9318 130.349 27.5985 131.523 26.9318C132.698 26.2576 133.576 25.2841 134.16 24.0114C134.743 22.7311 135.035 21.1705 135.035 19.3295C135.035 17.5038 134.743 15.9545 134.16 14.6818C133.584 13.4091 132.724 12.4432 131.58 11.7841C130.436 11.125 129.016 10.7955 127.319 10.7955H123.273V27.9318ZM142.583 31V13.5455H145.867V16.3182H146.049C146.367 15.3788 146.928 14.6402 147.731 14.1023C148.541 13.5568 149.458 13.2841 150.481 13.2841C150.693 13.2841 150.943 13.2917 151.231 13.3068C151.526 13.322 151.757 13.3409 151.924 13.3636V16.6136C151.787 16.5758 151.545 16.5341 151.197 16.4886C150.848 16.4356 150.5 16.4091 150.151 16.4091C149.348 16.4091 148.632 16.5795 148.003 16.9205C147.382 17.2538 146.89 17.7197 146.526 18.3182C146.162 18.9091 145.981 19.5833 145.981 20.3409V31H142.583ZM159.787 31.3864C158.681 31.3864 157.681 31.1818 156.787 30.7727C155.894 30.3561 155.185 29.7538 154.662 28.9659C154.147 28.178 153.89 27.2121 153.89 26.0682C153.89 25.0833 154.079 24.2727 154.458 23.6364C154.837 23 155.348 22.4962 155.992 22.125C156.636 21.7538 157.356 21.4735 158.151 21.2841C158.947 21.0947 159.757 20.9508 160.583 20.8523C161.628 20.7311 162.477 20.6326 163.128 20.5568C163.78 20.4735 164.253 20.3409 164.549 20.1591C164.844 19.9773 164.992 19.6818 164.992 19.2727V19.1932C164.992 18.2008 164.712 17.4318 164.151 16.8864C163.598 16.3409 162.772 16.0682 161.674 16.0682C160.53 16.0682 159.628 16.322 158.969 16.8295C158.318 17.3295 157.867 17.8864 157.617 18.5L154.424 17.7727C154.803 16.7121 155.356 15.8561 156.083 15.2045C156.818 14.5455 157.662 14.0682 158.617 13.7727C159.572 13.4697 160.575 13.3182 161.628 13.3182C162.325 13.3182 163.064 13.4015 163.844 13.5682C164.632 13.7273 165.367 14.0227 166.049 14.4545C166.738 14.8864 167.303 15.5038 167.742 16.3068C168.181 17.1023 168.401 18.1364 168.401 19.4091V31H165.083V28.6136H164.947C164.727 29.053 164.397 29.4848 163.958 29.9091C163.519 30.3333 162.954 30.6856 162.265 30.9659C161.575 31.2462 160.75 31.3864 159.787 31.3864ZM160.526 28.6591C161.465 28.6591 162.269 28.4735 162.935 28.1023C163.609 27.7311 164.121 27.2462 164.469 26.6477C164.825 26.0417 165.003 25.3939 165.003 24.7045V22.4545C164.882 22.5758 164.647 22.6894 164.299 22.7955C163.958 22.8939 163.568 22.9811 163.128 23.0568C162.689 23.125 162.261 23.1894 161.844 23.25C161.428 23.303 161.079 23.3485 160.799 23.3864C160.14 23.4697 159.537 23.6098 158.992 23.8068C158.454 24.0038 158.022 24.2879 157.697 24.6591C157.378 25.0227 157.219 25.5076 157.219 26.1136C157.219 26.9545 157.53 27.5909 158.151 28.0227C158.772 28.447 159.564 28.6591 160.526 28.6591ZM181.233 13.5455V16.2727H171.37V13.5455H181.233ZM174.074 31V11.5227C174.074 10.4318 174.313 9.52651 174.79 8.80682C175.268 8.07954 175.9 7.53788 176.688 7.18182C177.476 6.81818 178.332 6.63636 179.256 6.63636C179.938 6.63636 180.521 6.69318 181.006 6.80682C181.491 6.91288 181.851 7.01136 182.086 7.10227L181.29 9.85227C181.131 9.80682 180.927 9.75379 180.677 9.69318C180.427 9.625 180.124 9.59091 179.768 9.59091C178.942 9.59091 178.351 9.79545 177.995 10.2045C177.646 10.6136 177.472 11.2045 177.472 11.9773V31H174.074ZM192.887 13.5455V16.2727H183.353V13.5455H192.887ZM185.91 9.36364H189.307V25.875C189.307 26.5341 189.406 27.0303 189.603 27.3636C189.8 27.6894 190.054 27.9129 190.364 28.0341C190.682 28.1477 191.027 28.2045 191.398 28.2045C191.671 28.2045 191.91 28.1856 192.114 28.1477C192.319 28.1098 192.478 28.0795 192.591 28.0568L193.205 30.8636C193.008 30.9394 192.728 31.0152 192.364 31.0909C192.001 31.1742 191.546 31.2197 191.001 31.2273C190.107 31.2424 189.273 31.0833 188.501 30.75C187.728 30.4167 187.103 29.9015 186.626 29.2045C186.148 28.5076 185.91 27.6326 185.91 26.5795V9.36364ZM209.944 31L203.489 7.72727H207.182L211.716 25.75H211.932L216.648 7.72727H220.307L225.023 25.7614H225.239L229.762 7.72727H233.466L227.001 31H223.466L218.569 13.5682H218.387L213.489 31H209.944ZM239.793 20.6364V31H236.395V7.72727H239.748V16.3864H239.964C240.373 15.447 240.998 14.7008 241.839 14.1477C242.68 13.5947 243.778 13.3182 245.134 13.3182C246.331 13.3182 247.376 13.5644 248.27 14.0568C249.172 14.5492 249.869 15.2841 250.361 16.2614C250.861 17.2311 251.111 18.4432 251.111 19.8977V31H247.714V20.3068C247.714 19.0265 247.384 18.0341 246.725 17.3295C246.066 16.6174 245.149 16.2614 243.975 16.2614C243.172 16.2614 242.452 16.4318 241.816 16.7727C241.187 17.1136 240.691 17.6136 240.327 18.2727C239.971 18.9242 239.793 19.7121 239.793 20.6364ZM255.645 31V13.5455H259.043V31H255.645ZM257.361 10.8523C256.77 10.8523 256.263 10.6553 255.839 10.2614C255.422 9.85985 255.214 9.38257 255.214 8.82954C255.214 8.26894 255.422 7.79167 255.839 7.39773C256.263 6.99621 256.77 6.79545 257.361 6.79545C257.952 6.79545 258.456 6.99621 258.873 7.39773C259.297 7.79167 259.509 8.26894 259.509 8.82954C259.509 9.38257 259.297 9.85985 258.873 10.2614C258.456 10.6553 257.952 10.8523 257.361 10.8523ZM271.762 13.5455V16.2727H262.228V13.5455H271.762ZM264.785 9.36364H268.182V25.875C268.182 26.5341 268.281 27.0303 268.478 27.3636C268.675 27.6894 268.929 27.9129 269.239 28.0341C269.557 28.1477 269.902 28.2045 270.273 28.2045C270.546 28.2045 270.785 28.1856 270.989 28.1477C271.194 28.1098 271.353 28.0795 271.466 28.0568L272.08 30.8636C271.883 30.9394 271.603 31.0152 271.239 31.0909C270.876 31.1742 270.421 31.2197 269.876 31.2273C268.982 31.2424 268.148 31.0833 267.376 30.75C266.603 30.4167 265.978 29.9015 265.501 29.2045C265.023 28.5076 264.785 27.6326 264.785 26.5795V9.36364ZM282.856 31.3523C281.136 31.3523 279.655 30.9848 278.412 30.25C277.178 29.5076 276.223 28.4659 275.549 27.125C274.882 25.7765 274.549 24.197 274.549 22.3864C274.549 20.5985 274.882 19.0227 275.549 17.6591C276.223 16.2955 277.162 15.2311 278.367 14.4659C279.579 13.7008 280.996 13.3182 282.617 13.3182C283.602 13.3182 284.556 13.4811 285.481 13.8068C286.405 14.1326 287.234 14.6439 287.969 15.3409C288.704 16.0379 289.284 16.9432 289.708 18.0568C290.132 19.1629 290.344 20.5076 290.344 22.0909V23.2955H276.469V20.75H287.015C287.015 19.8561 286.833 19.0644 286.469 18.375C286.106 17.678 285.594 17.1288 284.935 16.7273C284.284 16.3258 283.519 16.125 282.64 16.125C281.685 16.125 280.852 16.3598 280.14 16.8295C279.435 17.2917 278.89 17.8977 278.503 18.6477C278.125 19.3902 277.935 20.197 277.935 21.0682V23.0568C277.935 24.2235 278.14 25.2159 278.549 26.0341C278.965 26.8523 279.545 27.4773 280.287 27.9091C281.03 28.3333 281.897 28.5455 282.89 28.5455C283.534 28.5455 284.121 28.4545 284.651 28.2727C285.181 28.0833 285.64 27.803 286.026 27.4318C286.412 27.0606 286.708 26.6023 286.912 26.0568L290.128 26.6364C289.871 27.5833 289.409 28.4129 288.742 29.125C288.083 29.8295 287.253 30.3788 286.253 30.7727C285.261 31.1591 284.128 31.3523 282.856 31.3523ZM294.114 37.5455V13.5455H297.432V16.375H297.716C297.913 16.0114 298.198 15.5909 298.569 15.1136C298.94 14.6364 299.455 14.2197 300.114 13.8636C300.773 13.5 301.644 13.3182 302.728 13.3182C304.137 13.3182 305.394 13.6742 306.501 14.3864C307.607 15.0985 308.474 16.125 309.103 17.4659C309.739 18.8068 310.057 20.4205 310.057 22.3068C310.057 24.1932 309.743 25.8106 309.114 27.1591C308.485 28.5 307.622 29.5341 306.523 30.2614C305.425 30.9811 304.171 31.3409 302.762 31.3409C301.701 31.3409 300.834 31.1629 300.16 30.8068C299.493 30.4508 298.97 30.0341 298.591 29.5568C298.213 29.0795 297.921 28.6553 297.716 28.2841H297.512V37.5455H294.114ZM297.444 22.2727C297.444 23.5 297.622 24.5758 297.978 25.5C298.334 26.4242 298.849 27.1477 299.523 27.6705C300.198 28.1856 301.023 28.4432 302.001 28.4432C303.016 28.4432 303.864 28.1742 304.546 27.6364C305.228 27.0909 305.743 26.3523 306.091 25.4205C306.448 24.4886 306.626 23.4394 306.626 22.2727C306.626 21.1212 306.451 20.0871 306.103 19.1705C305.762 18.2538 305.247 17.5303 304.557 17C303.876 16.4697 303.023 16.2045 302.001 16.2045C301.016 16.2045 300.182 16.4583 299.501 16.9659C298.826 17.4735 298.315 18.1818 297.966 19.0909C297.618 20 297.444 21.0606 297.444 22.2727ZM318.944 31.3864C317.838 31.3864 316.838 31.1818 315.944 30.7727C315.05 30.3561 314.341 29.7538 313.819 28.9659C313.304 28.178 313.046 27.2121 313.046 26.0682C313.046 25.0833 313.235 24.2727 313.614 23.6364C313.993 23 314.504 22.4962 315.148 22.125C315.792 21.7538 316.512 21.4735 317.307 21.2841C318.103 21.0947 318.913 20.9508 319.739 20.8523C320.785 20.7311 321.633 20.6326 322.285 20.5568C322.936 20.4735 323.41 20.3409 323.705 20.1591C324.001 19.9773 324.148 19.6818 324.148 19.2727V19.1932C324.148 18.2008 323.868 17.4318 323.307 16.8864C322.754 16.3409 321.929 16.0682 320.83 16.0682C319.686 16.0682 318.785 16.322 318.126 16.8295C317.474 17.3295 317.023 17.8864 316.773 18.5L313.58 17.7727C313.959 16.7121 314.512 15.8561 315.239 15.2045C315.974 14.5455 316.819 14.0682 317.773 13.7727C318.728 13.4697 319.732 13.3182 320.785 13.3182C321.482 13.3182 322.22 13.4015 323.001 13.5682C323.788 13.7273 324.523 14.0227 325.205 14.4545C325.894 14.8864 326.459 15.5038 326.898 16.3068C327.338 17.1023 327.557 18.1364 327.557 19.4091V31H324.239V28.6136H324.103C323.883 29.053 323.554 29.4848 323.114 29.9091C322.675 30.3333 322.11 30.6856 321.421 30.9659C320.732 31.2462 319.906 31.3864 318.944 31.3864ZM319.682 28.6591C320.622 28.6591 321.425 28.4735 322.091 28.1023C322.766 27.7311 323.277 27.2462 323.626 26.6477C323.982 26.0417 324.16 25.3939 324.16 24.7045V22.4545C324.038 22.5758 323.804 22.6894 323.455 22.7955C323.114 22.8939 322.724 22.9811 322.285 23.0568C321.845 23.125 321.417 23.1894 321.001 23.25C320.584 23.303 320.235 23.3485 319.955 23.3864C319.296 23.4697 318.694 23.6098 318.148 23.8068C317.61 24.0038 317.179 24.2879 316.853 24.6591C316.535 25.0227 316.376 25.5076 316.376 26.1136C316.376 26.9545 316.686 27.5909 317.307 28.0227C317.929 28.447 318.72 28.6591 319.682 28.6591ZM332.083 37.5455V13.5455H335.401V16.375H335.685C335.882 16.0114 336.166 15.5909 336.537 15.1136C336.909 14.6364 337.424 14.2197 338.083 13.8636C338.742 13.5 339.613 13.3182 340.697 13.3182C342.106 13.3182 343.363 13.6742 344.469 14.3864C345.575 15.0985 346.443 16.125 347.072 17.4659C347.708 18.8068 348.026 20.4205 348.026 22.3068C348.026 24.1932 347.712 25.8106 347.083 27.1591C346.454 28.5 345.59 29.5341 344.492 30.2614C343.394 30.9811 342.14 31.3409 340.731 31.3409C339.67 31.3409 338.803 31.1629 338.128 30.8068C337.462 30.4508 336.939 30.0341 336.56 29.5568C336.181 29.0795 335.89 28.6553 335.685 28.2841H335.481V37.5455H332.083ZM335.412 22.2727C335.412 23.5 335.59 24.5758 335.947 25.5C336.303 26.4242 336.818 27.1477 337.492 27.6705C338.166 28.1856 338.992 28.4432 339.969 28.4432C340.984 28.4432 341.833 28.1742 342.515 27.6364C343.197 27.0909 343.712 26.3523 344.06 25.4205C344.416 24.4886 344.594 23.4394 344.594 22.2727C344.594 21.1212 344.42 20.0871 344.072 19.1705C343.731 18.2538 343.215 17.5303 342.526 17C341.844 16.4697 340.992 16.2045 339.969 16.2045C338.984 16.2045 338.151 16.4583 337.469 16.9659C336.795 17.4735 336.284 18.1818 335.935 19.0909C335.587 20 335.412 21.0606 335.412 22.2727ZM359.356 31.3523C357.636 31.3523 356.155 30.9848 354.912 30.25C353.678 29.5076 352.723 28.4659 352.049 27.125C351.382 25.7765 351.049 24.197 351.049 22.3864C351.049 20.5985 351.382 19.0227 352.049 17.6591C352.723 16.2955 353.662 15.2311 354.867 14.4659C356.079 13.7008 357.496 13.3182 359.117 13.3182C360.102 13.3182 361.056 13.4811 361.981 13.8068C362.905 14.1326 363.734 14.6439 364.469 15.3409C365.204 16.0379 365.784 16.9432 366.208 18.0568C366.632 19.1629 366.844 20.5076 366.844 22.0909V23.2955H352.969V20.75H363.515C363.515 19.8561 363.333 19.0644 362.969 18.375C362.606 17.678 362.094 17.1288 361.435 16.7273C360.784 16.3258 360.019 16.125 359.14 16.125C358.185 16.125 357.352 16.3598 356.64 16.8295C355.935 17.2917 355.39 17.8977 355.003 18.6477C354.625 19.3902 354.435 20.197 354.435 21.0682V23.0568C354.435 24.2235 354.64 25.2159 355.049 26.0341C355.465 26.8523 356.045 27.4773 356.787 27.9091C357.53 28.3333 358.397 28.5455 359.39 28.5455C360.034 28.5455 360.621 28.4545 361.151 28.2727C361.681 28.0833 362.14 27.803 362.526 27.4318C362.912 27.0606 363.208 26.6023 363.412 26.0568L366.628 26.6364C366.371 27.5833 365.909 28.4129 365.242 29.125C364.583 29.8295 363.753 30.3788 362.753 30.7727C361.761 31.1591 360.628 31.3523 359.356 31.3523ZM370.614 31V13.5455H373.898V16.3182H374.08C374.398 15.3788 374.959 14.6402 375.762 14.1023C376.573 13.5568 377.489 13.2841 378.512 13.2841C378.724 13.2841 378.974 13.2917 379.262 13.3068C379.557 13.322 379.788 13.3409 379.955 13.3636V16.6136C379.819 16.5758 379.576 16.5341 379.228 16.4886C378.879 16.4356 378.531 16.4091 378.182 16.4091C377.379 16.4091 376.663 16.5795 376.035 16.9205C375.413 17.2538 374.921 17.7197 374.557 18.3182C374.194 18.9091 374.012 19.5833 374.012 20.3409V31H370.614ZM93.2136 65.7273C92.2969 65.7273 91.4598 65.5038 90.7022 65.0568C89.9447 64.6023 89.3386 63.9962 88.8841 63.2386C88.4371 62.4811 88.2136 61.6439 88.2136 60.7273C88.2136 59.803 88.4371 58.9659 88.8841 58.2159C89.3386 57.4583 89.9447 56.8561 90.7022 56.4091C91.4598 55.9545 92.2969 55.7273 93.2136 55.7273C94.1378 55.7273 94.975 55.9545 95.725 56.4091C96.4825 56.8561 97.0848 57.4583 97.5318 58.2159C97.9863 58.9659 98.2136 59.803 98.2136 60.7273C98.2136 61.6439 97.9863 62.4811 97.5318 63.2386C97.0848 63.9962 96.4825 64.6023 95.725 65.0568C94.975 65.5038 94.1378 65.7273 93.2136 65.7273ZM119.762 70V46.7273H128.285C129.936 46.7273 131.304 47 132.387 47.5455C133.47 48.0833 134.281 48.8144 134.819 49.7386C135.357 50.6553 135.626 51.6894 135.626 52.8409C135.626 53.8106 135.448 54.6288 135.091 55.2955C134.735 55.9545 134.258 56.4848 133.66 56.8864C133.069 57.2803 132.417 57.5682 131.705 57.75V57.9773C132.478 58.0152 133.232 58.2652 133.966 58.7273C134.709 59.1818 135.323 59.8295 135.807 60.6705C136.292 61.5114 136.535 62.5341 136.535 63.7386C136.535 64.928 136.254 65.9962 135.694 66.9432C135.141 67.8826 134.285 68.6288 133.126 69.1818C131.966 69.7273 130.485 70 128.682 70H119.762ZM123.273 66.9886H128.341C130.023 66.9886 131.228 66.6629 131.955 66.0114C132.682 65.3598 133.046 64.5455 133.046 63.5682C133.046 62.8333 132.86 62.1591 132.489 61.5455C132.118 60.9318 131.588 60.4432 130.898 60.0795C130.216 59.7159 129.406 59.5341 128.466 59.5341H123.273V66.9886ZM123.273 56.7955H127.978C128.766 56.7955 129.474 56.6439 130.103 56.3409C130.739 56.0379 131.243 55.6136 131.614 55.0682C131.993 54.5152 132.182 53.8636 132.182 53.1136C132.182 52.1515 131.845 51.3447 131.171 50.6932C130.497 50.0417 129.463 49.7159 128.069 49.7159H123.273V56.7955ZM147.949 70.3523C146.23 70.3523 144.749 69.9848 143.506 69.25C142.271 68.5076 141.317 67.4659 140.643 66.125C139.976 64.7765 139.643 63.197 139.643 61.3864C139.643 59.5985 139.976 58.0227 140.643 56.6591C141.317 55.2955 142.256 54.2311 143.461 53.4659C144.673 52.7008 146.09 52.3182 147.711 52.3182C148.696 52.3182 149.65 52.4811 150.574 52.8068C151.499 53.1326 152.328 53.6439 153.063 54.3409C153.798 55.0379 154.377 55.9432 154.802 57.0568C155.226 58.1629 155.438 59.5076 155.438 61.0909V62.2955H141.563V59.75H152.108C152.108 58.8561 151.927 58.0644 151.563 57.375C151.199 56.678 150.688 56.1288 150.029 55.7273C149.377 55.3258 148.612 55.125 147.733 55.125C146.779 55.125 145.946 55.3598 145.233 55.8295C144.529 56.2917 143.983 56.8977 143.597 57.6477C143.218 58.3902 143.029 59.197 143.029 60.0682V62.0568C143.029 63.2235 143.233 64.2159 143.643 65.0341C144.059 65.8523 144.639 66.4773 145.381 66.9091C146.124 67.3333 146.991 67.5455 147.983 67.5455C148.627 67.5455 149.215 67.4545 149.745 67.2727C150.275 67.0833 150.733 66.803 151.12 66.4318C151.506 66.0606 151.802 65.6023 152.006 65.0568L155.222 65.6364C154.965 66.5833 154.502 67.4129 153.836 68.125C153.177 68.8295 152.347 69.3788 151.347 69.7727C150.355 70.1591 149.222 70.3523 147.949 70.3523ZM167.356 52.5455V55.2727H157.822V52.5455H167.356ZM160.378 48.3636H163.776V64.875C163.776 65.5341 163.875 66.0303 164.072 66.3636C164.269 66.6894 164.522 66.9129 164.833 67.0341C165.151 67.1477 165.496 67.2045 165.867 67.2045C166.14 67.2045 166.378 67.1856 166.583 67.1477C166.787 67.1098 166.947 67.0795 167.06 67.0568L167.674 69.8636C167.477 69.9394 167.197 70.0152 166.833 70.0909C166.469 70.1742 166.015 70.2197 165.469 70.2273C164.575 70.2424 163.742 70.0833 162.969 69.75C162.197 69.4167 161.572 68.9015 161.094 68.2045C160.617 67.5076 160.378 66.6326 160.378 65.5795V48.3636ZM176.194 70.3864C175.088 70.3864 174.088 70.1818 173.194 69.7727C172.3 69.3561 171.591 68.7538 171.069 67.9659C170.554 67.178 170.296 66.2121 170.296 65.0682C170.296 64.0833 170.485 63.2727 170.864 62.6364C171.243 62 171.754 61.4962 172.398 61.125C173.042 60.7538 173.762 60.4735 174.557 60.2841C175.353 60.0947 176.163 59.9508 176.989 59.8523C178.035 59.7311 178.883 59.6326 179.535 59.5568C180.186 59.4735 180.66 59.3409 180.955 59.1591C181.251 58.9773 181.398 58.6818 181.398 58.2727V58.1932C181.398 57.2008 181.118 56.4318 180.557 55.8864C180.004 55.3409 179.179 55.0682 178.08 55.0682C176.936 55.0682 176.035 55.322 175.376 55.8295C174.724 56.3295 174.273 56.8864 174.023 57.5L170.83 56.7727C171.209 55.7121 171.762 54.8561 172.489 54.2045C173.224 53.5455 174.069 53.0682 175.023 52.7727C175.978 52.4697 176.982 52.3182 178.035 52.3182C178.732 52.3182 179.47 52.4015 180.251 52.5682C181.038 52.7273 181.773 53.0227 182.455 53.4545C183.144 53.8864 183.709 54.5038 184.148 55.3068C184.588 56.1023 184.807 57.1364 184.807 58.4091V70H181.489V67.6136H181.353C181.133 68.053 180.804 68.4848 180.364 68.9091C179.925 69.3333 179.36 69.6856 178.671 69.9659C177.982 70.2462 177.156 70.3864 176.194 70.3864ZM176.932 67.6591C177.872 67.6591 178.675 67.4735 179.341 67.1023C180.016 66.7311 180.527 66.2462 180.876 65.6477C181.232 65.0417 181.41 64.3939 181.41 63.7045V61.4545C181.288 61.5758 181.054 61.6894 180.705 61.7955C180.364 61.8939 179.974 61.9811 179.535 62.0568C179.095 62.125 178.667 62.1894 178.251 62.25C177.834 62.303 177.485 62.3485 177.205 62.3864C176.546 62.4697 175.944 62.6098 175.398 62.8068C174.86 63.0038 174.429 63.2879 174.103 63.6591C173.785 64.0227 173.626 64.5076 173.626 65.1136C173.626 65.9545 173.936 66.5909 174.557 67.0227C175.179 67.447 175.97 67.6591 176.932 67.6591ZM205.608 70H198.074V46.7273H205.847C208.127 46.7273 210.086 47.1932 211.722 48.125C213.358 49.0492 214.612 50.3788 215.483 52.1136C216.362 53.8409 216.802 55.9129 216.802 58.3295C216.802 60.7538 216.358 62.8371 215.472 64.5795C214.593 66.322 213.321 67.6629 211.654 68.6023C209.987 69.5341 207.972 70 205.608 70ZM201.586 66.9318H205.415C207.188 66.9318 208.662 66.5985 209.836 65.9318C211.01 65.2576 211.889 64.2841 212.472 63.0114C213.055 61.7311 213.347 60.1705 213.347 58.3295C213.347 56.5038 213.055 54.9545 212.472 53.6818C211.896 52.4091 211.037 51.4432 209.893 50.7841C208.749 50.125 207.328 49.7955 205.631 49.7955H201.586V66.9318ZM228.418 70.3523C226.698 70.3523 225.217 69.9848 223.975 69.25C222.74 68.5076 221.786 67.4659 221.111 66.125C220.445 64.7765 220.111 63.197 220.111 61.3864C220.111 59.5985 220.445 58.0227 221.111 56.6591C221.786 55.2955 222.725 54.2311 223.93 53.4659C225.142 52.7008 226.558 52.3182 228.18 52.3182C229.164 52.3182 230.119 52.4811 231.043 52.8068C231.967 53.1326 232.797 53.6439 233.532 54.3409C234.267 55.0379 234.846 55.9432 235.27 57.0568C235.695 58.1629 235.907 59.5076 235.907 61.0909V62.2955H222.032V59.75H232.577C232.577 58.8561 232.395 58.0644 232.032 57.375C231.668 56.678 231.157 56.1288 230.498 55.7273C229.846 55.3258 229.081 55.125 228.202 55.125C227.248 55.125 226.414 55.3598 225.702 55.8295C224.998 56.2917 224.452 56.8977 224.066 57.6477C223.687 58.3902 223.498 59.197 223.498 60.0682V62.0568C223.498 63.2235 223.702 64.2159 224.111 65.0341C224.528 65.8523 225.108 66.4773 225.85 66.9091C226.592 67.3333 227.46 67.5455 228.452 67.5455C229.096 67.5455 229.683 67.4545 230.214 67.2727C230.744 67.0833 231.202 66.803 231.589 66.4318C231.975 66.0606 232.27 65.6023 232.475 65.0568L235.691 65.6364C235.433 66.5833 234.971 67.4129 234.305 68.125C233.645 68.8295 232.816 69.3788 231.816 69.7727C230.823 70.1591 229.691 70.3523 228.418 70.3523ZM241.952 52.5455L245.805 59.3409L249.691 52.5455H253.407L247.964 61.2727L253.452 70H249.736L245.805 63.4773L241.884 70H238.157L243.589 61.2727L238.225 52.5455H241.952ZM268.762 46.7273V70H265.364V46.7273H268.762ZM278.412 70.3864C277.306 70.3864 276.306 70.1818 275.412 69.7727C274.519 69.3561 273.81 68.7538 273.287 67.9659C272.772 67.178 272.515 66.2121 272.515 65.0682C272.515 64.0833 272.704 63.2727 273.083 62.6364C273.462 62 273.973 61.4962 274.617 61.125C275.261 60.7538 275.981 60.4735 276.776 60.2841C277.572 60.0947 278.382 59.9508 279.208 59.8523C280.253 59.7311 281.102 59.6326 281.753 59.5568C282.405 59.4735 282.878 59.3409 283.174 59.1591C283.469 58.9773 283.617 58.6818 283.617 58.2727V58.1932C283.617 57.2008 283.337 56.4318 282.776 55.8864C282.223 55.3409 281.397 55.0682 280.299 55.0682C279.155 55.0682 278.253 55.322 277.594 55.8295C276.943 56.3295 276.492 56.8864 276.242 57.5L273.049 56.7727C273.428 55.7121 273.981 54.8561 274.708 54.2045C275.443 53.5455 276.287 53.0682 277.242 52.7727C278.197 52.4697 279.2 52.3182 280.253 52.3182C280.95 52.3182 281.689 52.4015 282.469 52.5682C283.257 52.7273 283.992 53.0227 284.674 53.4545C285.363 53.8864 285.928 54.5038 286.367 55.3068C286.806 56.1023 287.026 57.1364 287.026 58.4091V70H283.708V67.6136H283.572C283.352 68.053 283.022 68.4848 282.583 68.9091C282.144 69.3333 281.579 69.6856 280.89 69.9659C280.2 70.2462 279.375 70.3864 278.412 70.3864ZM279.151 67.6591C280.09 67.6591 280.894 67.4735 281.56 67.1023C282.234 66.7311 282.746 66.2462 283.094 65.6477C283.45 65.0417 283.628 64.3939 283.628 63.7045V61.4545C283.507 61.5758 283.272 61.6894 282.924 61.7955C282.583 61.8939 282.193 61.9811 281.753 62.0568C281.314 62.125 280.886 62.1894 280.469 62.25C280.053 62.303 279.704 62.3485 279.424 62.3864C278.765 62.4697 278.162 62.6098 277.617 62.8068C277.079 63.0038 276.647 63.2879 276.322 63.6591C276.003 64.0227 275.844 64.5076 275.844 65.1136C275.844 65.9545 276.155 66.5909 276.776 67.0227C277.397 67.447 278.189 67.6591 279.151 67.6591ZM302.608 62.7614V52.5455H306.018V70H302.677V66.9773H302.495C302.093 67.9091 301.449 68.6856 300.563 69.3068C299.684 69.9205 298.59 70.2273 297.279 70.2273C296.158 70.2273 295.165 69.9811 294.302 69.4886C293.446 68.9886 292.771 68.25 292.279 67.2727C291.794 66.2955 291.552 65.0871 291.552 63.6477V52.5455H294.949V63.2386C294.949 64.428 295.279 65.375 295.938 66.0795C296.597 66.7841 297.453 67.1364 298.506 67.1364C299.143 67.1364 299.775 66.9773 300.404 66.6591C301.04 66.3409 301.567 65.8598 301.983 65.2159C302.408 64.572 302.616 63.7538 302.608 62.7614ZM313.981 59.6364V70H310.583V52.5455H313.844V55.3864H314.06C314.462 54.4621 315.09 53.7197 315.947 53.1591C316.81 52.5985 317.897 52.3182 319.208 52.3182C320.397 52.3182 321.439 52.5682 322.333 53.0682C323.227 53.5606 323.92 54.2955 324.412 55.2727C324.905 56.25 325.151 57.4583 325.151 58.8977V70H321.753V59.3068C321.753 58.0417 321.424 57.053 320.765 56.3409C320.106 55.6212 319.2 55.2614 318.049 55.2614C317.261 55.2614 316.56 55.4318 315.947 55.7727C315.34 56.1136 314.859 56.6136 314.503 57.2727C314.155 57.9242 313.981 58.7121 313.981 59.6364ZM337.06 70.3523C335.371 70.3523 333.916 69.9697 332.697 69.2045C331.484 68.4318 330.553 67.3674 329.901 66.0114C329.25 64.6553 328.924 63.1023 328.924 61.3523C328.924 59.5795 329.257 58.0152 329.924 56.6591C330.59 55.2955 331.53 54.2311 332.742 53.4659C333.954 52.7008 335.382 52.3182 337.026 52.3182C338.352 52.3182 339.534 52.5644 340.572 53.0568C341.609 53.5417 342.447 54.2235 343.083 55.1023C343.727 55.9811 344.109 57.0076 344.231 58.1818H340.924C340.742 57.3636 340.325 56.6591 339.674 56.0682C339.03 55.4773 338.166 55.1818 337.083 55.1818C336.136 55.1818 335.306 55.4318 334.594 55.9318C333.89 56.4242 333.34 57.1288 332.947 58.0455C332.553 58.9545 332.356 60.0303 332.356 61.2727C332.356 62.5455 332.549 63.6439 332.935 64.5682C333.322 65.4924 333.867 66.2083 334.572 66.7159C335.284 67.2235 336.121 67.4773 337.083 67.4773C337.727 67.4773 338.31 67.3598 338.833 67.125C339.363 66.8826 339.806 66.5379 340.162 66.0909C340.526 65.6439 340.78 65.1061 340.924 64.4773H344.231C344.109 65.6061 343.742 66.6136 343.128 67.5C342.515 68.3864 341.693 69.0833 340.662 69.5909C339.64 70.0985 338.439 70.3523 337.06 70.3523ZM351.262 59.6364V70H347.864V46.7273H351.216V55.3864H351.432C351.841 54.447 352.466 53.7008 353.307 53.1477C354.148 52.5947 355.247 52.3182 356.603 52.3182C357.8 52.3182 358.845 52.5644 359.739 53.0568C360.641 53.5492 361.338 54.2841 361.83 55.2614C362.33 56.2311 362.58 57.4432 362.58 58.8977V70H359.182V59.3068C359.182 58.0265 358.853 57.0341 358.194 56.3295C357.535 55.6174 356.618 55.2614 355.444 55.2614C354.641 55.2614 353.921 55.4318 353.285 55.7727C352.656 56.1136 352.16 56.6136 351.796 57.2727C351.44 57.9242 351.262 58.7121 351.262 59.6364ZM375.583 70V52.5455H378.844V55.3864H379.06C379.424 54.4242 380.019 53.6742 380.844 53.1364C381.67 52.5909 382.659 52.3182 383.81 52.3182C384.977 52.3182 385.954 52.5909 386.742 53.1364C387.537 53.6818 388.125 54.4318 388.503 55.3864H388.685C389.102 54.4545 389.765 53.7121 390.674 53.1591C391.583 52.5985 392.666 52.3182 393.924 52.3182C395.507 52.3182 396.799 52.8144 397.799 53.8068C398.806 54.7992 399.31 56.2955 399.31 58.2955V70H395.912V58.6136C395.912 57.4318 395.59 56.5758 394.947 56.0455C394.303 55.5152 393.534 55.25 392.64 55.25C391.534 55.25 390.674 55.5909 390.06 56.2727C389.447 56.947 389.14 57.8144 389.14 58.875V70H385.753V58.3977C385.753 57.4508 385.458 56.6894 384.867 56.1136C384.276 55.5379 383.507 55.25 382.56 55.25C381.916 55.25 381.322 55.4205 380.776 55.7614C380.238 56.0947 379.803 56.5606 379.469 57.1591C379.144 57.7576 378.981 58.4508 378.981 59.2386V70H375.583ZM408.944 70.3864C407.838 70.3864 406.838 70.1818 405.944 69.7727C405.05 69.3561 404.341 68.7538 403.819 67.9659C403.304 67.178 403.046 66.2121 403.046 65.0682C403.046 64.0833 403.235 63.2727 403.614 62.6364C403.993 62 404.504 61.4962 405.148 61.125C405.792 60.7538 406.512 60.4735 407.307 60.2841C408.103 60.0947 408.913 59.9508 409.739 59.8523C410.785 59.7311 411.633 59.6326 412.285 59.5568C412.936 59.4735 413.41 59.3409 413.705 59.1591C414.001 58.9773 414.148 58.6818 414.148 58.2727V58.1932C414.148 57.2008 413.868 56.4318 413.307 55.8864C412.754 55.3409 411.929 55.0682 410.83 55.0682C409.686 55.0682 408.785 55.322 408.126 55.8295C407.474 56.3295 407.023 56.8864 406.773 57.5L403.58 56.7727C403.959 55.7121 404.512 54.8561 405.239 54.2045C405.974 53.5455 406.819 53.0682 407.773 52.7727C408.728 52.4697 409.732 52.3182 410.785 52.3182C411.482 52.3182 412.22 52.4015 413.001 52.5682C413.788 52.7273 414.523 53.0227 415.205 53.4545C415.894 53.8864 416.459 54.5038 416.898 55.3068C417.338 56.1023 417.557 57.1364 417.557 58.4091V70H414.239V67.6136H414.103C413.883 68.053 413.554 68.4848 413.114 68.9091C412.675 69.3333 412.11 69.6856 411.421 69.9659C410.732 70.2462 409.906 70.3864 408.944 70.3864ZM409.682 67.6591C410.622 67.6591 411.425 67.4735 412.091 67.1023C412.766 66.7311 413.277 66.2462 413.626 65.6477C413.982 65.0417 414.16 64.3939 414.16 63.7045V61.4545C414.038 61.5758 413.804 61.6894 413.455 61.7955C413.114 61.8939 412.724 61.9811 412.285 62.0568C411.845 62.125 411.417 62.1894 411.001 62.25C410.584 62.303 410.235 62.3485 409.955 62.3864C409.296 62.4697 408.694 62.6098 408.148 62.8068C407.61 63.0038 407.179 63.2879 406.853 63.6591C406.535 64.0227 406.376 64.5076 406.376 65.1136C406.376 65.9545 406.686 66.5909 407.307 67.0227C407.929 67.447 408.72 67.6591 409.682 67.6591ZM422.083 70V52.5455H425.481V70H422.083ZM423.799 49.8523C423.208 49.8523 422.7 49.6553 422.276 49.2614C421.859 48.8598 421.651 48.3826 421.651 47.8295C421.651 47.2689 421.859 46.7917 422.276 46.3977C422.7 45.9962 423.208 45.7955 423.799 45.7955C424.39 45.7955 424.894 45.9962 425.31 46.3977C425.734 46.7917 425.947 47.2689 425.947 47.8295C425.947 48.3826 425.734 48.8598 425.31 49.2614C424.894 49.6553 424.39 49.8523 423.799 49.8523ZM433.449 59.6364V70H430.052V52.5455H433.313V55.3864H433.529C433.93 54.4621 434.559 53.7197 435.415 53.1591C436.279 52.5985 437.366 52.3182 438.677 52.3182C439.866 52.3182 440.908 52.5682 441.802 53.0682C442.696 53.5606 443.389 54.2955 443.881 55.2727C444.374 56.25 444.62 57.4583 444.62 58.8977V70H441.222V59.3068C441.222 58.0417 440.893 57.053 440.233 56.3409C439.574 55.6212 438.669 55.2614 437.518 55.2614C436.73 55.2614 436.029 55.4318 435.415 55.7727C434.809 56.1136 434.328 56.6136 433.972 57.2727C433.624 57.9242 433.449 58.7121 433.449 59.6364ZM452.574 59.6364V70H449.177V52.5455H452.438V55.3864H452.654C453.055 54.4621 453.684 53.7197 454.54 53.1591C455.404 52.5985 456.491 52.3182 457.802 52.3182C458.991 52.3182 460.033 52.5682 460.927 53.0682C461.821 53.5606 462.514 54.2955 463.006 55.2727C463.499 56.25 463.745 57.4583 463.745 58.8977V70H460.347V59.3068C460.347 58.0417 460.018 57.053 459.358 56.3409C458.699 55.6212 457.794 55.2614 456.643 55.2614C455.855 55.2614 455.154 55.4318 454.54 55.7727C453.934 56.1136 453.453 56.6136 453.097 57.2727C452.749 57.9242 452.574 58.7121 452.574 59.6364ZM475.824 70.3523C474.105 70.3523 472.624 69.9848 471.381 69.25C470.146 68.5076 469.192 67.4659 468.518 66.125C467.851 64.7765 467.518 63.197 467.518 61.3864C467.518 59.5985 467.851 58.0227 468.518 56.6591C469.192 55.2955 470.131 54.2311 471.336 53.4659C472.548 52.7008 473.965 52.3182 475.586 52.3182C476.571 52.3182 477.525 52.4811 478.449 52.8068C479.374 53.1326 480.203 53.6439 480.938 54.3409C481.673 55.0379 482.252 55.9432 482.677 57.0568C483.101 58.1629 483.313 59.5076 483.313 61.0909V62.2955H469.438V59.75H479.983C479.983 58.8561 479.802 58.0644 479.438 57.375C479.074 56.678 478.563 56.1288 477.904 55.7273C477.252 55.3258 476.487 55.125 475.608 55.125C474.654 55.125 473.821 55.3598 473.108 55.8295C472.404 56.2917 471.858 56.8977 471.472 57.6477C471.093 58.3902 470.904 59.197 470.904 60.0682V62.0568C470.904 63.2235 471.108 64.2159 471.518 65.0341C471.934 65.8523 472.514 66.4773 473.256 66.9091C473.999 67.3333 474.866 67.5455 475.858 67.5455C476.502 67.5455 477.09 67.4545 477.62 67.2727C478.15 67.0833 478.608 66.803 478.995 66.4318C479.381 66.0606 479.677 65.6023 479.881 65.0568L483.097 65.6364C482.84 66.5833 482.377 67.4129 481.711 68.125C481.052 68.8295 480.222 69.3788 479.222 69.7727C478.23 70.1591 477.097 70.3523 475.824 70.3523ZM495.231 52.5455V55.2727H485.697V52.5455H495.231ZM488.253 48.3636H491.651V64.875C491.651 65.5341 491.75 66.0303 491.947 66.3636C492.144 66.6894 492.397 66.9129 492.708 67.0341C493.026 67.1477 493.371 67.2045 493.742 67.2045C494.015 67.2045 494.253 67.1856 494.458 67.1477C494.662 67.1098 494.822 67.0795 494.935 67.0568L495.549 69.8636C495.352 69.9394 495.072 70.0152 494.708 70.0909C494.344 70.1742 493.89 70.2197 493.344 70.2273C492.45 70.2424 491.617 70.0833 490.844 69.75C490.072 69.4167 489.447 68.9015 488.969 68.2045C488.492 67.5076 488.253 66.6326 488.253 65.5795V48.3636ZM93.2136 104.727C92.2969 104.727 91.4598 104.504 90.7022 104.057C89.9447 103.602 89.3386 102.996 88.8841 102.239C88.4371 101.481 88.2136 100.644 88.2136 99.7273C88.2136 98.803 88.4371 97.9659 88.8841 97.2159C89.3386 96.4583 89.9447 95.8561 90.7022 95.4091C91.4598 94.9545 92.2969 94.7273 93.2136 94.7273C94.1378 94.7273 94.975 94.9545 95.725 95.4091C96.4825 95.8561 97.0848 96.4583 97.5318 97.2159C97.9863 97.9659 98.2136 98.803 98.2136 99.7273C98.2136 100.644 97.9863 101.481 97.5318 102.239C97.0848 102.996 96.4825 103.602 95.725 104.057C94.975 104.504 94.1378 104.727 93.2136 104.727ZM119.762 109V85.7273H128.285C129.936 85.7273 131.304 86 132.387 86.5455C133.47 87.0833 134.281 87.8144 134.819 88.7386C135.357 89.6553 135.626 90.6894 135.626 91.8409C135.626 92.8106 135.448 93.6288 135.091 94.2955C134.735 94.9545 134.258 95.4848 133.66 95.8864C133.069 96.2803 132.417 96.5682 131.705 96.75V96.9773C132.478 97.0152 133.232 97.2652 133.966 97.7273C134.709 98.1818 135.323 98.8295 135.807 99.6705C136.292 100.511 136.535 101.534 136.535 102.739C136.535 103.928 136.254 104.996 135.694 105.943C135.141 106.883 134.285 107.629 133.126 108.182C131.966 108.727 130.485 109 128.682 109H119.762ZM123.273 105.989H128.341C130.023 105.989 131.228 105.663 131.955 105.011C132.682 104.36 133.046 103.545 133.046 102.568C133.046 101.833 132.86 101.159 132.489 100.545C132.118 99.9318 131.588 99.4432 130.898 99.0795C130.216 98.7159 129.406 98.5341 128.466 98.5341H123.273V105.989ZM123.273 95.7955H127.978C128.766 95.7955 129.474 95.6439 130.103 95.3409C130.739 95.0379 131.243 94.6136 131.614 94.0682C131.993 93.5152 132.182 92.8636 132.182 92.1136C132.182 91.1515 131.845 90.3447 131.171 89.6932C130.497 89.0417 129.463 88.7159 128.069 88.7159H123.273V95.7955ZM147.949 109.352C146.23 109.352 144.749 108.985 143.506 108.25C142.271 107.508 141.317 106.466 140.643 105.125C139.976 103.777 139.643 102.197 139.643 100.386C139.643 98.5985 139.976 97.0227 140.643 95.6591C141.317 94.2955 142.256 93.2311 143.461 92.4659C144.673 91.7008 146.09 91.3182 147.711 91.3182C148.696 91.3182 149.65 91.4811 150.574 91.8068C151.499 92.1326 152.328 92.6439 153.063 93.3409C153.798 94.0379 154.377 94.9432 154.802 96.0568C155.226 97.1629 155.438 98.5076 155.438 100.091V101.295H141.563V98.75H152.108C152.108 97.8561 151.927 97.0644 151.563 96.375C151.199 95.678 150.688 95.1288 150.029 94.7273C149.377 94.3258 148.612 94.125 147.733 94.125C146.779 94.125 145.946 94.3598 145.233 94.8295C144.529 95.2917 143.983 95.8977 143.597 96.6477C143.218 97.3902 143.029 98.197 143.029 99.0682V101.057C143.029 102.223 143.233 103.216 143.643 104.034C144.059 104.852 144.639 105.477 145.381 105.909C146.124 106.333 146.991 106.545 147.983 106.545C148.627 106.545 149.215 106.455 149.745 106.273C150.275 106.083 150.733 105.803 151.12 105.432C151.506 105.061 151.802 104.602 152.006 104.057L155.222 104.636C154.965 105.583 154.502 106.413 153.836 107.125C153.177 107.83 152.347 108.379 151.347 108.773C150.355 109.159 149.222 109.352 147.949 109.352ZM167.356 91.5455V94.2727H157.822V91.5455H167.356ZM160.378 87.3636H163.776V103.875C163.776 104.534 163.875 105.03 164.072 105.364C164.269 105.689 164.522 105.913 164.833 106.034C165.151 106.148 165.496 106.205 165.867 106.205C166.14 106.205 166.378 106.186 166.583 106.148C166.787 106.11 166.947 106.08 167.06 106.057L167.674 108.864C167.477 108.939 167.197 109.015 166.833 109.091C166.469 109.174 166.015 109.22 165.469 109.227C164.575 109.242 163.742 109.083 162.969 108.75C162.197 108.417 161.572 107.902 161.094 107.205C160.617 106.508 160.378 105.633 160.378 104.58V87.3636ZM176.194 109.386C175.088 109.386 174.088 109.182 173.194 108.773C172.3 108.356 171.591 107.754 171.069 106.966C170.554 106.178 170.296 105.212 170.296 104.068C170.296 103.083 170.485 102.273 170.864 101.636C171.243 101 171.754 100.496 172.398 100.125C173.042 99.7538 173.762 99.4735 174.557 99.2841C175.353 99.0947 176.163 98.9508 176.989 98.8523C178.035 98.7311 178.883 98.6326 179.535 98.5568C180.186 98.4735 180.66 98.3409 180.955 98.1591C181.251 97.9773 181.398 97.6818 181.398 97.2727V97.1932C181.398 96.2008 181.118 95.4318 180.557 94.8864C180.004 94.3409 179.179 94.0682 178.08 94.0682C176.936 94.0682 176.035 94.322 175.376 94.8295C174.724 95.3295 174.273 95.8864 174.023 96.5L170.83 95.7727C171.209 94.7121 171.762 93.8561 172.489 93.2045C173.224 92.5455 174.069 92.0682 175.023 91.7727C175.978 91.4697 176.982 91.3182 178.035 91.3182C178.732 91.3182 179.47 91.4015 180.251 91.5682C181.038 91.7273 181.773 92.0227 182.455 92.4545C183.144 92.8864 183.709 93.5038 184.148 94.3068C184.588 95.1023 184.807 96.1364 184.807 97.4091V109H181.489V106.614H181.353C181.133 107.053 180.804 107.485 180.364 107.909C179.925 108.333 179.36 108.686 178.671 108.966C177.982 109.246 177.156 109.386 176.194 109.386ZM176.932 106.659C177.872 106.659 178.675 106.473 179.341 106.102C180.016 105.731 180.527 105.246 180.876 104.648C181.232 104.042 181.41 103.394 181.41 102.705V100.455C181.288 100.576 181.054 100.689 180.705 100.795C180.364 100.894 179.974 100.981 179.535 101.057C179.095 101.125 178.667 101.189 178.251 101.25C177.834 101.303 177.485 101.348 177.205 101.386C176.546 101.47 175.944 101.61 175.398 101.807C174.86 102.004 174.429 102.288 174.103 102.659C173.785 103.023 173.626 103.508 173.626 104.114C173.626 104.955 173.936 105.591 174.557 106.023C175.179 106.447 175.97 106.659 176.932 106.659ZM216.858 85.7273V109H213.631L201.802 91.9318H201.586V109H198.074V85.7273H201.324L213.165 102.818H213.381V85.7273H216.858ZM221.981 109V85.7273H236.412V88.75H225.492V95.8409H235.378V98.8523H225.492V109H221.981ZM239.583 88.75V85.7273H257.594V88.75H250.333V109H246.833V88.75H239.583ZM270.043 85.7273H274.305L281.714 103.818H281.986L289.395 85.7273H293.657V109H290.316V92.1591H290.1L283.236 108.966H280.464L273.6 92.1477H273.384V109H270.043V85.7273ZM303.569 109.386C302.463 109.386 301.463 109.182 300.569 108.773C299.675 108.356 298.966 107.754 298.444 106.966C297.929 106.178 297.671 105.212 297.671 104.068C297.671 103.083 297.86 102.273 298.239 101.636C298.618 101 299.129 100.496 299.773 100.125C300.417 99.7538 301.137 99.4735 301.932 99.2841C302.728 99.0947 303.538 98.9508 304.364 98.8523C305.41 98.7311 306.258 98.6326 306.91 98.5568C307.561 98.4735 308.035 98.3409 308.33 98.1591C308.626 97.9773 308.773 97.6818 308.773 97.2727V97.1932C308.773 96.2008 308.493 95.4318 307.932 94.8864C307.379 94.3409 306.554 94.0682 305.455 94.0682C304.311 94.0682 303.41 94.322 302.751 94.8295C302.099 95.3295 301.648 95.8864 301.398 96.5L298.205 95.7727C298.584 94.7121 299.137 93.8561 299.864 93.2045C300.599 92.5455 301.444 92.0682 302.398 91.7727C303.353 91.4697 304.357 91.3182 305.41 91.3182C306.107 91.3182 306.845 91.4015 307.626 91.5682C308.413 91.7273 309.148 92.0227 309.83 92.4545C310.519 92.8864 311.084 93.5038 311.523 94.3068C311.963 95.1023 312.182 96.1364 312.182 97.4091V109H308.864V106.614H308.728C308.508 107.053 308.179 107.485 307.739 107.909C307.3 108.333 306.735 108.686 306.046 108.966C305.357 109.246 304.531 109.386 303.569 109.386ZM304.307 106.659C305.247 106.659 306.05 106.473 306.716 106.102C307.391 105.731 307.902 105.246 308.251 104.648C308.607 104.042 308.785 103.394 308.785 102.705V100.455C308.663 100.576 308.429 100.689 308.08 100.795C307.739 100.894 307.349 100.981 306.91 101.057C306.47 101.125 306.042 101.189 305.626 101.25C305.209 101.303 304.86 101.348 304.58 101.386C303.921 101.47 303.319 101.61 302.773 101.807C302.235 102.004 301.804 102.288 301.478 102.659C301.16 103.023 301.001 103.508 301.001 104.114C301.001 104.955 301.311 105.591 301.932 106.023C302.554 106.447 303.345 106.659 304.307 106.659ZM316.708 109V91.5455H319.992V94.3182H320.174C320.492 93.3788 321.053 92.6402 321.856 92.1023C322.666 91.5568 323.583 91.2841 324.606 91.2841C324.818 91.2841 325.068 91.2917 325.356 91.3068C325.651 91.322 325.882 91.3409 326.049 91.3636V94.6136C325.912 94.5758 325.67 94.5341 325.322 94.4886C324.973 94.4356 324.625 94.4091 324.276 94.4091C323.473 94.4091 322.757 94.5795 322.128 94.9205C321.507 95.2538 321.015 95.7197 320.651 96.3182C320.287 96.9091 320.106 97.5833 320.106 98.3409V109H316.708ZM332.114 103.08L332.091 98.9318H332.682L339.637 91.5455H343.705L335.773 99.9545H335.239L332.114 103.08ZM328.989 109V85.7273H332.387V109H328.989ZM340.012 109L333.762 100.705L336.103 98.3295L344.182 109H340.012ZM353.606 109.352C351.886 109.352 350.405 108.985 349.162 108.25C347.928 107.508 346.973 106.466 346.299 105.125C345.632 103.777 345.299 102.197 345.299 100.386C345.299 98.5985 345.632 97.0227 346.299 95.6591C346.973 94.2955 347.912 93.2311 349.117 92.4659C350.329 91.7008 351.746 91.3182 353.367 91.3182C354.352 91.3182 355.306 91.4811 356.231 91.8068C357.155 92.1326 357.984 92.6439 358.719 93.3409C359.454 94.0379 360.034 94.9432 360.458 96.0568C360.882 97.1629 361.094 98.5076 361.094 100.091V101.295H347.219V98.75H357.765C357.765 97.8561 357.583 97.0644 357.219 96.375C356.856 95.678 356.344 95.1288 355.685 94.7273C355.034 94.3258 354.269 94.125 353.39 94.125C352.435 94.125 351.602 94.3598 350.89 94.8295C350.185 95.2917 349.64 95.8977 349.253 96.6477C348.875 97.3902 348.685 98.197 348.685 99.0682V101.057C348.685 102.223 348.89 103.216 349.299 104.034C349.715 104.852 350.295 105.477 351.037 105.909C351.78 106.333 352.647 106.545 353.64 106.545C354.284 106.545 354.871 106.455 355.401 106.273C355.931 106.083 356.39 105.803 356.776 105.432C357.162 105.061 357.458 104.602 357.662 104.057L360.878 104.636C360.621 105.583 360.159 106.413 359.492 107.125C358.833 107.83 358.003 108.379 357.003 108.773C356.011 109.159 354.878 109.352 353.606 109.352ZM373.012 91.5455V94.2727H363.478V91.5455H373.012ZM366.035 87.3636H369.432V103.875C369.432 104.534 369.531 105.03 369.728 105.364C369.925 105.689 370.179 105.913 370.489 106.034C370.807 106.148 371.152 106.205 371.523 106.205C371.796 106.205 372.035 106.186 372.239 106.148C372.444 106.11 372.603 106.08 372.716 106.057L373.33 108.864C373.133 108.939 372.853 109.015 372.489 109.091C372.126 109.174 371.671 109.22 371.126 109.227C370.232 109.242 369.398 109.083 368.626 108.75C367.853 108.417 367.228 107.902 366.751 107.205C366.273 106.508 366.035 105.633 366.035 104.58V87.3636ZM376.77 115.545V91.5455H380.089V94.375H380.373C380.57 94.0114 380.854 93.5909 381.225 93.1136C381.596 92.6364 382.111 92.2197 382.77 91.8636C383.43 91.5 384.301 91.3182 385.384 91.3182C386.793 91.3182 388.051 91.6742 389.157 92.3864C390.263 93.0985 391.13 94.125 391.759 95.4659C392.395 96.8068 392.714 98.4205 392.714 100.307C392.714 102.193 392.399 103.811 391.77 105.159C391.142 106.5 390.278 107.534 389.18 108.261C388.081 108.981 386.827 109.341 385.418 109.341C384.358 109.341 383.49 109.163 382.816 108.807C382.149 108.451 381.626 108.034 381.248 107.557C380.869 107.08 380.577 106.655 380.373 106.284H380.168V115.545H376.77ZM380.1 100.273C380.1 101.5 380.278 102.576 380.634 103.5C380.99 104.424 381.505 105.148 382.18 105.67C382.854 106.186 383.68 106.443 384.657 106.443C385.672 106.443 386.52 106.174 387.202 105.636C387.884 105.091 388.399 104.352 388.748 103.42C389.104 102.489 389.282 101.439 389.282 100.273C389.282 99.1212 389.108 98.0871 388.759 97.1705C388.418 96.2538 387.903 95.5303 387.214 95C386.532 94.4697 385.68 94.2045 384.657 94.2045C383.672 94.2045 382.839 94.4583 382.157 94.9659C381.483 95.4735 380.971 96.1818 380.623 97.0909C380.274 98 380.1 99.0606 380.1 100.273ZM399.918 85.7273V109H396.52V85.7273H399.918ZM409.569 109.386C408.463 109.386 407.463 109.182 406.569 108.773C405.675 108.356 404.966 107.754 404.444 106.966C403.929 106.178 403.671 105.212 403.671 104.068C403.671 103.083 403.86 102.273 404.239 101.636C404.618 101 405.129 100.496 405.773 100.125C406.417 99.7538 407.137 99.4735 407.932 99.2841C408.728 99.0947 409.538 98.9508 410.364 98.8523C411.41 98.7311 412.258 98.6326 412.91 98.5568C413.561 98.4735 414.035 98.3409 414.33 98.1591C414.626 97.9773 414.773 97.6818 414.773 97.2727V97.1932C414.773 96.2008 414.493 95.4318 413.932 94.8864C413.379 94.3409 412.554 94.0682 411.455 94.0682C410.311 94.0682 409.41 94.322 408.751 94.8295C408.099 95.3295 407.648 95.8864 407.398 96.5L404.205 95.7727C404.584 94.7121 405.137 93.8561 405.864 93.2045C406.599 92.5455 407.444 92.0682 408.398 91.7727C409.353 91.4697 410.357 91.3182 411.41 91.3182C412.107 91.3182 412.845 91.4015 413.626 91.5682C414.413 91.7273 415.148 92.0227 415.83 92.4545C416.519 92.8864 417.084 93.5038 417.523 94.3068C417.963 95.1023 418.182 96.1364 418.182 97.4091V109H414.864V106.614H414.728C414.508 107.053 414.179 107.485 413.739 107.909C413.3 108.333 412.735 108.686 412.046 108.966C411.357 109.246 410.531 109.386 409.569 109.386ZM410.307 106.659C411.247 106.659 412.05 106.473 412.716 106.102C413.391 105.731 413.902 105.246 414.251 104.648C414.607 104.042 414.785 103.394 414.785 102.705V100.455C414.663 100.576 414.429 100.689 414.08 100.795C413.739 100.894 413.349 100.981 412.91 101.057C412.47 101.125 412.042 101.189 411.626 101.25C411.209 101.303 410.86 101.348 410.58 101.386C409.921 101.47 409.319 101.61 408.773 101.807C408.235 102.004 407.804 102.288 407.478 102.659C407.16 103.023 407.001 103.508 407.001 104.114C407.001 104.955 407.311 105.591 407.932 106.023C408.554 106.447 409.345 106.659 410.307 106.659ZM430.06 109.352C428.371 109.352 426.916 108.97 425.697 108.205C424.484 107.432 423.553 106.367 422.901 105.011C422.25 103.655 421.924 102.102 421.924 100.352C421.924 98.5795 422.257 97.0152 422.924 95.6591C423.59 94.2955 424.53 93.2311 425.742 92.4659C426.954 91.7008 428.382 91.3182 430.026 91.3182C431.352 91.3182 432.534 91.5644 433.572 92.0568C434.609 92.5417 435.447 93.2235 436.083 94.1023C436.727 94.9811 437.109 96.0076 437.231 97.1818H433.924C433.742 96.3636 433.325 95.6591 432.674 95.0682C432.03 94.4773 431.166 94.1818 430.083 94.1818C429.136 94.1818 428.306 94.4318 427.594 94.9318C426.89 95.4242 426.34 96.1288 425.947 97.0455C425.553 97.9545 425.356 99.0303 425.356 100.273C425.356 101.545 425.549 102.644 425.935 103.568C426.322 104.492 426.867 105.208 427.572 105.716C428.284 106.223 429.121 106.477 430.083 106.477C430.727 106.477 431.31 106.36 431.833 106.125C432.363 105.883 432.806 105.538 433.162 105.091C433.526 104.644 433.78 104.106 433.924 103.477H437.231C437.109 104.606 436.742 105.614 436.128 106.5C435.515 107.386 434.693 108.083 433.662 108.591C432.64 109.098 431.439 109.352 430.06 109.352ZM448.387 109.352C446.667 109.352 445.186 108.985 443.944 108.25C442.709 107.508 441.754 106.466 441.08 105.125C440.413 103.777 440.08 102.197 440.08 100.386C440.08 98.5985 440.413 97.0227 441.08 95.6591C441.754 94.2955 442.694 93.2311 443.898 92.4659C445.11 91.7008 446.527 91.3182 448.148 91.3182C449.133 91.3182 450.088 91.4811 451.012 91.8068C451.936 92.1326 452.766 92.6439 453.501 93.3409C454.235 94.0379 454.815 94.9432 455.239 96.0568C455.663 97.1629 455.876 98.5076 455.876 100.091V101.295H442.001V98.75H452.546C452.546 97.8561 452.364 97.0644 452.001 96.375C451.637 95.678 451.126 95.1288 450.466 94.7273C449.815 94.3258 449.05 94.125 448.171 94.125C447.216 94.125 446.383 94.3598 445.671 94.8295C444.966 95.2917 444.421 95.8977 444.035 96.6477C443.656 97.3902 443.466 98.197 443.466 99.0682V101.057C443.466 102.223 443.671 103.216 444.08 104.034C444.497 104.852 445.076 105.477 445.819 105.909C446.561 106.333 447.429 106.545 448.421 106.545C449.065 106.545 449.652 106.455 450.182 106.273C450.713 106.083 451.171 105.803 451.557 105.432C451.944 105.061 452.239 104.602 452.444 104.057L455.66 104.636C455.402 105.583 454.94 106.413 454.273 107.125C453.614 107.83 452.785 108.379 451.785 108.773C450.792 109.159 449.66 109.352 448.387 109.352ZM468.114 109V91.5455H471.376V94.3864H471.591C471.955 93.4242 472.55 92.6742 473.376 92.1364C474.201 91.5909 475.19 91.3182 476.341 91.3182C477.508 91.3182 478.485 91.5909 479.273 92.1364C480.069 92.6818 480.656 93.4318 481.035 94.3864H481.216C481.633 93.4545 482.296 92.7121 483.205 92.1591C484.114 91.5985 485.198 91.3182 486.455 91.3182C488.038 91.3182 489.33 91.8144 490.33 92.8068C491.338 93.7992 491.841 95.2955 491.841 97.2955V109H488.444V97.6136C488.444 96.4318 488.122 95.5758 487.478 95.0455C486.834 94.5152 486.065 94.25 485.171 94.25C484.065 94.25 483.205 94.5909 482.591 95.2727C481.978 95.947 481.671 96.8144 481.671 97.875V109H478.285V97.3977C478.285 96.4508 477.989 95.6894 477.398 95.1136C476.807 94.5379 476.038 94.25 475.091 94.25C474.448 94.25 473.853 94.4205 473.307 94.7614C472.769 95.0947 472.334 95.5606 472.001 96.1591C471.675 96.7576 471.512 97.4508 471.512 98.2386V109H468.114ZM501.475 109.386C500.369 109.386 499.369 109.182 498.475 108.773C497.581 108.356 496.873 107.754 496.35 106.966C495.835 106.178 495.577 105.212 495.577 104.068C495.577 103.083 495.767 102.273 496.145 101.636C496.524 101 497.036 100.496 497.68 100.125C498.323 99.7538 499.043 99.4735 499.839 99.2841C500.634 99.0947 501.445 98.9508 502.27 98.8523C503.316 98.7311 504.164 98.6326 504.816 98.5568C505.467 98.4735 505.941 98.3409 506.236 98.1591C506.532 97.9773 506.68 97.6818 506.68 97.2727V97.1932C506.68 96.2008 506.399 95.4318 505.839 94.8864C505.286 94.3409 504.46 94.0682 503.361 94.0682C502.217 94.0682 501.316 94.322 500.657 94.8295C500.005 95.3295 499.555 95.8864 499.305 96.5L496.111 95.7727C496.49 94.7121 497.043 93.8561 497.77 93.2045C498.505 92.5455 499.35 92.0682 500.305 91.7727C501.259 91.4697 502.263 91.3182 503.316 91.3182C504.013 91.3182 504.751 91.4015 505.532 91.5682C506.32 91.7273 507.055 92.0227 507.736 92.4545C508.426 92.8864 508.99 93.5038 509.43 94.3068C509.869 95.1023 510.089 96.1364 510.089 97.4091V109H506.77V106.614H506.634C506.414 107.053 506.085 107.485 505.645 107.909C505.206 108.333 504.642 108.686 503.952 108.966C503.263 109.246 502.437 109.386 501.475 109.386ZM502.214 106.659C503.153 106.659 503.956 106.473 504.623 106.102C505.297 105.731 505.808 105.246 506.157 104.648C506.513 104.042 506.691 103.394 506.691 102.705V100.455C506.57 100.576 506.335 100.689 505.986 100.795C505.645 100.894 505.255 100.981 504.816 101.057C504.376 101.125 503.948 101.189 503.532 101.25C503.115 101.303 502.767 101.348 502.486 101.386C501.827 101.47 501.225 101.61 500.68 101.807C500.142 102.004 499.71 102.288 499.384 102.659C499.066 103.023 498.907 103.508 498.907 104.114C498.907 104.955 499.217 105.591 499.839 106.023C500.46 106.447 501.251 106.659 502.214 106.659ZM514.614 109V91.5455H518.012V109H514.614ZM516.33 88.8523C515.739 88.8523 515.232 88.6553 514.807 88.2614C514.391 87.8598 514.182 87.3826 514.182 86.8295C514.182 86.2689 514.391 85.7917 514.807 85.3977C515.232 84.9962 515.739 84.7955 516.33 84.7955C516.921 84.7955 517.425 84.9962 517.841 85.3977C518.266 85.7917 518.478 86.2689 518.478 86.8295C518.478 87.3826 518.266 87.8598 517.841 88.2614C517.425 88.6553 516.921 88.8523 516.33 88.8523ZM525.981 98.6364V109H522.583V91.5455H525.844V94.3864H526.06C526.462 93.4621 527.09 92.7197 527.947 92.1591C528.81 91.5985 529.897 91.3182 531.208 91.3182C532.397 91.3182 533.439 91.5682 534.333 92.0682C535.227 92.5606 535.92 93.2955 536.412 94.2727C536.905 95.25 537.151 96.4583 537.151 97.8977V109H533.753V98.3068C533.753 97.0417 533.424 96.053 532.765 95.3409C532.106 94.6212 531.2 94.2614 530.049 94.2614C529.261 94.2614 528.56 94.4318 527.947 94.7727C527.34 95.1136 526.859 95.6136 526.503 96.2727C526.155 96.9242 525.981 97.7121 525.981 98.6364ZM545.106 98.6364V109H541.708V91.5455H544.969V94.3864H545.185C545.587 93.4621 546.215 92.7197 547.072 92.1591C547.935 91.5985 549.022 91.3182 550.333 91.3182C551.522 91.3182 552.564 91.5682 553.458 92.0682C554.352 92.5606 555.045 93.2955 555.537 94.2727C556.03 95.25 556.276 96.4583 556.276 97.8977V109H552.878V98.3068C552.878 97.0417 552.549 96.053 551.89 95.3409C551.231 94.6212 550.325 94.2614 549.174 94.2614C548.386 94.2614 547.685 94.4318 547.072 94.7727C546.465 95.1136 545.984 95.6136 545.628 96.2727C545.28 96.9242 545.106 97.7121 545.106 98.6364ZM568.356 109.352C566.636 109.352 565.155 108.985 563.912 108.25C562.678 107.508 561.723 106.466 561.049 105.125C560.382 103.777 560.049 102.197 560.049 100.386C560.049 98.5985 560.382 97.0227 561.049 95.6591C561.723 94.2955 562.662 93.2311 563.867 92.4659C565.079 91.7008 566.496 91.3182 568.117 91.3182C569.102 91.3182 570.056 91.4811 570.981 91.8068C571.905 92.1326 572.734 92.6439 573.469 93.3409C574.204 94.0379 574.784 94.9432 575.208 96.0568C575.632 97.1629 575.844 98.5076 575.844 100.091V101.295H561.969V98.75H572.515C572.515 97.8561 572.333 97.0644 571.969 96.375C571.606 95.678 571.094 95.1288 570.435 94.7273C569.784 94.3258 569.019 94.125 568.14 94.125C567.185 94.125 566.352 94.3598 565.64 94.8295C564.935 95.2917 564.39 95.8977 564.003 96.6477C563.625 97.3902 563.435 98.197 563.435 99.0682V101.057C563.435 102.223 563.64 103.216 564.049 104.034C564.465 104.852 565.045 105.477 565.787 105.909C566.53 106.333 567.397 106.545 568.39 106.545C569.034 106.545 569.621 106.455 570.151 106.273C570.681 106.083 571.14 105.803 571.526 105.432C571.912 105.061 572.208 104.602 572.412 104.057L575.628 104.636C575.371 105.583 574.909 106.413 574.242 107.125C573.583 107.83 572.753 108.379 571.753 108.773C570.761 109.159 569.628 109.352 568.356 109.352ZM587.762 91.5455V94.2727H578.228V91.5455H587.762ZM580.785 87.3636H584.182V103.875C584.182 104.534 584.281 105.03 584.478 105.364C584.675 105.689 584.929 105.913 585.239 106.034C585.557 106.148 585.902 106.205 586.273 106.205C586.546 106.205 586.785 106.186 586.989 106.148C587.194 106.11 587.353 106.08 587.466 106.057L588.08 108.864C587.883 108.939 587.603 109.015 587.239 109.091C586.876 109.174 586.421 109.22 585.876 109.227C584.982 109.242 584.148 109.083 583.376 108.75C582.603 108.417 581.978 107.902 581.501 107.205C581.023 106.508 580.785 105.633 580.785 104.58V87.3636ZM93.2136 143.727C92.2969 143.727 91.4598 143.504 90.7022 143.057C89.9447 142.602 89.3386 141.996 88.8841 141.239C88.4371 140.481 88.2136 139.644 88.2136 138.727C88.2136 137.803 88.4371 136.966 88.8841 136.216C89.3386 135.458 89.9447 134.856 90.7022 134.409C91.4598 133.955 92.2969 133.727 93.2136 133.727C94.1378 133.727 94.975 133.955 95.725 134.409C96.4825 134.856 97.0848 135.458 97.5318 136.216C97.9863 136.966 98.2136 137.803 98.2136 138.727C98.2136 139.644 97.9863 140.481 97.5318 141.239C97.0848 141.996 96.4825 142.602 95.725 143.057C94.975 143.504 94.1378 143.727 93.2136 143.727ZM138.546 124.727V148H135.319L123.489 130.932H123.273V148H119.762V124.727H123.012L134.853 141.818H135.069V124.727H138.546ZM148.475 148.386C147.369 148.386 146.369 148.182 145.475 147.773C144.581 147.356 143.873 146.754 143.35 145.966C142.835 145.178 142.577 144.212 142.577 143.068C142.577 142.083 142.767 141.273 143.145 140.636C143.524 140 144.036 139.496 144.68 139.125C145.323 138.754 146.043 138.473 146.839 138.284C147.634 138.095 148.445 137.951 149.27 137.852C150.316 137.731 151.164 137.633 151.816 137.557C152.467 137.473 152.941 137.341 153.236 137.159C153.532 136.977 153.68 136.682 153.68 136.273V136.193C153.68 135.201 153.399 134.432 152.839 133.886C152.286 133.341 151.46 133.068 150.361 133.068C149.217 133.068 148.316 133.322 147.657 133.83C147.005 134.33 146.555 134.886 146.305 135.5L143.111 134.773C143.49 133.712 144.043 132.856 144.77 132.205C145.505 131.545 146.35 131.068 147.305 130.773C148.259 130.47 149.263 130.318 150.316 130.318C151.013 130.318 151.751 130.402 152.532 130.568C153.32 130.727 154.055 131.023 154.736 131.455C155.426 131.886 155.99 132.504 156.43 133.307C156.869 134.102 157.089 135.136 157.089 136.409V148H153.77V145.614H153.634C153.414 146.053 153.085 146.485 152.645 146.909C152.206 147.333 151.642 147.686 150.952 147.966C150.263 148.246 149.437 148.386 148.475 148.386ZM149.214 145.659C150.153 145.659 150.956 145.473 151.623 145.102C152.297 144.731 152.808 144.246 153.157 143.648C153.513 143.042 153.691 142.394 153.691 141.705V139.455C153.57 139.576 153.335 139.689 152.986 139.795C152.645 139.894 152.255 139.981 151.816 140.057C151.376 140.125 150.948 140.189 150.532 140.25C150.115 140.303 149.767 140.348 149.486 140.386C148.827 140.47 148.225 140.61 147.68 140.807C147.142 141.004 146.71 141.288 146.384 141.659C146.066 142.023 145.907 142.508 145.907 143.114C145.907 143.955 146.217 144.591 146.839 145.023C147.46 145.447 148.251 145.659 149.214 145.659ZM169.762 130.545V133.273H160.228V130.545H169.762ZM162.785 126.364H166.182V142.875C166.182 143.534 166.281 144.03 166.478 144.364C166.675 144.689 166.929 144.913 167.239 145.034C167.557 145.148 167.902 145.205 168.273 145.205C168.546 145.205 168.785 145.186 168.989 145.148C169.194 145.11 169.353 145.08 169.466 145.057L170.08 147.864C169.883 147.939 169.603 148.015 169.239 148.091C168.876 148.174 168.421 148.22 167.876 148.227C166.982 148.242 166.148 148.083 165.376 147.75C164.603 147.417 163.978 146.902 163.501 146.205C163.023 145.508 162.785 144.633 162.785 143.58V126.364ZM173.52 148V130.545H176.918V148H173.52ZM175.236 127.852C174.645 127.852 174.138 127.655 173.714 127.261C173.297 126.86 173.089 126.383 173.089 125.83C173.089 125.269 173.297 124.792 173.714 124.398C174.138 123.996 174.645 123.795 175.236 123.795C175.827 123.795 176.331 123.996 176.748 124.398C177.172 124.792 177.384 125.269 177.384 125.83C177.384 126.383 177.172 126.86 176.748 127.261C176.331 127.655 175.827 127.852 175.236 127.852ZM196.421 130.545L190.091 148H186.455L180.114 130.545H183.762L188.182 143.977H188.364L192.773 130.545H196.421ZM206.543 148.352C204.823 148.352 203.342 147.985 202.1 147.25C200.865 146.508 199.911 145.466 199.236 144.125C198.57 142.777 198.236 141.197 198.236 139.386C198.236 137.598 198.57 136.023 199.236 134.659C199.911 133.295 200.85 132.231 202.055 131.466C203.267 130.701 204.683 130.318 206.305 130.318C207.289 130.318 208.244 130.481 209.168 130.807C210.092 131.133 210.922 131.644 211.657 132.341C212.392 133.038 212.971 133.943 213.395 135.057C213.82 136.163 214.032 137.508 214.032 139.091V140.295H200.157V137.75H210.702C210.702 136.856 210.52 136.064 210.157 135.375C209.793 134.678 209.282 134.129 208.623 133.727C207.971 133.326 207.206 133.125 206.327 133.125C205.373 133.125 204.539 133.36 203.827 133.83C203.123 134.292 202.577 134.898 202.191 135.648C201.812 136.39 201.623 137.197 201.623 138.068V140.057C201.623 141.223 201.827 142.216 202.236 143.034C202.653 143.852 203.233 144.477 203.975 144.909C204.717 145.333 205.585 145.545 206.577 145.545C207.221 145.545 207.808 145.455 208.339 145.273C208.869 145.083 209.327 144.803 209.714 144.432C210.1 144.061 210.395 143.602 210.6 143.057L213.816 143.636C213.558 144.583 213.096 145.413 212.43 146.125C211.77 146.83 210.941 147.379 209.941 147.773C208.948 148.159 207.816 148.352 206.543 148.352ZM233.623 148.352C231.933 148.352 230.479 147.97 229.259 147.205C228.047 146.432 227.115 145.367 226.464 144.011C225.812 142.655 225.486 141.102 225.486 139.352C225.486 137.58 225.82 136.015 226.486 134.659C227.153 133.295 228.092 132.231 229.305 131.466C230.517 130.701 231.945 130.318 233.589 130.318C234.914 130.318 236.096 130.564 237.134 131.057C238.172 131.542 239.009 132.223 239.645 133.102C240.289 133.981 240.672 135.008 240.793 136.182H237.486C237.305 135.364 236.888 134.659 236.236 134.068C235.592 133.477 234.729 133.182 233.645 133.182C232.698 133.182 231.869 133.432 231.157 133.932C230.452 134.424 229.903 135.129 229.509 136.045C229.115 136.955 228.918 138.03 228.918 139.273C228.918 140.545 229.111 141.644 229.498 142.568C229.884 143.492 230.43 144.208 231.134 144.716C231.846 145.223 232.683 145.477 233.645 145.477C234.289 145.477 234.873 145.36 235.395 145.125C235.926 144.883 236.369 144.538 236.725 144.091C237.089 143.644 237.342 143.106 237.486 142.477H240.793C240.672 143.606 240.305 144.614 239.691 145.5C239.077 146.386 238.255 147.083 237.225 147.591C236.202 148.098 235.001 148.352 233.623 148.352ZM244.427 148V130.545H247.711V133.318H247.893C248.211 132.379 248.771 131.64 249.574 131.102C250.385 130.557 251.302 130.284 252.324 130.284C252.537 130.284 252.787 130.292 253.074 130.307C253.37 130.322 253.601 130.341 253.768 130.364V133.614C253.631 133.576 253.389 133.534 253.04 133.489C252.692 133.436 252.343 133.409 251.995 133.409C251.192 133.409 250.476 133.58 249.847 133.92C249.226 134.254 248.733 134.72 248.37 135.318C248.006 135.909 247.824 136.583 247.824 137.341V148H244.427ZM256.708 148V130.545H260.106V148H256.708ZM258.424 127.852C257.833 127.852 257.325 127.655 256.901 127.261C256.484 126.86 256.276 126.383 256.276 125.83C256.276 125.269 256.484 124.792 256.901 124.398C257.325 123.996 257.833 123.795 258.424 123.795C259.015 123.795 259.519 123.996 259.935 124.398C260.359 124.792 260.572 125.269 260.572 125.83C260.572 126.383 260.359 126.86 259.935 127.261C259.519 127.655 259.015 127.852 258.424 127.852ZM272.029 148.352C270.34 148.352 268.885 147.97 267.665 147.205C266.453 146.432 265.521 145.367 264.87 144.011C264.218 142.655 263.893 141.102 263.893 139.352C263.893 137.58 264.226 136.015 264.893 134.659C265.559 133.295 266.499 132.231 267.711 131.466C268.923 130.701 270.351 130.318 271.995 130.318C273.321 130.318 274.502 130.564 275.54 131.057C276.578 131.542 277.415 132.223 278.052 133.102C278.696 133.981 279.078 135.008 279.199 136.182H275.893C275.711 135.364 275.294 134.659 274.643 134.068C273.999 133.477 273.135 133.182 272.052 133.182C271.105 133.182 270.275 133.432 269.563 133.932C268.858 134.424 268.309 135.129 267.915 136.045C267.521 136.955 267.324 138.03 267.324 139.273C267.324 140.545 267.518 141.644 267.904 142.568C268.29 143.492 268.836 144.208 269.54 144.716C270.252 145.223 271.09 145.477 272.052 145.477C272.696 145.477 273.279 145.36 273.802 145.125C274.332 144.883 274.775 144.538 275.131 144.091C275.495 143.644 275.749 143.106 275.893 142.477H279.199C279.078 143.606 278.711 144.614 278.097 145.5C277.483 146.386 276.662 147.083 275.631 147.591C274.608 148.098 273.408 148.352 272.029 148.352ZM285.958 142.08L285.935 137.932H286.526L293.481 130.545H297.549L289.617 138.955H289.083L285.958 142.08ZM282.833 148V124.727H286.231V148H282.833ZM293.856 148L287.606 139.705L289.947 137.33L298.026 148H293.856ZM307.449 148.352C305.73 148.352 304.249 147.985 303.006 147.25C301.771 146.508 300.817 145.466 300.143 144.125C299.476 142.777 299.143 141.197 299.143 139.386C299.143 137.598 299.476 136.023 300.143 134.659C300.817 133.295 301.756 132.231 302.961 131.466C304.173 130.701 305.59 130.318 307.211 130.318C308.196 130.318 309.15 130.481 310.074 130.807C310.999 131.133 311.828 131.644 312.563 132.341C313.298 133.038 313.877 133.943 314.302 135.057C314.726 136.163 314.938 137.508 314.938 139.091V140.295H301.063V137.75H311.608C311.608 136.856 311.427 136.064 311.063 135.375C310.699 134.678 310.188 134.129 309.529 133.727C308.877 133.326 308.112 133.125 307.233 133.125C306.279 133.125 305.446 133.36 304.733 133.83C304.029 134.292 303.483 134.898 303.097 135.648C302.718 136.39 302.529 137.197 302.529 138.068V140.057C302.529 141.223 302.733 142.216 303.143 143.034C303.559 143.852 304.139 144.477 304.881 144.909C305.624 145.333 306.491 145.545 307.483 145.545C308.127 145.545 308.715 145.455 309.245 145.273C309.775 145.083 310.233 144.803 310.62 144.432C311.006 144.061 311.302 143.602 311.506 143.057L314.722 143.636C314.465 144.583 314.002 145.413 313.336 146.125C312.677 146.83 311.847 147.379 310.847 147.773C309.855 148.159 308.722 148.352 307.449 148.352ZM326.856 130.545V133.273H317.322V130.545H326.856ZM319.878 126.364H323.276V142.875C323.276 143.534 323.375 144.03 323.572 144.364C323.769 144.689 324.022 144.913 324.333 145.034C324.651 145.148 324.996 145.205 325.367 145.205C325.64 145.205 325.878 145.186 326.083 145.148C326.287 145.11 326.447 145.08 326.56 145.057L327.174 147.864C326.977 147.939 326.697 148.015 326.333 148.091C325.969 148.174 325.515 148.22 324.969 148.227C324.075 148.242 323.242 148.083 322.469 147.75C321.697 147.417 321.072 146.902 320.594 146.205C320.117 145.508 319.878 144.633 319.878 143.58V126.364ZM358.14 124.727V148H354.912L343.083 130.932H342.867V148H339.356V124.727H342.606L354.447 141.818H354.662V124.727H358.14ZM363.262 148V124.727H377.694V127.75H366.773V134.841H376.66V137.852H366.773V148H363.262ZM380.864 127.75V124.727H398.876V127.75H391.614V148H388.114V127.75H380.864ZM424.018 130.841C423.896 129.765 423.396 128.932 422.518 128.341C421.639 127.742 420.533 127.443 419.199 127.443C418.245 127.443 417.419 127.595 416.722 127.898C416.025 128.193 415.483 128.602 415.097 129.125C414.718 129.64 414.529 130.227 414.529 130.886C414.529 131.439 414.658 131.917 414.915 132.318C415.18 132.72 415.525 133.057 415.949 133.33C416.381 133.595 416.843 133.818 417.336 134C417.828 134.174 418.302 134.318 418.756 134.432L421.029 135.023C421.771 135.205 422.533 135.451 423.313 135.761C424.093 136.072 424.817 136.481 425.483 136.989C426.15 137.496 426.688 138.125 427.097 138.875C427.514 139.625 427.722 140.523 427.722 141.568C427.722 142.886 427.381 144.057 426.699 145.08C426.025 146.102 425.044 146.909 423.756 147.5C422.476 148.091 420.927 148.386 419.108 148.386C417.366 148.386 415.858 148.11 414.586 147.557C413.313 147.004 412.317 146.22 411.597 145.205C410.877 144.182 410.48 142.97 410.404 141.568H413.927C413.995 142.409 414.268 143.11 414.745 143.67C415.23 144.223 415.847 144.636 416.597 144.909C417.355 145.174 418.184 145.307 419.086 145.307C420.078 145.307 420.961 145.152 421.733 144.841C422.514 144.523 423.127 144.083 423.574 143.523C424.021 142.955 424.245 142.292 424.245 141.534C424.245 140.845 424.048 140.28 423.654 139.841C423.268 139.402 422.741 139.038 422.074 138.75C421.415 138.462 420.669 138.208 419.836 137.989L417.086 137.239C415.222 136.731 413.745 135.985 412.654 135C411.571 134.015 411.029 132.712 411.029 131.091C411.029 129.75 411.393 128.58 412.12 127.58C412.847 126.58 413.832 125.803 415.074 125.25C416.317 124.689 417.718 124.409 419.279 124.409C420.855 124.409 422.245 124.686 423.449 125.239C424.662 125.792 425.616 126.553 426.313 127.523C427.01 128.485 427.374 129.591 427.404 130.841H424.018ZM450.702 124.727V148H447.475L435.645 130.932H435.43V148H431.918V124.727H435.168L447.009 141.818H447.225V124.727H450.702ZM455.824 148V124.727H470.415V127.75H459.336V134.841H469.654V137.852H459.336V144.977H470.552V148H455.824ZM475.106 148V124.727H489.697V127.75H478.617V134.841H488.935V137.852H478.617V144.977H489.833V148H475.106ZM494.387 148V124.727H497.898V135.841H498.182L507.944 124.727H512.364L502.978 135.205L512.398 148H508.171L500.648 137.602L497.898 140.761V148H494.387ZM524.106 148V124.727H532.401C534.212 124.727 535.712 125.057 536.901 125.716C538.09 126.375 538.981 127.277 539.572 128.42C540.162 129.557 540.458 130.837 540.458 132.261C540.458 133.693 540.159 134.981 539.56 136.125C538.969 137.261 538.075 138.163 536.878 138.83C535.689 139.489 534.193 139.818 532.39 139.818H526.685V136.841H532.072C533.215 136.841 534.144 136.644 534.856 136.25C535.568 135.848 536.09 135.303 536.424 134.614C536.757 133.924 536.924 133.14 536.924 132.261C536.924 131.383 536.757 130.602 536.424 129.92C536.09 129.239 535.564 128.705 534.844 128.318C534.132 127.932 533.193 127.739 532.026 127.739H527.617V148H524.106ZM544.574 148V124.727H559.165V127.75H548.086V134.841H558.404V137.852H548.086V144.977H559.302V148H544.574ZM565.822 148H562.094L570.469 124.727H574.526L582.901 148H579.174L572.594 128.955H572.412L565.822 148ZM566.447 138.886H578.537V141.841H566.447V138.886ZM586.262 148V124.727H589.773V135.841H590.057L599.819 124.727H604.239L594.853 135.205L604.273 148H600.046L592.523 137.602L589.773 140.761V148H586.262ZM93.2136 182.727C92.2969 182.727 91.4598 182.504 90.7022 182.057C89.9447 181.602 89.3386 180.996 88.8841 180.239C88.4371 179.481 88.2136 178.644 88.2136 177.727C88.2136 176.803 88.4371 175.966 88.8841 175.216C89.3386 174.458 89.9447 173.856 90.7022 173.409C91.4598 172.955 92.2969 172.727 93.2136 172.727C94.1378 172.727 94.975 172.955 95.725 173.409C96.4825 173.856 97.0848 174.458 97.5318 175.216C97.9863 175.966 98.2136 176.803 98.2136 177.727C98.2136 178.644 97.9863 179.481 97.5318 180.239C97.0848 180.996 96.4825 181.602 95.725 182.057C94.975 182.504 94.1378 182.727 93.2136 182.727ZM138.546 163.727V187H135.319L123.489 169.932H123.273V187H119.762V163.727H123.012L134.853 180.818H135.069V163.727H138.546ZM148.475 187.386C147.369 187.386 146.369 187.182 145.475 186.773C144.581 186.356 143.873 185.754 143.35 184.966C142.835 184.178 142.577 183.212 142.577 182.068C142.577 181.083 142.767 180.273 143.145 179.636C143.524 179 144.036 178.496 144.68 178.125C145.323 177.754 146.043 177.473 146.839 177.284C147.634 177.095 148.445 176.951 149.27 176.852C150.316 176.731 151.164 176.633 151.816 176.557C152.467 176.473 152.941 176.341 153.236 176.159C153.532 175.977 153.68 175.682 153.68 175.273V175.193C153.68 174.201 153.399 173.432 152.839 172.886C152.286 172.341 151.46 172.068 150.361 172.068C149.217 172.068 148.316 172.322 147.657 172.83C147.005 173.33 146.555 173.886 146.305 174.5L143.111 173.773C143.49 172.712 144.043 171.856 144.77 171.205C145.505 170.545 146.35 170.068 147.305 169.773C148.259 169.47 149.263 169.318 150.316 169.318C151.013 169.318 151.751 169.402 152.532 169.568C153.32 169.727 154.055 170.023 154.736 170.455C155.426 170.886 155.99 171.504 156.43 172.307C156.869 173.102 157.089 174.136 157.089 175.409V187H153.77V184.614H153.634C153.414 185.053 153.085 185.485 152.645 185.909C152.206 186.333 151.642 186.686 150.952 186.966C150.263 187.246 149.437 187.386 148.475 187.386ZM149.214 184.659C150.153 184.659 150.956 184.473 151.623 184.102C152.297 183.731 152.808 183.246 153.157 182.648C153.513 182.042 153.691 181.394 153.691 180.705V178.455C153.57 178.576 153.335 178.689 152.986 178.795C152.645 178.894 152.255 178.981 151.816 179.057C151.376 179.125 150.948 179.189 150.532 179.25C150.115 179.303 149.767 179.348 149.486 179.386C148.827 179.47 148.225 179.61 147.68 179.807C147.142 180.004 146.71 180.288 146.384 180.659C146.066 181.023 145.907 181.508 145.907 182.114C145.907 182.955 146.217 183.591 146.839 184.023C147.46 184.447 148.251 184.659 149.214 184.659ZM169.762 169.545V172.273H160.228V169.545H169.762ZM162.785 165.364H166.182V181.875C166.182 182.534 166.281 183.03 166.478 183.364C166.675 183.689 166.929 183.913 167.239 184.034C167.557 184.148 167.902 184.205 168.273 184.205C168.546 184.205 168.785 184.186 168.989 184.148C169.194 184.11 169.353 184.08 169.466 184.057L170.08 186.864C169.883 186.939 169.603 187.015 169.239 187.091C168.876 187.174 168.421 187.22 167.876 187.227C166.982 187.242 166.148 187.083 165.376 186.75C164.603 186.417 163.978 185.902 163.501 185.205C163.023 184.508 162.785 183.633 162.785 182.58V165.364ZM173.52 187V169.545H176.918V187H173.52ZM175.236 166.852C174.645 166.852 174.138 166.655 173.714 166.261C173.297 165.86 173.089 165.383 173.089 164.83C173.089 164.269 173.297 163.792 173.714 163.398C174.138 162.996 174.645 162.795 175.236 162.795C175.827 162.795 176.331 162.996 176.748 163.398C177.172 163.792 177.384 164.269 177.384 164.83C177.384 165.383 177.172 165.86 176.748 166.261C176.331 166.655 175.827 166.852 175.236 166.852ZM196.421 169.545L190.091 187H186.455L180.114 169.545H183.762L188.182 182.977H188.364L192.773 169.545H196.421ZM206.543 187.352C204.823 187.352 203.342 186.985 202.1 186.25C200.865 185.508 199.911 184.466 199.236 183.125C198.57 181.777 198.236 180.197 198.236 178.386C198.236 176.598 198.57 175.023 199.236 173.659C199.911 172.295 200.85 171.231 202.055 170.466C203.267 169.701 204.683 169.318 206.305 169.318C207.289 169.318 208.244 169.481 209.168 169.807C210.092 170.133 210.922 170.644 211.657 171.341C212.392 172.038 212.971 172.943 213.395 174.057C213.82 175.163 214.032 176.508 214.032 178.091V179.295H200.157V176.75H210.702C210.702 175.856 210.52 175.064 210.157 174.375C209.793 173.678 209.282 173.129 208.623 172.727C207.971 172.326 207.206 172.125 206.327 172.125C205.373 172.125 204.539 172.36 203.827 172.83C203.123 173.292 202.577 173.898 202.191 174.648C201.812 175.39 201.623 176.197 201.623 177.068V179.057C201.623 180.223 201.827 181.216 202.236 182.034C202.653 182.852 203.233 183.477 203.975 183.909C204.717 184.333 205.585 184.545 206.577 184.545C207.221 184.545 207.808 184.455 208.339 184.273C208.869 184.083 209.327 183.803 209.714 183.432C210.1 183.061 210.395 182.602 210.6 182.057L213.816 182.636C213.558 183.583 213.096 184.413 212.43 185.125C211.77 185.83 210.941 186.379 209.941 186.773C208.948 187.159 207.816 187.352 206.543 187.352ZM233.623 187.352C231.933 187.352 230.479 186.97 229.259 186.205C228.047 185.432 227.115 184.367 226.464 183.011C225.812 181.655 225.486 180.102 225.486 178.352C225.486 176.58 225.82 175.015 226.486 173.659C227.153 172.295 228.092 171.231 229.305 170.466C230.517 169.701 231.945 169.318 233.589 169.318C234.914 169.318 236.096 169.564 237.134 170.057C238.172 170.542 239.009 171.223 239.645 172.102C240.289 172.981 240.672 174.008 240.793 175.182H237.486C237.305 174.364 236.888 173.659 236.236 173.068C235.592 172.477 234.729 172.182 233.645 172.182C232.698 172.182 231.869 172.432 231.157 172.932C230.452 173.424 229.903 174.129 229.509 175.045C229.115 175.955 228.918 177.03 228.918 178.273C228.918 179.545 229.111 180.644 229.498 181.568C229.884 182.492 230.43 183.208 231.134 183.716C231.846 184.223 232.683 184.477 233.645 184.477C234.289 184.477 234.873 184.36 235.395 184.125C235.926 183.883 236.369 183.538 236.725 183.091C237.089 182.644 237.342 182.106 237.486 181.477H240.793C240.672 182.606 240.305 183.614 239.691 184.5C239.077 185.386 238.255 186.083 237.225 186.591C236.202 187.098 235.001 187.352 233.623 187.352ZM244.427 187V169.545H247.711V172.318H247.893C248.211 171.379 248.771 170.64 249.574 170.102C250.385 169.557 251.302 169.284 252.324 169.284C252.537 169.284 252.787 169.292 253.074 169.307C253.37 169.322 253.601 169.341 253.768 169.364V172.614C253.631 172.576 253.389 172.534 253.04 172.489C252.692 172.436 252.343 172.409 251.995 172.409C251.192 172.409 250.476 172.58 249.847 172.92C249.226 173.254 248.733 173.72 248.37 174.318C248.006 174.909 247.824 175.583 247.824 176.341V187H244.427ZM256.708 187V169.545H260.106V187H256.708ZM258.424 166.852C257.833 166.852 257.325 166.655 256.901 166.261C256.484 165.86 256.276 165.383 256.276 164.83C256.276 164.269 256.484 163.792 256.901 163.398C257.325 162.996 257.833 162.795 258.424 162.795C259.015 162.795 259.519 162.996 259.935 163.398C260.359 163.792 260.572 164.269 260.572 164.83C260.572 165.383 260.359 165.86 259.935 166.261C259.519 166.655 259.015 166.852 258.424 166.852ZM272.029 187.352C270.34 187.352 268.885 186.97 267.665 186.205C266.453 185.432 265.521 184.367 264.87 183.011C264.218 181.655 263.893 180.102 263.893 178.352C263.893 176.58 264.226 175.015 264.893 173.659C265.559 172.295 266.499 171.231 267.711 170.466C268.923 169.701 270.351 169.318 271.995 169.318C273.321 169.318 274.502 169.564 275.54 170.057C276.578 170.542 277.415 171.223 278.052 172.102C278.696 172.981 279.078 174.008 279.199 175.182H275.893C275.711 174.364 275.294 173.659 274.643 173.068C273.999 172.477 273.135 172.182 272.052 172.182C271.105 172.182 270.275 172.432 269.563 172.932C268.858 173.424 268.309 174.129 267.915 175.045C267.521 175.955 267.324 177.03 267.324 178.273C267.324 179.545 267.518 180.644 267.904 181.568C268.29 182.492 268.836 183.208 269.54 183.716C270.252 184.223 271.09 184.477 272.052 184.477C272.696 184.477 273.279 184.36 273.802 184.125C274.332 183.883 274.775 183.538 275.131 183.091C275.495 182.644 275.749 182.106 275.893 181.477H279.199C279.078 182.606 278.711 183.614 278.097 184.5C277.483 185.386 276.662 186.083 275.631 186.591C274.608 187.098 273.408 187.352 272.029 187.352ZM285.958 181.08L285.935 176.932H286.526L293.481 169.545H297.549L289.617 177.955H289.083L285.958 181.08ZM282.833 187V163.727H286.231V187H282.833ZM293.856 187L287.606 178.705L289.947 176.33L298.026 187H293.856ZM307.449 187.352C305.73 187.352 304.249 186.985 303.006 186.25C301.771 185.508 300.817 184.466 300.143 183.125C299.476 181.777 299.143 180.197 299.143 178.386C299.143 176.598 299.476 175.023 300.143 173.659C300.817 172.295 301.756 171.231 302.961 170.466C304.173 169.701 305.59 169.318 307.211 169.318C308.196 169.318 309.15 169.481 310.074 169.807C310.999 170.133 311.828 170.644 312.563 171.341C313.298 172.038 313.877 172.943 314.302 174.057C314.726 175.163 314.938 176.508 314.938 178.091V179.295H301.063V176.75H311.608C311.608 175.856 311.427 175.064 311.063 174.375C310.699 173.678 310.188 173.129 309.529 172.727C308.877 172.326 308.112 172.125 307.233 172.125C306.279 172.125 305.446 172.36 304.733 172.83C304.029 173.292 303.483 173.898 303.097 174.648C302.718 175.39 302.529 176.197 302.529 177.068V179.057C302.529 180.223 302.733 181.216 303.143 182.034C303.559 182.852 304.139 183.477 304.881 183.909C305.624 184.333 306.491 184.545 307.483 184.545C308.127 184.545 308.715 184.455 309.245 184.273C309.775 184.083 310.233 183.803 310.62 183.432C311.006 183.061 311.302 182.602 311.506 182.057L314.722 182.636C314.465 183.583 314.002 184.413 313.336 185.125C312.677 185.83 311.847 186.379 310.847 186.773C309.855 187.159 308.722 187.352 307.449 187.352ZM326.856 169.545V172.273H317.322V169.545H326.856ZM319.878 165.364H323.276V181.875C323.276 182.534 323.375 183.03 323.572 183.364C323.769 183.689 324.022 183.913 324.333 184.034C324.651 184.148 324.996 184.205 325.367 184.205C325.64 184.205 325.878 184.186 326.083 184.148C326.287 184.11 326.447 184.08 326.56 184.057L327.174 186.864C326.977 186.939 326.697 187.015 326.333 187.091C325.969 187.174 325.515 187.22 324.969 187.227C324.075 187.242 323.242 187.083 322.469 186.75C321.697 186.417 321.072 185.902 320.594 185.205C320.117 184.508 319.878 183.633 319.878 182.58V165.364ZM358.14 163.727V187H354.912L343.083 169.932H342.867V187H339.356V163.727H342.606L354.447 180.818H354.662V163.727H358.14ZM363.262 187V163.727H377.694V166.75H366.773V173.841H376.66V176.852H366.773V187H363.262ZM380.864 166.75V163.727H398.876V166.75H391.614V187H388.114V166.75H380.864ZM417.586 187.341C416.177 187.341 414.919 186.981 413.813 186.261C412.715 185.534 411.851 184.5 411.222 183.159C410.601 181.811 410.29 180.193 410.29 178.307C410.29 176.42 410.605 174.807 411.233 173.466C411.87 172.125 412.741 171.098 413.847 170.386C414.953 169.674 416.207 169.318 417.608 169.318C418.692 169.318 419.563 169.5 420.222 169.864C420.889 170.22 421.404 170.636 421.768 171.114C422.139 171.591 422.427 172.011 422.631 172.375H422.836V163.727H426.233V187H422.915V184.284H422.631C422.427 184.655 422.131 185.08 421.745 185.557C421.366 186.034 420.843 186.451 420.177 186.807C419.51 187.163 418.646 187.341 417.586 187.341ZM418.336 184.443C419.313 184.443 420.139 184.186 420.813 183.67C421.495 183.148 422.01 182.424 422.358 181.5C422.715 180.576 422.893 179.5 422.893 178.273C422.893 177.061 422.718 176 422.37 175.091C422.021 174.182 421.51 173.473 420.836 172.966C420.162 172.458 419.328 172.205 418.336 172.205C417.313 172.205 416.461 172.47 415.779 173C415.097 173.53 414.582 174.254 414.233 175.17C413.893 176.087 413.722 177.121 413.722 178.273C413.722 179.439 413.896 180.489 414.245 181.42C414.593 182.352 415.108 183.091 415.79 183.636C416.48 184.174 417.328 184.443 418.336 184.443ZM431.083 187V169.545H434.367V172.318H434.549C434.867 171.379 435.428 170.64 436.231 170.102C437.041 169.557 437.958 169.284 438.981 169.284C439.193 169.284 439.443 169.292 439.731 169.307C440.026 169.322 440.257 169.341 440.424 169.364V172.614C440.287 172.576 440.045 172.534 439.697 172.489C439.348 172.436 439 172.409 438.651 172.409C437.848 172.409 437.132 172.58 436.503 172.92C435.882 173.254 435.39 173.72 435.026 174.318C434.662 174.909 434.481 175.583 434.481 176.341V187H431.083ZM450.091 187.352C448.455 187.352 447.027 186.977 445.807 186.227C444.588 185.477 443.641 184.428 442.966 183.08C442.292 181.731 441.955 180.155 441.955 178.352C441.955 176.542 442.292 174.958 442.966 173.602C443.641 172.246 444.588 171.193 445.807 170.443C447.027 169.693 448.455 169.318 450.091 169.318C451.728 169.318 453.156 169.693 454.376 170.443C455.595 171.193 456.542 172.246 457.216 173.602C457.891 174.958 458.228 176.542 458.228 178.352C458.228 180.155 457.891 181.731 457.216 183.08C456.542 184.428 455.595 185.477 454.376 186.227C453.156 186.977 451.728 187.352 450.091 187.352ZM450.103 184.5C451.163 184.5 452.042 184.22 452.739 183.659C453.436 183.098 453.951 182.352 454.285 181.42C454.626 180.489 454.796 179.462 454.796 178.341C454.796 177.227 454.626 176.205 454.285 175.273C453.951 174.333 453.436 173.58 452.739 173.011C452.042 172.443 451.163 172.159 450.103 172.159C449.035 172.159 448.148 172.443 447.444 173.011C446.747 173.58 446.228 174.333 445.887 175.273C445.554 176.205 445.387 177.227 445.387 178.341C445.387 179.462 445.554 180.489 445.887 181.42C446.228 182.352 446.747 183.098 447.444 183.659C448.148 184.22 449.035 184.5 450.103 184.5ZM462.02 193.545V169.545H465.339V172.375H465.623C465.82 172.011 466.104 171.591 466.475 171.114C466.846 170.636 467.361 170.22 468.02 169.864C468.68 169.5 469.551 169.318 470.634 169.318C472.043 169.318 473.301 169.674 474.407 170.386C475.513 171.098 476.38 172.125 477.009 173.466C477.645 174.807 477.964 176.42 477.964 178.307C477.964 180.193 477.649 181.811 477.02 183.159C476.392 184.5 475.528 185.534 474.43 186.261C473.331 186.981 472.077 187.341 470.668 187.341C469.608 187.341 468.74 187.163 468.066 186.807C467.399 186.451 466.876 186.034 466.498 185.557C466.119 185.08 465.827 184.655 465.623 184.284H465.418V193.545H462.02ZM465.35 178.273C465.35 179.5 465.528 180.576 465.884 181.5C466.24 182.424 466.755 183.148 467.43 183.67C468.104 184.186 468.93 184.443 469.907 184.443C470.922 184.443 471.77 184.174 472.452 183.636C473.134 183.091 473.649 182.352 473.998 181.42C474.354 180.489 474.532 179.439 474.532 178.273C474.532 177.121 474.358 176.087 474.009 175.17C473.668 174.254 473.153 173.53 472.464 173C471.782 172.47 470.93 172.205 469.907 172.205C468.922 172.205 468.089 172.458 467.407 172.966C466.733 173.473 466.221 174.182 465.873 175.091C465.524 176 465.35 177.061 465.35 178.273ZM93.2136 221.727C92.2969 221.727 91.4598 221.504 90.7022 221.057C89.9447 220.602 89.3386 219.996 88.8841 219.239C88.4371 218.481 88.2136 217.644 88.2136 216.727C88.2136 215.803 88.4371 214.966 88.8841 214.216C89.3386 213.458 89.9447 212.856 90.7022 212.409C91.4598 211.955 92.2969 211.727 93.2136 211.727C94.1378 211.727 94.975 211.955 95.725 212.409C96.4825 212.856 97.0848 213.458 97.5318 214.216C97.9863 214.966 98.2136 215.803 98.2136 216.727C98.2136 217.644 97.9863 218.481 97.5318 219.239C97.0848 219.996 96.4825 220.602 95.725 221.057C94.975 221.504 94.1378 221.727 93.2136 221.727ZM124.319 226L117.864 202.727H121.557L126.091 220.75H126.307L131.023 202.727H134.682L139.398 220.761H139.614L144.137 202.727H147.841L141.376 226H137.841L132.944 208.568H132.762L127.864 226H124.319ZM154.168 215.636V226H150.77V202.727H154.123V211.386H154.339C154.748 210.447 155.373 209.701 156.214 209.148C157.055 208.595 158.153 208.318 159.509 208.318C160.706 208.318 161.751 208.564 162.645 209.057C163.547 209.549 164.244 210.284 164.736 211.261C165.236 212.231 165.486 213.443 165.486 214.898V226H162.089V215.307C162.089 214.027 161.759 213.034 161.1 212.33C160.441 211.617 159.524 211.261 158.35 211.261C157.547 211.261 156.827 211.432 156.191 211.773C155.562 212.114 155.066 212.614 154.702 213.273C154.346 213.924 154.168 214.712 154.168 215.636ZM170.02 226V208.545H173.418V226H170.02ZM171.736 205.852C171.145 205.852 170.638 205.655 170.214 205.261C169.797 204.86 169.589 204.383 169.589 203.83C169.589 203.269 169.797 202.792 170.214 202.398C170.638 201.996 171.145 201.795 171.736 201.795C172.327 201.795 172.831 201.996 173.248 202.398C173.672 202.792 173.884 203.269 173.884 203.83C173.884 204.383 173.672 204.86 173.248 205.261C172.831 205.655 172.327 205.852 171.736 205.852ZM186.137 208.545V211.273H176.603V208.545H186.137ZM179.16 204.364H182.557V220.875C182.557 221.534 182.656 222.03 182.853 222.364C183.05 222.689 183.304 222.913 183.614 223.034C183.932 223.148 184.277 223.205 184.648 223.205C184.921 223.205 185.16 223.186 185.364 223.148C185.569 223.11 185.728 223.08 185.841 223.057L186.455 225.864C186.258 225.939 185.978 226.015 185.614 226.091C185.251 226.174 184.796 226.22 184.251 226.227C183.357 226.242 182.523 226.083 181.751 225.75C180.978 225.417 180.353 224.902 179.876 224.205C179.398 223.508 179.16 222.633 179.16 221.58V204.364ZM197.231 226.352C195.511 226.352 194.03 225.985 192.787 225.25C191.553 224.508 190.598 223.466 189.924 222.125C189.257 220.777 188.924 219.197 188.924 217.386C188.924 215.598 189.257 214.023 189.924 212.659C190.598 211.295 191.537 210.231 192.742 209.466C193.954 208.701 195.371 208.318 196.992 208.318C197.977 208.318 198.931 208.481 199.856 208.807C200.78 209.133 201.609 209.644 202.344 210.341C203.079 211.038 203.659 211.943 204.083 213.057C204.507 214.163 204.719 215.508 204.719 217.091V218.295H190.844V215.75H201.39C201.39 214.856 201.208 214.064 200.844 213.375C200.481 212.678 199.969 212.129 199.31 211.727C198.659 211.326 197.894 211.125 197.015 211.125C196.06 211.125 195.227 211.36 194.515 211.83C193.81 212.292 193.265 212.898 192.878 213.648C192.5 214.39 192.31 215.197 192.31 216.068V218.057C192.31 219.223 192.515 220.216 192.924 221.034C193.34 221.852 193.92 222.477 194.662 222.909C195.405 223.333 196.272 223.545 197.265 223.545C197.909 223.545 198.496 223.455 199.026 223.273C199.556 223.083 200.015 222.803 200.401 222.432C200.787 222.061 201.083 221.602 201.287 221.057L204.503 221.636C204.246 222.583 203.784 223.413 203.117 224.125C202.458 224.83 201.628 225.379 200.628 225.773C199.636 226.159 198.503 226.352 197.231 226.352ZM208.489 232.545V208.545H211.807V211.375H212.091C212.288 211.011 212.573 210.591 212.944 210.114C213.315 209.636 213.83 209.22 214.489 208.864C215.148 208.5 216.019 208.318 217.103 208.318C218.512 208.318 219.769 208.674 220.876 209.386C221.982 210.098 222.849 211.125 223.478 212.466C224.114 213.807 224.432 215.42 224.432 217.307C224.432 219.193 224.118 220.811 223.489 222.159C222.86 223.5 221.997 224.534 220.898 225.261C219.8 225.981 218.546 226.341 217.137 226.341C216.076 226.341 215.209 226.163 214.535 225.807C213.868 225.451 213.345 225.034 212.966 224.557C212.588 224.08 212.296 223.655 212.091 223.284H211.887V232.545H208.489ZM211.819 217.273C211.819 218.5 211.997 219.576 212.353 220.5C212.709 221.424 213.224 222.148 213.898 222.67C214.573 223.186 215.398 223.443 216.376 223.443C217.391 223.443 218.239 223.174 218.921 222.636C219.603 222.091 220.118 221.352 220.466 220.42C220.823 219.489 221.001 218.439 221.001 217.273C221.001 216.121 220.826 215.087 220.478 214.17C220.137 213.254 219.622 212.53 218.932 212C218.251 211.47 217.398 211.205 216.376 211.205C215.391 211.205 214.557 211.458 213.876 211.966C213.201 212.473 212.69 213.182 212.341 214.091C211.993 215 211.819 216.061 211.819 217.273ZM233.319 226.386C232.213 226.386 231.213 226.182 230.319 225.773C229.425 225.356 228.716 224.754 228.194 223.966C227.679 223.178 227.421 222.212 227.421 221.068C227.421 220.083 227.61 219.273 227.989 218.636C228.368 218 228.879 217.496 229.523 217.125C230.167 216.754 230.887 216.473 231.682 216.284C232.478 216.095 233.288 215.951 234.114 215.852C235.16 215.731 236.008 215.633 236.66 215.557C237.311 215.473 237.785 215.341 238.08 215.159C238.376 214.977 238.523 214.682 238.523 214.273V214.193C238.523 213.201 238.243 212.432 237.682 211.886C237.129 211.341 236.304 211.068 235.205 211.068C234.061 211.068 233.16 211.322 232.501 211.83C231.849 212.33 231.398 212.886 231.148 213.5L227.955 212.773C228.334 211.712 228.887 210.856 229.614 210.205C230.349 209.545 231.194 209.068 232.148 208.773C233.103 208.47 234.107 208.318 235.16 208.318C235.857 208.318 236.595 208.402 237.376 208.568C238.163 208.727 238.898 209.023 239.58 209.455C240.269 209.886 240.834 210.504 241.273 211.307C241.713 212.102 241.932 213.136 241.932 214.409V226H238.614V223.614H238.478C238.258 224.053 237.929 224.485 237.489 224.909C237.05 225.333 236.485 225.686 235.796 225.966C235.107 226.246 234.281 226.386 233.319 226.386ZM234.057 223.659C234.997 223.659 235.8 223.473 236.466 223.102C237.141 222.731 237.652 222.246 238.001 221.648C238.357 221.042 238.535 220.394 238.535 219.705V217.455C238.413 217.576 238.179 217.689 237.83 217.795C237.489 217.894 237.099 217.981 236.66 218.057C236.22 218.125 235.792 218.189 235.376 218.25C234.959 218.303 234.61 218.348 234.33 218.386C233.671 218.47 233.069 218.61 232.523 218.807C231.985 219.004 231.554 219.288 231.228 219.659C230.91 220.023 230.751 220.508 230.751 221.114C230.751 221.955 231.061 222.591 231.682 223.023C232.304 223.447 233.095 223.659 234.057 223.659ZM246.458 232.545V208.545H249.776V211.375H250.06C250.257 211.011 250.541 210.591 250.912 210.114C251.284 209.636 251.799 209.22 252.458 208.864C253.117 208.5 253.988 208.318 255.072 208.318C256.481 208.318 257.738 208.674 258.844 209.386C259.95 210.098 260.818 211.125 261.447 212.466C262.083 213.807 262.401 215.42 262.401 217.307C262.401 219.193 262.087 220.811 261.458 222.159C260.829 223.5 259.965 224.534 258.867 225.261C257.769 225.981 256.515 226.341 255.106 226.341C254.045 226.341 253.178 226.163 252.503 225.807C251.837 225.451 251.314 225.034 250.935 224.557C250.556 224.08 250.265 223.655 250.06 223.284H249.856V232.545H246.458ZM249.787 217.273C249.787 218.5 249.965 219.576 250.322 220.5C250.678 221.424 251.193 222.148 251.867 222.67C252.541 223.186 253.367 223.443 254.344 223.443C255.359 223.443 256.208 223.174 256.89 222.636C257.572 222.091 258.087 221.352 258.435 220.42C258.791 219.489 258.969 218.439 258.969 217.273C258.969 216.121 258.795 215.087 258.447 214.17C258.106 213.254 257.59 212.53 256.901 212C256.219 211.47 255.367 211.205 254.344 211.205C253.359 211.205 252.526 211.458 251.844 211.966C251.17 212.473 250.659 213.182 250.31 214.091C249.962 215 249.787 216.061 249.787 217.273ZM273.731 226.352C272.011 226.352 270.53 225.985 269.287 225.25C268.053 224.508 267.098 223.466 266.424 222.125C265.757 220.777 265.424 219.197 265.424 217.386C265.424 215.598 265.757 214.023 266.424 212.659C267.098 211.295 268.037 210.231 269.242 209.466C270.454 208.701 271.871 208.318 273.492 208.318C274.477 208.318 275.431 208.481 276.356 208.807C277.28 209.133 278.109 209.644 278.844 210.341C279.579 211.038 280.159 211.943 280.583 213.057C281.007 214.163 281.219 215.508 281.219 217.091V218.295H267.344V215.75H277.89C277.89 214.856 277.708 214.064 277.344 213.375C276.981 212.678 276.469 212.129 275.81 211.727C275.159 211.326 274.394 211.125 273.515 211.125C272.56 211.125 271.727 211.36 271.015 211.83C270.31 212.292 269.765 212.898 269.378 213.648C269 214.39 268.81 215.197 268.81 216.068V218.057C268.81 219.223 269.015 220.216 269.424 221.034C269.84 221.852 270.42 222.477 271.162 222.909C271.905 223.333 272.772 223.545 273.765 223.545C274.409 223.545 274.996 223.455 275.526 223.273C276.056 223.083 276.515 222.803 276.901 222.432C277.287 222.061 277.583 221.602 277.787 221.057L281.003 221.636C280.746 222.583 280.284 223.413 279.617 224.125C278.958 224.83 278.128 225.379 277.128 225.773C276.136 226.159 275.003 226.352 273.731 226.352ZM284.989 226V208.545H288.273V211.318H288.455C288.773 210.379 289.334 209.64 290.137 209.102C290.948 208.557 291.864 208.284 292.887 208.284C293.099 208.284 293.349 208.292 293.637 208.307C293.932 208.322 294.163 208.341 294.33 208.364V211.614C294.194 211.576 293.951 211.534 293.603 211.489C293.254 211.436 292.906 211.409 292.557 211.409C291.754 211.409 291.038 211.58 290.41 211.92C289.788 212.254 289.296 212.72 288.932 213.318C288.569 213.909 288.387 214.583 288.387 215.341V226H284.989ZM320.671 208.545L314.341 226H310.705L304.364 208.545H308.012L312.432 221.977H312.614L317.023 208.545H320.671ZM332.648 202.727V226H329.126V206.25H328.989L323.421 209.886V206.523L329.228 202.727H332.648Z" fill="#4CC9F0"/>
<line x1="93.7051" y1="20" x2="93.7051" y2="335" stroke="#0FA9D9"/>
</svg>
