<svg width="646" height="627" viewBox="0 0 646 627" fill="none" xmlns="http://www.w3.org/2000/svg">
<path d="M368.001 335L314.001 379.167V290.833L368.001 335Z" fill="#4CC9F0"/>
<path fill-rule="evenodd" clip-rule="evenodd" d="M0.205078 379L54.0005 335L0.205078 291H314.001V379H0.205078Z" fill="#4CC9F0"/>
<path d="M128.011 349V346.443L137.614 335.932C138.741 334.701 139.669 333.631 140.398 332.722C141.127 331.803 141.667 330.941 142.017 330.136C142.377 329.322 142.557 328.47 142.557 327.58C142.557 326.557 142.311 325.671 141.818 324.923C141.335 324.175 140.672 323.598 139.83 323.19C138.987 322.783 138.04 322.58 136.989 322.58C135.871 322.58 134.896 322.812 134.062 323.276C133.239 323.73 132.599 324.369 132.145 325.193C131.7 326.017 131.477 326.983 131.477 328.091H128.125C128.125 326.386 128.518 324.89 129.304 323.602C130.09 322.314 131.16 321.311 132.514 320.591C133.878 319.871 135.407 319.511 137.102 319.511C138.807 319.511 140.317 319.871 141.634 320.591C142.95 321.311 143.982 322.281 144.73 323.503C145.478 324.724 145.852 326.083 145.852 327.58C145.852 328.65 145.658 329.696 145.27 330.719C144.891 331.732 144.228 332.864 143.281 334.114C142.344 335.354 141.042 336.869 139.375 338.659L132.841 345.648V345.875H146.364V349H128.011ZM161.719 349.398C159.579 349.398 157.756 348.815 156.25 347.651C154.744 346.476 153.594 344.777 152.798 342.551C152.003 340.316 151.605 337.617 151.605 334.455C151.605 331.311 152.003 328.626 152.798 326.401C153.603 324.166 154.759 322.461 156.264 321.287C157.779 320.103 159.598 319.511 161.719 319.511C163.84 319.511 165.653 320.103 167.159 321.287C168.674 322.461 169.83 324.166 170.625 326.401C171.43 328.626 171.832 331.311 171.832 334.455C171.832 337.617 171.435 340.316 170.639 342.551C169.844 344.777 168.693 346.476 167.188 347.651C165.682 348.815 163.859 349.398 161.719 349.398ZM161.719 346.273C163.84 346.273 165.488 345.25 166.662 343.205C167.836 341.159 168.423 338.242 168.423 334.455C168.423 331.936 168.153 329.791 167.614 328.02C167.083 326.249 166.316 324.9 165.312 323.972C164.318 323.044 163.12 322.58 161.719 322.58C159.616 322.58 157.973 323.616 156.79 325.69C155.606 327.755 155.014 330.676 155.014 334.455C155.014 336.973 155.279 339.114 155.81 340.875C156.34 342.636 157.102 343.976 158.097 344.895C159.1 345.813 160.308 346.273 161.719 346.273ZM177.23 349V346.443L186.832 335.932C187.959 334.701 188.887 333.631 189.616 332.722C190.346 331.803 190.885 330.941 191.236 330.136C191.596 329.322 191.776 328.47 191.776 327.58C191.776 326.557 191.529 325.671 191.037 324.923C190.554 324.175 189.891 323.598 189.048 323.19C188.205 322.783 187.259 322.58 186.207 322.58C185.09 322.58 184.115 322.812 183.281 323.276C182.457 323.73 181.818 324.369 181.364 325.193C180.919 326.017 180.696 326.983 180.696 328.091H177.344C177.344 326.386 177.737 324.89 178.523 323.602C179.309 322.314 180.379 321.311 181.733 320.591C183.097 319.871 184.626 319.511 186.321 319.511C188.026 319.511 189.536 319.871 190.852 320.591C192.169 321.311 193.201 322.281 193.949 323.503C194.697 324.724 195.071 326.083 195.071 327.58C195.071 328.65 194.877 329.696 194.489 330.719C194.11 331.732 193.447 332.864 192.5 334.114C191.562 335.354 190.26 336.869 188.594 338.659L182.06 345.648V345.875H195.582V349H177.23ZM200.142 343.034V340.136L212.926 319.909H215.028V324.398H213.608L203.949 339.682V339.909H221.165V343.034H200.142ZM213.835 349V342.153V340.804V319.909H217.188V349H213.835ZM248.817 339.909H252.681L255.92 344.17L256.772 345.307L261.602 351.727H257.738L254.556 347.466L253.761 346.386L248.817 339.909ZM262.795 334.455C262.795 337.523 262.241 340.174 261.133 342.409C260.025 344.644 258.505 346.367 256.573 347.58C254.641 348.792 252.435 349.398 249.954 349.398C247.473 349.398 245.266 348.792 243.335 347.58C241.403 346.367 239.883 344.644 238.775 342.409C237.667 340.174 237.113 337.523 237.113 334.455C237.113 331.386 237.667 328.735 238.775 326.5C239.883 324.265 241.403 322.542 243.335 321.33C245.266 320.117 247.473 319.511 249.954 319.511C252.435 319.511 254.641 320.117 256.573 321.33C258.505 322.542 260.025 324.265 261.133 326.5C262.241 328.735 262.795 331.386 262.795 334.455ZM259.386 334.455C259.386 331.936 258.964 329.81 258.121 328.077C257.288 326.344 256.156 325.032 254.727 324.142C253.306 323.252 251.715 322.807 249.954 322.807C248.192 322.807 246.597 323.252 245.167 324.142C243.746 325.032 242.615 326.344 241.772 328.077C240.939 329.81 240.522 331.936 240.522 334.455C240.522 336.973 240.939 339.099 241.772 340.832C242.615 342.565 243.746 343.877 245.167 344.767C246.597 345.657 248.192 346.102 249.954 346.102C251.715 346.102 253.306 345.657 254.727 344.767C256.156 343.877 257.288 342.565 258.121 340.832C258.964 339.099 259.386 336.973 259.386 334.455ZM278.434 319.909V349H274.911V323.602H274.741L267.638 328.318V324.739L274.911 319.909H278.434Z" fill="black"/>
<circle cx="92.5" cy="334.5" r="8.5" fill="#D9D9D9"/>
<path d="M93.2163 29.152C92.171 29.152 91.2003 28.9067 90.3043 28.416C89.4083 27.904 88.6937 27.2107 88.1603 26.336C87.627 25.4613 87.3603 24.4907 87.3603 23.424C87.3603 22.4427 87.6057 21.5147 88.0963 20.64C88.6083 19.7653 89.3017 19.0613 90.1763 18.528C91.0723 17.9733 92.0857 17.696 93.2163 17.696C94.2617 17.696 95.2217 17.952 96.0963 18.464C96.971 18.9547 97.675 19.6267 98.2083 20.48C98.763 21.3333 99.0403 22.3147 99.0403 23.424C99.0403 24.4693 98.7737 25.4293 98.2403 26.304C97.7283 27.1787 97.0243 27.872 96.1283 28.384C95.2537 28.896 94.283 29.152 93.2163 29.152ZM126.133 32L118.229 9.44H121.365L128.053 29.344H126.901L134.005 9.44H136.341L142.997 29.344H141.973L148.885 9.44H151.829L143.861 32H141.269L134.773 12.96H135.445L128.693 32H126.133ZM155.293 32V8.448H158.205V19.392H157.789C158.259 18.1547 159.016 17.216 160.061 16.576C161.107 15.936 162.312 15.616 163.677 15.616C165.619 15.616 167.048 16.1387 167.965 17.184C168.904 18.2293 169.373 19.808 169.373 21.92V32H166.461V22.08C166.461 20.6507 166.184 19.616 165.629 18.976C165.075 18.3147 164.168 17.984 162.909 17.984C161.501 17.984 160.36 18.4213 159.485 19.296C158.632 20.1707 158.205 21.3333 158.205 22.784V32H155.293ZM174.137 32V15.904H177.049V32H174.137ZM173.881 12.384V9.248H177.337V12.384H173.881ZM187.934 32.288C186.249 32.288 184.969 31.8293 184.094 30.912C183.241 29.9733 182.814 28.5653 182.814 26.688V18.144H179.678V15.904H182.814V11.584L185.726 10.784V15.904H190.27V18.144H185.726V26.432C185.726 27.6693 185.94 28.5547 186.366 29.088C186.814 29.6 187.454 29.856 188.286 29.856C188.713 29.856 189.076 29.824 189.374 29.76C189.694 29.6747 189.982 29.5787 190.238 29.472V31.872C189.918 32 189.545 32.096 189.118 32.16C188.713 32.2453 188.318 32.288 187.934 32.288ZM200.496 32.288C197.936 32.288 195.91 31.552 194.416 30.08C192.944 28.608 192.208 26.5813 192.208 24C192.208 22.2933 192.528 20.8213 193.168 19.584C193.83 18.3253 194.736 17.3547 195.888 16.672C197.04 15.968 198.384 15.616 199.92 15.616C201.392 15.616 202.64 15.936 203.664 16.576C204.688 17.1947 205.467 18.08 206 19.232C206.534 20.384 206.8 21.7493 206.8 23.328V24.288H194.48V22.56H204.816L204.272 22.976C204.272 21.312 203.899 20.0213 203.152 19.104C202.427 18.1867 201.35 17.728 199.92 17.728C198.363 17.728 197.158 18.272 196.304 19.36C195.451 20.4267 195.024 21.888 195.024 23.744V24.032C195.024 25.9947 195.504 27.4773 196.464 28.48C197.446 29.4827 198.8 29.984 200.528 29.984C201.488 29.984 202.384 29.8453 203.216 29.568C204.048 29.2907 204.848 28.832 205.616 28.192L206.576 30.208C205.851 30.8693 204.944 31.3813 203.856 31.744C202.79 32.1067 201.67 32.288 200.496 32.288ZM210.606 38.912V19.712C210.606 19.0933 210.584 18.464 210.542 17.824C210.499 17.184 210.435 16.544 210.35 15.904H213.166L213.518 19.616H213.166C213.486 18.3787 214.168 17.408 215.214 16.704C216.259 15.9787 217.507 15.616 218.958 15.616C220.387 15.616 221.635 15.9467 222.702 16.608C223.768 17.2693 224.59 18.2293 225.166 19.488C225.763 20.7253 226.062 22.208 226.062 23.936C226.062 25.664 225.763 27.1573 225.166 28.416C224.59 29.6747 223.768 30.6347 222.702 31.296C221.635 31.9573 220.387 32.288 218.958 32.288C217.528 32.288 216.291 31.936 215.246 31.232C214.222 30.5067 213.528 29.536 213.166 28.32H213.518V38.912H210.606ZM218.286 29.984C219.758 29.984 220.931 29.472 221.806 28.448C222.68 27.424 223.118 25.92 223.118 23.936C223.118 21.952 222.68 20.4587 221.806 19.456C220.931 18.4533 219.758 17.952 218.286 17.952C216.814 17.952 215.64 18.4533 214.766 19.456C213.912 20.4587 213.486 21.952 213.486 23.936C213.486 25.92 213.912 27.424 214.766 28.448C215.64 29.472 216.814 29.984 218.286 29.984ZM236.125 32.288C234.717 32.288 233.479 31.9573 232.413 31.296C231.346 30.6347 230.514 29.6747 229.917 28.416C229.319 27.1573 229.021 25.664 229.021 23.936C229.021 22.208 229.319 20.7253 229.917 19.488C230.514 18.2293 231.346 17.2693 232.413 16.608C233.479 15.9467 234.717 15.616 236.125 15.616C237.554 15.616 238.791 15.9787 239.837 16.704C240.903 17.408 241.607 18.3787 241.949 19.616H241.565L241.917 15.904H244.733C244.669 16.544 244.605 17.184 244.541 17.824C244.498 18.464 244.477 19.0933 244.477 19.712V32H241.565V28.32H241.917C241.575 29.536 240.871 30.5067 239.805 31.232C238.759 31.936 237.533 32.288 236.125 32.288ZM236.797 29.984C238.247 29.984 239.41 29.472 240.285 28.448C241.159 27.424 241.597 25.92 241.597 23.936C241.597 21.952 241.159 20.4587 240.285 19.456C239.41 18.4533 238.247 17.952 236.797 17.952C235.346 17.952 234.173 18.4533 233.277 19.456C232.402 20.4587 231.965 21.952 231.965 23.936C231.965 25.92 232.402 27.424 233.277 28.448C234.151 29.472 235.325 29.984 236.797 29.984ZM249.356 38.912V19.712C249.356 19.0933 249.334 18.464 249.292 17.824C249.249 17.184 249.185 16.544 249.1 15.904H251.916L252.268 19.616H251.916C252.236 18.3787 252.918 17.408 253.964 16.704C255.009 15.9787 256.257 15.616 257.708 15.616C259.137 15.616 260.385 15.9467 261.452 16.608C262.518 17.2693 263.34 18.2293 263.916 19.488C264.513 20.7253 264.812 22.208 264.812 23.936C264.812 25.664 264.513 27.1573 263.916 28.416C263.34 29.6747 262.518 30.6347 261.452 31.296C260.385 31.9573 259.137 32.288 257.708 32.288C256.278 32.288 255.041 31.936 253.996 31.232C252.972 30.5067 252.278 29.536 251.916 28.32H252.268V38.912H249.356ZM257.036 29.984C258.508 29.984 259.681 29.472 260.556 28.448C261.43 27.424 261.868 25.92 261.868 23.936C261.868 21.952 261.43 20.4587 260.556 19.456C259.681 18.4533 258.508 17.952 257.036 17.952C255.564 17.952 254.39 18.4533 253.516 19.456C252.662 20.4587 252.236 21.952 252.236 23.936C252.236 25.92 252.662 27.424 253.516 28.448C254.39 29.472 255.564 29.984 257.036 29.984ZM276.059 32.288C273.499 32.288 271.472 31.552 269.979 30.08C268.507 28.608 267.771 26.5813 267.771 24C267.771 22.2933 268.091 20.8213 268.731 19.584C269.392 18.3253 270.299 17.3547 271.451 16.672C272.603 15.968 273.947 15.616 275.483 15.616C276.955 15.616 278.203 15.936 279.227 16.576C280.251 17.1947 281.029 18.08 281.563 19.232C282.096 20.384 282.363 21.7493 282.363 23.328V24.288H270.043V22.56H280.379L279.835 22.976C279.835 21.312 279.461 20.0213 278.715 19.104C277.989 18.1867 276.912 17.728 275.483 17.728C273.925 17.728 272.72 18.272 271.867 19.36C271.013 20.4267 270.587 21.888 270.587 23.744V24.032C270.587 25.9947 271.067 27.4773 272.027 28.48C273.008 29.4827 274.363 29.984 276.091 29.984C277.051 29.984 277.947 29.8453 278.779 29.568C279.611 29.2907 280.411 28.832 281.179 28.192L282.139 30.208C281.413 30.8693 280.507 31.3813 279.419 31.744C278.352 32.1067 277.232 32.288 276.059 32.288ZM286.136 32V19.84C286.136 19.2 286.115 18.5493 286.072 17.888C286.051 17.2053 285.998 16.544 285.912 15.904H288.728L289.08 19.936L288.6 19.968C288.814 18.9867 289.176 18.176 289.688 17.536C290.222 16.8747 290.851 16.3947 291.576 16.096C292.323 15.776 293.091 15.616 293.88 15.616C294.222 15.616 294.51 15.6267 294.744 15.648C294.979 15.6693 295.214 15.7227 295.448 15.808L295.384 18.4C295.064 18.272 294.766 18.1973 294.488 18.176C294.232 18.1333 293.912 18.112 293.528 18.112C292.59 18.112 291.779 18.3253 291.096 18.752C290.435 19.1787 289.923 19.744 289.56 20.448C289.219 21.152 289.048 21.9093 289.048 22.72V32H286.136ZM311.186 32L304.306 15.904H307.442L313.042 29.728H312.146L317.842 15.904H320.818L313.906 32H311.186ZM323.831 32V29.792L331.703 21.536C332.727 20.4907 333.485 19.488 333.975 18.528C334.487 17.568 334.743 16.576 334.743 15.552C334.743 14.2933 334.349 13.344 333.559 12.704C332.791 12.0427 331.661 11.712 330.167 11.712C329.015 11.712 327.927 11.9253 326.903 12.352C325.901 12.7573 324.941 13.3867 324.023 14.24L322.967 11.968C323.842 11.1147 324.941 10.432 326.263 9.92C327.607 9.408 329.015 9.152 330.487 9.152C332.791 9.152 334.573 9.68533 335.831 10.752C337.09 11.7973 337.719 13.3013 337.719 15.264C337.719 16.6933 337.367 18.0587 336.663 19.36C335.981 20.64 334.967 21.9627 333.623 23.328L326.743 30.304V29.472H338.647V32H323.831ZM93.2163 69.152C92.171 69.152 91.2003 68.9067 90.3043 68.416C89.4083 67.904 88.6937 67.2107 88.1603 66.336C87.627 65.4613 87.3603 64.4907 87.3603 63.424C87.3603 62.4427 87.6057 61.5147 88.0963 60.64C88.6083 59.7653 89.3017 59.0613 90.1763 58.528C91.0723 57.9733 92.0857 57.696 93.2163 57.696C94.2617 57.696 95.2217 57.952 96.0963 58.464C96.971 58.9547 97.675 59.6267 98.2083 60.48C98.763 61.3333 99.0403 62.3147 99.0403 63.424C99.0403 64.4693 98.7737 65.4293 98.2403 66.304C97.7283 67.1787 97.0243 67.872 96.1283 68.384C95.2537 68.896 94.283 69.152 93.2163 69.152ZM119.957 72V49.44H122.261L136.405 68.128H135.637V49.44H138.421V72H136.149L122.005 53.312H122.741V72H119.957ZM150.359 72.288C148.78 72.288 147.415 71.9573 146.263 71.296C145.111 70.6133 144.215 69.6533 143.575 68.416C142.935 67.1573 142.615 65.664 142.615 63.936C142.615 62.2293 142.935 60.7573 143.575 59.52C144.215 58.2613 145.111 57.3013 146.263 56.64C147.415 55.9573 148.78 55.616 150.359 55.616C151.937 55.616 153.303 55.9573 154.455 56.64C155.628 57.3013 156.524 58.2613 157.143 59.52C157.783 60.7573 158.103 62.2293 158.103 63.936C158.103 65.664 157.783 67.1573 157.143 68.416C156.524 69.6533 155.628 70.6133 154.455 71.296C153.303 71.9573 151.937 72.288 150.359 72.288ZM150.359 69.984C151.809 69.984 152.972 69.472 153.847 68.448C154.721 67.424 155.159 65.92 155.159 63.936C155.159 61.952 154.721 60.4587 153.847 59.456C152.972 58.4533 151.809 57.952 150.359 57.952C148.887 57.952 147.713 58.4533 146.839 59.456C145.985 60.4587 145.559 61.952 145.559 63.936C145.559 65.92 145.985 67.424 146.839 68.448C147.713 69.472 148.887 69.984 150.359 69.984ZM162.012 72V59.712C162.012 59.0933 161.991 58.464 161.948 57.824C161.905 57.184 161.841 56.544 161.756 55.904H164.572L164.892 59.36H164.508C164.999 58.144 165.756 57.216 166.78 56.576C167.804 55.936 168.999 55.616 170.364 55.616C172.263 55.616 173.692 56.1387 174.652 57.184C175.612 58.208 176.092 59.808 176.092 61.984V72H173.18V62.144C173.18 60.672 172.892 59.616 172.316 58.976C171.74 58.3147 170.844 57.984 169.628 57.984C168.177 57.984 167.025 58.4213 166.172 59.296C165.34 60.1707 164.924 61.3547 164.924 62.848V72H162.012ZM180.696 64.416V62.048H189.944V64.416H180.696ZM204.909 72.288C202.648 72.288 200.706 71.8187 199.085 70.88C197.485 69.9413 196.258 68.608 195.405 66.88C194.552 65.1307 194.125 63.072 194.125 60.704C194.125 58.336 194.552 56.288 195.405 54.56C196.258 52.832 197.485 51.4987 199.085 50.56C200.706 49.6213 202.648 49.152 204.909 49.152C206.53 49.152 207.97 49.3973 209.229 49.888C210.488 50.3573 211.586 51.0507 212.525 51.968L211.437 54.368C210.413 53.472 209.4 52.832 208.397 52.448C207.416 52.0427 206.274 51.84 204.973 51.84C202.477 51.84 200.568 52.608 199.245 54.144C197.922 55.68 197.261 57.8667 197.261 60.704C197.261 63.5413 197.922 65.7387 199.245 67.296C200.568 68.832 202.477 69.6 204.973 69.6C206.274 69.6 207.416 69.408 208.397 69.024C209.4 68.6187 210.413 67.968 211.437 67.072L212.525 69.44C211.586 70.3573 210.477 71.0613 209.197 71.552C207.938 72.0427 206.509 72.288 204.909 72.288ZM221.896 72.288C219.955 72.288 218.494 71.7653 217.512 70.72C216.552 69.6747 216.072 68.064 216.072 65.888V55.904H218.984V65.824C218.984 67.232 219.272 68.2667 219.848 68.928C220.424 69.5893 221.32 69.92 222.536 69.92C223.859 69.92 224.926 69.4827 225.736 68.608C226.568 67.712 226.984 66.528 226.984 65.056V55.904H229.896V72H227.08V68.448H227.496C227.048 69.664 226.334 70.6133 225.352 71.296C224.371 71.9573 223.219 72.288 221.896 72.288ZM240.233 72.288C238.932 72.288 237.716 72.1173 236.585 71.776C235.476 71.4347 234.559 70.944 233.833 70.304L234.761 68.288C235.551 68.8853 236.415 69.344 237.353 69.664C238.313 69.9627 239.295 70.112 240.297 70.112C241.513 70.112 242.431 69.888 243.049 69.44C243.689 68.992 244.009 68.3947 244.009 67.648C244.009 67.0507 243.807 66.5707 243.401 66.208C242.996 65.8453 242.356 65.5787 241.481 65.408L238.441 64.8C237.076 64.48 236.041 63.968 235.337 63.264C234.655 62.5387 234.313 61.6107 234.313 60.48C234.313 59.5413 234.569 58.7093 235.081 57.984C235.593 57.2373 236.319 56.6613 237.257 56.256C238.217 55.8293 239.337 55.616 240.617 55.616C241.791 55.616 242.879 55.7867 243.881 56.128C244.905 56.4693 245.748 56.9707 246.409 57.632L245.449 59.584C244.788 59.008 244.041 58.5707 243.209 58.272C242.399 57.952 241.567 57.792 240.713 57.792C239.476 57.792 238.559 58.0373 237.961 58.528C237.364 58.9973 237.065 59.616 237.065 60.384C237.065 60.96 237.247 61.44 237.609 61.824C237.972 62.1867 238.559 62.464 239.369 62.656L242.409 63.264C243.839 63.5627 244.916 64.0533 245.641 64.736C246.367 65.4187 246.729 66.3253 246.729 67.456C246.729 68.4587 246.452 69.3227 245.897 70.048C245.364 70.7733 244.607 71.328 243.625 71.712C242.665 72.096 241.535 72.288 240.233 72.288ZM256.559 72.288C254.874 72.288 253.594 71.8293 252.719 70.912C251.866 69.9733 251.439 68.5653 251.439 66.688V58.144H248.303V55.904H251.439V51.584L254.351 50.784V55.904H258.895V58.144H254.351V66.432C254.351 67.6693 254.565 68.5547 254.991 69.088C255.439 69.6 256.079 69.856 256.911 69.856C257.338 69.856 257.701 69.824 257.999 69.76C258.319 69.6747 258.607 69.5787 258.863 69.472V71.872C258.543 72 258.17 72.096 257.743 72.16C257.338 72.2453 256.943 72.288 256.559 72.288ZM268.577 72.288C266.999 72.288 265.633 71.9573 264.481 71.296C263.329 70.6133 262.433 69.6533 261.793 68.416C261.153 67.1573 260.833 65.664 260.833 63.936C260.833 62.2293 261.153 60.7573 261.793 59.52C262.433 58.2613 263.329 57.3013 264.481 56.64C265.633 55.9573 266.999 55.616 268.577 55.616C270.156 55.616 271.521 55.9573 272.673 56.64C273.847 57.3013 274.743 58.2613 275.361 59.52C276.001 60.7573 276.321 62.2293 276.321 63.936C276.321 65.664 276.001 67.1573 275.361 68.416C274.743 69.6533 273.847 70.6133 272.673 71.296C271.521 71.9573 270.156 72.288 268.577 72.288ZM268.577 69.984C270.028 69.984 271.191 69.472 272.065 68.448C272.94 67.424 273.377 65.92 273.377 63.936C273.377 61.952 272.94 60.4587 272.065 59.456C271.191 58.4533 270.028 57.952 268.577 57.952C267.105 57.952 265.932 58.4533 265.057 59.456C264.204 60.4587 263.777 61.952 263.777 63.936C263.777 65.92 264.204 67.424 265.057 68.448C265.932 69.472 267.105 69.984 268.577 69.984ZM286.375 72.288C284.967 72.288 283.729 71.9573 282.663 71.296C281.596 70.6347 280.764 69.6747 280.167 68.416C279.569 67.1573 279.271 65.664 279.271 63.936C279.271 62.208 279.569 60.7253 280.167 59.488C280.764 58.2293 281.596 57.2693 282.663 56.608C283.729 55.9467 284.967 55.616 286.375 55.616C287.783 55.616 289.009 55.968 290.055 56.672C291.121 57.376 291.836 58.3467 292.199 59.584H291.815V48.448H294.727V72H291.847V68.256H292.199C291.857 69.5147 291.153 70.5067 290.087 71.232C289.041 71.936 287.804 72.288 286.375 72.288ZM287.047 69.984C288.497 69.984 289.66 69.472 290.535 68.448C291.431 67.424 291.879 65.92 291.879 63.936C291.879 61.952 291.431 60.4587 290.535 59.456C289.66 58.4533 288.497 57.952 287.047 57.952C285.596 57.952 284.423 58.4533 283.527 59.456C282.652 60.4587 282.215 61.952 282.215 63.936C282.215 65.92 282.652 67.424 283.527 68.448C284.423 69.472 285.596 69.984 287.047 69.984ZM299.606 72V55.904H302.518V72H299.606ZM299.35 52.384V49.248H302.806V52.384H299.35ZM313.531 72.288C312.123 72.288 310.886 71.9573 309.819 71.296C308.752 70.6347 307.92 69.6747 307.323 68.416C306.726 67.1573 306.427 65.664 306.427 63.936C306.427 62.208 306.726 60.7253 307.323 59.488C307.92 58.2293 308.752 57.2693 309.819 56.608C310.886 55.9467 312.123 55.616 313.531 55.616C314.96 55.616 316.198 55.9787 317.243 56.704C318.31 57.408 319.014 58.3787 319.355 59.616H318.971L319.323 55.904H322.139C322.075 56.544 322.011 57.184 321.947 57.824C321.904 58.464 321.883 59.0933 321.883 59.712V72H318.971V68.32H319.323C318.982 69.536 318.278 70.5067 317.211 71.232C316.166 71.936 314.939 72.288 313.531 72.288ZM314.203 69.984C315.654 69.984 316.816 69.472 317.691 68.448C318.566 67.424 319.003 65.92 319.003 63.936C319.003 61.952 318.566 60.4587 317.691 59.456C316.816 58.4533 315.654 57.952 314.203 57.952C312.752 57.952 311.579 58.4533 310.683 59.456C309.808 60.4587 309.371 61.952 309.371 63.936C309.371 65.92 309.808 67.424 310.683 68.448C311.558 69.472 312.731 69.984 314.203 69.984ZM326.762 72V59.712C326.762 59.0933 326.741 58.464 326.698 57.824C326.655 57.184 326.591 56.544 326.506 55.904H329.322L329.642 59.36H329.258C329.749 58.144 330.506 57.216 331.53 56.576C332.554 55.936 333.749 55.616 335.114 55.616C337.013 55.616 338.442 56.1387 339.402 57.184C340.362 58.208 340.842 59.808 340.842 61.984V72H337.93V62.144C337.93 60.672 337.642 59.616 337.066 58.976C336.49 58.3147 335.594 57.984 334.378 57.984C332.927 57.984 331.775 58.4213 330.922 59.296C330.09 60.1707 329.674 61.3547 329.674 62.848V72H326.762ZM354.363 72V49.44H362.011C364.529 49.44 366.651 49.8773 368.379 50.752C370.129 51.6267 371.451 52.9067 372.347 54.592C373.243 56.256 373.691 58.2933 373.691 60.704C373.691 63.1147 373.243 65.1627 372.347 66.848C371.451 68.5333 370.129 69.8133 368.379 70.688C366.651 71.5627 364.529 72 362.011 72H354.363ZM357.339 69.472H361.787C364.795 69.472 367.025 68.7467 368.475 67.296C369.926 65.8453 370.651 63.648 370.651 60.704C370.651 57.76 369.926 55.5733 368.475 54.144C367.025 52.6933 364.795 51.968 361.787 51.968H357.339V69.472ZM385.371 72.288C382.811 72.288 380.785 71.552 379.291 70.08C377.819 68.608 377.083 66.5813 377.083 64C377.083 62.2933 377.403 60.8213 378.043 59.584C378.705 58.3253 379.611 57.3547 380.763 56.672C381.915 55.968 383.259 55.616 384.795 55.616C386.267 55.616 387.515 55.936 388.539 56.576C389.563 57.1947 390.342 58.08 390.875 59.232C391.409 60.384 391.675 61.7493 391.675 63.328V64.288H379.355V62.56H389.691L389.147 62.976C389.147 61.312 388.774 60.0213 388.027 59.104C387.302 58.1867 386.225 57.728 384.795 57.728C383.238 57.728 382.033 58.272 381.179 59.36C380.326 60.4267 379.899 61.888 379.899 63.744V64.032C379.899 65.9947 380.379 67.4773 381.339 68.48C382.321 69.4827 383.675 69.984 385.403 69.984C386.363 69.984 387.259 69.8453 388.091 69.568C388.923 69.2907 389.723 68.832 390.491 68.192L391.451 70.208C390.726 70.8693 389.819 71.3813 388.731 71.744C387.665 72.1067 386.545 72.288 385.371 72.288ZM402.393 72.288C400.793 72.288 399.406 71.9573 398.233 71.296C397.059 70.6133 396.142 69.6427 395.481 68.384C394.841 67.104 394.521 65.5893 394.521 63.84C394.521 62.112 394.851 60.64 395.513 59.424C396.174 58.1867 397.091 57.248 398.265 56.608C399.438 55.9467 400.814 55.616 402.393 55.616C403.438 55.616 404.451 55.7973 405.433 56.16C406.414 56.5013 407.214 57.0027 407.833 57.664L406.841 59.712C406.222 59.1147 405.539 58.6773 404.793 58.4C404.046 58.1013 403.31 57.952 402.585 57.952C401.006 57.952 399.769 58.464 398.873 59.488C397.977 60.4907 397.529 61.952 397.529 63.872C397.529 65.8133 397.977 67.3067 398.873 68.352C399.769 69.3973 401.006 69.92 402.585 69.92C403.289 69.92 404.014 69.7813 404.761 69.504C405.507 69.2267 406.201 68.7893 406.841 68.192L407.833 70.208C407.193 70.8907 406.371 71.4133 405.369 71.776C404.387 72.1173 403.395 72.288 402.393 72.288ZM418.403 72.288C415.843 72.288 413.816 71.552 412.323 70.08C410.851 68.608 410.115 66.5813 410.115 64C410.115 62.2933 410.435 60.8213 411.075 59.584C411.736 58.3253 412.643 57.3547 413.795 56.672C414.947 55.968 416.291 55.616 417.827 55.616C419.299 55.616 420.547 55.936 421.571 56.576C422.595 57.1947 423.373 58.08 423.907 59.232C424.44 60.384 424.707 61.7493 424.707 63.328V64.288H412.387V62.56H422.723L422.179 62.976C422.179 61.312 421.805 60.0213 421.059 59.104C420.333 58.1867 419.256 57.728 417.827 57.728C416.269 57.728 415.064 58.272 414.211 59.36C413.357 60.4267 412.931 61.888 412.931 63.744V64.032C412.931 65.9947 413.411 67.4773 414.371 68.48C415.352 69.4827 416.707 69.984 418.435 69.984C419.395 69.984 420.291 69.8453 421.123 69.568C421.955 69.2907 422.755 68.832 423.523 68.192L424.483 70.208C423.757 70.8693 422.851 71.3813 421.763 71.744C420.696 72.1067 419.576 72.288 418.403 72.288ZM428.512 72V59.712C428.512 59.0933 428.491 58.464 428.448 57.824C428.405 57.184 428.341 56.544 428.256 55.904H431.072L431.392 59.36H431.008C431.499 58.144 432.256 57.216 433.28 56.576C434.304 55.936 435.499 55.616 436.864 55.616C438.763 55.616 440.192 56.1387 441.152 57.184C442.112 58.208 442.592 59.808 442.592 61.984V72H439.68V62.144C439.68 60.672 439.392 59.616 438.816 58.976C438.24 58.3147 437.344 57.984 436.128 57.984C434.677 57.984 433.525 58.4213 432.672 59.296C431.84 60.1707 431.424 61.3547 431.424 62.848V72H428.512ZM453.372 72.288C451.686 72.288 450.406 71.8293 449.532 70.912C448.678 69.9733 448.252 68.5653 448.252 66.688V58.144H445.116V55.904H448.252V51.584L451.164 50.784V55.904H455.708V58.144H451.164V66.432C451.164 67.6693 451.377 68.5547 451.804 69.088C452.252 69.6 452.892 69.856 453.724 69.856C454.15 69.856 454.513 69.824 454.812 69.76C455.132 69.6747 455.42 69.5787 455.676 69.472V71.872C455.356 72 454.982 72.096 454.556 72.16C454.15 72.2453 453.756 72.288 453.372 72.288ZM458.73 72V59.84C458.73 59.2 458.709 58.5493 458.666 57.888C458.645 57.2053 458.591 56.544 458.506 55.904H461.322L461.674 59.936L461.194 59.968C461.407 58.9867 461.77 58.176 462.282 57.536C462.815 56.8747 463.445 56.3947 464.17 56.096C464.917 55.776 465.685 55.616 466.474 55.616C466.815 55.616 467.103 55.6267 467.338 55.648C467.573 55.6693 467.807 55.7227 468.042 55.808L467.978 58.4C467.658 58.272 467.359 58.1973 467.082 58.176C466.826 58.1333 466.506 58.112 466.122 58.112C465.183 58.112 464.373 58.3253 463.69 58.752C463.029 59.1787 462.517 59.744 462.154 60.448C461.813 61.152 461.642 61.9093 461.642 62.72V72H458.73ZM476.594 72.288C475.186 72.288 473.948 71.9573 472.882 71.296C471.815 70.6347 470.983 69.6747 470.386 68.416C469.788 67.1573 469.49 65.664 469.49 63.936C469.49 62.208 469.788 60.7253 470.386 59.488C470.983 58.2293 471.815 57.2693 472.882 56.608C473.948 55.9467 475.186 55.616 476.594 55.616C478.023 55.616 479.26 55.9787 480.306 56.704C481.372 57.408 482.076 58.3787 482.418 59.616H482.034L482.386 55.904H485.202C485.138 56.544 485.074 57.184 485.01 57.824C484.967 58.464 484.946 59.0933 484.946 59.712V72H482.034V68.32H482.386C482.044 69.536 481.34 70.5067 480.274 71.232C479.228 71.936 478.002 72.288 476.594 72.288ZM477.266 69.984C478.716 69.984 479.879 69.472 480.754 68.448C481.628 67.424 482.066 65.92 482.066 63.936C482.066 61.952 481.628 60.4587 480.754 59.456C479.879 58.4533 478.716 57.952 477.266 57.952C475.815 57.952 474.642 58.4533 473.746 59.456C472.871 60.4587 472.434 61.952 472.434 63.936C472.434 65.92 472.871 67.424 473.746 68.448C474.62 69.472 475.794 69.984 477.266 69.984ZM489.825 72V48.448H492.737V72H489.825ZM497.606 72V55.904H500.518V72H497.606ZM497.35 52.384V49.248H500.806V52.384H497.35ZM510.827 72.288C509.526 72.288 508.31 72.1173 507.179 71.776C506.07 71.4347 505.152 70.944 504.427 70.304L505.355 68.288C506.144 68.8853 507.008 69.344 507.947 69.664C508.907 69.9627 509.888 70.112 510.891 70.112C512.107 70.112 513.024 69.888 513.643 69.44C514.283 68.992 514.603 68.3947 514.603 67.648C514.603 67.0507 514.4 66.5707 513.995 66.208C513.59 65.8453 512.95 65.5787 512.075 65.408L509.035 64.8C507.67 64.48 506.635 63.968 505.931 63.264C505.248 62.5387 504.907 61.6107 504.907 60.48C504.907 59.5413 505.163 58.7093 505.675 57.984C506.187 57.2373 506.912 56.6613 507.851 56.256C508.811 55.8293 509.931 55.616 511.211 55.616C512.384 55.616 513.472 55.7867 514.475 56.128C515.499 56.4693 516.342 56.9707 517.003 57.632L516.043 59.584C515.382 59.008 514.635 58.5707 513.803 58.272C512.992 57.952 512.16 57.792 511.307 57.792C510.07 57.792 509.152 58.0373 508.555 58.528C507.958 58.9973 507.659 59.616 507.659 60.384C507.659 60.96 507.84 61.44 508.203 61.824C508.566 62.1867 509.152 62.464 509.963 62.656L513.003 63.264C514.432 63.5627 515.51 64.0533 516.235 64.736C516.96 65.4187 517.323 66.3253 517.323 67.456C517.323 68.4587 517.046 69.3227 516.491 70.048C515.958 70.7733 515.2 71.328 514.219 71.712C513.259 72.096 512.128 72.288 510.827 72.288ZM528.621 72.288C526.061 72.288 524.035 71.552 522.541 70.08C521.069 68.608 520.333 66.5813 520.333 64C520.333 62.2933 520.653 60.8213 521.293 59.584C521.955 58.3253 522.861 57.3547 524.013 56.672C525.165 55.968 526.509 55.616 528.045 55.616C529.517 55.616 530.765 55.936 531.789 56.576C532.813 57.1947 533.592 58.08 534.125 59.232C534.659 60.384 534.925 61.7493 534.925 63.328V64.288H522.605V62.56H532.941L532.397 62.976C532.397 61.312 532.024 60.0213 531.277 59.104C530.552 58.1867 529.475 57.728 528.045 57.728C526.488 57.728 525.283 58.272 524.429 59.36C523.576 60.4267 523.149 61.888 523.149 63.744V64.032C523.149 65.9947 523.629 67.4773 524.589 68.48C525.571 69.4827 526.925 69.984 528.653 69.984C529.613 69.984 530.509 69.8453 531.341 69.568C532.173 69.2907 532.973 68.832 533.741 68.192L534.701 70.208C533.976 70.8693 533.069 71.3813 531.981 71.744C530.915 72.1067 529.795 72.288 528.621 72.288ZM544.875 72.288C543.467 72.288 542.229 71.9573 541.163 71.296C540.096 70.6347 539.264 69.6747 538.667 68.416C538.069 67.1573 537.771 65.664 537.771 63.936C537.771 62.208 538.069 60.7253 538.667 59.488C539.264 58.2293 540.096 57.2693 541.163 56.608C542.229 55.9467 543.467 55.616 544.875 55.616C546.283 55.616 547.509 55.968 548.555 56.672C549.621 57.376 550.336 58.3467 550.699 59.584H550.315V48.448H553.227V72H550.347V68.256H550.699C550.357 69.5147 549.653 70.5067 548.587 71.232C547.541 71.936 546.304 72.288 544.875 72.288ZM545.547 69.984C546.997 69.984 548.16 69.472 549.035 68.448C549.931 67.424 550.379 65.92 550.379 63.936C550.379 61.952 549.931 60.4587 549.035 59.456C548.16 58.4533 546.997 57.952 545.547 57.952C544.096 57.952 542.923 58.4533 542.027 59.456C541.152 60.4587 540.715 61.952 540.715 63.936C540.715 65.92 541.152 67.424 542.027 68.448C542.923 69.472 544.096 69.984 545.547 69.984ZM126.133 112L118.229 89.44H121.365L128.053 109.344H126.901L134.005 89.44H136.341L142.997 109.344H141.973L148.885 89.44H151.829L143.861 112H141.269L134.773 92.96H135.445L128.693 112H126.133ZM159.594 112.288C158.186 112.288 156.948 111.957 155.882 111.296C154.815 110.635 153.983 109.675 153.386 108.416C152.788 107.157 152.49 105.664 152.49 103.936C152.49 102.208 152.788 100.725 153.386 99.488C153.983 98.2293 154.815 97.2693 155.882 96.608C156.948 95.9467 158.186 95.616 159.594 95.616C161.023 95.616 162.26 95.9787 163.306 96.704C164.372 97.408 165.076 98.3787 165.418 99.616H165.034L165.386 95.904H168.202C168.138 96.544 168.074 97.184 168.01 97.824C167.967 98.464 167.946 99.0933 167.946 99.712V112H165.034V108.32H165.386C165.044 109.536 164.34 110.507 163.274 111.232C162.228 111.936 161.002 112.288 159.594 112.288ZM160.266 109.984C161.716 109.984 162.879 109.472 163.754 108.448C164.628 107.424 165.066 105.92 165.066 103.936C165.066 101.952 164.628 100.459 163.754 99.456C162.879 98.4533 161.716 97.952 160.266 97.952C158.815 97.952 157.642 98.4533 156.746 99.456C155.871 100.459 155.434 101.952 155.434 103.936C155.434 105.92 155.871 107.424 156.746 108.448C157.62 109.472 158.794 109.984 160.266 109.984ZM172.825 112V88.448H175.737V112H172.825ZM180.606 112V88.448H183.518V112H180.606ZM195.715 112.288C193.155 112.288 191.128 111.552 189.635 110.08C188.163 108.608 187.427 106.581 187.427 104C187.427 102.293 187.747 100.821 188.387 99.584C189.048 98.3253 189.955 97.3547 191.107 96.672C192.259 95.968 193.603 95.616 195.139 95.616C196.611 95.616 197.859 95.936 198.883 96.576C199.907 97.1947 200.686 98.08 201.219 99.232C201.752 100.384 202.019 101.749 202.019 103.328V104.288H189.699V102.56H200.035L199.491 102.976C199.491 101.312 199.118 100.021 198.371 99.104C197.646 98.1867 196.568 97.728 195.139 97.728C193.582 97.728 192.376 98.272 191.523 99.36C190.67 100.427 190.243 101.888 190.243 103.744V104.032C190.243 105.995 190.723 107.477 191.683 108.48C192.664 109.483 194.019 109.984 195.747 109.984C196.707 109.984 197.603 109.845 198.435 109.568C199.267 109.291 200.067 108.832 200.835 108.192L201.795 110.208C201.07 110.869 200.163 111.381 199.075 111.744C198.008 112.107 196.888 112.288 195.715 112.288ZM211.809 112.288C210.124 112.288 208.844 111.829 207.969 110.912C207.116 109.973 206.689 108.565 206.689 106.688V98.144H203.553V95.904H206.689V91.584L209.601 90.784V95.904H214.145V98.144H209.601V106.432C209.601 107.669 209.815 108.555 210.241 109.088C210.689 109.6 211.329 109.856 212.161 109.856C212.588 109.856 212.951 109.824 213.249 109.76C213.569 109.675 213.857 109.579 214.113 109.472V111.872C213.793 112 213.42 112.096 212.993 112.16C212.588 112.245 212.193 112.288 211.809 112.288ZM93.2163 149.152C92.171 149.152 91.2003 148.907 90.3043 148.416C89.4083 147.904 88.6937 147.211 88.1603 146.336C87.627 145.461 87.3603 144.491 87.3603 143.424C87.3603 142.443 87.6057 141.515 88.0963 140.64C88.6083 139.765 89.3017 139.061 90.1763 138.528C91.0723 137.973 92.0857 137.696 93.2163 137.696C94.2617 137.696 95.2217 137.952 96.0963 138.464C96.971 138.955 97.675 139.627 98.2083 140.48C98.763 141.333 99.0403 142.315 99.0403 143.424C99.0403 144.469 98.7737 145.429 98.2403 146.304C97.7283 147.179 97.0243 147.872 96.1283 148.384C95.2537 148.896 94.283 149.152 93.2163 149.152ZM129.909 152.288C127.648 152.288 125.706 151.819 124.085 150.88C122.485 149.941 121.258 148.608 120.405 146.88C119.552 145.131 119.125 143.072 119.125 140.704C119.125 138.336 119.552 136.288 120.405 134.56C121.258 132.832 122.485 131.499 124.085 130.56C125.706 129.621 127.648 129.152 129.909 129.152C131.53 129.152 132.97 129.397 134.229 129.888C135.488 130.357 136.586 131.051 137.525 131.968L136.437 134.368C135.413 133.472 134.4 132.832 133.397 132.448C132.416 132.043 131.274 131.84 129.973 131.84C127.477 131.84 125.568 132.608 124.245 134.144C122.922 135.68 122.261 137.867 122.261 140.704C122.261 143.541 122.922 145.739 124.245 147.296C125.568 148.832 127.477 149.6 129.973 149.6C131.274 149.6 132.416 149.408 133.397 149.024C134.4 148.619 135.413 147.968 136.437 147.072L137.525 149.44C136.586 150.357 135.477 151.061 134.197 151.552C132.938 152.043 131.509 152.288 129.909 152.288ZM147.202 152.288C145.624 152.288 144.258 151.957 143.106 151.296C141.954 150.613 141.058 149.653 140.418 148.416C139.778 147.157 139.458 145.664 139.458 143.936C139.458 142.229 139.778 140.757 140.418 139.52C141.058 138.261 141.954 137.301 143.106 136.64C144.258 135.957 145.624 135.616 147.202 135.616C148.781 135.616 150.146 135.957 151.298 136.64C152.472 137.301 153.368 138.261 153.986 139.52C154.626 140.757 154.946 142.229 154.946 143.936C154.946 145.664 154.626 147.157 153.986 148.416C153.368 149.653 152.472 150.613 151.298 151.296C150.146 151.957 148.781 152.288 147.202 152.288ZM147.202 149.984C148.653 149.984 149.816 149.472 150.69 148.448C151.565 147.424 152.002 145.92 152.002 143.936C152.002 141.952 151.565 140.459 150.69 139.456C149.816 138.453 148.653 137.952 147.202 137.952C145.73 137.952 144.557 138.453 143.682 139.456C142.829 140.459 142.402 141.952 142.402 143.936C142.402 145.92 142.829 147.424 143.682 148.448C144.557 149.472 145.73 149.984 147.202 149.984ZM158.856 152V139.712C158.856 139.093 158.834 138.464 158.792 137.824C158.749 137.184 158.685 136.544 158.6 135.904H161.416L161.736 139.36H161.352C161.842 138.144 162.6 137.216 163.624 136.576C164.648 135.936 165.842 135.616 167.208 135.616C169.106 135.616 170.536 136.139 171.496 137.184C172.456 138.208 172.936 139.808 172.936 141.984V152H170.024V142.144C170.024 140.672 169.736 139.616 169.16 138.976C168.584 138.315 167.688 137.984 166.472 137.984C165.021 137.984 163.869 138.421 163.016 139.296C162.184 140.171 161.768 141.355 161.768 142.848V152H158.856ZM184.612 152.288C183.012 152.288 181.625 151.957 180.452 151.296C179.278 150.613 178.361 149.643 177.7 148.384C177.06 147.104 176.74 145.589 176.74 143.84C176.74 142.112 177.07 140.64 177.732 139.424C178.393 138.187 179.31 137.248 180.484 136.608C181.657 135.947 183.033 135.616 184.612 135.616C185.657 135.616 186.67 135.797 187.652 136.16C188.633 136.501 189.433 137.003 190.052 137.664L189.06 139.712C188.441 139.115 187.758 138.677 187.012 138.4C186.265 138.101 185.529 137.952 184.804 137.952C183.225 137.952 181.988 138.464 181.092 139.488C180.196 140.491 179.748 141.952 179.748 143.872C179.748 145.813 180.196 147.307 181.092 148.352C181.988 149.397 183.225 149.92 184.804 149.92C185.508 149.92 186.233 149.781 186.98 149.504C187.726 149.227 188.42 148.789 189.06 148.192L190.052 150.208C189.412 150.891 188.59 151.413 187.588 151.776C186.606 152.117 185.614 152.288 184.612 152.288ZM200.621 152.288C198.061 152.288 196.035 151.552 194.541 150.08C193.069 148.608 192.333 146.581 192.333 144C192.333 142.293 192.653 140.821 193.293 139.584C193.955 138.325 194.861 137.355 196.013 136.672C197.165 135.968 198.509 135.616 200.045 135.616C201.517 135.616 202.765 135.936 203.789 136.576C204.813 137.195 205.592 138.08 206.125 139.232C206.659 140.384 206.925 141.749 206.925 143.328V144.288H194.605V142.56H204.941L204.397 142.976C204.397 141.312 204.024 140.021 203.277 139.104C202.552 138.187 201.475 137.728 200.045 137.728C198.488 137.728 197.283 138.272 196.429 139.36C195.576 140.427 195.149 141.888 195.149 143.744V144.032C195.149 145.995 195.629 147.477 196.589 148.48C197.571 149.483 198.925 149.984 200.653 149.984C201.613 149.984 202.509 149.845 203.341 149.568C204.173 149.291 204.973 148.832 205.741 148.192L206.701 150.208C205.976 150.869 205.069 151.381 203.981 151.744C202.915 152.107 201.795 152.288 200.621 152.288ZM210.731 152V139.712C210.731 139.093 210.709 138.464 210.667 137.824C210.624 137.184 210.56 136.544 210.475 135.904H213.291L213.611 139.36H213.227C213.717 138.144 214.475 137.216 215.499 136.576C216.523 135.936 217.717 135.616 219.083 135.616C220.981 135.616 222.411 136.139 223.371 137.184C224.331 138.208 224.811 139.808 224.811 141.984V152H221.899V142.144C221.899 140.672 221.611 139.616 221.035 138.976C220.459 138.315 219.563 137.984 218.347 137.984C216.896 137.984 215.744 138.421 214.891 139.296C214.059 140.171 213.643 141.355 213.643 142.848V152H210.731ZM235.591 152.288C233.905 152.288 232.625 151.829 231.751 150.912C230.897 149.973 230.471 148.565 230.471 146.688V138.144H227.335V135.904H230.471V131.584L233.383 130.784V135.904H237.927V138.144H233.383V146.432C233.383 147.669 233.596 148.555 234.023 149.088C234.471 149.6 235.111 149.856 235.943 149.856C236.369 149.856 236.732 149.824 237.031 149.76C237.351 149.675 237.639 149.579 237.895 149.472V151.872C237.575 152 237.201 152.096 236.775 152.16C236.369 152.245 235.975 152.288 235.591 152.288ZM240.949 152V139.84C240.949 139.2 240.927 138.549 240.885 137.888C240.863 137.205 240.81 136.544 240.725 135.904H243.541L243.893 139.936L243.413 139.968C243.626 138.987 243.989 138.176 244.501 137.536C245.034 136.875 245.663 136.395 246.389 136.096C247.135 135.776 247.903 135.616 248.693 135.616C249.034 135.616 249.322 135.627 249.557 135.648C249.791 135.669 250.026 135.723 250.261 135.808L250.197 138.4C249.877 138.272 249.578 138.197 249.301 138.176C249.045 138.133 248.725 138.112 248.341 138.112C247.402 138.112 246.591 138.325 245.909 138.752C245.247 139.179 244.735 139.744 244.373 140.448C244.031 141.152 243.861 141.909 243.861 142.72V152H240.949ZM258.812 152.288C257.404 152.288 256.167 151.957 255.1 151.296C254.034 150.635 253.202 149.675 252.604 148.416C252.007 147.157 251.708 145.664 251.708 143.936C251.708 142.208 252.007 140.725 252.604 139.488C253.202 138.229 254.034 137.269 255.1 136.608C256.167 135.947 257.404 135.616 258.812 135.616C260.242 135.616 261.479 135.979 262.524 136.704C263.591 137.408 264.295 138.379 264.636 139.616H264.252L264.604 135.904H267.42C267.356 136.544 267.292 137.184 267.228 137.824C267.186 138.464 267.164 139.093 267.164 139.712V152H264.252V148.32H264.604C264.263 149.536 263.559 150.507 262.492 151.232C261.447 151.936 260.22 152.288 258.812 152.288ZM259.484 149.984C260.935 149.984 262.098 149.472 262.972 148.448C263.847 147.424 264.284 145.92 264.284 143.936C264.284 141.952 263.847 140.459 262.972 139.456C262.098 138.453 260.935 137.952 259.484 137.952C258.034 137.952 256.86 138.453 255.964 139.456C255.09 140.459 254.652 141.952 254.652 143.936C254.652 145.92 255.09 147.424 255.964 148.448C256.839 149.472 258.012 149.984 259.484 149.984ZM278.059 152.288C276.374 152.288 275.094 151.829 274.219 150.912C273.366 149.973 272.939 148.565 272.939 146.688V138.144H269.803V135.904H272.939V131.584L275.851 130.784V135.904H280.395V138.144H275.851V146.432C275.851 147.669 276.065 148.555 276.491 149.088C276.939 149.6 277.579 149.856 278.411 149.856C278.838 149.856 279.201 149.824 279.499 149.76C279.819 149.675 280.107 149.579 280.363 149.472V151.872C280.043 152 279.67 152.096 279.243 152.16C278.838 152.245 278.443 152.288 278.059 152.288ZM290.621 152.288C288.061 152.288 286.035 151.552 284.541 150.08C283.069 148.608 282.333 146.581 282.333 144C282.333 142.293 282.653 140.821 283.293 139.584C283.955 138.325 284.861 137.355 286.013 136.672C287.165 135.968 288.509 135.616 290.045 135.616C291.517 135.616 292.765 135.936 293.789 136.576C294.813 137.195 295.592 138.08 296.125 139.232C296.659 140.384 296.925 141.749 296.925 143.328V144.288H284.605V142.56H294.941L294.397 142.976C294.397 141.312 294.024 140.021 293.277 139.104C292.552 138.187 291.475 137.728 290.045 137.728C288.488 137.728 287.283 138.272 286.429 139.36C285.576 140.427 285.149 141.888 285.149 143.744V144.032C285.149 145.995 285.629 147.477 286.589 148.48C287.571 149.483 288.925 149.984 290.653 149.984C291.613 149.984 292.509 149.845 293.341 149.568C294.173 149.291 294.973 148.832 295.741 148.192L296.701 150.208C295.976 150.869 295.069 151.381 293.981 151.744C292.915 152.107 291.795 152.288 290.621 152.288ZM306.875 152.288C305.467 152.288 304.229 151.957 303.163 151.296C302.096 150.635 301.264 149.675 300.667 148.416C300.069 147.157 299.771 145.664 299.771 143.936C299.771 142.208 300.069 140.725 300.667 139.488C301.264 138.229 302.096 137.269 303.163 136.608C304.229 135.947 305.467 135.616 306.875 135.616C308.283 135.616 309.509 135.968 310.555 136.672C311.621 137.376 312.336 138.347 312.699 139.584H312.315V128.448H315.227V152H312.347V148.256H312.699C312.357 149.515 311.653 150.507 310.587 151.232C309.541 151.936 308.304 152.288 306.875 152.288ZM307.547 149.984C308.997 149.984 310.16 149.472 311.035 148.448C311.931 147.424 312.379 145.92 312.379 143.936C312.379 141.952 311.931 140.459 311.035 139.456C310.16 138.453 308.997 137.952 307.547 137.952C306.096 137.952 304.923 138.453 304.027 139.456C303.152 140.459 302.715 141.952 302.715 143.936C302.715 145.92 303.152 147.424 304.027 148.448C304.923 149.472 306.096 149.984 307.547 149.984ZM328.543 152V128.448H331.455V152H328.543ZM336.325 152V135.904H339.237V152H336.325ZM336.069 132.384V129.248H339.525V132.384H336.069ZM355.69 158.912V148.32H356.042C355.7 149.536 354.996 150.507 353.93 151.232C352.884 151.936 351.658 152.288 350.25 152.288C348.842 152.288 347.604 151.957 346.538 151.296C345.471 150.635 344.639 149.675 344.042 148.416C343.444 147.157 343.146 145.664 343.146 143.936C343.146 142.208 343.444 140.725 344.042 139.488C344.639 138.229 345.471 137.269 346.538 136.608C347.604 135.947 348.842 135.616 350.25 135.616C351.679 135.616 352.916 135.979 353.962 136.704C355.028 137.408 355.732 138.379 356.074 139.616H355.69L356.042 135.904H358.858C358.794 136.544 358.73 137.184 358.666 137.824C358.623 138.464 358.602 139.093 358.602 139.712V158.912H355.69ZM350.922 149.984C352.372 149.984 353.535 149.472 354.41 148.448C355.284 147.424 355.722 145.92 355.722 143.936C355.722 141.952 355.284 140.459 354.41 139.456C353.535 138.453 352.372 137.952 350.922 137.952C349.471 137.952 348.298 138.453 347.402 139.456C346.527 140.459 346.09 141.952 346.09 143.936C346.09 145.92 346.527 147.424 347.402 148.448C348.276 149.472 349.45 149.984 350.922 149.984ZM369.209 152.288C367.267 152.288 365.806 151.765 364.825 150.72C363.865 149.675 363.385 148.064 363.385 145.888V135.904H366.297V145.824C366.297 147.232 366.585 148.267 367.161 148.928C367.737 149.589 368.633 149.92 369.849 149.92C371.171 149.92 372.238 149.483 373.049 148.608C373.881 147.712 374.297 146.528 374.297 145.056V135.904H377.209V152H374.393V148.448H374.809C374.361 149.664 373.646 150.613 372.665 151.296C371.683 151.957 370.531 152.288 369.209 152.288ZM382.106 152V135.904H385.018V152H382.106ZM381.85 132.384V129.248H385.306V132.384H381.85ZM396.031 152.288C394.623 152.288 393.386 151.957 392.319 151.296C391.252 150.635 390.42 149.675 389.823 148.416C389.226 147.157 388.927 145.664 388.927 143.936C388.927 142.208 389.226 140.725 389.823 139.488C390.42 138.229 391.252 137.269 392.319 136.608C393.386 135.947 394.623 135.616 396.031 135.616C397.439 135.616 398.666 135.968 399.711 136.672C400.778 137.376 401.492 138.347 401.855 139.584H401.471V128.448H404.383V152H401.503V148.256H401.855C401.514 149.515 400.81 150.507 399.743 151.232C398.698 151.936 397.46 152.288 396.031 152.288ZM396.703 149.984C398.154 149.984 399.316 149.472 400.191 148.448C401.087 147.424 401.535 145.92 401.535 143.936C401.535 141.952 401.087 140.459 400.191 139.456C399.316 138.453 398.154 137.952 396.703 137.952C395.252 137.952 394.079 138.453 393.183 139.456C392.308 140.459 391.871 141.952 391.871 143.936C391.871 145.92 392.308 147.424 393.183 148.448C394.079 149.472 395.252 149.984 396.703 149.984ZM409.262 152V135.904H412.174V152H409.262ZM409.006 132.384V129.248H412.462V132.384H409.006ZM423.059 152.288C421.374 152.288 420.094 151.829 419.219 150.912C418.366 149.973 417.939 148.565 417.939 146.688V138.144H414.803V135.904H417.939V131.584L420.851 130.784V135.904H425.395V138.144H420.851V146.432C420.851 147.669 421.065 148.555 421.491 149.088C421.939 149.6 422.579 149.856 423.411 149.856C423.838 149.856 424.201 149.824 424.499 149.76C424.819 149.675 425.107 149.579 425.363 149.472V151.872C425.043 152 424.67 152.096 424.243 152.16C423.838 152.245 423.443 152.288 423.059 152.288ZM428.124 159.264L427.452 156.896C428.455 156.661 429.287 156.384 429.948 156.064C430.61 155.765 431.164 155.371 431.612 154.88C432.06 154.389 432.455 153.771 432.796 153.024L433.596 151.104L433.532 152.32L426.524 135.904H429.66L435.26 149.696H434.428L440.028 135.904H443.036L435.644 153.248C435.196 154.293 434.706 155.168 434.172 155.872C433.66 156.576 433.095 157.152 432.476 157.6C431.879 158.048 431.218 158.4 430.492 158.656C429.767 158.912 428.978 159.115 428.124 159.264ZM93.2163 189.152C92.171 189.152 91.2003 188.907 90.3043 188.416C89.4083 187.904 88.6937 187.211 88.1603 186.336C87.627 185.461 87.3603 184.491 87.3603 183.424C87.3603 182.443 87.6057 181.515 88.0963 180.64C88.6083 179.765 89.3017 179.061 90.1763 178.528C91.0723 177.973 92.0857 177.696 93.2163 177.696C94.2617 177.696 95.2217 177.952 96.0963 178.464C96.971 178.955 97.675 179.627 98.2083 180.48C98.763 181.333 99.0403 182.315 99.0403 183.424C99.0403 184.469 98.7737 185.429 98.2403 186.304C97.7283 187.179 97.0243 187.872 96.1283 188.384C95.2537 188.896 94.283 189.152 93.2163 189.152ZM119.957 192V169.44H129.301C131.712 169.44 133.557 170.016 134.837 171.168C136.117 172.32 136.757 173.909 136.757 175.936C136.757 177.963 136.117 179.563 134.837 180.736C133.557 181.888 131.712 182.464 129.301 182.464H122.933V192H119.957ZM122.933 180.032H129.013C130.592 180.032 131.786 179.68 132.597 178.976C133.408 178.251 133.813 177.237 133.813 175.936C133.813 174.635 133.408 173.632 132.597 172.928C131.786 172.224 130.592 171.872 129.013 171.872H122.933V180.032ZM146.115 192.288C144.174 192.288 142.712 191.765 141.731 190.72C140.771 189.675 140.291 188.064 140.291 185.888V175.904H143.203V185.824C143.203 187.232 143.491 188.267 144.067 188.928C144.643 189.589 145.539 189.92 146.755 189.92C148.078 189.92 149.144 189.483 149.955 188.608C150.787 187.712 151.203 186.528 151.203 185.056V175.904H154.115V192H151.299V188.448H151.715C151.267 189.664 150.552 190.613 149.571 191.296C148.59 191.957 147.438 192.288 146.115 192.288ZM167.364 192.288C165.935 192.288 164.697 191.936 163.652 191.232C162.607 190.507 161.913 189.515 161.572 188.256H161.924V192H159.012V168.448H161.924V179.584H161.572C161.935 178.347 162.628 177.376 163.652 176.672C164.697 175.968 165.935 175.616 167.364 175.616C168.793 175.616 170.041 175.957 171.108 176.64C172.175 177.301 172.996 178.251 173.572 179.488C174.169 180.725 174.468 182.219 174.468 183.968C174.468 185.696 174.169 187.189 173.572 188.448C172.996 189.685 172.164 190.635 171.076 191.296C170.009 191.957 168.772 192.288 167.364 192.288ZM166.692 189.984C168.143 189.984 169.305 189.483 170.18 188.48C171.076 187.456 171.524 185.952 171.524 183.968C171.524 181.984 171.076 180.491 170.18 179.488C169.305 178.464 168.143 177.952 166.692 177.952C165.22 177.952 164.047 178.453 163.172 179.456C162.319 180.459 161.892 181.952 161.892 183.936C161.892 185.92 162.319 187.424 163.172 188.448C164.047 189.472 165.22 189.984 166.692 189.984ZM178.387 192V168.448H181.299V192H178.387ZM186.168 192V175.904H189.08V192H186.168ZM185.912 172.384V169.248H189.368V172.384H185.912ZM200.862 192.288C199.262 192.288 197.875 191.957 196.702 191.296C195.528 190.613 194.611 189.643 193.95 188.384C193.31 187.104 192.99 185.589 192.99 183.84C192.99 182.112 193.32 180.64 193.982 179.424C194.643 178.187 195.56 177.248 196.734 176.608C197.907 175.947 199.283 175.616 200.862 175.616C201.907 175.616 202.92 175.797 203.902 176.16C204.883 176.501 205.683 177.003 206.302 177.664L205.31 179.712C204.691 179.115 204.008 178.677 203.262 178.4C202.515 178.101 201.779 177.952 201.054 177.952C199.475 177.952 198.238 178.464 197.342 179.488C196.446 180.491 195.998 181.952 195.998 183.872C195.998 185.813 196.446 187.307 197.342 188.352C198.238 189.397 199.475 189.92 201.054 189.92C201.758 189.92 202.483 189.781 203.23 189.504C203.976 189.227 204.67 188.789 205.31 188.192L206.302 190.208C205.662 190.891 204.84 191.413 203.838 191.776C202.856 192.117 201.864 192.288 200.862 192.288ZM223.733 192.288C222.432 192.288 221.216 192.117 220.085 191.776C218.976 191.435 218.059 190.944 217.333 190.304L218.261 188.288C219.051 188.885 219.915 189.344 220.853 189.664C221.813 189.963 222.795 190.112 223.797 190.112C225.013 190.112 225.931 189.888 226.549 189.44C227.189 188.992 227.509 188.395 227.509 187.648C227.509 187.051 227.307 186.571 226.901 186.208C226.496 185.845 225.856 185.579 224.981 185.408L221.941 184.8C220.576 184.48 219.541 183.968 218.837 183.264C218.155 182.539 217.813 181.611 217.813 180.48C217.813 179.541 218.069 178.709 218.581 177.984C219.093 177.237 219.819 176.661 220.757 176.256C221.717 175.829 222.837 175.616 224.117 175.616C225.291 175.616 226.379 175.787 227.381 176.128C228.405 176.469 229.248 176.971 229.909 177.632L228.949 179.584C228.288 179.008 227.541 178.571 226.709 178.272C225.899 177.952 225.067 177.792 224.213 177.792C222.976 177.792 222.059 178.037 221.461 178.528C220.864 178.997 220.565 179.616 220.565 180.384C220.565 180.96 220.747 181.44 221.109 181.824C221.472 182.187 222.059 182.464 222.869 182.656L225.909 183.264C227.339 183.563 228.416 184.053 229.141 184.736C229.867 185.419 230.229 186.325 230.229 187.456C230.229 188.459 229.952 189.323 229.397 190.048C228.864 190.773 228.107 191.328 227.125 191.712C226.165 192.096 225.035 192.288 223.733 192.288ZM240.344 192.288C238.936 192.288 237.698 191.957 236.632 191.296C235.565 190.635 234.733 189.675 234.136 188.416C233.538 187.157 233.24 185.664 233.24 183.936C233.24 182.208 233.538 180.725 234.136 179.488C234.733 178.229 235.565 177.269 236.632 176.608C237.698 175.947 238.936 175.616 240.344 175.616C241.773 175.616 243.01 175.979 244.056 176.704C245.122 177.408 245.826 178.379 246.168 179.616H245.784L246.136 175.904H248.952C248.888 176.544 248.824 177.184 248.76 177.824C248.717 178.464 248.696 179.093 248.696 179.712V192H245.784V188.32H246.136C245.794 189.536 245.09 190.507 244.024 191.232C242.978 191.936 241.752 192.288 240.344 192.288ZM241.016 189.984C242.466 189.984 243.629 189.472 244.504 188.448C245.378 187.424 245.816 185.92 245.816 183.936C245.816 181.952 245.378 180.459 244.504 179.456C243.629 178.453 242.466 177.952 241.016 177.952C239.565 177.952 238.392 178.453 237.496 179.456C236.621 180.459 236.184 181.952 236.184 183.936C236.184 185.92 236.621 187.424 237.496 188.448C238.37 189.472 239.544 189.984 241.016 189.984ZM253.575 192V168.448H256.487V192H253.575ZM268.684 192.288C266.124 192.288 264.097 191.552 262.604 190.08C261.132 188.608 260.396 186.581 260.396 184C260.396 182.293 260.716 180.821 261.356 179.584C262.017 178.325 262.924 177.355 264.076 176.672C265.228 175.968 266.572 175.616 268.108 175.616C269.58 175.616 270.828 175.936 271.852 176.576C272.876 177.195 273.654 178.08 274.188 179.232C274.721 180.384 274.988 181.749 274.988 183.328V184.288H262.668V182.56H273.004L272.46 182.976C272.46 181.312 272.086 180.021 271.34 179.104C270.614 178.187 269.537 177.728 268.108 177.728C266.55 177.728 265.345 178.272 264.492 179.36C263.638 180.427 263.212 181.888 263.212 183.744V184.032C263.212 185.995 263.692 187.477 264.652 188.48C265.633 189.483 266.988 189.984 268.716 189.984C269.676 189.984 270.572 189.845 271.404 189.568C272.236 189.291 273.036 188.832 273.804 188.192L274.764 190.208C274.038 190.869 273.132 191.381 272.044 191.744C270.977 192.107 269.857 192.288 268.684 192.288ZM93.2163 229.152C92.171 229.152 91.2003 228.907 90.3043 228.416C89.4083 227.904 88.6937 227.211 88.1603 226.336C87.627 225.461 87.3603 224.491 87.3603 223.424C87.3603 222.443 87.6057 221.515 88.0963 220.64C88.6083 219.765 89.3017 219.061 90.1763 218.528C91.0723 217.973 92.0857 217.696 93.2163 217.696C94.2617 217.696 95.2217 217.952 96.0963 218.464C96.971 218.955 97.675 219.627 98.2083 220.48C98.763 221.333 99.0403 222.315 99.0403 223.424C99.0403 224.469 98.7737 225.429 98.2403 226.304C97.7283 227.179 97.0243 227.872 96.1283 228.384C95.2537 228.896 94.283 229.152 93.2163 229.152ZM125.365 232V211.968H117.557V209.44H136.213V211.968H128.373V232H125.365ZM148.452 232.288C145.978 232.288 143.898 231.829 142.212 230.912C140.527 229.973 139.258 228.64 138.404 226.912C137.572 225.184 137.156 223.125 137.156 220.736C137.156 218.347 137.604 216.288 138.5 214.56C139.396 212.832 140.676 211.499 142.34 210.56C144.026 209.621 146.042 209.152 148.388 209.152C150.031 209.152 151.46 209.387 152.676 209.856C153.892 210.325 154.98 211.008 155.94 211.904L154.82 214.272C154.138 213.675 153.476 213.195 152.836 212.832C152.196 212.469 151.524 212.213 150.82 212.064C150.138 211.893 149.327 211.808 148.388 211.808C145.764 211.808 143.759 212.587 142.372 214.144C140.986 215.701 140.292 217.909 140.292 220.768C140.292 223.669 140.964 225.877 142.308 227.392C143.652 228.907 145.743 229.664 148.58 229.664C149.583 229.664 150.564 229.568 151.524 229.376C152.484 229.184 153.402 228.907 154.276 228.544L153.668 230.048V222.4H148.004V220.096H156.228V230.656C155.268 231.147 154.084 231.541 152.676 231.84C151.268 232.139 149.86 232.288 148.452 232.288ZM161.457 232V209.44H176.049V211.872H164.337V219.328H175.313V221.76H164.337V229.568H176.049V232H161.457Z" fill="#4CC9F0"/>
<line x1="93.7051" y1="20" x2="93.7051" y2="335" stroke="#0FA9D9"/>
</svg>
