<svg width="646" height="627" viewBox="0 0 646 627" fill="none" xmlns="http://www.w3.org/2000/svg">
<path d="M368 335L314 379.167V290.833L368 335Z" fill="#BA1E71"/>
<path fill-rule="evenodd" clip-rule="evenodd" d="M0.204543 379L54 335L0.204543 291H314V379H0.204543ZM0 379L1.51992e-06 291H0V379Z" fill="#BA1E71"/>
<path d="M128.011 349V346.443L137.614 335.932C138.741 334.701 139.669 333.631 140.398 332.722C141.127 331.803 141.667 330.941 142.017 330.136C142.377 329.322 142.557 328.47 142.557 327.58C142.557 326.557 142.311 325.671 141.818 324.923C141.335 324.175 140.672 323.598 139.83 323.19C138.987 322.783 138.04 322.58 136.989 322.58C135.871 322.58 134.896 322.812 134.062 323.276C133.239 323.73 132.599 324.369 132.145 325.193C131.7 326.017 131.477 326.983 131.477 328.091H128.125C128.125 326.386 128.518 324.89 129.304 323.602C130.09 322.314 131.16 321.311 132.514 320.591C133.878 319.871 135.407 319.511 137.102 319.511C138.807 319.511 140.317 319.871 141.634 320.591C142.95 321.311 143.982 322.281 144.73 323.503C145.478 324.724 145.852 326.083 145.852 327.58C145.852 328.65 145.658 329.696 145.27 330.719C144.891 331.732 144.228 332.864 143.281 334.114C142.344 335.354 141.042 336.869 139.375 338.659L132.841 345.648V345.875H146.364V349H128.011ZM161.719 349.398C159.579 349.398 157.756 348.815 156.25 347.651C154.744 346.476 153.594 344.777 152.798 342.551C152.003 340.316 151.605 337.617 151.605 334.455C151.605 331.311 152.003 328.626 152.798 326.401C153.603 324.166 154.759 322.461 156.264 321.287C157.779 320.103 159.598 319.511 161.719 319.511C163.84 319.511 165.653 320.103 167.159 321.287C168.674 322.461 169.83 324.166 170.625 326.401C171.43 328.626 171.832 331.311 171.832 334.455C171.832 337.617 171.435 340.316 170.639 342.551C169.844 344.777 168.693 346.476 167.188 347.651C165.682 348.815 163.859 349.398 161.719 349.398ZM161.719 346.273C163.84 346.273 165.488 345.25 166.662 343.205C167.836 341.159 168.423 338.242 168.423 334.455C168.423 331.936 168.153 329.791 167.614 328.02C167.083 326.249 166.316 324.9 165.312 323.972C164.318 323.044 163.12 322.58 161.719 322.58C159.616 322.58 157.973 323.616 156.79 325.69C155.606 327.755 155.014 330.676 155.014 334.455C155.014 336.973 155.279 339.114 155.81 340.875C156.34 342.636 157.102 343.976 158.097 344.895C159.1 345.813 160.308 346.273 161.719 346.273ZM177.23 349V346.443L186.832 335.932C187.959 334.701 188.887 333.631 189.616 332.722C190.346 331.803 190.885 330.941 191.236 330.136C191.596 329.322 191.776 328.47 191.776 327.58C191.776 326.557 191.529 325.671 191.037 324.923C190.554 324.175 189.891 323.598 189.048 323.19C188.205 322.783 187.259 322.58 186.207 322.58C185.09 322.58 184.115 322.812 183.281 323.276C182.457 323.73 181.818 324.369 181.364 325.193C180.919 326.017 180.696 326.983 180.696 328.091H177.344C177.344 326.386 177.737 324.89 178.523 323.602C179.309 322.314 180.379 321.311 181.733 320.591C183.097 319.871 184.626 319.511 186.321 319.511C188.026 319.511 189.536 319.871 190.852 320.591C192.169 321.311 193.201 322.281 193.949 323.503C194.697 324.724 195.071 326.083 195.071 327.58C195.071 328.65 194.877 329.696 194.489 330.719C194.11 331.732 193.447 332.864 192.5 334.114C191.562 335.354 190.26 336.869 188.594 338.659L182.06 345.648V345.875H195.582V349H177.23ZM200.142 343.034V340.136L212.926 319.909H215.028V324.398H213.608L203.949 339.682V339.909H221.165V343.034H200.142ZM213.835 349V342.153V340.804V319.909H217.188V349H213.835ZM248.817 339.909H252.681L255.92 344.17L256.772 345.307L261.602 351.727H257.738L254.556 347.466L253.761 346.386L248.817 339.909ZM262.795 334.455C262.795 337.523 262.241 340.174 261.133 342.409C260.025 344.644 258.505 346.367 256.573 347.58C254.641 348.792 252.435 349.398 249.954 349.398C247.473 349.398 245.266 348.792 243.335 347.58C241.403 346.367 239.883 344.644 238.775 342.409C237.667 340.174 237.113 337.523 237.113 334.455C237.113 331.386 237.667 328.735 238.775 326.5C239.883 324.265 241.403 322.542 243.335 321.33C245.266 320.117 247.473 319.511 249.954 319.511C252.435 319.511 254.641 320.117 256.573 321.33C258.505 322.542 260.025 324.265 261.133 326.5C262.241 328.735 262.795 331.386 262.795 334.455ZM259.386 334.455C259.386 331.936 258.964 329.81 258.121 328.077C257.288 326.344 256.156 325.032 254.727 324.142C253.306 323.252 251.715 322.807 249.954 322.807C248.192 322.807 246.597 323.252 245.167 324.142C243.746 325.032 242.615 326.344 241.772 328.077C240.939 329.81 240.522 331.936 240.522 334.455C240.522 336.973 240.939 339.099 241.772 340.832C242.615 342.565 243.746 343.877 245.167 344.767C246.597 345.657 248.192 346.102 249.954 346.102C251.715 346.102 253.306 345.657 254.727 344.767C256.156 343.877 257.288 342.565 258.121 340.832C258.964 339.099 259.386 336.973 259.386 334.455ZM268.207 349V346.443L277.809 335.932C278.936 334.701 279.864 333.631 280.593 332.722C281.322 331.803 281.862 330.941 282.212 330.136C282.572 329.322 282.752 328.47 282.752 327.58C282.752 326.557 282.506 325.671 282.013 324.923C281.531 324.175 280.868 323.598 280.025 323.19C279.182 322.783 278.235 322.58 277.184 322.58C276.067 322.58 275.091 322.812 274.258 323.276C273.434 323.73 272.795 324.369 272.34 325.193C271.895 326.017 271.673 326.983 271.673 328.091H268.32C268.32 326.386 268.713 324.89 269.499 323.602C270.285 322.314 271.355 321.311 272.71 320.591C274.073 319.871 275.603 319.511 277.298 319.511C279.002 319.511 280.513 319.871 281.829 320.591C283.145 321.311 284.177 322.281 284.925 323.503C285.674 324.724 286.048 326.083 286.048 327.58C286.048 328.65 285.853 329.696 285.465 330.719C285.086 331.732 284.424 332.864 283.477 334.114C282.539 335.354 281.237 336.869 279.57 338.659L273.036 345.648V345.875H286.559V349H268.207Z" fill="black"/>
<circle cx="93.5" cy="335.5" r="8.5" fill="#D9D9D9"/>
<path d="M93.2126 26.7273C92.296 26.7273 91.4588 26.5038 90.7013 26.0568C89.9437 25.6023 89.3376 24.9962 88.8831 24.2386C88.4361 23.4811 88.2126 22.6439 88.2126 21.7273C88.2126 20.803 88.4361 19.9659 88.8831 19.2159C89.3376 18.4583 89.9437 17.8561 90.7013 17.4091C91.4588 16.9545 92.296 16.7273 93.2126 16.7273C94.1369 16.7273 94.974 16.9545 95.724 17.4091C96.4816 17.8561 97.0838 18.4583 97.5308 19.2159C97.9854 19.9659 98.2126 20.803 98.2126 21.7273C98.2126 22.6439 97.9854 23.4811 97.5308 24.2386C97.0838 24.9962 96.4816 25.6023 95.724 26.0568C94.974 26.5038 94.1369 26.7273 93.2126 26.7273ZM139.09 15.2955H135.545C135.409 14.5379 135.155 13.8712 134.784 13.2955C134.412 12.7197 133.958 12.2311 133.42 11.8295C132.882 11.428 132.28 11.125 131.613 10.9205C130.954 10.7159 130.253 10.6136 129.511 10.6136C128.17 10.6136 126.969 10.9508 125.909 11.625C124.856 12.2992 124.022 13.2879 123.409 14.5909C122.803 15.8939 122.5 17.4848 122.5 19.3636C122.5 21.2576 122.803 22.8561 123.409 24.1591C124.022 25.4621 124.859 26.447 125.92 27.1136C126.981 27.7803 128.174 28.1136 129.5 28.1136C130.234 28.1136 130.931 28.0152 131.59 27.8182C132.257 27.6136 132.859 27.3144 133.397 26.9205C133.935 26.5265 134.39 26.0455 134.761 25.4773C135.14 24.9015 135.401 24.2424 135.545 23.5L139.09 23.5114C138.901 24.6553 138.534 25.7083 137.988 26.6705C137.45 27.625 136.757 28.4508 135.909 29.1477C135.068 29.8371 134.106 30.3712 133.022 30.75C131.939 31.1288 130.757 31.3182 129.477 31.3182C127.462 31.3182 125.666 30.8409 124.09 29.8864C122.515 28.9242 121.272 27.5492 120.363 25.7614C119.462 23.9735 119.011 21.8409 119.011 19.3636C119.011 16.8788 119.465 14.7462 120.375 12.9659C121.284 11.178 122.526 9.80682 124.102 8.85227C125.678 7.89015 127.469 7.40909 129.477 7.40909C130.712 7.40909 131.863 7.58712 132.931 7.94318C134.007 8.29167 134.973 8.80682 135.829 9.48864C136.685 10.1629 137.393 10.9886 137.954 11.9659C138.515 12.9356 138.893 14.0455 139.09 15.2955ZM143.019 31V13.5455H146.304V16.3182H146.485C146.804 15.3788 147.364 14.6402 148.167 14.1023C148.978 13.5568 149.894 13.2841 150.917 13.2841C151.129 13.2841 151.379 13.2917 151.667 13.3068C151.963 13.322 152.194 13.3409 152.36 13.3636V16.6136C152.224 16.5758 151.982 16.5341 151.633 16.4886C151.285 16.4356 150.936 16.4091 150.588 16.4091C149.785 16.4091 149.069 16.5795 148.44 16.9205C147.819 17.2538 147.326 17.7197 146.963 18.3182C146.599 18.9091 146.417 19.5833 146.417 20.3409V31H143.019ZM162.028 31.3523C160.392 31.3523 158.964 30.9773 157.744 30.2273C156.524 29.4773 155.577 28.428 154.903 27.0795C154.229 25.7311 153.892 24.1553 153.892 22.3523C153.892 20.5417 154.229 18.9583 154.903 17.6023C155.577 16.2462 156.524 15.1932 157.744 14.4432C158.964 13.6932 160.392 13.3182 162.028 13.3182C163.664 13.3182 165.092 13.6932 166.312 14.4432C167.532 15.1932 168.479 16.2462 169.153 17.6023C169.827 18.9583 170.164 20.5417 170.164 22.3523C170.164 24.1553 169.827 25.7311 169.153 27.0795C168.479 28.428 167.532 29.4773 166.312 30.2273C165.092 30.9773 163.664 31.3523 162.028 31.3523ZM162.039 28.5C163.1 28.5 163.979 28.2197 164.676 27.6591C165.373 27.0985 165.888 26.3523 166.221 25.4205C166.562 24.4886 166.733 23.4621 166.733 22.3409C166.733 21.2273 166.562 20.2045 166.221 19.2727C165.888 18.3333 165.373 17.5795 164.676 17.0114C163.979 16.4432 163.1 16.1591 162.039 16.1591C160.971 16.1591 160.085 16.4432 159.38 17.0114C158.683 17.5795 158.164 18.3333 157.823 19.2727C157.49 20.2045 157.323 21.2273 157.323 22.3409C157.323 23.4621 157.49 24.4886 157.823 25.4205C158.164 26.3523 158.683 27.0985 159.38 27.6591C160.085 28.2197 160.971 28.5 162.039 28.5ZM187.036 17.8068L183.957 18.3523C183.828 17.9583 183.624 17.5833 183.343 17.2273C183.071 16.8712 182.699 16.5795 182.23 16.3523C181.76 16.125 181.173 16.0114 180.468 16.0114C179.506 16.0114 178.703 16.2273 178.059 16.6591C177.415 17.0833 177.093 17.6326 177.093 18.3068C177.093 18.8902 177.309 19.3598 177.741 19.7159C178.173 20.072 178.87 20.3636 179.832 20.5909L182.605 21.2273C184.211 21.5985 185.408 22.1705 186.196 22.9432C186.983 23.7159 187.377 24.7197 187.377 25.9545C187.377 27 187.074 27.9318 186.468 28.75C185.87 29.5606 185.033 30.197 183.957 30.6591C182.889 31.1212 181.65 31.3523 180.241 31.3523C178.286 31.3523 176.692 30.9356 175.457 30.1023C174.222 29.2614 173.465 28.0682 173.184 26.5227L176.468 26.0227C176.673 26.8788 177.093 27.5265 177.73 27.9659C178.366 28.3977 179.196 28.6136 180.218 28.6136C181.332 28.6136 182.222 28.3826 182.889 27.9205C183.555 27.4508 183.889 26.8788 183.889 26.2045C183.889 25.6591 183.684 25.2008 183.275 24.8295C182.874 24.4583 182.256 24.178 181.423 23.9886L178.468 23.3409C176.84 22.9697 175.635 22.3788 174.855 21.5682C174.082 20.7576 173.696 19.7311 173.696 18.4886C173.696 17.4583 173.983 16.5568 174.559 15.7841C175.135 15.0114 175.93 14.4091 176.946 13.9773C177.961 13.5379 179.124 13.3182 180.434 13.3182C182.321 13.3182 183.805 13.7273 184.889 14.5455C185.972 15.3561 186.688 16.4432 187.036 17.8068ZM204.193 17.8068L201.113 18.3523C200.984 17.9583 200.78 17.5833 200.5 17.2273C200.227 16.8712 199.856 16.5795 199.386 16.3523C198.916 16.125 198.329 16.0114 197.625 16.0114C196.662 16.0114 195.859 16.2273 195.215 16.6591C194.572 17.0833 194.25 17.6326 194.25 18.3068C194.25 18.8902 194.465 19.3598 194.897 19.7159C195.329 20.072 196.026 20.3636 196.988 20.5909L199.761 21.2273C201.367 21.5985 202.564 22.1705 203.352 22.9432C204.14 23.7159 204.534 24.7197 204.534 25.9545C204.534 27 204.231 27.9318 203.625 28.75C203.026 29.5606 202.189 30.197 201.113 30.6591C200.045 31.1212 198.806 31.3523 197.397 31.3523C195.443 31.3523 193.848 30.9356 192.613 30.1023C191.378 29.2614 190.621 28.0682 190.34 26.5227L193.625 26.0227C193.829 26.8788 194.25 27.5265 194.886 27.9659C195.522 28.3977 196.352 28.6136 197.375 28.6136C198.488 28.6136 199.378 28.3826 200.045 27.9205C200.712 27.4508 201.045 26.8788 201.045 26.2045C201.045 25.6591 200.84 25.2008 200.431 24.8295C200.03 24.4583 199.412 24.178 198.579 23.9886L195.625 23.3409C193.996 22.9697 192.791 22.3788 192.011 21.5682C191.238 20.7576 190.852 19.7311 190.852 18.4886C190.852 17.4583 191.14 16.5568 191.715 15.7841C192.291 15.0114 193.087 14.4091 194.102 13.9773C195.117 13.5379 196.28 13.3182 197.59 13.3182C199.477 13.3182 200.962 13.7273 202.045 14.5455C203.128 15.3561 203.844 16.4432 204.193 17.8068ZM215.622 31.3523C213.932 31.3523 212.478 30.9697 211.258 30.2045C210.046 29.4318 209.114 28.3674 208.463 27.0114C207.811 25.6553 207.485 24.1023 207.485 22.3523C207.485 20.5795 207.819 19.0152 208.485 17.6591C209.152 16.2955 210.091 15.2311 211.304 14.4659C212.516 13.7008 213.944 13.3182 215.588 13.3182C216.913 13.3182 218.095 13.5644 219.133 14.0568C220.171 14.5417 221.008 15.2235 221.644 16.1023C222.288 16.9811 222.671 18.0076 222.792 19.1818H219.485C219.304 18.3636 218.887 17.6591 218.235 17.0682C217.591 16.4773 216.728 16.1818 215.644 16.1818C214.697 16.1818 213.868 16.4318 213.156 16.9318C212.451 17.4242 211.902 18.1288 211.508 19.0455C211.114 19.9545 210.917 21.0303 210.917 22.2727C210.917 23.5455 211.11 24.6439 211.497 25.5682C211.883 26.4924 212.429 27.2083 213.133 27.7159C213.845 28.2235 214.682 28.4773 215.644 28.4773C216.288 28.4773 216.872 28.3598 217.394 28.125C217.925 27.8826 218.368 27.5379 218.724 27.0909C219.088 26.6439 219.341 26.1061 219.485 25.4773H222.792C222.671 26.6061 222.304 27.6136 221.69 28.5C221.076 29.3864 220.254 30.0833 219.224 30.5909C218.201 31.0985 217.001 31.3523 215.622 31.3523ZM229.823 20.6364V31H226.426V7.72727H229.778V16.3864H229.994C230.403 15.447 231.028 14.7008 231.869 14.1477C232.71 13.5947 233.808 13.3182 235.164 13.3182C236.361 13.3182 237.407 13.5644 238.301 14.0568C239.202 14.5492 239.899 15.2841 240.392 16.2614C240.892 17.2311 241.142 18.4432 241.142 19.8977V31H237.744V20.3068C237.744 19.0265 237.414 18.0341 236.755 17.3295C236.096 16.6174 235.179 16.2614 234.005 16.2614C233.202 16.2614 232.483 16.4318 231.846 16.7727C231.217 17.1136 230.721 17.6136 230.358 18.2727C230.001 18.9242 229.823 19.7121 229.823 20.6364ZM250.755 31.3864C249.649 31.3864 248.649 31.1818 247.755 30.7727C246.861 30.3561 246.153 29.7538 245.63 28.9659C245.115 28.178 244.858 27.2121 244.858 26.0682C244.858 25.0833 245.047 24.2727 245.426 23.6364C245.804 23 246.316 22.4962 246.96 22.125C247.604 21.7538 248.323 21.4735 249.119 21.2841C249.914 21.0947 250.725 20.9508 251.551 20.8523C252.596 20.7311 253.445 20.6326 254.096 20.5568C254.748 20.4735 255.221 20.3409 255.517 20.1591C255.812 19.9773 255.96 19.6818 255.96 19.2727V19.1932C255.96 18.2008 255.679 17.4318 255.119 16.8864C254.566 16.3409 253.74 16.0682 252.642 16.0682C251.498 16.0682 250.596 16.322 249.937 16.8295C249.286 17.3295 248.835 17.8864 248.585 18.5L245.392 17.7727C245.77 16.7121 246.323 15.8561 247.051 15.2045C247.786 14.5455 248.63 14.0682 249.585 13.7727C250.539 13.4697 251.543 13.3182 252.596 13.3182C253.293 13.3182 254.032 13.4015 254.812 13.5682C255.6 13.7273 256.335 14.0227 257.017 14.4545C257.706 14.8864 258.27 15.5038 258.71 16.3068C259.149 17.1023 259.369 18.1364 259.369 19.4091V31H256.051V28.6136H255.914C255.695 29.053 255.365 29.4848 254.926 29.9091C254.486 30.3333 253.922 30.6856 253.233 30.9659C252.543 31.2462 251.717 31.3864 250.755 31.3864ZM251.494 28.6591C252.433 28.6591 253.236 28.4735 253.903 28.1023C254.577 27.7311 255.089 27.2462 255.437 26.6477C255.793 26.0417 255.971 25.3939 255.971 24.7045V22.4545C255.85 22.5758 255.615 22.6894 255.267 22.7955C254.926 22.8939 254.536 22.9811 254.096 23.0568C253.657 23.125 253.229 23.1894 252.812 23.25C252.395 23.303 252.047 23.3485 251.767 23.3864C251.108 23.4697 250.505 23.6098 249.96 23.8068C249.422 24.0038 248.99 24.2879 248.664 24.6591C248.346 25.0227 248.187 25.5076 248.187 26.1136C248.187 26.9545 248.498 27.5909 249.119 28.0227C249.74 28.447 250.532 28.6591 251.494 28.6591ZM263.894 31V13.5455H267.292V31H263.894ZM265.61 10.8523C265.019 10.8523 264.512 10.6553 264.088 10.2614C263.671 9.85985 263.463 9.38257 263.463 8.82954C263.463 8.26894 263.671 7.79167 264.088 7.39773C264.512 6.99621 265.019 6.79545 265.61 6.79545C266.201 6.79545 266.705 6.99621 267.122 7.39773C267.546 7.79167 267.758 8.26894 267.758 8.82954C267.758 9.38257 267.546 9.85985 267.122 10.2614C266.705 10.6553 266.201 10.8523 265.61 10.8523ZM275.261 20.6364V31H271.863V13.5455H275.125V16.3864H275.34C275.742 15.4621 276.371 14.7197 277.227 14.1591C278.09 13.5985 279.178 13.3182 280.488 13.3182C281.678 13.3182 282.719 13.5682 283.613 14.0682C284.507 14.5606 285.2 15.2955 285.693 16.2727C286.185 17.25 286.431 18.4583 286.431 19.8977V31H283.034V20.3068C283.034 19.0417 282.704 18.053 282.045 17.3409C281.386 16.6212 280.481 16.2614 279.329 16.2614C278.541 16.2614 277.84 16.4318 277.227 16.7727C276.621 17.1136 276.14 17.6136 275.784 18.2727C275.435 18.9242 275.261 19.7121 275.261 20.6364ZM303.241 7.72727V31H299.73V7.72727H303.241ZM308.082 31V13.5455H311.343V16.3864H311.559C311.923 15.4242 312.518 14.6742 313.343 14.1364C314.169 13.5909 315.158 13.3182 316.309 13.3182C317.476 13.3182 318.453 13.5909 319.241 14.1364C320.036 14.6818 320.624 15.4318 321.002 16.3864H321.184C321.601 15.4545 322.264 14.7121 323.173 14.1591C324.082 13.5985 325.165 13.3182 326.423 13.3182C328.006 13.3182 329.298 13.8144 330.298 14.8068C331.305 15.7992 331.809 17.2955 331.809 19.2955V31H328.411V19.6136C328.411 18.4318 328.09 17.5758 327.446 17.0455C326.802 16.5152 326.033 16.25 325.139 16.25C324.033 16.25 323.173 16.5909 322.559 17.2727C321.946 17.947 321.639 18.8144 321.639 19.875V31H318.252V19.3977C318.252 18.4508 317.957 17.6894 317.366 17.1136C316.775 16.5379 316.006 16.25 315.059 16.25C314.415 16.25 313.821 16.4205 313.275 16.7614C312.737 17.0947 312.302 17.5606 311.968 18.1591C311.643 18.7576 311.48 19.4508 311.48 20.2386V31H308.082ZM336.363 37.5455V13.5455H339.681V16.375H339.965C340.162 16.0114 340.447 15.5909 340.818 15.1136C341.189 14.6364 341.704 14.2197 342.363 13.8636C343.022 13.5 343.893 13.3182 344.977 13.3182C346.386 13.3182 347.643 13.6742 348.75 14.3864C349.856 15.0985 350.723 16.125 351.352 17.4659C351.988 18.8068 352.306 20.4205 352.306 22.3068C352.306 24.1932 351.992 25.8106 351.363 27.1591C350.734 28.5 349.871 29.5341 348.772 30.2614C347.674 30.9811 346.42 31.3409 345.011 31.3409C343.95 31.3409 343.083 31.1629 342.409 30.8068C341.742 30.4508 341.219 30.0341 340.84 29.5568C340.462 29.0795 340.17 28.6553 339.965 28.2841H339.761V37.5455H336.363ZM339.693 22.2727C339.693 23.5 339.871 24.5758 340.227 25.5C340.583 26.4242 341.098 27.1477 341.772 27.6705C342.447 28.1856 343.272 28.4432 344.25 28.4432C345.265 28.4432 346.113 28.1742 346.795 27.6364C347.477 27.0909 347.992 26.3523 348.34 25.4205C348.697 24.4886 348.875 23.4394 348.875 22.2727C348.875 21.1212 348.7 20.0871 348.352 19.1705C348.011 18.2538 347.496 17.5303 346.806 17C346.125 16.4697 345.272 16.2045 344.25 16.2045C343.265 16.2045 342.431 16.4583 341.75 16.9659C341.075 17.4735 340.564 18.1818 340.215 19.0909C339.867 20 339.693 21.0606 339.693 22.2727ZM359.511 7.72727V31H356.113V7.72727H359.511ZM371.605 31.3523C369.885 31.3523 368.404 30.9848 367.161 30.25C365.927 29.5076 364.972 28.4659 364.298 27.125C363.631 25.7765 363.298 24.197 363.298 22.3864C363.298 20.5985 363.631 19.0227 364.298 17.6591C364.972 16.2955 365.911 15.2311 367.116 14.4659C368.328 13.7008 369.745 13.3182 371.366 13.3182C372.351 13.3182 373.305 13.4811 374.23 13.8068C375.154 14.1326 375.983 14.6439 376.718 15.3409C377.453 16.0379 378.033 16.9432 378.457 18.0568C378.881 19.1629 379.093 20.5076 379.093 22.0909V23.2955H365.218V20.75H375.764C375.764 19.8561 375.582 19.0644 375.218 18.375C374.855 17.678 374.343 17.1288 373.684 16.7273C373.033 16.3258 372.268 16.125 371.389 16.125C370.434 16.125 369.601 16.3598 368.889 16.8295C368.184 17.2917 367.639 17.8977 367.252 18.6477C366.874 19.3902 366.684 20.197 366.684 21.0682V23.0568C366.684 24.2235 366.889 25.2159 367.298 26.0341C367.715 26.8523 368.294 27.4773 369.036 27.9091C369.779 28.3333 370.646 28.5455 371.639 28.5455C372.283 28.5455 372.87 28.4545 373.4 28.2727C373.93 28.0833 374.389 27.803 374.775 27.4318C375.161 27.0606 375.457 26.6023 375.661 26.0568L378.877 26.6364C378.62 27.5833 378.158 28.4129 377.491 29.125C376.832 29.8295 376.002 30.3788 375.002 30.7727C374.01 31.1591 372.877 31.3523 371.605 31.3523ZM382.863 31V13.5455H386.125V16.3864H386.34C386.704 15.4242 387.299 14.6742 388.125 14.1364C388.95 13.5909 389.939 13.3182 391.09 13.3182C392.257 13.3182 393.234 13.5909 394.022 14.1364C394.818 14.6818 395.405 15.4318 395.784 16.3864H395.965C396.382 15.4545 397.045 14.7121 397.954 14.1591C398.863 13.5985 399.947 13.3182 401.204 13.3182C402.787 13.3182 404.079 13.8144 405.079 14.8068C406.087 15.7992 406.59 17.2955 406.59 19.2955V31H403.193V19.6136C403.193 18.4318 402.871 17.5758 402.227 17.0455C401.583 16.5152 400.814 16.25 399.92 16.25C398.814 16.25 397.954 16.5909 397.34 17.2727C396.727 17.947 396.42 18.8144 396.42 19.875V31H393.034V19.3977C393.034 18.4508 392.738 17.6894 392.147 17.1136C391.556 16.5379 390.787 16.25 389.84 16.25C389.197 16.25 388.602 16.4205 388.056 16.7614C387.518 17.0947 387.083 17.5606 386.75 18.1591C386.424 18.7576 386.261 19.4508 386.261 20.2386V31H382.863ZM418.667 31.3523C416.947 31.3523 415.466 30.9848 414.224 30.25C412.989 29.5076 412.035 28.4659 411.36 27.125C410.694 25.7765 410.36 24.197 410.36 22.3864C410.36 20.5985 410.694 19.0227 411.36 17.6591C412.035 16.2955 412.974 15.2311 414.179 14.4659C415.391 13.7008 416.807 13.3182 418.429 13.3182C419.413 13.3182 420.368 13.4811 421.292 13.8068C422.216 14.1326 423.046 14.6439 423.781 15.3409C424.516 16.0379 425.095 16.9432 425.519 18.0568C425.944 19.1629 426.156 20.5076 426.156 22.0909V23.2955H412.281V20.75H422.826C422.826 19.8561 422.644 19.0644 422.281 18.375C421.917 17.678 421.406 17.1288 420.747 16.7273C420.095 16.3258 419.33 16.125 418.451 16.125C417.497 16.125 416.663 16.3598 415.951 16.8295C415.247 17.2917 414.701 17.8977 414.315 18.6477C413.936 19.3902 413.747 20.197 413.747 21.0682V23.0568C413.747 24.2235 413.951 25.2159 414.36 26.0341C414.777 26.8523 415.357 27.4773 416.099 27.9091C416.841 28.3333 417.709 28.5455 418.701 28.5455C419.345 28.5455 419.932 28.4545 420.463 28.2727C420.993 28.0833 421.451 27.803 421.838 27.4318C422.224 27.0606 422.519 26.6023 422.724 26.0568L425.94 26.6364C425.682 27.5833 425.22 28.4129 424.554 29.125C423.894 29.8295 423.065 30.3788 422.065 30.7727C421.072 31.1591 419.94 31.3523 418.667 31.3523ZM433.323 20.6364V31H429.926V13.5455H433.187V16.3864H433.403C433.804 15.4621 434.433 14.7197 435.289 14.1591C436.153 13.5985 437.24 13.3182 438.551 13.3182C439.74 13.3182 440.782 13.5682 441.676 14.0682C442.57 14.5606 443.263 15.2955 443.755 16.2727C444.248 17.25 444.494 18.4583 444.494 19.8977V31H441.096V20.3068C441.096 19.0417 440.767 18.053 440.108 17.3409C439.448 16.6212 438.543 16.2614 437.392 16.2614C436.604 16.2614 435.903 16.4318 435.289 16.7727C434.683 17.1136 434.202 17.6136 433.846 18.2727C433.498 18.9242 433.323 19.7121 433.323 20.6364ZM457.198 13.5455V16.2727H447.664V13.5455H457.198ZM450.221 9.36364H453.619V25.875C453.619 26.5341 453.717 27.0303 453.914 27.3636C454.111 27.6894 454.365 27.9129 454.676 28.0341C454.994 28.1477 455.339 28.2045 455.71 28.2045C455.983 28.2045 456.221 28.1856 456.426 28.1477C456.63 28.1098 456.789 28.0795 456.903 28.0568L457.517 30.8636C457.32 30.9394 457.039 31.0152 456.676 31.0909C456.312 31.1742 455.858 31.2197 455.312 31.2273C454.418 31.2424 453.585 31.0833 452.812 30.75C452.039 30.4167 451.414 29.9015 450.937 29.2045C450.46 28.5076 450.221 27.6326 450.221 26.5795V9.36364ZM466.036 31.3864C464.93 31.3864 463.93 31.1818 463.036 30.7727C462.143 30.3561 461.434 29.7538 460.911 28.9659C460.396 28.178 460.139 27.2121 460.139 26.0682C460.139 25.0833 460.328 24.2727 460.707 23.6364C461.086 23 461.597 22.4962 462.241 22.125C462.885 21.7538 463.605 21.4735 464.4 21.2841C465.196 21.0947 466.006 20.9508 466.832 20.8523C467.877 20.7311 468.726 20.6326 469.377 20.5568C470.029 20.4735 470.502 20.3409 470.798 20.1591C471.093 19.9773 471.241 19.6818 471.241 19.2727V19.1932C471.241 18.2008 470.961 17.4318 470.4 16.8864C469.847 16.3409 469.021 16.0682 467.923 16.0682C466.779 16.0682 465.877 16.322 465.218 16.8295C464.567 17.3295 464.116 17.8864 463.866 18.5L460.673 17.7727C461.052 16.7121 461.605 15.8561 462.332 15.2045C463.067 14.5455 463.911 14.0682 464.866 13.7727C465.821 13.4697 466.824 13.3182 467.877 13.3182C468.574 13.3182 469.313 13.4015 470.093 13.5682C470.881 13.7273 471.616 14.0227 472.298 14.4545C472.987 14.8864 473.552 15.5038 473.991 16.3068C474.43 17.1023 474.65 18.1364 474.65 19.4091V31H471.332V28.6136H471.196C470.976 29.053 470.646 29.4848 470.207 29.9091C469.768 30.3333 469.203 30.6856 468.514 30.9659C467.824 31.2462 466.999 31.3864 466.036 31.3864ZM466.775 28.6591C467.715 28.6591 468.518 28.4735 469.184 28.1023C469.858 27.7311 470.37 27.2462 470.718 26.6477C471.074 26.0417 471.252 25.3939 471.252 24.7045V22.4545C471.131 22.5758 470.896 22.6894 470.548 22.7955C470.207 22.8939 469.817 22.9811 469.377 23.0568C468.938 23.125 468.51 23.1894 468.093 23.25C467.677 23.303 467.328 23.3485 467.048 23.3864C466.389 23.4697 465.786 23.6098 465.241 23.8068C464.703 24.0038 464.271 24.2879 463.946 24.6591C463.627 25.0227 463.468 25.5076 463.468 26.1136C463.468 26.9545 463.779 27.5909 464.4 28.0227C465.021 28.447 465.813 28.6591 466.775 28.6591ZM487.323 13.5455V16.2727H477.789V13.5455H487.323ZM480.346 9.36364H483.744V25.875C483.744 26.5341 483.842 27.0303 484.039 27.3636C484.236 27.6894 484.49 27.9129 484.801 28.0341C485.119 28.1477 485.464 28.2045 485.835 28.2045C486.108 28.2045 486.346 28.1856 486.551 28.1477C486.755 28.1098 486.914 28.0795 487.028 28.0568L487.642 30.8636C487.445 30.9394 487.164 31.0152 486.801 31.0909C486.437 31.1742 485.983 31.2197 485.437 31.2273C484.543 31.2424 483.71 31.0833 482.937 30.75C482.164 30.4167 481.539 29.9015 481.062 29.2045C480.585 28.5076 480.346 27.6326 480.346 26.5795V9.36364ZM491.082 31V13.5455H494.48V31H491.082ZM492.798 10.8523C492.207 10.8523 491.699 10.6553 491.275 10.2614C490.858 9.85985 490.65 9.38257 490.65 8.82954C490.65 8.26894 490.858 7.79167 491.275 7.39773C491.699 6.99621 492.207 6.79545 492.798 6.79545C493.389 6.79545 493.893 6.99621 494.309 7.39773C494.733 7.79167 494.946 8.26894 494.946 8.82954C494.946 9.38257 494.733 9.85985 494.309 10.2614C493.893 10.6553 493.389 10.8523 492.798 10.8523ZM506.403 31.3523C504.767 31.3523 503.339 30.9773 502.119 30.2273C500.899 29.4773 499.952 28.428 499.278 27.0795C498.604 25.7311 498.267 24.1553 498.267 22.3523C498.267 20.5417 498.604 18.9583 499.278 17.6023C499.952 16.2462 500.899 15.1932 502.119 14.4432C503.339 13.6932 504.767 13.3182 506.403 13.3182C508.039 13.3182 509.467 13.6932 510.687 14.4432C511.907 15.1932 512.854 16.2462 513.528 17.6023C514.202 18.9583 514.539 20.5417 514.539 22.3523C514.539 24.1553 514.202 25.7311 513.528 27.0795C512.854 28.428 511.907 29.4773 510.687 30.2273C509.467 30.9773 508.039 31.3523 506.403 31.3523ZM506.414 28.5C507.475 28.5 508.354 28.2197 509.051 27.6591C509.748 27.0985 510.263 26.3523 510.596 25.4205C510.937 24.4886 511.108 23.4621 511.108 22.3409C511.108 21.2273 510.937 20.2045 510.596 19.2727C510.263 18.3333 509.748 17.5795 509.051 17.0114C508.354 16.4432 507.475 16.1591 506.414 16.1591C505.346 16.1591 504.46 16.4432 503.755 17.0114C503.058 17.5795 502.539 18.3333 502.198 19.2727C501.865 20.2045 501.698 21.2273 501.698 22.3409C501.698 23.4621 501.865 24.4886 502.198 25.4205C502.539 26.3523 503.058 27.0985 503.755 27.6591C504.46 28.2197 505.346 28.5 506.414 28.5ZM521.73 20.6364V31H518.332V13.5455H521.593V16.3864H521.809C522.211 15.4621 522.84 14.7197 523.696 14.1591C524.559 13.5985 525.646 13.3182 526.957 13.3182C528.146 13.3182 529.188 13.5682 530.082 14.0682C530.976 14.5606 531.669 15.2955 532.161 16.2727C532.654 17.25 532.9 18.4583 532.9 19.8977V31H529.502V20.3068C529.502 19.0417 529.173 18.053 528.514 17.3409C527.855 16.6212 526.949 16.2614 525.798 16.2614C525.01 16.2614 524.309 16.4318 523.696 16.7727C523.09 17.1136 522.608 17.6136 522.252 18.2727C521.904 18.9242 521.73 19.7121 521.73 20.6364ZM549.71 31L544.573 13.5455H548.085L551.505 26.3636H551.676L555.108 13.5455H558.619L562.028 26.3068H562.198L565.596 13.5455H569.108L563.983 31H560.517L556.971 18.3977H556.71L553.164 31H549.71ZM572.332 31V13.5455H575.73V31H572.332ZM574.048 10.8523C573.457 10.8523 572.949 10.6553 572.525 10.2614C572.108 9.85985 571.9 9.38257 571.9 8.82954C571.9 8.26894 572.108 7.79167 572.525 7.39773C572.949 6.99621 573.457 6.79545 574.048 6.79545C574.639 6.79545 575.143 6.99621 575.559 7.39773C575.983 7.79167 576.196 8.26894 576.196 8.82954C576.196 9.38257 575.983 9.85985 575.559 10.2614C575.143 10.6553 574.639 10.8523 574.048 10.8523ZM588.448 13.5455V16.2727H578.914V13.5455H588.448ZM581.471 9.36364H584.869V25.875C584.869 26.5341 584.967 27.0303 585.164 27.3636C585.361 27.6894 585.615 27.9129 585.926 28.0341C586.244 28.1477 586.589 28.2045 586.96 28.2045C587.233 28.2045 587.471 28.1856 587.676 28.1477C587.88 28.1098 588.039 28.0795 588.153 28.0568L588.767 30.8636C588.57 30.9394 588.289 31.0152 587.926 31.0909C587.562 31.1742 587.108 31.2197 586.562 31.2273C585.668 31.2424 584.835 31.0833 584.062 30.75C583.289 30.4167 582.664 29.9015 582.187 29.2045C581.71 28.5076 581.471 27.6326 581.471 26.5795V9.36364ZM595.98 20.6364V31H592.582V7.72727H595.934V16.3864H596.15C596.559 15.447 597.184 14.7008 598.025 14.1477C598.866 13.5947 599.965 13.3182 601.321 13.3182C602.518 13.3182 603.563 13.5644 604.457 14.0568C605.358 14.5492 606.055 15.2841 606.548 16.2614C607.048 17.2311 607.298 18.4432 607.298 19.8977V31H603.9V20.3068C603.9 19.0265 603.571 18.0341 602.911 17.3295C602.252 16.6174 601.336 16.2614 600.161 16.2614C599.358 16.2614 598.639 16.4318 598.002 16.7727C597.374 17.1136 596.877 17.6136 596.514 18.2727C596.158 18.9242 595.98 19.7121 595.98 20.6364ZM119.761 70V46.7273H134.352V49.75H123.272V56.8409H133.59V59.8523H123.272V66.9773H134.488V70H119.761ZM146.917 52.5455V55.2727H137.383V52.5455H146.917ZM139.94 48.3636H143.338V64.875C143.338 65.5341 143.436 66.0303 143.633 66.3636C143.83 66.6894 144.084 66.9129 144.394 67.0341C144.713 67.1477 145.057 67.2045 145.429 67.2045C145.701 67.2045 145.94 67.1856 146.144 67.1477C146.349 67.1098 146.508 67.0795 146.622 67.0568L147.235 69.8636C147.038 69.9394 146.758 70.0152 146.394 70.0909C146.031 70.1742 145.576 70.2197 145.031 70.2273C144.137 70.2424 143.304 70.0833 142.531 69.75C141.758 69.4167 141.133 68.9015 140.656 68.2045C140.179 67.5076 139.94 66.6326 139.94 65.5795V48.3636ZM154.448 59.6364V70H151.051V46.7273H154.403V55.3864H154.619C155.028 54.447 155.653 53.7008 156.494 53.1477C157.335 52.5947 158.433 52.3182 159.789 52.3182C160.986 52.3182 162.032 52.5644 162.926 53.0568C163.827 53.5492 164.524 54.2841 165.017 55.2614C165.517 56.2311 165.767 57.4432 165.767 58.8977V70H162.369V59.3068C162.369 58.0265 162.039 57.0341 161.38 56.3295C160.721 55.6174 159.804 55.2614 158.63 55.2614C157.827 55.2614 157.108 55.4318 156.471 55.7727C155.842 56.1136 155.346 56.6136 154.983 57.2727C154.626 57.9242 154.448 58.7121 154.448 59.6364ZM177.823 70.3523C176.104 70.3523 174.623 69.9848 173.38 69.25C172.145 68.5076 171.191 67.4659 170.517 66.125C169.85 64.7765 169.517 63.197 169.517 61.3864C169.517 59.5985 169.85 58.0227 170.517 56.6591C171.191 55.2955 172.13 54.2311 173.335 53.4659C174.547 52.7008 175.964 52.3182 177.585 52.3182C178.57 52.3182 179.524 52.4811 180.448 52.8068C181.373 53.1326 182.202 53.6439 182.937 54.3409C183.672 55.0379 184.251 55.9432 184.676 57.0568C185.1 58.1629 185.312 59.5076 185.312 61.0909V62.2955H171.437V59.75H181.983C181.983 58.8561 181.801 58.0644 181.437 57.375C181.073 56.678 180.562 56.1288 179.903 55.7273C179.251 55.3258 178.486 55.125 177.608 55.125C176.653 55.125 175.82 55.3598 175.108 55.8295C174.403 56.2917 173.858 56.8977 173.471 57.6477C173.092 58.3902 172.903 59.197 172.903 60.0682V62.0568C172.903 63.2235 173.108 64.2159 173.517 65.0341C173.933 65.8523 174.513 66.4773 175.255 66.9091C175.998 67.3333 176.865 67.5455 177.858 67.5455C178.501 67.5455 179.089 67.4545 179.619 67.2727C180.149 67.0833 180.608 66.803 180.994 66.4318C181.38 66.0606 181.676 65.6023 181.88 65.0568L185.096 65.6364C184.839 66.5833 184.376 67.4129 183.71 68.125C183.051 68.8295 182.221 69.3788 181.221 69.7727C180.229 70.1591 179.096 70.3523 177.823 70.3523ZM189.082 70V52.5455H192.366V55.3182H192.548C192.866 54.3788 193.427 53.6402 194.23 53.1023C195.04 52.5568 195.957 52.2841 196.98 52.2841C197.192 52.2841 197.442 52.2917 197.73 52.3068C198.025 52.322 198.256 52.3409 198.423 52.3636V55.6136C198.286 55.5758 198.044 55.5341 197.696 55.4886C197.347 55.4356 196.999 55.4091 196.65 55.4091C195.847 55.4091 195.131 55.5795 194.502 55.9205C193.881 56.2538 193.389 56.7197 193.025 57.3182C192.661 57.9091 192.48 58.5833 192.48 59.3409V70H189.082ZM208.261 70.3523C206.541 70.3523 205.06 69.9848 203.818 69.25C202.583 68.5076 201.628 67.4659 200.954 66.125C200.287 64.7765 199.954 63.197 199.954 61.3864C199.954 59.5985 200.287 58.0227 200.954 56.6591C201.628 55.2955 202.568 54.2311 203.772 53.4659C204.984 52.7008 206.401 52.3182 208.022 52.3182C209.007 52.3182 209.962 52.4811 210.886 52.8068C211.81 53.1326 212.64 53.6439 213.375 54.3409C214.109 55.0379 214.689 55.9432 215.113 57.0568C215.537 58.1629 215.75 59.5076 215.75 61.0909V62.2955H201.875V59.75H212.42C212.42 58.8561 212.238 58.0644 211.875 57.375C211.511 56.678 211 56.1288 210.34 55.7273C209.689 55.3258 208.924 55.125 208.045 55.125C207.09 55.125 206.257 55.3598 205.545 55.8295C204.84 56.2917 204.295 56.8977 203.909 57.6477C203.53 58.3902 203.34 59.197 203.34 60.0682V62.0568C203.34 63.2235 203.545 64.2159 203.954 65.0341C204.371 65.8523 204.95 66.4773 205.693 66.9091C206.435 67.3333 207.303 67.5455 208.295 67.5455C208.939 67.5455 209.526 67.4545 210.056 67.2727C210.587 67.0833 211.045 66.803 211.431 66.4318C211.818 66.0606 212.113 65.6023 212.318 65.0568L215.534 65.6364C215.276 66.5833 214.814 67.4129 214.147 68.125C213.488 68.8295 212.659 69.3788 211.659 69.7727C210.666 70.1591 209.534 70.3523 208.261 70.3523ZM230.576 62.7614V52.5455H233.985V70H230.644V66.9773H230.463C230.061 67.9091 229.417 68.6856 228.531 69.3068C227.652 69.9205 226.557 70.2273 225.247 70.2273C224.126 70.2273 223.133 69.9811 222.269 69.4886C221.413 68.9886 220.739 68.25 220.247 67.2727C219.762 66.2955 219.519 65.0871 219.519 63.6477V52.5455H222.917V63.2386C222.917 64.428 223.247 65.375 223.906 66.0795C224.565 66.7841 225.421 67.1364 226.474 67.1364C227.11 67.1364 227.743 66.9773 228.372 66.6591C229.008 66.3409 229.535 65.8598 229.951 65.2159C230.376 64.572 230.584 63.7538 230.576 62.7614ZM238.551 70V52.5455H241.812V55.3864H242.028C242.392 54.4242 242.986 53.6742 243.812 53.1364C244.638 52.5909 245.626 52.3182 246.778 52.3182C247.945 52.3182 248.922 52.5909 249.71 53.1364C250.505 53.6818 251.092 54.4318 251.471 55.3864H251.653C252.07 54.4545 252.733 53.7121 253.642 53.1591C254.551 52.5985 255.634 52.3182 256.892 52.3182C258.475 52.3182 259.767 52.8144 260.767 53.8068C261.774 54.7992 262.278 56.2955 262.278 58.2955V70H258.88V58.6136C258.88 57.4318 258.558 56.5758 257.914 56.0455C257.27 55.5152 256.501 55.25 255.608 55.25C254.501 55.25 253.642 55.5909 253.028 56.2727C252.414 56.947 252.108 57.8144 252.108 58.875V70H248.721V58.3977C248.721 57.4508 248.426 56.6894 247.835 56.1136C247.244 55.5379 246.475 55.25 245.528 55.25C244.884 55.25 244.289 55.4205 243.744 55.7614C243.206 56.0947 242.77 56.5606 242.437 57.1591C242.111 57.7576 241.948 58.4508 241.948 59.2386V70H238.551ZM93.2126 104.727C92.296 104.727 91.4588 104.504 90.7013 104.057C89.9437 103.602 89.3376 102.996 88.8831 102.239C88.4361 101.481 88.2126 100.644 88.2126 99.7273C88.2126 98.803 88.4361 97.9659 88.8831 97.2159C89.3376 96.4583 89.9437 95.8561 90.7013 95.4091C91.4588 94.9545 92.296 94.7273 93.2126 94.7273C94.1369 94.7273 94.974 94.9545 95.724 95.4091C96.4816 95.8561 97.0838 96.4583 97.5308 97.2159C97.9854 97.9659 98.2126 98.803 98.2126 99.7273C98.2126 100.644 97.9854 101.481 97.5308 102.239C97.0838 102.996 96.4816 103.602 95.724 104.057C94.974 104.504 94.1369 104.727 93.2126 104.727ZM119.761 85.7273H124.022L131.431 103.818H131.704L139.113 85.7273H143.375V109H140.034V92.1591H139.818L132.954 108.966H130.181L123.318 92.1477H123.102V109H119.761V85.7273ZM159.264 101.761V91.5455H162.673V109H159.332V105.977H159.15C158.749 106.909 158.105 107.686 157.218 108.307C156.34 108.92 155.245 109.227 153.934 109.227C152.813 109.227 151.821 108.981 150.957 108.489C150.101 107.989 149.427 107.25 148.934 106.273C148.449 105.295 148.207 104.087 148.207 102.648V91.5455H151.605V102.239C151.605 103.428 151.934 104.375 152.593 105.08C153.252 105.784 154.108 106.136 155.161 106.136C155.798 106.136 156.43 105.977 157.059 105.659C157.696 105.341 158.222 104.86 158.639 104.216C159.063 103.572 159.271 102.754 159.264 101.761ZM180.318 95.8068L177.238 96.3523C177.109 95.9583 176.905 95.5833 176.625 95.2273C176.352 94.8712 175.981 94.5795 175.511 94.3523C175.041 94.125 174.454 94.0114 173.75 94.0114C172.787 94.0114 171.984 94.2273 171.34 94.6591C170.697 95.0833 170.375 95.6326 170.375 96.3068C170.375 96.8902 170.59 97.3598 171.022 97.7159C171.454 98.072 172.151 98.3636 173.113 98.5909L175.886 99.2273C177.492 99.5985 178.689 100.17 179.477 100.943C180.265 101.716 180.659 102.72 180.659 103.955C180.659 105 180.356 105.932 179.75 106.75C179.151 107.561 178.314 108.197 177.238 108.659C176.17 109.121 174.931 109.352 173.522 109.352C171.568 109.352 169.973 108.936 168.738 108.102C167.503 107.261 166.746 106.068 166.465 104.523L169.75 104.023C169.954 104.879 170.375 105.527 171.011 105.966C171.647 106.398 172.477 106.614 173.5 106.614C174.613 106.614 175.503 106.383 176.17 105.92C176.837 105.451 177.17 104.879 177.17 104.205C177.17 103.659 176.965 103.201 176.556 102.83C176.155 102.458 175.537 102.178 174.704 101.989L171.75 101.341C170.121 100.97 168.916 100.379 168.136 99.5682C167.363 98.7576 166.977 97.7311 166.977 96.4886C166.977 95.4583 167.265 94.5568 167.84 93.7841C168.416 93.0114 169.212 92.4091 170.227 91.9773C171.242 91.5379 172.405 91.3182 173.715 91.3182C175.602 91.3182 177.087 91.7273 178.17 92.5455C179.253 93.3561 179.969 94.4432 180.318 95.8068ZM184.394 109V91.5455H187.792V109H184.394ZM186.11 88.8523C185.519 88.8523 185.012 88.6553 184.588 88.2614C184.171 87.8598 183.963 87.3826 183.963 86.8295C183.963 86.2689 184.171 85.7917 184.588 85.3977C185.012 84.9962 185.519 84.7955 186.11 84.7955C186.701 84.7955 187.205 84.9962 187.622 85.3977C188.046 85.7917 188.258 86.2689 188.258 86.8295C188.258 87.3826 188.046 87.8598 187.622 88.2614C187.205 88.6553 186.701 88.8523 186.11 88.8523ZM199.715 109.352C198.026 109.352 196.572 108.97 195.352 108.205C194.14 107.432 193.208 106.367 192.556 105.011C191.905 103.655 191.579 102.102 191.579 100.352C191.579 98.5795 191.912 97.0152 192.579 95.6591C193.246 94.2955 194.185 93.2311 195.397 92.4659C196.609 91.7008 198.037 91.3182 199.681 91.3182C201.007 91.3182 202.189 91.5644 203.227 92.0568C204.265 92.5417 205.102 93.2235 205.738 94.1023C206.382 94.9811 206.765 96.0076 206.886 97.1818H203.579C203.397 96.3636 202.981 95.6591 202.329 95.0682C201.685 94.4773 200.822 94.1818 199.738 94.1818C198.791 94.1818 197.962 94.4318 197.25 94.9318C196.545 95.4242 195.996 96.1288 195.602 97.0455C195.208 97.9545 195.011 99.0303 195.011 100.273C195.011 101.545 195.204 102.644 195.59 103.568C195.977 104.492 196.522 105.208 197.227 105.716C197.939 106.223 198.776 106.477 199.738 106.477C200.382 106.477 200.965 106.36 201.488 106.125C202.018 105.883 202.462 105.538 202.818 105.091C203.181 104.644 203.435 104.106 203.579 103.477H206.886C206.765 104.606 206.397 105.614 205.784 106.5C205.17 107.386 204.348 108.083 203.318 108.591C202.295 109.098 201.094 109.352 199.715 109.352ZM238.045 85.7273V109H234.818L222.988 91.9318H222.772V109H219.261V85.7273H222.511L234.352 102.818H234.568V85.7273H238.045ZM243.167 109V85.7273H257.599V88.75H246.679V95.8409H256.565V98.8523H246.679V109H243.167ZM260.769 88.75V85.7273H278.781V88.75H271.519V109H268.019V88.75H260.769ZM291.23 109V85.7273H294.741V105.977H305.286V109H291.23ZM314.099 109.386C312.993 109.386 311.993 109.182 311.099 108.773C310.205 108.356 309.497 107.754 308.974 106.966C308.459 106.178 308.201 105.212 308.201 104.068C308.201 103.083 308.391 102.273 308.769 101.636C309.148 101 309.66 100.496 310.304 100.125C310.947 99.7538 311.667 99.4735 312.463 99.2841C313.258 99.0947 314.069 98.9508 314.894 98.8523C315.94 98.7311 316.788 98.6326 317.44 98.5568C318.091 98.4735 318.565 98.3409 318.86 98.1591C319.156 97.9773 319.304 97.6818 319.304 97.2727V97.1932C319.304 96.2008 319.023 95.4318 318.463 94.8864C317.91 94.3409 317.084 94.0682 315.985 94.0682C314.841 94.0682 313.94 94.322 313.281 94.8295C312.629 95.3295 312.179 95.8864 311.929 96.5L308.735 95.7727C309.114 94.7121 309.667 93.8561 310.394 93.2045C311.129 92.5455 311.974 92.0682 312.929 91.7727C313.883 91.4697 314.887 91.3182 315.94 91.3182C316.637 91.3182 317.376 91.4015 318.156 91.5682C318.944 91.7273 319.679 92.0227 320.36 92.4545C321.05 92.8864 321.614 93.5038 322.054 94.3068C322.493 95.1023 322.713 96.1364 322.713 97.4091V109H319.394V106.614H319.258C319.038 107.053 318.709 107.485 318.269 107.909C317.83 108.333 317.266 108.686 316.576 108.966C315.887 109.246 315.061 109.386 314.099 109.386ZM314.838 106.659C315.777 106.659 316.58 106.473 317.247 106.102C317.921 105.731 318.432 105.246 318.781 104.648C319.137 104.042 319.315 103.394 319.315 102.705V100.455C319.194 100.576 318.959 100.689 318.61 100.795C318.269 100.894 317.879 100.981 317.44 101.057C317.001 101.125 316.572 101.189 316.156 101.25C315.739 101.303 315.391 101.348 315.11 101.386C314.451 101.47 313.849 101.61 313.304 101.807C312.766 102.004 312.334 102.288 312.008 102.659C311.69 103.023 311.531 103.508 311.531 104.114C311.531 104.955 311.841 105.591 312.463 106.023C313.084 106.447 313.876 106.659 314.838 106.659ZM338.295 101.761V91.5455H341.704V109H338.363V105.977H338.181C337.78 106.909 337.136 107.686 336.25 108.307C335.371 108.92 334.276 109.227 332.965 109.227C331.844 109.227 330.852 108.981 329.988 108.489C329.132 107.989 328.458 107.25 327.965 106.273C327.481 105.295 327.238 104.087 327.238 102.648V91.5455H330.636V102.239C330.636 103.428 330.965 104.375 331.625 105.08C332.284 105.784 333.14 106.136 334.193 106.136C334.829 106.136 335.462 105.977 336.09 105.659C336.727 105.341 337.253 104.86 337.67 104.216C338.094 103.572 338.303 102.754 338.295 101.761ZM349.667 98.6364V109H346.269V91.5455H349.531V94.3864H349.747C350.148 93.4621 350.777 92.7197 351.633 92.1591C352.497 91.5985 353.584 91.3182 354.894 91.3182C356.084 91.3182 357.126 91.5682 358.019 92.0682C358.913 92.5606 359.607 93.2955 360.099 94.2727C360.591 95.25 360.838 96.4583 360.838 97.8977V109H357.44V98.3068C357.44 97.0417 357.11 96.053 356.451 95.3409C355.792 94.6212 354.887 94.2614 353.735 94.2614C352.947 94.2614 352.247 94.4318 351.633 94.7727C351.027 95.1136 350.546 95.6136 350.19 96.2727C349.841 96.9242 349.667 97.7121 349.667 98.6364ZM372.747 109.352C371.057 109.352 369.603 108.97 368.383 108.205C367.171 107.432 366.239 106.367 365.588 105.011C364.936 103.655 364.61 102.102 364.61 100.352C364.61 98.5795 364.944 97.0152 365.61 95.6591C366.277 94.2955 367.216 93.2311 368.429 92.4659C369.641 91.7008 371.069 91.3182 372.713 91.3182C374.038 91.3182 375.22 91.5644 376.258 92.0568C377.296 92.5417 378.133 93.2235 378.769 94.1023C379.413 94.9811 379.796 96.0076 379.917 97.1818H376.61C376.429 96.3636 376.012 95.6591 375.36 95.0682C374.716 94.4773 373.853 94.1818 372.769 94.1818C371.822 94.1818 370.993 94.4318 370.281 94.9318C369.576 95.4242 369.027 96.1288 368.633 97.0455C368.239 97.9545 368.042 99.0303 368.042 100.273C368.042 101.545 368.235 102.644 368.622 103.568C369.008 104.492 369.554 105.208 370.258 105.716C370.97 106.223 371.807 106.477 372.769 106.477C373.413 106.477 373.997 106.36 374.519 106.125C375.05 105.883 375.493 105.538 375.849 105.091C376.213 104.644 376.466 104.106 376.61 103.477H379.917C379.796 104.606 379.429 105.614 378.815 106.5C378.201 107.386 377.379 108.083 376.349 108.591C375.326 109.098 374.126 109.352 372.747 109.352ZM386.948 98.6364V109H383.551V85.7273H386.903V94.3864H387.119C387.528 93.447 388.153 92.7008 388.994 92.1477C389.835 91.5947 390.933 91.3182 392.289 91.3182C393.486 91.3182 394.532 91.5644 395.426 92.0568C396.327 92.5492 397.024 93.2841 397.517 94.2614C398.017 95.2311 398.267 96.4432 398.267 97.8977V109H394.869V98.3068C394.869 97.0265 394.539 96.0341 393.88 95.3295C393.221 94.6174 392.304 94.2614 391.13 94.2614C390.327 94.2614 389.608 94.4318 388.971 94.7727C388.342 95.1136 387.846 95.6136 387.483 96.2727C387.126 96.9242 386.948 97.7121 386.948 98.6364ZM402.801 115.545V91.5455H406.119V94.375H406.403C406.6 94.0114 406.884 93.5909 407.255 93.1136C407.626 92.6364 408.142 92.2197 408.801 91.8636C409.46 91.5 410.331 91.3182 411.414 91.3182C412.823 91.3182 414.081 91.6742 415.187 92.3864C416.293 93.0985 417.161 94.125 417.789 95.4659C418.426 96.8068 418.744 98.4205 418.744 100.307C418.744 102.193 418.429 103.811 417.801 105.159C417.172 106.5 416.308 107.534 415.21 108.261C414.111 108.981 412.858 109.341 411.448 109.341C410.388 109.341 409.52 109.163 408.846 108.807C408.179 108.451 407.657 108.034 407.278 107.557C406.899 107.08 406.608 106.655 406.403 106.284H406.198V115.545H402.801ZM406.13 100.273C406.13 101.5 406.308 102.576 406.664 103.5C407.02 104.424 407.536 105.148 408.21 105.67C408.884 106.186 409.71 106.443 410.687 106.443C411.702 106.443 412.551 106.174 413.233 105.636C413.914 105.091 414.429 104.352 414.778 103.42C415.134 102.489 415.312 101.439 415.312 100.273C415.312 99.1212 415.138 98.0871 414.789 97.1705C414.448 96.2538 413.933 95.5303 413.244 95C412.562 94.4697 411.71 94.2045 410.687 94.2045C409.702 94.2045 408.869 94.4583 408.187 94.9659C407.513 95.4735 407.001 96.1818 406.653 97.0909C406.304 98 406.13 99.0606 406.13 100.273ZM427.63 109.386C426.524 109.386 425.524 109.182 424.63 108.773C423.736 108.356 423.028 107.754 422.505 106.966C421.99 106.178 421.733 105.212 421.733 104.068C421.733 103.083 421.922 102.273 422.301 101.636C422.679 101 423.191 100.496 423.835 100.125C424.479 99.7538 425.198 99.4735 425.994 99.2841C426.789 99.0947 427.6 98.9508 428.426 98.8523C429.471 98.7311 430.32 98.6326 430.971 98.5568C431.623 98.4735 432.096 98.3409 432.392 98.1591C432.687 97.9773 432.835 97.6818 432.835 97.2727V97.1932C432.835 96.2008 432.554 95.4318 431.994 94.8864C431.441 94.3409 430.615 94.0682 429.517 94.0682C428.373 94.0682 427.471 94.322 426.812 94.8295C426.161 95.3295 425.71 95.8864 425.46 96.5L422.267 95.7727C422.645 94.7121 423.198 93.8561 423.926 93.2045C424.661 92.5455 425.505 92.0682 426.46 91.7727C427.414 91.4697 428.418 91.3182 429.471 91.3182C430.168 91.3182 430.907 91.4015 431.687 91.5682C432.475 91.7273 433.21 92.0227 433.892 92.4545C434.581 92.8864 435.145 93.5038 435.585 94.3068C436.024 95.1023 436.244 96.1364 436.244 97.4091V109H432.926V106.614H432.789C432.57 107.053 432.24 107.485 431.801 107.909C431.361 108.333 430.797 108.686 430.108 108.966C429.418 109.246 428.592 109.386 427.63 109.386ZM428.369 106.659C429.308 106.659 430.111 106.473 430.778 106.102C431.452 105.731 431.964 105.246 432.312 104.648C432.668 104.042 432.846 103.394 432.846 102.705V100.455C432.725 100.576 432.49 100.689 432.142 100.795C431.801 100.894 431.411 100.981 430.971 101.057C430.532 101.125 430.104 101.189 429.687 101.25C429.27 101.303 428.922 101.348 428.642 101.386C427.983 101.47 427.38 101.61 426.835 101.807C426.297 102.004 425.865 102.288 425.539 102.659C425.221 103.023 425.062 103.508 425.062 104.114C425.062 104.955 425.373 105.591 425.994 106.023C426.615 106.447 427.407 106.659 428.369 106.659ZM447.304 109.341C445.894 109.341 444.637 108.981 443.531 108.261C442.432 107.534 441.569 106.5 440.94 105.159C440.319 103.811 440.008 102.193 440.008 100.307C440.008 98.4205 440.322 96.8068 440.951 95.4659C441.588 94.125 442.459 93.0985 443.565 92.3864C444.671 91.6742 445.925 91.3182 447.326 91.3182C448.41 91.3182 449.281 91.5 449.94 91.8636C450.607 92.2197 451.122 92.6364 451.485 93.1136C451.857 93.5909 452.144 94.0114 452.349 94.375H452.554V85.7273H455.951V109H452.633V106.284H452.349C452.144 106.655 451.849 107.08 451.463 107.557C451.084 108.034 450.561 108.451 449.894 108.807C449.228 109.163 448.364 109.341 447.304 109.341ZM448.054 106.443C449.031 106.443 449.857 106.186 450.531 105.67C451.213 105.148 451.728 104.424 452.076 103.5C452.432 102.576 452.61 101.5 452.61 100.273C452.61 99.0606 452.436 98 452.088 97.0909C451.739 96.1818 451.228 95.4735 450.554 94.9659C449.879 94.4583 449.046 94.2045 448.054 94.2045C447.031 94.2045 446.179 94.4697 445.497 95C444.815 95.5303 444.3 96.2538 443.951 97.1705C443.61 98.0871 443.44 99.1212 443.44 100.273C443.44 101.439 443.614 102.489 443.963 103.42C444.311 104.352 444.826 105.091 445.508 105.636C446.197 106.174 447.046 106.443 448.054 106.443ZM93.2126 143.727C92.296 143.727 91.4588 143.504 90.7013 143.057C89.9437 142.602 89.3376 141.996 88.8831 141.239C88.4361 140.481 88.2126 139.644 88.2126 138.727C88.2126 137.803 88.4361 136.966 88.8831 136.216C89.3376 135.458 89.9437 134.856 90.7013 134.409C91.4588 133.955 92.296 133.727 93.2126 133.727C94.1369 133.727 94.974 133.955 95.724 134.409C96.4816 134.856 97.0838 135.458 97.5308 136.216C97.9854 136.966 98.2126 137.803 98.2126 138.727C98.2126 139.644 97.9854 140.481 97.5308 141.239C97.0838 141.996 96.4816 142.602 95.724 143.057C94.974 143.504 94.1369 143.727 93.2126 143.727ZM138.545 124.727V148H135.318L123.488 130.932H123.272V148H119.761V124.727H123.011L134.852 141.818H135.068V124.727H138.545ZM143.667 148V124.727H158.099V127.75H147.179V134.841H157.065V137.852H147.179V148H143.667ZM161.269 127.75V124.727H179.281V127.75H172.019V148H168.519V127.75H161.269ZM191.73 148V124.727H195.241V144.977H205.786V148H191.73ZM214.599 148.386C213.493 148.386 212.493 148.182 211.599 147.773C210.705 147.356 209.997 146.754 209.474 145.966C208.959 145.178 208.701 144.212 208.701 143.068C208.701 142.083 208.891 141.273 209.269 140.636C209.648 140 210.16 139.496 210.804 139.125C211.447 138.754 212.167 138.473 212.963 138.284C213.758 138.095 214.569 137.951 215.394 137.852C216.44 137.731 217.288 137.633 217.94 137.557C218.591 137.473 219.065 137.341 219.36 137.159C219.656 136.977 219.804 136.682 219.804 136.273V136.193C219.804 135.201 219.523 134.432 218.963 133.886C218.41 133.341 217.584 133.068 216.485 133.068C215.341 133.068 214.44 133.322 213.781 133.83C213.129 134.33 212.679 134.886 212.429 135.5L209.235 134.773C209.614 133.712 210.167 132.856 210.894 132.205C211.629 131.545 212.474 131.068 213.429 130.773C214.383 130.47 215.387 130.318 216.44 130.318C217.137 130.318 217.876 130.402 218.656 130.568C219.444 130.727 220.179 131.023 220.86 131.455C221.55 131.886 222.114 132.504 222.554 133.307C222.993 134.102 223.213 135.136 223.213 136.409V148H219.894V145.614H219.758C219.538 146.053 219.209 146.485 218.769 146.909C218.33 147.333 217.766 147.686 217.076 147.966C216.387 148.246 215.561 148.386 214.599 148.386ZM215.338 145.659C216.277 145.659 217.08 145.473 217.747 145.102C218.421 144.731 218.932 144.246 219.281 143.648C219.637 143.042 219.815 142.394 219.815 141.705V139.455C219.694 139.576 219.459 139.689 219.11 139.795C218.769 139.894 218.379 139.981 217.94 140.057C217.501 140.125 217.072 140.189 216.656 140.25C216.239 140.303 215.891 140.348 215.61 140.386C214.951 140.47 214.349 140.61 213.804 140.807C213.266 141.004 212.834 141.288 212.508 141.659C212.19 142.023 212.031 142.508 212.031 143.114C212.031 143.955 212.341 144.591 212.963 145.023C213.584 145.447 214.376 145.659 215.338 145.659ZM231.136 137.636V148H227.738V130.545H231V133.386H231.215C231.617 132.462 232.246 131.72 233.102 131.159C233.965 130.598 235.053 130.318 236.363 130.318C237.553 130.318 238.594 130.568 239.488 131.068C240.382 131.561 241.075 132.295 241.568 133.273C242.06 134.25 242.306 135.458 242.306 136.898V148H238.909V137.307C238.909 136.042 238.579 135.053 237.92 134.341C237.261 133.621 236.356 133.261 235.204 133.261C234.416 133.261 233.715 133.432 233.102 133.773C232.496 134.114 232.015 134.614 231.659 135.273C231.31 135.924 231.136 136.712 231.136 137.636ZM253.397 148.341C251.988 148.341 250.731 147.981 249.625 147.261C248.526 146.534 247.662 145.5 247.034 144.159C246.412 142.811 246.102 141.193 246.102 139.307C246.102 137.42 246.416 135.807 247.045 134.466C247.681 133.125 248.553 132.098 249.659 131.386C250.765 130.674 252.018 130.318 253.42 130.318C254.503 130.318 255.375 130.5 256.034 130.864C256.7 131.22 257.215 131.636 257.579 132.114C257.95 132.591 258.238 133.011 258.443 133.375H258.647V124.727H262.045V148H258.727V145.284H258.443C258.238 145.655 257.943 146.08 257.556 146.557C257.178 147.034 256.655 147.451 255.988 147.807C255.322 148.163 254.458 148.341 253.397 148.341ZM254.147 145.443C255.125 145.443 255.95 145.186 256.625 144.67C257.306 144.148 257.822 143.424 258.17 142.5C258.526 141.576 258.704 140.5 258.704 139.273C258.704 138.061 258.53 137 258.181 136.091C257.833 135.182 257.322 134.473 256.647 133.966C255.973 133.458 255.14 133.205 254.147 133.205C253.125 133.205 252.272 133.47 251.59 134C250.909 134.53 250.393 135.254 250.045 136.17C249.704 137.087 249.534 138.121 249.534 139.273C249.534 140.439 249.708 141.489 250.056 142.42C250.405 143.352 250.92 144.091 251.602 144.636C252.291 145.174 253.14 145.443 254.147 145.443ZM266.894 148V130.545H270.292V148H266.894ZM268.61 127.852C268.019 127.852 267.512 127.655 267.088 127.261C266.671 126.86 266.463 126.383 266.463 125.83C266.463 125.269 266.671 124.792 267.088 124.398C267.512 123.996 268.019 123.795 268.61 123.795C269.201 123.795 269.705 123.996 270.122 124.398C270.546 124.792 270.758 125.269 270.758 125.83C270.758 126.383 270.546 126.86 270.122 127.261C269.705 127.655 269.201 127.852 268.61 127.852ZM278.261 137.636V148H274.863V130.545H278.125V133.386H278.34C278.742 132.462 279.371 131.72 280.227 131.159C281.09 130.598 282.178 130.318 283.488 130.318C284.678 130.318 285.719 130.568 286.613 131.068C287.507 131.561 288.2 132.295 288.693 133.273C289.185 134.25 289.431 135.458 289.431 136.898V148H286.034V137.307C286.034 136.042 285.704 135.053 285.045 134.341C284.386 133.621 283.481 133.261 282.329 133.261C281.541 133.261 280.84 133.432 280.227 133.773C279.621 134.114 279.14 134.614 278.784 135.273C278.435 135.924 278.261 136.712 278.261 137.636ZM301.306 154.909C299.92 154.909 298.727 154.727 297.727 154.364C296.734 154 295.924 153.519 295.295 152.92C294.666 152.322 294.197 151.667 293.886 150.955L296.806 149.75C297.011 150.083 297.284 150.436 297.625 150.807C297.973 151.186 298.443 151.508 299.034 151.773C299.632 152.038 300.401 152.17 301.34 152.17C302.628 152.17 303.693 151.856 304.534 151.227C305.375 150.606 305.795 149.614 305.795 148.25V144.818H305.579C305.375 145.189 305.079 145.602 304.693 146.057C304.314 146.511 303.791 146.905 303.125 147.239C302.458 147.572 301.59 147.739 300.522 147.739C299.143 147.739 297.901 147.417 296.795 146.773C295.697 146.121 294.825 145.163 294.181 143.898C293.545 142.625 293.227 141.061 293.227 139.205C293.227 137.348 293.541 135.758 294.17 134.432C294.806 133.106 295.678 132.091 296.784 131.386C297.89 130.674 299.143 130.318 300.545 130.318C301.628 130.318 302.503 130.5 303.17 130.864C303.837 131.22 304.356 131.636 304.727 132.114C305.106 132.591 305.397 133.011 305.602 133.375H305.852V130.545H309.181V148.386C309.181 149.886 308.833 151.117 308.136 152.08C307.439 153.042 306.496 153.754 305.306 154.216C304.125 154.678 302.791 154.909 301.306 154.909ZM301.272 144.92C302.25 144.92 303.075 144.693 303.75 144.239C304.431 143.777 304.947 143.117 305.295 142.261C305.651 141.398 305.829 140.364 305.829 139.159C305.829 137.985 305.655 136.951 305.306 136.057C304.958 135.163 304.447 134.466 303.772 133.966C303.098 133.458 302.265 133.205 301.272 133.205C300.25 133.205 299.397 133.47 298.715 134C298.034 134.523 297.518 135.235 297.17 136.136C296.829 137.038 296.659 138.045 296.659 139.159C296.659 140.303 296.833 141.307 297.181 142.17C297.53 143.034 298.045 143.708 298.727 144.193C299.416 144.678 300.265 144.92 301.272 144.92ZM322.48 148V124.727H331.002C332.654 124.727 334.021 125 335.105 125.545C336.188 126.083 336.999 126.814 337.536 127.739C338.074 128.655 338.343 129.689 338.343 130.841C338.343 131.811 338.165 132.629 337.809 133.295C337.453 133.955 336.976 134.485 336.377 134.886C335.786 135.28 335.135 135.568 334.423 135.75V135.977C335.196 136.015 335.949 136.265 336.684 136.727C337.427 137.182 338.04 137.83 338.525 138.67C339.01 139.511 339.252 140.534 339.252 141.739C339.252 142.928 338.972 143.996 338.411 144.943C337.858 145.883 337.002 146.629 335.843 147.182C334.684 147.727 333.203 148 331.4 148H322.48ZM325.991 144.989H331.059C332.741 144.989 333.946 144.663 334.673 144.011C335.4 143.36 335.764 142.545 335.764 141.568C335.764 140.833 335.578 140.159 335.207 139.545C334.836 138.932 334.305 138.443 333.616 138.08C332.934 137.716 332.124 137.534 331.184 137.534H325.991V144.989ZM325.991 134.795H330.696C331.483 134.795 332.192 134.644 332.821 134.341C333.457 134.038 333.961 133.614 334.332 133.068C334.711 132.515 334.9 131.864 334.9 131.114C334.9 130.152 334.563 129.345 333.889 128.693C333.215 128.042 332.18 127.716 330.786 127.716H325.991V134.795ZM350.497 148.352C348.86 148.352 347.432 147.977 346.213 147.227C344.993 146.477 344.046 145.428 343.372 144.08C342.697 142.731 342.36 141.155 342.36 139.352C342.36 137.542 342.697 135.958 343.372 134.602C344.046 133.246 344.993 132.193 346.213 131.443C347.432 130.693 348.86 130.318 350.497 130.318C352.133 130.318 353.561 130.693 354.781 131.443C356.001 132.193 356.947 133.246 357.622 134.602C358.296 135.958 358.633 137.542 358.633 139.352C358.633 141.155 358.296 142.731 357.622 144.08C356.947 145.428 356.001 146.477 354.781 147.227C353.561 147.977 352.133 148.352 350.497 148.352ZM350.508 145.5C351.569 145.5 352.447 145.22 353.144 144.659C353.841 144.098 354.357 143.352 354.69 142.42C355.031 141.489 355.201 140.462 355.201 139.341C355.201 138.227 355.031 137.205 354.69 136.273C354.357 135.333 353.841 134.58 353.144 134.011C352.447 133.443 351.569 133.159 350.508 133.159C349.44 133.159 348.554 133.443 347.849 134.011C347.152 134.58 346.633 135.333 346.292 136.273C345.959 137.205 345.792 138.227 345.792 139.341C345.792 140.462 345.959 141.489 346.292 142.42C346.633 143.352 347.152 144.098 347.849 144.659C348.554 145.22 349.44 145.5 350.508 145.5ZM362.426 148V130.545H365.71V133.318H365.892C366.21 132.379 366.77 131.64 367.573 131.102C368.384 130.557 369.301 130.284 370.323 130.284C370.536 130.284 370.786 130.292 371.073 130.307C371.369 130.322 371.6 130.341 371.767 130.364V133.614C371.63 133.576 371.388 133.534 371.039 133.489C370.691 133.436 370.342 133.409 369.994 133.409C369.191 133.409 368.475 133.58 367.846 133.92C367.225 134.254 366.733 134.72 366.369 135.318C366.005 135.909 365.823 136.583 365.823 137.341V148H362.426ZM374.707 148V130.545H377.991V133.318H378.173C378.491 132.379 379.052 131.64 379.855 131.102C380.665 130.557 381.582 130.284 382.605 130.284C382.817 130.284 383.067 130.292 383.355 130.307C383.65 130.322 383.881 130.341 384.048 130.364V133.614C383.911 133.576 383.669 133.534 383.321 133.489C382.972 133.436 382.624 133.409 382.275 133.409C381.472 133.409 380.756 133.58 380.127 133.92C379.506 134.254 379.014 134.72 378.65 135.318C378.286 135.909 378.105 136.583 378.105 137.341V148H374.707ZM393.715 148.352C392.079 148.352 390.651 147.977 389.431 147.227C388.212 146.477 387.265 145.428 386.59 144.08C385.916 142.731 385.579 141.155 385.579 139.352C385.579 137.542 385.916 135.958 386.59 134.602C387.265 133.246 388.212 132.193 389.431 131.443C390.651 130.693 392.079 130.318 393.715 130.318C395.352 130.318 396.78 130.693 398 131.443C399.219 132.193 400.166 133.246 400.84 134.602C401.515 135.958 401.852 137.542 401.852 139.352C401.852 141.155 401.515 142.731 400.84 144.08C400.166 145.428 399.219 146.477 398 147.227C396.78 147.977 395.352 148.352 393.715 148.352ZM393.727 145.5C394.787 145.5 395.666 145.22 396.363 144.659C397.06 144.098 397.575 143.352 397.909 142.42C398.25 141.489 398.42 140.462 398.42 139.341C398.42 138.227 398.25 137.205 397.909 136.273C397.575 135.333 397.06 134.58 396.363 134.011C395.666 133.443 394.787 133.159 393.727 133.159C392.659 133.159 391.772 133.443 391.068 134.011C390.371 134.58 389.852 135.333 389.511 136.273C389.178 137.205 389.011 138.227 389.011 139.341C389.011 140.462 389.178 141.489 389.511 142.42C389.852 143.352 390.371 144.098 391.068 144.659C391.772 145.22 392.659 145.5 393.727 145.5ZM408.897 148L403.761 130.545H407.272L410.693 143.364H410.863L414.295 130.545H417.806L421.215 143.307H421.386L424.784 130.545H428.295L423.17 148H419.704L416.159 135.398H415.897L412.352 148H408.897ZM431.519 148V130.545H434.917V148H431.519ZM433.235 127.852C432.644 127.852 432.137 127.655 431.713 127.261C431.296 126.86 431.088 126.383 431.088 125.83C431.088 125.269 431.296 124.792 431.713 124.398C432.137 123.996 432.644 123.795 433.235 123.795C433.826 123.795 434.33 123.996 434.747 124.398C435.171 124.792 435.383 125.269 435.383 125.83C435.383 126.383 435.171 126.86 434.747 127.261C434.33 127.655 433.826 127.852 433.235 127.852ZM442.886 137.636V148H439.488V130.545H442.75V133.386H442.965C443.367 132.462 443.996 131.72 444.852 131.159C445.715 130.598 446.803 130.318 448.113 130.318C449.303 130.318 450.344 130.568 451.238 131.068C452.132 131.561 452.825 132.295 453.318 133.273C453.81 134.25 454.056 135.458 454.056 136.898V148H450.659V137.307C450.659 136.042 450.329 135.053 449.67 134.341C449.011 133.621 448.106 133.261 446.954 133.261C446.166 133.261 445.465 133.432 444.852 133.773C444.246 134.114 443.765 134.614 443.409 135.273C443.06 135.924 442.886 136.712 442.886 137.636ZM465.931 154.909C464.545 154.909 463.352 154.727 462.352 154.364C461.359 154 460.549 153.519 459.92 152.92C459.291 152.322 458.822 151.667 458.511 150.955L461.431 149.75C461.636 150.083 461.909 150.436 462.25 150.807C462.598 151.186 463.068 151.508 463.659 151.773C464.257 152.038 465.026 152.17 465.965 152.17C467.253 152.17 468.318 151.856 469.159 151.227C470 150.606 470.42 149.614 470.42 148.25V144.818H470.204C470 145.189 469.704 145.602 469.318 146.057C468.939 146.511 468.416 146.905 467.75 147.239C467.083 147.572 466.215 147.739 465.147 147.739C463.768 147.739 462.526 147.417 461.42 146.773C460.322 146.121 459.45 145.163 458.806 143.898C458.17 142.625 457.852 141.061 457.852 139.205C457.852 137.348 458.166 135.758 458.795 134.432C459.431 133.106 460.303 132.091 461.409 131.386C462.515 130.674 463.768 130.318 465.17 130.318C466.253 130.318 467.128 130.5 467.795 130.864C468.462 131.22 468.981 131.636 469.352 132.114C469.731 132.591 470.022 133.011 470.227 133.375H470.477V130.545H473.806V148.386C473.806 149.886 473.458 151.117 472.761 152.08C472.064 153.042 471.121 153.754 469.931 154.216C468.75 154.678 467.416 154.909 465.931 154.909ZM465.897 144.92C466.875 144.92 467.7 144.693 468.375 144.239C469.056 143.777 469.572 143.117 469.92 142.261C470.276 141.398 470.454 140.364 470.454 139.159C470.454 137.985 470.28 136.951 469.931 136.057C469.583 135.163 469.072 134.466 468.397 133.966C467.723 133.458 466.89 133.205 465.897 133.205C464.875 133.205 464.022 133.47 463.34 134C462.659 134.523 462.143 135.235 461.795 136.136C461.454 137.038 461.284 138.045 461.284 139.159C461.284 140.303 461.458 141.307 461.806 142.17C462.155 143.034 462.67 143.708 463.352 144.193C464.041 144.678 464.89 144.92 465.897 144.92Z" fill="#BA1E71"/>
<line x1="93.7041" y1="20" x2="93.7041" y2="335" stroke="#BA1E71"/>
</svg>
