<svg width="646" height="627" viewBox="0 0 646 627" fill="none" xmlns="http://www.w3.org/2000/svg">
<path d="M367.8 340L313.8 384.167V295.833L367.8 340Z" fill="#4CC9F0"/>
<path fill-rule="evenodd" clip-rule="evenodd" d="M0.999023 384L54.7945 340L0.999023 296H314.794V384H0.999023Z" fill="#4CC9F0"/>
<path d="M141.011 354V351.443L150.614 340.932C151.741 339.701 152.669 338.631 153.398 337.722C154.127 336.803 154.667 335.941 155.017 335.136C155.377 334.322 155.557 333.47 155.557 332.58C155.557 331.557 155.311 330.671 154.818 329.923C154.335 329.175 153.672 328.598 152.83 328.19C151.987 327.783 151.04 327.58 149.989 327.58C148.871 327.58 147.896 327.812 147.062 328.276C146.239 328.73 145.599 329.369 145.145 330.193C144.7 331.017 144.477 331.983 144.477 333.091H141.125C141.125 331.386 141.518 329.89 142.304 328.602C143.09 327.314 144.16 326.311 145.514 325.591C146.878 324.871 148.407 324.511 150.102 324.511C151.807 324.511 153.317 324.871 154.634 325.591C155.95 326.311 156.982 327.281 157.73 328.503C158.478 329.724 158.852 331.083 158.852 332.58C158.852 333.65 158.658 334.696 158.27 335.719C157.891 336.732 157.228 337.864 156.281 339.114C155.344 340.354 154.042 341.869 152.375 343.659L145.841 350.648V350.875H159.364V354H141.011ZM174.719 354.398C172.579 354.398 170.756 353.815 169.25 352.651C167.744 351.476 166.594 349.777 165.798 347.551C165.003 345.316 164.605 342.617 164.605 339.455C164.605 336.311 165.003 333.626 165.798 331.401C166.603 329.166 167.759 327.461 169.264 326.287C170.779 325.103 172.598 324.511 174.719 324.511C176.84 324.511 178.653 325.103 180.159 326.287C181.674 327.461 182.83 329.166 183.625 331.401C184.43 333.626 184.832 336.311 184.832 339.455C184.832 342.617 184.435 345.316 183.639 347.551C182.844 349.777 181.693 351.476 180.188 352.651C178.682 353.815 176.859 354.398 174.719 354.398ZM174.719 351.273C176.84 351.273 178.488 350.25 179.662 348.205C180.836 346.159 181.423 343.242 181.423 339.455C181.423 336.936 181.153 334.791 180.614 333.02C180.083 331.249 179.316 329.9 178.312 328.972C177.318 328.044 176.12 327.58 174.719 327.58C172.616 327.58 170.973 328.616 169.79 330.69C168.606 332.755 168.014 335.676 168.014 339.455C168.014 341.973 168.279 344.114 168.81 345.875C169.34 347.636 170.102 348.976 171.097 349.895C172.1 350.813 173.308 351.273 174.719 351.273ZM190.23 354V351.443L199.832 340.932C200.959 339.701 201.887 338.631 202.616 337.722C203.346 336.803 203.885 335.941 204.236 335.136C204.596 334.322 204.776 333.47 204.776 332.58C204.776 331.557 204.529 330.671 204.037 329.923C203.554 329.175 202.891 328.598 202.048 328.19C201.205 327.783 200.259 327.58 199.207 327.58C198.09 327.58 197.115 327.812 196.281 328.276C195.457 328.73 194.818 329.369 194.364 330.193C193.919 331.017 193.696 331.983 193.696 333.091H190.344C190.344 331.386 190.737 329.89 191.523 328.602C192.309 327.314 193.379 326.311 194.733 325.591C196.097 324.871 197.626 324.511 199.321 324.511C201.026 324.511 202.536 324.871 203.852 325.591C205.169 326.311 206.201 327.281 206.949 328.503C207.697 329.724 208.071 331.083 208.071 332.58C208.071 333.65 207.877 334.696 207.489 335.719C207.11 336.732 206.447 337.864 205.5 339.114C204.562 340.354 203.26 341.869 201.594 343.659L195.06 350.648V350.875H208.582V354H190.23ZM224.278 354.398C222.403 354.398 220.732 354.076 219.264 353.432C217.806 352.788 216.646 351.893 215.784 350.747C214.932 349.592 214.468 348.252 214.392 346.727H217.972C218.047 347.665 218.369 348.474 218.938 349.156C219.506 349.829 220.249 350.349 221.168 350.719C222.086 351.088 223.104 351.273 224.222 351.273C225.472 351.273 226.58 351.055 227.545 350.619C228.511 350.184 229.269 349.578 229.818 348.801C230.367 348.025 230.642 347.125 230.642 346.102C230.642 345.032 230.377 344.09 229.847 343.276C229.316 342.452 228.54 341.808 227.517 341.344C226.494 340.88 225.244 340.648 223.767 340.648H221.438V337.523H223.767C224.922 337.523 225.936 337.314 226.807 336.898C227.688 336.481 228.374 335.894 228.866 335.136C229.368 334.379 229.619 333.489 229.619 332.466C229.619 331.481 229.402 330.624 228.966 329.895C228.53 329.166 227.915 328.598 227.119 328.19C226.333 327.783 225.405 327.58 224.335 327.58C223.331 327.58 222.384 327.764 221.494 328.134C220.614 328.493 219.894 329.019 219.335 329.71C218.777 330.392 218.473 331.216 218.426 332.182H215.017C215.074 330.657 215.533 329.322 216.395 328.176C217.257 327.021 218.384 326.121 219.776 325.477C221.177 324.833 222.716 324.511 224.392 324.511C226.191 324.511 227.735 324.876 229.023 325.605C230.311 326.325 231.3 327.277 231.991 328.46C232.683 329.644 233.028 330.922 233.028 332.295C233.028 333.934 232.598 335.33 231.736 336.486C230.884 337.641 229.723 338.441 228.256 338.886V339.114C230.093 339.417 231.527 340.198 232.56 341.457C233.592 342.707 234.108 344.256 234.108 346.102C234.108 347.684 233.677 349.104 232.815 350.364C231.963 351.614 230.798 352.598 229.321 353.318C227.844 354.038 226.163 354.398 224.278 354.398ZM262.247 344.909H266.111L269.349 349.17L270.202 350.307L275.031 356.727H271.168L267.986 352.466L267.19 351.386L262.247 344.909ZM276.224 339.455C276.224 342.523 275.67 345.174 274.562 347.409C273.455 349.644 271.935 351.367 270.003 352.58C268.071 353.792 265.865 354.398 263.384 354.398C260.902 354.398 258.696 353.792 256.764 352.58C254.832 351.367 253.313 349.644 252.205 347.409C251.097 345.174 250.543 342.523 250.543 339.455C250.543 336.386 251.097 333.735 252.205 331.5C253.313 329.265 254.832 327.542 256.764 326.33C258.696 325.117 260.902 324.511 263.384 324.511C265.865 324.511 268.071 325.117 270.003 326.33C271.935 327.542 273.455 329.265 274.562 331.5C275.67 333.735 276.224 336.386 276.224 339.455ZM272.815 339.455C272.815 336.936 272.394 334.81 271.551 333.077C270.718 331.344 269.586 330.032 268.156 329.142C266.736 328.252 265.145 327.807 263.384 327.807C261.622 327.807 260.027 328.252 258.597 329.142C257.176 330.032 256.045 331.344 255.202 333.077C254.368 334.81 253.952 336.936 253.952 339.455C253.952 341.973 254.368 344.099 255.202 345.832C256.045 347.565 257.176 348.877 258.597 349.767C260.027 350.657 261.622 351.102 263.384 351.102C265.145 351.102 266.736 350.657 268.156 349.767C269.586 348.877 270.718 347.565 271.551 345.832C272.394 344.099 272.815 341.973 272.815 339.455ZM291.864 324.909V354H288.341V328.602H288.17L281.068 333.318V329.739L288.341 324.909H291.864Z" fill="black"/>
<circle cx="94.5" cy="339.5" r="8.5" fill="#D9D9D9"/>
<path d="M94.0103 29.152C92.9649 29.152 91.9943 28.9067 91.0983 28.416C90.2023 27.904 89.4876 27.2107 88.9543 26.336C88.4209 25.4613 88.1543 24.4907 88.1543 23.424C88.1543 22.4427 88.3996 21.5147 88.8903 20.64C89.4023 19.7653 90.0956 19.0613 90.9703 18.528C91.8663 17.9733 92.8796 17.696 94.0103 17.696C95.0556 17.696 96.0156 17.952 96.8903 18.464C97.7649 18.9547 98.4689 19.6267 99.0023 20.48C99.5569 21.3333 99.8343 22.3147 99.8343 23.424C99.8343 24.4693 99.5676 25.4293 99.0343 26.304C98.5223 27.1787 97.8183 27.872 96.9223 28.384C96.0476 28.896 95.0769 29.152 94.0103 29.152ZM120.751 32V9.44H130.095C132.506 9.44 134.362 10.0053 135.663 11.136C136.986 12.2667 137.647 13.8453 137.647 15.872C137.647 17.216 137.348 18.3573 136.751 19.296C136.154 20.2347 135.311 20.9493 134.223 21.44C133.156 21.9307 131.908 22.176 130.479 22.176L131.023 21.728H131.791C132.666 21.728 133.444 21.952 134.127 22.4C134.81 22.8267 135.375 23.5307 135.823 24.512L139.023 32H135.727L132.623 24.576C132.26 23.6587 131.727 23.0613 131.023 22.784C130.34 22.5067 129.476 22.368 128.431 22.368H123.727V32H120.751ZM123.727 20.064H129.647C131.29 20.064 132.538 19.712 133.391 19.008C134.266 18.304 134.703 17.28 134.703 15.936C134.703 14.6133 134.266 13.6107 133.391 12.928C132.538 12.224 131.29 11.872 129.647 11.872H123.727V20.064ZM149.634 32.288C147.074 32.288 145.047 31.552 143.554 30.08C142.082 28.608 141.346 26.5813 141.346 24C141.346 22.2933 141.666 20.8213 142.306 19.584C142.967 18.3253 143.874 17.3547 145.026 16.672C146.178 15.968 147.522 15.616 149.058 15.616C150.53 15.616 151.778 15.936 152.802 16.576C153.826 17.1947 154.605 18.08 155.138 19.232C155.671 20.384 155.938 21.7493 155.938 23.328V24.288H143.618V22.56H153.954L153.41 22.976C153.41 21.312 153.037 20.0213 152.29 19.104C151.565 18.1867 150.487 17.728 149.058 17.728C147.501 17.728 146.295 18.272 145.442 19.36C144.589 20.4267 144.162 21.888 144.162 23.744V24.032C144.162 25.9947 144.642 27.4773 145.602 28.48C146.583 29.4827 147.938 29.984 149.666 29.984C150.626 29.984 151.522 29.8453 152.354 29.568C153.186 29.2907 153.986 28.832 154.754 28.192L155.714 30.208C154.989 30.8693 154.082 31.3813 152.994 31.744C151.927 32.1067 150.807 32.288 149.634 32.288ZM165.184 32.288C163.882 32.288 162.666 32.1173 161.536 31.776C160.426 31.4347 159.509 30.944 158.784 30.304L159.712 28.288C160.501 28.8853 161.365 29.344 162.304 29.664C163.264 29.9627 164.245 30.112 165.248 30.112C166.464 30.112 167.381 29.888 168 29.44C168.64 28.992 168.96 28.3947 168.96 27.648C168.96 27.0507 168.757 26.5707 168.352 26.208C167.946 25.8453 167.306 25.5787 166.432 25.408L163.392 24.8C162.026 24.48 160.992 23.968 160.288 23.264C159.605 22.5387 159.264 21.6107 159.264 20.48C159.264 19.5413 159.52 18.7093 160.032 17.984C160.544 17.2373 161.269 16.6613 162.208 16.256C163.168 15.8293 164.288 15.616 165.568 15.616C166.741 15.616 167.829 15.7867 168.832 16.128C169.856 16.4693 170.698 16.9707 171.36 17.632L170.4 19.584C169.738 19.008 168.992 18.5707 168.16 18.272C167.349 17.952 166.517 17.792 165.664 17.792C164.426 17.792 163.509 18.0373 162.912 18.528C162.314 18.9973 162.016 19.616 162.016 20.384C162.016 20.96 162.197 21.44 162.56 21.824C162.922 22.1867 163.509 22.464 164.32 22.656L167.36 23.264C168.789 23.5627 169.866 24.0533 170.592 24.736C171.317 25.4187 171.68 26.3253 171.68 27.456C171.68 28.4587 171.402 29.3227 170.848 30.048C170.314 30.7733 169.557 31.328 168.576 31.712C167.616 32.096 166.485 32.288 165.184 32.288ZM182.978 32.288C180.418 32.288 178.391 31.552 176.898 30.08C175.426 28.608 174.69 26.5813 174.69 24C174.69 22.2933 175.01 20.8213 175.65 19.584C176.311 18.3253 177.218 17.3547 178.37 16.672C179.522 15.968 180.866 15.616 182.402 15.616C183.874 15.616 185.122 15.936 186.146 16.576C187.17 17.1947 187.948 18.08 188.482 19.232C189.015 20.384 189.282 21.7493 189.282 23.328V24.288H176.962V22.56H187.298L186.754 22.976C186.754 21.312 186.38 20.0213 185.634 19.104C184.908 18.1867 183.831 17.728 182.402 17.728C180.844 17.728 179.639 18.272 178.786 19.36C177.932 20.4267 177.506 21.888 177.506 23.744V24.032C177.506 25.9947 177.986 27.4773 178.946 28.48C179.927 29.4827 181.282 29.984 183.01 29.984C183.97 29.984 184.866 29.8453 185.698 29.568C186.53 29.2907 187.33 28.832 188.098 28.192L189.058 30.208C188.332 30.8693 187.426 31.3813 186.338 31.744C185.271 32.1067 184.151 32.288 182.978 32.288ZM199.231 32.288C197.823 32.288 196.586 31.9573 195.519 31.296C194.453 30.6347 193.621 29.6747 193.023 28.416C192.426 27.1573 192.127 25.664 192.127 23.936C192.127 22.208 192.426 20.7253 193.023 19.488C193.621 18.2293 194.453 17.2693 195.519 16.608C196.586 15.9467 197.823 15.616 199.231 15.616C200.661 15.616 201.898 15.9787 202.943 16.704C204.01 17.408 204.714 18.3787 205.055 19.616H204.671L205.023 15.904H207.839C207.775 16.544 207.711 17.184 207.647 17.824C207.605 18.464 207.583 19.0933 207.583 19.712V32H204.671V28.32H205.023C204.682 29.536 203.978 30.5067 202.911 31.232C201.866 31.936 200.639 32.288 199.231 32.288ZM199.903 29.984C201.354 29.984 202.517 29.472 203.391 28.448C204.266 27.424 204.703 25.92 204.703 23.936C204.703 21.952 204.266 20.4587 203.391 19.456C202.517 18.4533 201.354 17.952 199.903 17.952C198.453 17.952 197.279 18.4533 196.383 19.456C195.509 20.4587 195.071 21.952 195.071 23.936C195.071 25.92 195.509 27.424 196.383 28.448C197.258 29.472 198.431 29.984 199.903 29.984ZM212.43 32V19.84C212.43 19.2 212.409 18.5493 212.366 17.888C212.345 17.2053 212.292 16.544 212.206 15.904H215.022L215.374 19.936L214.894 19.968C215.108 18.9867 215.47 18.176 215.982 17.536C216.516 16.8747 217.145 16.3947 217.87 16.096C218.617 15.776 219.385 15.616 220.174 15.616C220.516 15.616 220.804 15.6267 221.038 15.648C221.273 15.6693 221.508 15.7227 221.742 15.808L221.678 18.4C221.358 18.272 221.06 18.1973 220.782 18.176C220.526 18.1333 220.206 18.112 219.822 18.112C218.884 18.112 218.073 18.3253 217.39 18.752C216.729 19.1787 216.217 19.744 215.854 20.448C215.513 21.152 215.342 21.9093 215.342 22.72V32H212.43ZM230.999 32.288C229.399 32.288 228.013 31.9573 226.839 31.296C225.666 30.6133 224.749 29.6427 224.087 28.384C223.447 27.104 223.127 25.5893 223.127 23.84C223.127 22.112 223.458 20.64 224.119 19.424C224.781 18.1867 225.698 17.248 226.871 16.608C228.045 15.9467 229.421 15.616 230.999 15.616C232.045 15.616 233.058 15.7973 234.039 16.16C235.021 16.5013 235.821 17.0027 236.439 17.664L235.447 19.712C234.829 19.1147 234.146 18.6773 233.399 18.4C232.653 18.1013 231.917 17.952 231.191 17.952C229.613 17.952 228.375 18.464 227.479 19.488C226.583 20.4907 226.135 21.952 226.135 23.872C226.135 25.8133 226.583 27.3067 227.479 28.352C228.375 29.3973 229.613 29.92 231.191 29.92C231.895 29.92 232.621 29.7813 233.367 29.504C234.114 29.2267 234.807 28.7893 235.447 28.192L236.439 30.208C235.799 30.8907 234.978 31.4133 233.975 31.776C232.994 32.1173 232.002 32.288 230.999 32.288ZM239.994 32V8.448H242.906V19.392H242.49C242.959 18.1547 243.716 17.216 244.762 16.576C245.807 15.936 247.012 15.616 248.378 15.616C250.319 15.616 251.748 16.1387 252.666 17.184C253.604 18.2293 254.074 19.808 254.074 21.92V32H251.162V22.08C251.162 20.6507 250.884 19.616 250.33 18.976C249.775 18.3147 248.868 17.984 247.61 17.984C246.202 17.984 245.06 18.4213 244.186 19.296C243.332 20.1707 242.906 21.3333 242.906 22.784V32H239.994ZM273.419 32.288C272.011 32.288 270.773 31.9573 269.707 31.296C268.64 30.6347 267.808 29.6747 267.211 28.416C266.613 27.1573 266.315 25.664 266.315 23.936C266.315 22.208 266.613 20.7253 267.211 19.488C267.808 18.2293 268.64 17.2693 269.707 16.608C270.773 15.9467 272.011 15.616 273.419 15.616C274.848 15.616 276.085 15.9787 277.131 16.704C278.197 17.408 278.901 18.3787 279.243 19.616H278.859L279.211 15.904H282.027C281.963 16.544 281.899 17.184 281.835 17.824C281.792 18.464 281.771 19.0933 281.771 19.712V32H278.859V28.32H279.211C278.869 29.536 278.165 30.5067 277.099 31.232C276.053 31.936 274.827 32.288 273.419 32.288ZM274.091 29.984C275.541 29.984 276.704 29.472 277.579 28.448C278.453 27.424 278.891 25.92 278.891 23.936C278.891 21.952 278.453 20.4587 277.579 19.456C276.704 18.4533 275.541 17.952 274.091 17.952C272.64 17.952 271.467 18.4533 270.571 19.456C269.696 20.4587 269.259 21.952 269.259 23.936C269.259 25.92 269.696 27.424 270.571 28.448C271.445 29.472 272.619 29.984 274.091 29.984ZM286.65 32V19.712C286.65 19.0933 286.628 18.464 286.586 17.824C286.543 17.184 286.479 16.544 286.394 15.904H289.21L289.53 19.36H289.146C289.636 18.144 290.394 17.216 291.418 16.576C292.442 15.936 293.636 15.616 295.002 15.616C296.9 15.616 298.33 16.1387 299.29 17.184C300.25 18.208 300.73 19.808 300.73 21.984V32H297.818V22.144C297.818 20.672 297.53 19.616 296.954 18.976C296.378 18.3147 295.482 17.984 294.266 17.984C292.815 17.984 291.663 18.4213 290.81 19.296C289.978 20.1707 289.562 21.3547 289.562 22.848V32H286.65ZM311.638 32.288C310.23 32.288 308.992 31.9573 307.926 31.296C306.859 30.6347 306.027 29.6747 305.43 28.416C304.832 27.1573 304.534 25.664 304.534 23.936C304.534 22.208 304.832 20.7253 305.43 19.488C306.027 18.2293 306.859 17.2693 307.926 16.608C308.992 15.9467 310.23 15.616 311.638 15.616C313.046 15.616 314.272 15.968 315.318 16.672C316.384 17.376 317.099 18.3467 317.462 19.584H317.078V8.448H319.99V32H317.11V28.256H317.462C317.12 29.5147 316.416 30.5067 315.35 31.232C314.304 31.936 313.067 32.288 311.638 32.288ZM312.31 29.984C313.76 29.984 314.923 29.472 315.798 28.448C316.694 27.424 317.142 25.92 317.142 23.936C317.142 21.952 316.694 20.4587 315.798 19.456C314.923 18.4533 313.76 17.952 312.31 17.952C310.859 17.952 309.686 18.4533 308.79 19.456C307.915 20.4587 307.478 21.952 307.478 23.936C307.478 25.92 307.915 27.424 308.79 28.448C309.686 29.472 310.859 29.984 312.31 29.984ZM333.626 32V9.44H336.602V32H333.626ZM347.888 32.288C346.48 32.288 345.242 31.9573 344.176 31.296C343.109 30.6347 342.277 29.6747 341.68 28.416C341.082 27.1573 340.784 25.664 340.784 23.936C340.784 22.208 341.082 20.7253 341.68 19.488C342.277 18.2293 343.109 17.2693 344.176 16.608C345.242 15.9467 346.48 15.616 347.888 15.616C349.296 15.616 350.522 15.968 351.568 16.672C352.634 17.376 353.349 18.3467 353.712 19.584H353.328V8.448H356.24V32H353.36V28.256H353.712C353.37 29.5147 352.666 30.5067 351.6 31.232C350.554 31.936 349.317 32.288 347.888 32.288ZM348.56 29.984C350.01 29.984 351.173 29.472 352.048 28.448C352.944 27.424 353.392 25.92 353.392 23.936C353.392 21.952 352.944 20.4587 352.048 19.456C351.173 18.4533 350.01 17.952 348.56 17.952C347.109 17.952 345.936 18.4533 345.04 19.456C344.165 20.4587 343.728 21.952 343.728 23.936C343.728 25.92 344.165 27.424 345.04 28.448C345.936 29.472 347.109 29.984 348.56 29.984ZM368.447 32.288C365.887 32.288 363.86 31.552 362.367 30.08C360.895 28.608 360.159 26.5813 360.159 24C360.159 22.2933 360.479 20.8213 361.119 19.584C361.78 18.3253 362.687 17.3547 363.839 16.672C364.991 15.968 366.335 15.616 367.871 15.616C369.343 15.616 370.591 15.936 371.615 16.576C372.639 17.1947 373.417 18.08 373.951 19.232C374.484 20.384 374.751 21.7493 374.751 23.328V24.288H362.431V22.56H372.767L372.223 22.976C372.223 21.312 371.849 20.0213 371.103 19.104C370.377 18.1867 369.3 17.728 367.871 17.728C366.313 17.728 365.108 18.272 364.255 19.36C363.401 20.4267 362.975 21.888 362.975 23.744V24.032C362.975 25.9947 363.455 27.4773 364.415 28.48C365.396 29.4827 366.751 29.984 368.479 29.984C369.439 29.984 370.335 29.8453 371.167 29.568C371.999 29.2907 372.799 28.832 373.567 28.192L374.527 30.208C373.801 30.8693 372.895 31.3813 371.807 31.744C370.74 32.1067 369.62 32.288 368.447 32.288ZM384.7 32.288C383.292 32.288 382.055 31.9573 380.988 31.296C379.921 30.6347 379.089 29.6747 378.492 28.416C377.895 27.1573 377.596 25.664 377.596 23.936C377.596 22.208 377.895 20.7253 378.492 19.488C379.089 18.2293 379.921 17.2693 380.988 16.608C382.055 15.9467 383.292 15.616 384.7 15.616C386.129 15.616 387.367 15.9787 388.412 16.704C389.479 17.408 390.183 18.3787 390.524 19.616H390.14L390.492 15.904H393.308C393.244 16.544 393.18 17.184 393.116 17.824C393.073 18.464 393.052 19.0933 393.052 19.712V32H390.14V28.32H390.492C390.151 29.536 389.447 30.5067 388.38 31.232C387.335 31.936 386.108 32.288 384.7 32.288ZM385.372 29.984C386.823 29.984 387.985 29.472 388.86 28.448C389.735 27.424 390.172 25.92 390.172 23.936C390.172 21.952 389.735 20.4587 388.86 19.456C387.985 18.4533 386.823 17.952 385.372 17.952C383.921 17.952 382.748 18.4533 381.852 19.456C380.977 20.4587 380.54 21.952 380.54 23.936C380.54 25.92 380.977 27.424 381.852 28.448C382.727 29.472 383.9 29.984 385.372 29.984ZM403.947 32.288C402.262 32.288 400.982 31.8293 400.107 30.912C399.254 29.9733 398.827 28.5653 398.827 26.688V18.144H395.691V15.904H398.827V11.584L401.739 10.784V15.904H406.283V18.144H401.739V26.432C401.739 27.6693 401.952 28.5547 402.379 29.088C402.827 29.6 403.467 29.856 404.299 29.856C404.726 29.856 405.088 29.824 405.387 29.76C405.707 29.6747 405.995 29.5787 406.251 29.472V31.872C405.931 32 405.558 32.096 405.131 32.16C404.726 32.2453 404.331 32.288 403.947 32.288ZM409.337 32V15.904H412.249V32H409.337ZM409.081 12.384V9.248H412.537V12.384H409.081ZM423.903 32.288C422.324 32.288 420.959 31.9573 419.807 31.296C418.655 30.6133 417.759 29.6533 417.119 28.416C416.479 27.1573 416.159 25.664 416.159 23.936C416.159 22.2293 416.479 20.7573 417.119 19.52C417.759 18.2613 418.655 17.3013 419.807 16.64C420.959 15.9573 422.324 15.616 423.903 15.616C425.481 15.616 426.847 15.9573 427.999 16.64C429.172 17.3013 430.068 18.2613 430.687 19.52C431.327 20.7573 431.647 22.2293 431.647 23.936C431.647 25.664 431.327 27.1573 430.687 28.416C430.068 29.6533 429.172 30.6133 427.999 31.296C426.847 31.9573 425.481 32.288 423.903 32.288ZM423.903 29.984C425.353 29.984 426.516 29.472 427.391 28.448C428.265 27.424 428.703 25.92 428.703 23.936C428.703 21.952 428.265 20.4587 427.391 19.456C426.516 18.4533 425.353 17.952 423.903 17.952C422.431 17.952 421.257 18.4533 420.383 19.456C419.529 20.4587 419.103 21.952 419.103 23.936C419.103 25.92 419.529 27.424 420.383 28.448C421.257 29.472 422.431 29.984 423.903 29.984ZM435.556 32V19.712C435.556 19.0933 435.535 18.464 435.492 17.824C435.449 17.184 435.385 16.544 435.3 15.904H438.116L438.436 19.36H438.052C438.543 18.144 439.3 17.216 440.324 16.576C441.348 15.936 442.543 15.616 443.908 15.616C445.807 15.616 447.236 16.1387 448.196 17.184C449.156 18.208 449.636 19.808 449.636 21.984V32H446.724V22.144C446.724 20.672 446.436 19.616 445.86 18.976C445.284 18.3147 444.388 17.984 443.172 17.984C441.721 17.984 440.569 18.4213 439.716 19.296C438.884 20.1707 438.468 21.3547 438.468 22.848V32H435.556ZM94.0103 69.152C92.9649 69.152 91.9943 68.9067 91.0983 68.416C90.2023 67.904 89.4876 67.2107 88.9543 66.336C88.4209 65.4613 88.1543 64.4907 88.1543 63.424C88.1543 62.4427 88.3996 61.5147 88.8903 60.64C89.4023 59.7653 90.0956 59.0613 90.9703 58.528C91.8663 57.9733 92.8796 57.696 94.0103 57.696C95.0556 57.696 96.0156 57.952 96.8903 58.464C97.7649 58.9547 98.4689 59.6267 99.0023 60.48C99.5569 61.3333 99.8343 62.3147 99.8343 63.424C99.8343 64.4693 99.5676 65.4293 99.0343 66.304C98.5223 67.1787 97.8183 67.872 96.9223 68.384C96.0476 68.896 95.0769 69.152 94.0103 69.152ZM126.927 72L119.023 49.44H122.159L128.847 69.344H127.695L134.799 49.44H137.135L143.791 69.344H142.767L149.679 49.44H152.623L144.655 72H142.063L135.567 52.96H136.239L129.487 72H126.927ZM161.509 72.288C158.949 72.288 156.922 71.552 155.429 70.08C153.957 68.608 153.221 66.5813 153.221 64C153.221 62.2933 153.541 60.8213 154.181 59.584C154.842 58.3253 155.749 57.3547 156.901 56.672C158.053 55.968 159.397 55.616 160.933 55.616C162.405 55.616 163.653 55.936 164.677 56.576C165.701 57.1947 166.48 58.08 167.013 59.232C167.546 60.384 167.813 61.7493 167.813 63.328V64.288H155.493V62.56H165.829L165.285 62.976C165.285 61.312 164.912 60.0213 164.165 59.104C163.44 58.1867 162.362 57.728 160.933 57.728C159.376 57.728 158.17 58.272 157.317 59.36C156.464 60.4267 156.037 61.888 156.037 63.744V64.032C156.037 65.9947 156.517 67.4773 157.477 68.48C158.458 69.4827 159.813 69.984 161.541 69.984C162.501 69.984 163.397 69.8453 164.229 69.568C165.061 69.2907 165.861 68.832 166.629 68.192L167.589 70.208C166.864 70.8693 165.957 71.3813 164.869 71.744C163.802 72.1067 162.682 72.288 161.509 72.288ZM179.971 72.288C178.541 72.288 177.304 71.936 176.259 71.232C175.213 70.5067 174.52 69.5147 174.179 68.256H174.531V72H171.619V48.448H174.531V59.584H174.179C174.541 58.3467 175.235 57.376 176.259 56.672C177.304 55.968 178.541 55.616 179.971 55.616C181.4 55.616 182.648 55.9573 183.715 56.64C184.781 57.3013 185.603 58.2507 186.179 59.488C186.776 60.7253 187.075 62.2187 187.075 63.968C187.075 65.696 186.776 67.1893 186.179 68.448C185.603 69.6853 184.771 70.6347 183.683 71.296C182.616 71.9573 181.379 72.288 179.971 72.288ZM179.299 69.984C180.749 69.984 181.912 69.4827 182.787 68.48C183.683 67.456 184.131 65.952 184.131 63.968C184.131 61.984 183.683 60.4907 182.787 59.488C181.912 58.464 180.749 57.952 179.299 57.952C177.827 57.952 176.653 58.4533 175.779 59.456C174.925 60.4587 174.499 61.952 174.499 63.936C174.499 65.92 174.925 67.424 175.779 68.448C176.653 69.472 177.827 69.984 179.299 69.984ZM196.434 72.288C195.132 72.288 193.916 72.1173 192.786 71.776C191.676 71.4347 190.759 70.944 190.034 70.304L190.962 68.288C191.751 68.8853 192.615 69.344 193.554 69.664C194.514 69.9627 195.495 70.112 196.498 70.112C197.714 70.112 198.631 69.888 199.25 69.44C199.89 68.992 200.21 68.3947 200.21 67.648C200.21 67.0507 200.007 66.5707 199.602 66.208C199.196 65.8453 198.556 65.5787 197.682 65.408L194.642 64.8C193.276 64.48 192.242 63.968 191.538 63.264C190.855 62.5387 190.514 61.6107 190.514 60.48C190.514 59.5413 190.77 58.7093 191.282 57.984C191.794 57.2373 192.519 56.6613 193.458 56.256C194.418 55.8293 195.538 55.616 196.818 55.616C197.991 55.616 199.079 55.7867 200.082 56.128C201.106 56.4693 201.948 56.9707 202.61 57.632L201.65 59.584C200.988 59.008 200.242 58.5707 199.41 58.272C198.599 57.952 197.767 57.792 196.914 57.792C195.676 57.792 194.759 58.0373 194.162 58.528C193.564 58.9973 193.266 59.616 193.266 60.384C193.266 60.96 193.447 61.44 193.81 61.824C194.172 62.1867 194.759 62.464 195.57 62.656L198.61 63.264C200.039 63.5627 201.116 64.0533 201.842 64.736C202.567 65.4187 202.93 66.3253 202.93 67.456C202.93 68.4587 202.652 69.3227 202.098 70.048C201.564 70.7733 200.807 71.328 199.826 71.712C198.866 72.096 197.735 72.288 196.434 72.288ZM206.9 72V55.904H209.812V72H206.9ZM206.644 52.384V49.248H210.1V52.384H206.644ZM220.697 72.288C219.012 72.288 217.732 71.8293 216.857 70.912C216.004 69.9733 215.577 68.5653 215.577 66.688V58.144H212.441V55.904H215.577V51.584L218.489 50.784V55.904H223.033V58.144H218.489V66.432C218.489 67.6693 218.702 68.5547 219.129 69.088C219.577 69.6 220.217 69.856 221.049 69.856C221.476 69.856 221.838 69.824 222.137 69.76C222.457 69.6747 222.745 69.5787 223.001 69.472V71.872C222.681 72 222.308 72.096 221.881 72.16C221.476 72.2453 221.081 72.288 220.697 72.288ZM233.259 72.288C230.699 72.288 228.672 71.552 227.179 70.08C225.707 68.608 224.971 66.5813 224.971 64C224.971 62.2933 225.291 60.8213 225.931 59.584C226.592 58.3253 227.499 57.3547 228.651 56.672C229.803 55.968 231.147 55.616 232.683 55.616C234.155 55.616 235.403 55.936 236.427 56.576C237.451 57.1947 238.23 58.08 238.763 59.232C239.296 60.384 239.563 61.7493 239.563 63.328V64.288H227.243V62.56H237.579L237.035 62.976C237.035 61.312 236.662 60.0213 235.915 59.104C235.19 58.1867 234.112 57.728 232.683 57.728C231.126 57.728 229.92 58.272 229.067 59.36C228.214 60.4267 227.787 61.888 227.787 63.744V64.032C227.787 65.9947 228.267 67.4773 229.227 68.48C230.208 69.4827 231.563 69.984 233.291 69.984C234.251 69.984 235.147 69.8453 235.979 69.568C236.811 69.2907 237.611 68.832 238.379 68.192L239.339 70.208C238.614 70.8693 237.707 71.3813 236.619 71.744C235.552 72.1067 234.432 72.288 233.259 72.288ZM252.126 72V49.44H255.102V69.44H266.334V72H252.126ZM275.513 72.288C274.105 72.288 272.867 71.9573 271.801 71.296C270.734 70.6347 269.902 69.6747 269.305 68.416C268.707 67.1573 268.409 65.664 268.409 63.936C268.409 62.208 268.707 60.7253 269.305 59.488C269.902 58.2293 270.734 57.2693 271.801 56.608C272.867 55.9467 274.105 55.616 275.513 55.616C276.942 55.616 278.179 55.9787 279.225 56.704C280.291 57.408 280.995 58.3787 281.337 59.616H280.953L281.305 55.904H284.121C284.057 56.544 283.993 57.184 283.929 57.824C283.886 58.464 283.865 59.0933 283.865 59.712V72H280.953V68.32H281.305C280.963 69.536 280.259 70.5067 279.193 71.232C278.147 71.936 276.921 72.288 275.513 72.288ZM276.185 69.984C277.635 69.984 278.798 69.472 279.673 68.448C280.547 67.424 280.985 65.92 280.985 63.936C280.985 61.952 280.547 60.4587 279.673 59.456C278.798 58.4533 277.635 57.952 276.185 57.952C274.734 57.952 273.561 58.4533 272.665 59.456C271.79 60.4587 271.353 61.952 271.353 63.936C271.353 65.92 271.79 67.424 272.665 68.448C273.539 69.472 274.713 69.984 276.185 69.984ZM294.472 72.288C292.53 72.288 291.069 71.7653 290.088 70.72C289.128 69.6747 288.648 68.064 288.648 65.888V55.904H291.56V65.824C291.56 67.232 291.848 68.2667 292.424 68.928C293 69.5893 293.896 69.92 295.112 69.92C296.434 69.92 297.501 69.4827 298.312 68.608C299.144 67.712 299.56 66.528 299.56 65.056V55.904H302.472V72H299.656V68.448H300.072C299.624 69.664 298.909 70.6133 297.928 71.296C296.946 71.9573 295.794 72.288 294.472 72.288ZM307.369 72V59.712C307.369 59.0933 307.347 58.464 307.305 57.824C307.262 57.184 307.198 56.544 307.113 55.904H309.929L310.249 59.36H309.865C310.355 58.144 311.113 57.216 312.137 56.576C313.161 55.936 314.355 55.616 315.721 55.616C317.619 55.616 319.049 56.1387 320.009 57.184C320.969 58.208 321.449 59.808 321.449 61.984V72H318.537V62.144C318.537 60.672 318.249 59.616 317.673 58.976C317.097 58.3147 316.201 57.984 314.985 57.984C313.534 57.984 312.382 58.4213 311.529 59.296C310.697 60.1707 310.281 61.3547 310.281 62.848V72H307.369ZM333.124 72.288C331.524 72.288 330.138 71.9573 328.964 71.296C327.791 70.6133 326.874 69.6427 326.212 68.384C325.572 67.104 325.252 65.5893 325.252 63.84C325.252 62.112 325.583 60.64 326.244 59.424C326.906 58.1867 327.823 57.248 328.996 56.608C330.17 55.9467 331.546 55.616 333.124 55.616C334.17 55.616 335.183 55.7973 336.164 56.16C337.146 56.5013 337.946 57.0027 338.564 57.664L337.572 59.712C336.954 59.1147 336.271 58.6773 335.524 58.4C334.778 58.1013 334.042 57.952 333.316 57.952C331.738 57.952 330.5 58.464 329.604 59.488C328.708 60.4907 328.26 61.952 328.26 63.872C328.26 65.8133 328.708 67.3067 329.604 68.352C330.5 69.3973 331.738 69.92 333.316 69.92C334.02 69.92 334.746 69.7813 335.492 69.504C336.239 69.2267 336.932 68.7893 337.572 68.192L338.564 70.208C337.924 70.8907 337.103 71.4133 336.1 71.776C335.119 72.1173 334.127 72.288 333.124 72.288ZM342.119 72V48.448H345.031V59.392H344.615C345.084 58.1547 345.841 57.216 346.887 56.576C347.932 55.936 349.137 55.616 350.503 55.616C352.444 55.616 353.873 56.1387 354.791 57.184C355.729 58.2293 356.199 59.808 356.199 61.92V72H353.287V62.08C353.287 60.6507 353.009 59.616 352.455 58.976C351.9 58.3147 350.993 57.984 349.735 57.984C348.327 57.984 347.185 58.4213 346.311 59.296C345.457 60.1707 345.031 61.3333 345.031 62.784V72H342.119ZM94.0103 109.152C92.9649 109.152 91.9943 108.907 91.0983 108.416C90.2023 107.904 89.4876 107.211 88.9543 106.336C88.4209 105.461 88.1543 104.491 88.1543 103.424C88.1543 102.443 88.3996 101.515 88.8903 100.64C89.4023 99.7653 90.0956 99.0613 90.9703 98.528C91.8663 97.9733 92.8796 97.696 94.0103 97.696C95.0556 97.696 96.0156 97.952 96.8903 98.464C97.7649 98.9547 98.4689 99.6267 99.0023 100.48C99.5569 101.333 99.8343 102.315 99.8343 103.424C99.8343 104.469 99.5676 105.429 99.0343 106.304C98.5223 107.179 97.8183 107.872 96.9223 108.384C96.0476 108.896 95.0769 109.152 94.0103 109.152ZM120.751 112V89.44H123.727V109.44H134.959V112H120.751ZM137.994 112V95.904H140.906V112H137.994ZM137.738 92.384V89.248H141.194V92.384H137.738ZM151.791 112.288C150.105 112.288 148.825 111.829 147.951 110.912C147.097 109.973 146.671 108.565 146.671 106.688V98.144H143.535V95.904H146.671V91.584L149.583 90.784V95.904H154.127V98.144H149.583V106.432C149.583 107.669 149.796 108.555 150.223 109.088C150.671 109.6 151.311 109.856 152.143 109.856C152.569 109.856 152.932 109.824 153.231 109.76C153.551 109.675 153.839 109.579 154.095 109.472V111.872C153.775 112 153.401 112.096 152.975 112.16C152.569 112.245 152.175 112.288 151.791 112.288ZM164.353 112.288C161.793 112.288 159.766 111.552 158.273 110.08C156.801 108.608 156.065 106.581 156.065 104C156.065 102.293 156.385 100.821 157.025 99.584C157.686 98.3253 158.593 97.3547 159.745 96.672C160.897 95.968 162.241 95.616 163.777 95.616C165.249 95.616 166.497 95.936 167.521 96.576C168.545 97.1947 169.323 98.08 169.857 99.232C170.39 100.384 170.657 101.749 170.657 103.328V104.288H158.337V102.56H168.673L168.129 102.976C168.129 101.312 167.755 100.021 167.009 99.104C166.283 98.1867 165.206 97.728 163.777 97.728C162.219 97.728 161.014 98.272 160.161 99.36C159.307 100.427 158.881 101.888 158.881 103.744V104.032C158.881 105.995 159.361 107.477 160.321 108.48C161.302 109.483 162.657 109.984 164.385 109.984C165.345 109.984 166.241 109.845 167.073 109.568C167.905 109.291 168.705 108.832 169.473 108.192L170.433 110.208C169.707 110.869 168.801 111.381 167.713 111.744C166.646 112.107 165.526 112.288 164.353 112.288ZM174.462 118.912V99.712C174.462 99.0933 174.441 98.464 174.398 97.824C174.356 97.184 174.292 96.544 174.206 95.904H177.022L177.374 99.616H177.022C177.342 98.3787 178.025 97.408 179.07 96.704C180.116 95.9787 181.364 95.616 182.814 95.616C184.244 95.616 185.492 95.9467 186.558 96.608C187.625 97.2693 188.446 98.2293 189.022 99.488C189.62 100.725 189.918 102.208 189.918 103.936C189.918 105.664 189.62 107.157 189.022 108.416C188.446 109.675 187.625 110.635 186.558 111.296C185.492 111.957 184.244 112.288 182.814 112.288C181.385 112.288 180.148 111.936 179.102 111.232C178.078 110.507 177.385 109.536 177.022 108.32H177.374V118.912H174.462ZM182.142 109.984C183.614 109.984 184.788 109.472 185.662 108.448C186.537 107.424 186.974 105.92 186.974 103.936C186.974 101.952 186.537 100.459 185.662 99.456C184.788 98.4533 183.614 97.952 182.142 97.952C180.67 97.952 179.497 98.4533 178.622 99.456C177.769 100.459 177.342 101.952 177.342 103.936C177.342 105.92 177.769 107.424 178.622 108.448C179.497 109.472 180.67 109.984 182.142 109.984ZM199.981 112.288C198.573 112.288 197.336 111.957 196.269 111.296C195.203 110.635 194.371 109.675 193.773 108.416C193.176 107.157 192.877 105.664 192.877 103.936C192.877 102.208 193.176 100.725 193.773 99.488C194.371 98.2293 195.203 97.2693 196.269 96.608C197.336 95.9467 198.573 95.616 199.981 95.616C201.411 95.616 202.648 95.9787 203.693 96.704C204.76 97.408 205.464 98.3787 205.805 99.616H205.421L205.773 95.904H208.589C208.525 96.544 208.461 97.184 208.397 97.824C208.355 98.464 208.333 99.0933 208.333 99.712V112H205.421V108.32H205.773C205.432 109.536 204.728 110.507 203.661 111.232C202.616 111.936 201.389 112.288 199.981 112.288ZM200.653 109.984C202.104 109.984 203.267 109.472 204.141 108.448C205.016 107.424 205.453 105.92 205.453 103.936C205.453 101.952 205.016 100.459 204.141 99.456C203.267 98.4533 202.104 97.952 200.653 97.952C199.203 97.952 198.029 98.4533 197.133 99.456C196.259 100.459 195.821 101.952 195.821 103.936C195.821 105.92 196.259 107.424 197.133 108.448C198.008 109.472 199.181 109.984 200.653 109.984ZM213.212 118.912V99.712C213.212 99.0933 213.191 98.464 213.148 97.824C213.106 97.184 213.042 96.544 212.956 95.904H215.772L216.124 99.616H215.772C216.092 98.3787 216.775 97.408 217.82 96.704C218.866 95.9787 220.114 95.616 221.564 95.616C222.994 95.616 224.242 95.9467 225.308 96.608C226.375 97.2693 227.196 98.2293 227.772 99.488C228.37 100.725 228.668 102.208 228.668 103.936C228.668 105.664 228.37 107.157 227.772 108.416C227.196 109.675 226.375 110.635 225.308 111.296C224.242 111.957 222.994 112.288 221.564 112.288C220.135 112.288 218.898 111.936 217.852 111.232C216.828 110.507 216.135 109.536 215.772 108.32H216.124V118.912H213.212ZM220.892 109.984C222.364 109.984 223.538 109.472 224.412 108.448C225.287 107.424 225.724 105.92 225.724 103.936C225.724 101.952 225.287 100.459 224.412 99.456C223.538 98.4533 222.364 97.952 220.892 97.952C219.42 97.952 218.247 98.4533 217.372 99.456C216.519 100.459 216.092 101.952 216.092 103.936C216.092 105.92 216.519 107.424 217.372 108.448C218.247 109.472 219.42 109.984 220.892 109.984ZM239.915 112.288C237.355 112.288 235.329 111.552 233.835 110.08C232.363 108.608 231.627 106.581 231.627 104C231.627 102.293 231.947 100.821 232.587 99.584C233.249 98.3253 234.155 97.3547 235.307 96.672C236.459 95.968 237.803 95.616 239.339 95.616C240.811 95.616 242.059 95.936 243.083 96.576C244.107 97.1947 244.886 98.08 245.419 99.232C245.953 100.384 246.219 101.749 246.219 103.328V104.288H233.899V102.56H244.235L243.691 102.976C243.691 101.312 243.318 100.021 242.571 99.104C241.846 98.1867 240.769 97.728 239.339 97.728C237.782 97.728 236.577 98.272 235.723 99.36C234.87 100.427 234.443 101.888 234.443 103.744V104.032C234.443 105.995 234.923 107.477 235.883 108.48C236.865 109.483 238.219 109.984 239.947 109.984C240.907 109.984 241.803 109.845 242.635 109.568C243.467 109.291 244.267 108.832 245.035 108.192L245.995 110.208C245.27 110.869 244.363 111.381 243.275 111.744C242.209 112.107 241.089 112.288 239.915 112.288ZM249.993 112V99.84C249.993 99.2 249.971 98.5493 249.929 97.888C249.907 97.2053 249.854 96.544 249.769 95.904H252.585L252.937 99.936L252.457 99.968C252.67 98.9867 253.033 98.176 253.545 97.536C254.078 96.8747 254.707 96.3947 255.433 96.096C256.179 95.776 256.947 95.616 257.737 95.616C258.078 95.616 258.366 95.6267 258.601 95.648C258.835 95.6693 259.07 95.7227 259.305 95.808L259.241 98.4C258.921 98.272 258.622 98.1973 258.345 98.176C258.089 98.1333 257.769 98.112 257.385 98.112C256.446 98.112 255.635 98.3253 254.953 98.752C254.291 99.1787 253.779 99.744 253.417 100.448C253.075 101.152 252.905 101.909 252.905 102.72V112H249.993Z" fill="#4CC9F0"/>
<line x1="95" y1="19.999" x2="95" y2="340.001" stroke="#0FA9D9"/>
</svg>
