<svg width="646" height="627" viewBox="0 0 646 627" fill="none" xmlns="http://www.w3.org/2000/svg">
<path d="M367.796 335L313.796 379.167V290.833L367.796 335Z" fill="#4CC9F0"/>
<path fill-rule="evenodd" clip-rule="evenodd" d="M0 379L53.7955 335L0 291H313.795V379H0Z" fill="#4CC9F0"/>
<path d="M133.011 349V346.443L142.614 335.932C143.741 334.701 144.669 333.631 145.398 332.722C146.127 331.803 146.667 330.941 147.017 330.136C147.377 329.322 147.557 328.47 147.557 327.58C147.557 326.557 147.311 325.671 146.818 324.923C146.335 324.175 145.672 323.598 144.83 323.19C143.987 322.783 143.04 322.58 141.989 322.58C140.871 322.58 139.896 322.812 139.062 323.276C138.239 323.73 137.599 324.369 137.145 325.193C136.7 326.017 136.477 326.983 136.477 328.091H133.125C133.125 326.386 133.518 324.89 134.304 323.602C135.09 322.314 136.16 321.311 137.514 320.591C138.878 319.871 140.407 319.511 142.102 319.511C143.807 319.511 145.317 319.871 146.634 320.591C147.95 321.311 148.982 322.281 149.73 323.503C150.478 324.724 150.852 326.083 150.852 327.58C150.852 328.65 150.658 329.696 150.27 330.719C149.891 331.732 149.228 332.864 148.281 334.114C147.344 335.354 146.042 336.869 144.375 338.659L137.841 345.648V345.875H151.364V349H133.011ZM166.719 349.398C164.579 349.398 162.756 348.815 161.25 347.651C159.744 346.476 158.594 344.777 157.798 342.551C157.003 340.316 156.605 337.617 156.605 334.455C156.605 331.311 157.003 328.626 157.798 326.401C158.603 324.166 159.759 322.461 161.264 321.287C162.779 320.103 164.598 319.511 166.719 319.511C168.84 319.511 170.653 320.103 172.159 321.287C173.674 322.461 174.83 324.166 175.625 326.401C176.43 328.626 176.832 331.311 176.832 334.455C176.832 337.617 176.435 340.316 175.639 342.551C174.844 344.777 173.693 346.476 172.188 347.651C170.682 348.815 168.859 349.398 166.719 349.398ZM166.719 346.273C168.84 346.273 170.488 345.25 171.662 343.205C172.836 341.159 173.423 338.242 173.423 334.455C173.423 331.936 173.153 329.791 172.614 328.02C172.083 326.249 171.316 324.9 170.312 323.972C169.318 323.044 168.12 322.58 166.719 322.58C164.616 322.58 162.973 323.616 161.79 325.69C160.606 327.755 160.014 330.676 160.014 334.455C160.014 336.973 160.279 339.114 160.81 340.875C161.34 342.636 162.102 343.976 163.097 344.895C164.1 345.813 165.308 346.273 166.719 346.273ZM182.23 349V346.443L191.832 335.932C192.959 334.701 193.887 333.631 194.616 332.722C195.346 331.803 195.885 330.941 196.236 330.136C196.596 329.322 196.776 328.47 196.776 327.58C196.776 326.557 196.529 325.671 196.037 324.923C195.554 324.175 194.891 323.598 194.048 323.19C193.205 322.783 192.259 322.58 191.207 322.58C190.09 322.58 189.115 322.812 188.281 323.276C187.457 323.73 186.818 324.369 186.364 325.193C185.919 326.017 185.696 326.983 185.696 328.091H182.344C182.344 326.386 182.737 324.89 183.523 323.602C184.309 322.314 185.379 321.311 186.733 320.591C188.097 319.871 189.626 319.511 191.321 319.511C193.026 319.511 194.536 319.871 195.852 320.591C197.169 321.311 198.201 322.281 198.949 323.503C199.697 324.724 200.071 326.083 200.071 327.58C200.071 328.65 199.877 329.696 199.489 330.719C199.11 331.732 198.447 332.864 197.5 334.114C196.562 335.354 195.26 336.869 193.594 338.659L187.06 345.648V345.875H200.582V349H182.23ZM216.278 349.398C214.403 349.398 212.732 349.076 211.264 348.432C209.806 347.788 208.646 346.893 207.784 345.747C206.932 344.592 206.468 343.252 206.392 341.727H209.972C210.047 342.665 210.369 343.474 210.938 344.156C211.506 344.829 212.249 345.349 213.168 345.719C214.086 346.088 215.104 346.273 216.222 346.273C217.472 346.273 218.58 346.055 219.545 345.619C220.511 345.184 221.269 344.578 221.818 343.801C222.367 343.025 222.642 342.125 222.642 341.102C222.642 340.032 222.377 339.09 221.847 338.276C221.316 337.452 220.54 336.808 219.517 336.344C218.494 335.88 217.244 335.648 215.767 335.648H213.438V332.523H215.767C216.922 332.523 217.936 332.314 218.807 331.898C219.688 331.481 220.374 330.894 220.866 330.136C221.368 329.379 221.619 328.489 221.619 327.466C221.619 326.481 221.402 325.624 220.966 324.895C220.53 324.166 219.915 323.598 219.119 323.19C218.333 322.783 217.405 322.58 216.335 322.58C215.331 322.58 214.384 322.764 213.494 323.134C212.614 323.493 211.894 324.019 211.335 324.71C210.777 325.392 210.473 326.216 210.426 327.182H207.017C207.074 325.657 207.533 324.322 208.395 323.176C209.257 322.021 210.384 321.121 211.776 320.477C213.177 319.833 214.716 319.511 216.392 319.511C218.191 319.511 219.735 319.876 221.023 320.605C222.311 321.325 223.3 322.277 223.991 323.46C224.683 324.644 225.028 325.922 225.028 327.295C225.028 328.934 224.598 330.33 223.736 331.486C222.884 332.641 221.723 333.441 220.256 333.886V334.114C222.093 334.417 223.527 335.198 224.56 336.457C225.592 337.707 226.108 339.256 226.108 341.102C226.108 342.684 225.677 344.104 224.815 345.364C223.963 346.614 222.798 347.598 221.321 348.318C219.844 349.038 218.163 349.398 216.278 349.398ZM254.247 339.909H258.111L261.349 344.17L262.202 345.307L267.031 351.727H263.168L259.986 347.466L259.19 346.386L254.247 339.909ZM268.224 334.455C268.224 337.523 267.67 340.174 266.562 342.409C265.455 344.644 263.935 346.367 262.003 347.58C260.071 348.792 257.865 349.398 255.384 349.398C252.902 349.398 250.696 348.792 248.764 347.58C246.832 346.367 245.313 344.644 244.205 342.409C243.097 340.174 242.543 337.523 242.543 334.455C242.543 331.386 243.097 328.735 244.205 326.5C245.313 324.265 246.832 322.542 248.764 321.33C250.696 320.117 252.902 319.511 255.384 319.511C257.865 319.511 260.071 320.117 262.003 321.33C263.935 322.542 265.455 324.265 266.562 326.5C267.67 328.735 268.224 331.386 268.224 334.455ZM264.815 334.455C264.815 331.936 264.394 329.81 263.551 328.077C262.718 326.344 261.586 325.032 260.156 324.142C258.736 323.252 257.145 322.807 255.384 322.807C253.622 322.807 252.027 323.252 250.597 324.142C249.176 325.032 248.045 326.344 247.202 328.077C246.368 329.81 245.952 331.936 245.952 334.455C245.952 336.973 246.368 339.099 247.202 340.832C248.045 342.565 249.176 343.877 250.597 344.767C252.027 345.657 253.622 346.102 255.384 346.102C257.145 346.102 258.736 345.657 260.156 344.767C261.586 343.877 262.718 342.565 263.551 340.832C264.394 339.099 264.815 336.973 264.815 334.455ZM283.466 349.398C281.591 349.398 279.92 349.076 278.452 348.432C276.993 347.788 275.833 346.893 274.972 345.747C274.119 344.592 273.655 343.252 273.58 341.727H277.159C277.235 342.665 277.557 343.474 278.125 344.156C278.693 344.829 279.437 345.349 280.355 345.719C281.274 346.088 282.292 346.273 283.409 346.273C284.659 346.273 285.767 346.055 286.733 345.619C287.699 345.184 288.456 344.578 289.006 343.801C289.555 343.025 289.83 342.125 289.83 341.102C289.83 340.032 289.564 339.09 289.034 338.276C288.504 337.452 287.727 336.808 286.705 336.344C285.682 335.88 284.432 335.648 282.955 335.648H280.625V332.523H282.955C284.11 332.523 285.123 332.314 285.994 331.898C286.875 331.481 287.562 330.894 288.054 330.136C288.556 329.379 288.807 328.489 288.807 327.466C288.807 326.481 288.589 325.624 288.153 324.895C287.718 324.166 287.102 323.598 286.307 323.19C285.521 322.783 284.593 322.58 283.523 322.58C282.519 322.58 281.572 322.764 280.682 323.134C279.801 323.493 279.081 324.019 278.523 324.71C277.964 325.392 277.661 326.216 277.614 327.182H274.205C274.261 325.657 274.721 324.322 275.582 323.176C276.444 322.021 277.571 321.121 278.963 320.477C280.365 319.833 281.903 319.511 283.58 319.511C285.379 319.511 286.922 319.876 288.21 320.605C289.498 321.325 290.488 322.277 291.179 323.46C291.87 324.644 292.216 325.922 292.216 327.295C292.216 328.934 291.785 330.33 290.923 331.486C290.071 332.641 288.911 333.441 287.443 333.886V334.114C289.28 334.417 290.715 335.198 291.747 336.457C292.779 337.707 293.295 339.256 293.295 341.102C293.295 342.684 292.865 344.104 292.003 345.364C291.151 346.614 289.986 347.598 288.509 348.318C287.031 349.038 285.35 349.398 283.466 349.398Z" fill="black"/>
<circle cx="92.5" cy="334.5" r="8.5" fill="#D9D9D9"/>
<path d="M93.2163 29.152C92.171 29.152 91.2003 28.9067 90.3043 28.416C89.4083 27.904 88.6937 27.2107 88.1603 26.336C87.627 25.4613 87.3603 24.4907 87.3603 23.424C87.3603 22.4427 87.6057 21.5147 88.0963 20.64C88.6083 19.7653 89.3017 19.0613 90.1763 18.528C91.0723 17.9733 92.0857 17.696 93.2163 17.696C94.2617 17.696 95.2217 17.952 96.0963 18.464C96.971 18.9547 97.675 19.6267 98.2083 20.48C98.763 21.3333 99.0403 22.3147 99.0403 23.424C99.0403 24.4693 98.7737 25.4293 98.2403 26.304C97.7283 27.1787 97.0243 27.872 96.1283 28.384C95.2537 28.896 94.283 29.152 93.2163 29.152ZM119.957 32V9.44H127.605C130.122 9.44 132.245 9.87733 133.973 10.752C135.722 11.6267 137.045 12.9067 137.941 14.592C138.837 16.256 139.285 18.2933 139.285 20.704C139.285 23.1147 138.837 25.1627 137.941 26.848C137.045 28.5333 135.722 29.8133 133.973 30.688C132.245 31.5627 130.122 32 127.605 32H119.957ZM122.933 29.472H127.381C130.389 29.472 132.618 28.7467 134.069 27.296C135.52 25.8453 136.245 23.648 136.245 20.704C136.245 17.76 135.52 15.5733 134.069 14.144C132.618 12.6933 130.389 11.968 127.381 11.968H122.933V29.472ZM143.605 32V19.84C143.605 19.2 143.584 18.5493 143.541 17.888C143.52 17.2053 143.466 16.544 143.381 15.904H146.197L146.549 19.936L146.069 19.968C146.282 18.9867 146.645 18.176 147.157 17.536C147.69 16.8747 148.32 16.3947 149.045 16.096C149.792 15.776 150.56 15.616 151.349 15.616C151.69 15.616 151.978 15.6267 152.213 15.648C152.448 15.6693 152.682 15.7227 152.917 15.808L152.853 18.4C152.533 18.272 152.234 18.1973 151.957 18.176C151.701 18.1333 151.381 18.112 150.997 18.112C150.058 18.112 149.248 18.3253 148.565 18.752C147.904 19.1787 147.392 19.744 147.029 20.448C146.688 21.152 146.517 21.9093 146.517 22.72V32H143.605ZM161.469 32.288C160.061 32.288 158.823 31.9573 157.757 31.296C156.69 30.6347 155.858 29.6747 155.261 28.416C154.663 27.1573 154.365 25.664 154.365 23.936C154.365 22.208 154.663 20.7253 155.261 19.488C155.858 18.2293 156.69 17.2693 157.757 16.608C158.823 15.9467 160.061 15.616 161.469 15.616C162.898 15.616 164.135 15.9787 165.181 16.704C166.247 17.408 166.951 18.3787 167.293 19.616H166.909L167.261 15.904H170.077C170.013 16.544 169.949 17.184 169.885 17.824C169.842 18.464 169.821 19.0933 169.821 19.712V32H166.909V28.32H167.261C166.919 29.536 166.215 30.5067 165.149 31.232C164.103 31.936 162.877 32.288 161.469 32.288ZM162.141 29.984C163.591 29.984 164.754 29.472 165.629 28.448C166.503 27.424 166.941 25.92 166.941 23.936C166.941 21.952 166.503 20.4587 165.629 19.456C164.754 18.4533 163.591 17.952 162.141 17.952C160.69 17.952 159.517 18.4533 158.621 19.456C157.746 20.4587 157.309 21.952 157.309 23.936C157.309 25.92 157.746 27.424 158.621 28.448C159.495 29.472 160.669 29.984 162.141 29.984ZM175.596 32V18.144H172.46V15.904H176.396L175.596 16.64V14.048C175.596 12.1707 176.065 10.752 177.004 9.792C177.942 8.81067 179.308 8.32 181.1 8.32C181.526 8.32 181.974 8.352 182.444 8.416C182.934 8.48 183.34 8.58667 183.66 8.736V11.104C183.404 10.9973 183.084 10.912 182.7 10.848C182.316 10.784 181.942 10.752 181.58 10.752C180.94 10.752 180.385 10.88 179.916 11.136C179.446 11.392 179.094 11.776 178.86 12.288C178.625 12.7787 178.508 13.4293 178.508 14.24V16.512L178.06 15.904H182.956V18.144H178.508V32H175.596ZM190.966 32.288C189.28 32.288 188 31.8293 187.126 30.912C186.272 29.9733 185.846 28.5653 185.846 26.688V18.144H182.71V15.904H185.846V11.584L188.758 10.784V15.904H193.302V18.144H188.758V26.432C188.758 27.6693 188.971 28.5547 189.398 29.088C189.846 29.6 190.486 29.856 191.318 29.856C191.744 29.856 192.107 29.824 192.406 29.76C192.726 29.6747 193.014 29.5787 193.27 29.472V31.872C192.95 32 192.576 32.096 192.15 32.16C191.744 32.2453 191.35 32.288 190.966 32.288ZM211.289 32L203.385 9.44H206.521L213.209 29.344H212.057L219.161 9.44H221.497L228.153 29.344H227.129L234.041 9.44H236.985L229.017 32H226.425L219.929 12.96H220.601L213.849 32H211.289ZM240.45 32V8.448H243.362V19.392H242.946C243.415 18.1547 244.172 17.216 245.218 16.576C246.263 15.936 247.468 15.616 248.834 15.616C250.775 15.616 252.204 16.1387 253.122 17.184C254.06 18.2293 254.53 19.808 254.53 21.92V32H251.618V22.08C251.618 20.6507 251.34 19.616 250.786 18.976C250.231 18.3147 249.324 17.984 248.066 17.984C246.658 17.984 245.516 18.4213 244.642 19.296C243.788 20.1707 243.362 21.3333 243.362 22.784V32H240.45ZM259.293 32V15.904H262.205V32H259.293ZM259.037 12.384V9.248H262.493V12.384H259.037ZM273.091 32.288C271.405 32.288 270.125 31.8293 269.251 30.912C268.397 29.9733 267.971 28.5653 267.971 26.688V18.144H264.835V15.904H267.971V11.584L270.883 10.784V15.904H275.427V18.144H270.883V26.432C270.883 27.6693 271.096 28.5547 271.523 29.088C271.971 29.6 272.611 29.856 273.443 29.856C273.869 29.856 274.232 29.824 274.531 29.76C274.851 29.6747 275.139 29.5787 275.395 29.472V31.872C275.075 32 274.701 32.096 274.275 32.16C273.869 32.2453 273.475 32.288 273.091 32.288ZM285.653 32.288C283.093 32.288 281.066 31.552 279.573 30.08C278.101 28.608 277.365 26.5813 277.365 24C277.365 22.2933 277.685 20.8213 278.325 19.584C278.986 18.3253 279.893 17.3547 281.045 16.672C282.197 15.968 283.541 15.616 285.077 15.616C286.549 15.616 287.797 15.936 288.821 16.576C289.845 17.1947 290.623 18.08 291.157 19.232C291.69 20.384 291.957 21.7493 291.957 23.328V24.288H279.637V22.56H289.973L289.429 22.976C289.429 21.312 289.055 20.0213 288.309 19.104C287.583 18.1867 286.506 17.728 285.077 17.728C283.519 17.728 282.314 18.272 281.461 19.36C280.607 20.4267 280.181 21.888 280.181 23.744V24.032C280.181 25.9947 280.661 27.4773 281.621 28.48C282.602 29.4827 283.957 29.984 285.685 29.984C286.645 29.984 287.541 29.8453 288.373 29.568C289.205 29.2907 290.005 28.832 290.773 28.192L291.733 30.208C291.007 30.8693 290.101 31.3813 289.013 31.744C287.946 32.1067 286.826 32.288 285.653 32.288ZM295.762 38.912V19.712C295.762 19.0933 295.741 18.464 295.698 17.824C295.655 17.184 295.591 16.544 295.506 15.904H298.322L298.674 19.616H298.322C298.642 18.3787 299.325 17.408 300.37 16.704C301.415 15.9787 302.663 15.616 304.114 15.616C305.543 15.616 306.791 15.9467 307.858 16.608C308.925 17.2693 309.746 18.2293 310.322 19.488C310.919 20.7253 311.218 22.208 311.218 23.936C311.218 25.664 310.919 27.1573 310.322 28.416C309.746 29.6747 308.925 30.6347 307.858 31.296C306.791 31.9573 305.543 32.288 304.114 32.288C302.685 32.288 301.447 31.936 300.402 31.232C299.378 30.5067 298.685 29.536 298.322 28.32H298.674V38.912H295.762ZM303.442 29.984C304.914 29.984 306.087 29.472 306.962 28.448C307.837 27.424 308.274 25.92 308.274 23.936C308.274 21.952 307.837 20.4587 306.962 19.456C306.087 18.4533 304.914 17.952 303.442 17.952C301.97 17.952 300.797 18.4533 299.922 19.456C299.069 20.4587 298.642 21.952 298.642 23.936C298.642 25.92 299.069 27.424 299.922 28.448C300.797 29.472 301.97 29.984 303.442 29.984ZM321.281 32.288C319.873 32.288 318.636 31.9573 317.569 31.296C316.502 30.6347 315.67 29.6747 315.073 28.416C314.476 27.1573 314.177 25.664 314.177 23.936C314.177 22.208 314.476 20.7253 315.073 19.488C315.67 18.2293 316.502 17.2693 317.569 16.608C318.636 15.9467 319.873 15.616 321.281 15.616C322.71 15.616 323.948 15.9787 324.993 16.704C326.06 17.408 326.764 18.3787 327.105 19.616H326.721L327.073 15.904H329.889C329.825 16.544 329.761 17.184 329.697 17.824C329.654 18.464 329.633 19.0933 329.633 19.712V32H326.721V28.32H327.073C326.732 29.536 326.028 30.5067 324.961 31.232C323.916 31.936 322.689 32.288 321.281 32.288ZM321.953 29.984C323.404 29.984 324.566 29.472 325.441 28.448C326.316 27.424 326.753 25.92 326.753 23.936C326.753 21.952 326.316 20.4587 325.441 19.456C324.566 18.4533 323.404 17.952 321.953 17.952C320.502 17.952 319.329 18.4533 318.433 19.456C317.558 20.4587 317.121 21.952 317.121 23.936C317.121 25.92 317.558 27.424 318.433 28.448C319.308 29.472 320.481 29.984 321.953 29.984ZM334.512 38.912V19.712C334.512 19.0933 334.491 18.464 334.448 17.824C334.405 17.184 334.341 16.544 334.256 15.904H337.072L337.424 19.616H337.072C337.392 18.3787 338.075 17.408 339.12 16.704C340.165 15.9787 341.413 15.616 342.864 15.616C344.293 15.616 345.541 15.9467 346.608 16.608C347.675 17.2693 348.496 18.2293 349.072 19.488C349.669 20.7253 349.968 22.208 349.968 23.936C349.968 25.664 349.669 27.1573 349.072 28.416C348.496 29.6747 347.675 30.6347 346.608 31.296C345.541 31.9573 344.293 32.288 342.864 32.288C341.435 32.288 340.197 31.936 339.152 31.232C338.128 30.5067 337.435 29.536 337.072 28.32H337.424V38.912H334.512ZM342.192 29.984C343.664 29.984 344.837 29.472 345.712 28.448C346.587 27.424 347.024 25.92 347.024 23.936C347.024 21.952 346.587 20.4587 345.712 19.456C344.837 18.4533 343.664 17.952 342.192 17.952C340.72 17.952 339.547 18.4533 338.672 19.456C337.819 20.4587 337.392 21.952 337.392 23.936C337.392 25.92 337.819 27.424 338.672 28.448C339.547 29.472 340.72 29.984 342.192 29.984ZM361.215 32.288C358.655 32.288 356.628 31.552 355.135 30.08C353.663 28.608 352.927 26.5813 352.927 24C352.927 22.2933 353.247 20.8213 353.887 19.584C354.548 18.3253 355.455 17.3547 356.607 16.672C357.759 15.968 359.103 15.616 360.639 15.616C362.111 15.616 363.359 15.936 364.383 16.576C365.407 17.1947 366.186 18.08 366.719 19.232C367.252 20.384 367.519 21.7493 367.519 23.328V24.288H355.199V22.56H365.535L364.991 22.976C364.991 21.312 364.618 20.0213 363.871 19.104C363.146 18.1867 362.068 17.728 360.639 17.728C359.082 17.728 357.876 18.272 357.023 19.36C356.17 20.4267 355.743 21.888 355.743 23.744V24.032C355.743 25.9947 356.223 27.4773 357.183 28.48C358.164 29.4827 359.519 29.984 361.247 29.984C362.207 29.984 363.103 29.8453 363.935 29.568C364.767 29.2907 365.567 28.832 366.335 28.192L367.295 30.208C366.57 30.8693 365.663 31.3813 364.575 31.744C363.508 32.1067 362.388 32.288 361.215 32.288ZM371.293 32V19.84C371.293 19.2 371.271 18.5493 371.229 17.888C371.207 17.2053 371.154 16.544 371.069 15.904H373.885L374.237 19.936L373.757 19.968C373.97 18.9867 374.333 18.176 374.845 17.536C375.378 16.8747 376.007 16.3947 376.733 16.096C377.479 15.776 378.247 15.616 379.037 15.616C379.378 15.616 379.666 15.6267 379.901 15.648C380.135 15.6693 380.37 15.7227 380.605 15.808L380.541 18.4C380.221 18.272 379.922 18.1973 379.645 18.176C379.389 18.1333 379.069 18.112 378.685 18.112C377.746 18.112 376.935 18.3253 376.253 18.752C375.591 19.1787 375.079 19.744 374.717 20.448C374.375 21.152 374.205 21.9093 374.205 22.72V32H371.293ZM93.2163 69.152C92.171 69.152 91.2003 68.9067 90.3043 68.416C89.4083 67.904 88.6937 67.2107 88.1603 66.336C87.627 65.4613 87.3603 64.4907 87.3603 63.424C87.3603 62.4427 87.6057 61.5147 88.0963 60.64C88.6083 59.7653 89.3017 59.0613 90.1763 58.528C91.0723 57.9733 92.0857 57.696 93.2163 57.696C94.2617 57.696 95.2217 57.952 96.0963 58.464C96.971 58.9547 97.675 59.6267 98.2083 60.48C98.763 61.3333 99.0403 62.3147 99.0403 63.424C99.0403 64.4693 98.7737 65.4293 98.2403 66.304C97.7283 67.1787 97.0243 67.872 96.1283 68.384C95.2537 68.896 94.283 69.152 93.2163 69.152ZM119.957 72V49.44H129.141C131.573 49.44 133.44 49.952 134.741 50.976C136.042 52 136.693 53.44 136.693 55.296C136.693 56.704 136.266 57.8773 135.413 58.816C134.581 59.7547 133.44 60.384 131.989 60.704V60.224C133.653 60.416 134.944 60.992 135.861 61.952C136.8 62.912 137.269 64.1813 137.269 65.76C137.269 67.7653 136.597 69.312 135.253 70.4C133.909 71.4667 132.01 72 129.557 72H119.957ZM122.837 69.632H129.269C130.848 69.632 132.085 69.3333 132.981 68.736C133.898 68.1173 134.357 67.104 134.357 65.696C134.357 64.2667 133.898 63.2533 132.981 62.656C132.085 62.0587 130.848 61.76 129.269 61.76H122.837V69.632ZM122.837 59.392H128.725C130.41 59.392 131.669 59.072 132.501 58.432C133.333 57.7707 133.749 56.8213 133.749 55.584C133.749 54.3467 133.333 53.408 132.501 52.768C131.669 52.1067 130.41 51.776 128.725 51.776H122.837V59.392ZM148.809 72.288C146.249 72.288 144.222 71.552 142.729 70.08C141.257 68.608 140.521 66.5813 140.521 64C140.521 62.2933 140.841 60.8213 141.481 59.584C142.142 58.3253 143.049 57.3547 144.201 56.672C145.353 55.968 146.697 55.616 148.233 55.616C149.705 55.616 150.953 55.936 151.977 56.576C153.001 57.1947 153.779 58.08 154.313 59.232C154.846 60.384 155.113 61.7493 155.113 63.328V64.288H142.793V62.56H153.129L152.585 62.976C152.585 61.312 152.211 60.0213 151.465 59.104C150.739 58.1867 149.662 57.728 148.233 57.728C146.675 57.728 145.47 58.272 144.617 59.36C143.763 60.4267 143.337 61.888 143.337 63.744V64.032C143.337 65.9947 143.817 67.4773 144.777 68.48C145.758 69.4827 147.113 69.984 148.841 69.984C149.801 69.984 150.697 69.8453 151.529 69.568C152.361 69.2907 153.161 68.832 153.929 68.192L154.889 70.208C154.163 70.8693 153.257 71.3813 152.169 71.744C151.102 72.1067 149.982 72.288 148.809 72.288ZM164.903 72.288C163.218 72.288 161.938 71.8293 161.063 70.912C160.21 69.9733 159.783 68.5653 159.783 66.688V58.144H156.647V55.904H159.783V51.584L162.695 50.784V55.904H167.239V58.144H162.695V66.432C162.695 67.6693 162.908 68.5547 163.335 69.088C163.783 69.6 164.423 69.856 165.255 69.856C165.682 69.856 166.044 69.824 166.343 69.76C166.663 69.6747 166.951 69.5787 167.207 69.472V71.872C166.887 72 166.514 72.096 166.087 72.16C165.682 72.2453 165.287 72.288 164.903 72.288ZM176.437 72.288C175.029 72.288 173.792 71.9573 172.725 71.296C171.659 70.6347 170.827 69.6747 170.229 68.416C169.632 67.1573 169.333 65.664 169.333 63.936C169.333 62.208 169.632 60.7253 170.229 59.488C170.827 58.2293 171.659 57.2693 172.725 56.608C173.792 55.9467 175.029 55.616 176.437 55.616C177.867 55.616 179.104 55.9787 180.149 56.704C181.216 57.408 181.92 58.3787 182.261 59.616H181.877L182.229 55.904H185.045C184.981 56.544 184.917 57.184 184.853 57.824C184.811 58.464 184.789 59.0933 184.789 59.712V72H181.877V68.32H182.229C181.888 69.536 181.184 70.5067 180.117 71.232C179.072 71.936 177.845 72.288 176.437 72.288ZM177.109 69.984C178.56 69.984 179.723 69.472 180.597 68.448C181.472 67.424 181.909 65.92 181.909 63.936C181.909 61.952 181.472 60.4587 180.597 59.456C179.723 58.4533 178.56 57.952 177.109 57.952C175.659 57.952 174.485 58.4533 173.589 59.456C172.715 60.4587 172.277 61.952 172.277 63.936C172.277 65.92 172.715 67.424 173.589 68.448C174.464 69.472 175.637 69.984 177.109 69.984ZM198.426 72V49.44H206.074C208.591 49.44 210.714 49.8773 212.442 50.752C214.191 51.6267 215.514 52.9067 216.41 54.592C217.306 56.256 217.754 58.2933 217.754 60.704C217.754 63.1147 217.306 65.1627 216.41 66.848C215.514 68.5333 214.191 69.8133 212.442 70.688C210.714 71.5627 208.591 72 206.074 72H198.426ZM201.402 69.472H205.85C208.858 69.472 211.087 68.7467 212.538 67.296C213.988 65.8453 214.714 63.648 214.714 60.704C214.714 57.76 213.988 55.5733 212.538 54.144C211.087 52.6933 208.858 51.968 205.85 51.968H201.402V69.472ZM229.434 72.288C226.874 72.288 224.847 71.552 223.354 70.08C221.882 68.608 221.146 66.5813 221.146 64C221.146 62.2933 221.466 60.8213 222.106 59.584C222.767 58.3253 223.674 57.3547 224.826 56.672C225.978 55.968 227.322 55.616 228.858 55.616C230.33 55.616 231.578 55.936 232.602 56.576C233.626 57.1947 234.404 58.08 234.938 59.232C235.471 60.384 235.738 61.7493 235.738 63.328V64.288H223.418V62.56H233.754L233.21 62.976C233.21 61.312 232.836 60.0213 232.09 59.104C231.364 58.1867 230.287 57.728 228.858 57.728C227.3 57.728 226.095 58.272 225.242 59.36C224.388 60.4267 223.962 61.888 223.962 63.744V64.032C223.962 65.9947 224.442 67.4773 225.402 68.48C226.383 69.4827 227.738 69.984 229.466 69.984C230.426 69.984 231.322 69.8453 232.154 69.568C232.986 69.2907 233.786 68.832 234.554 68.192L235.514 70.208C234.788 70.8693 233.882 71.3813 232.794 71.744C231.727 72.1067 230.607 72.288 229.434 72.288ZM237.178 72L244.474 62.976V64.416L237.594 55.904H241.082L246.106 62.336H245.05L250.074 55.904H253.53L246.746 64.352V63.04L253.946 72H250.426L245.05 65.12H246.106L240.666 72H237.178ZM265.075 72V48.448H267.987V72H265.075ZM279 72.288C277.592 72.288 276.354 71.9573 275.288 71.296C274.221 70.6347 273.389 69.6747 272.792 68.416C272.194 67.1573 271.896 65.664 271.896 63.936C271.896 62.208 272.194 60.7253 272.792 59.488C273.389 58.2293 274.221 57.2693 275.288 56.608C276.354 55.9467 277.592 55.616 279 55.616C280.429 55.616 281.666 55.9787 282.712 56.704C283.778 57.408 284.482 58.3787 284.824 59.616H284.44L284.792 55.904H287.608C287.544 56.544 287.48 57.184 287.416 57.824C287.373 58.464 287.352 59.0933 287.352 59.712V72H284.44V68.32H284.792C284.45 69.536 283.746 70.5067 282.68 71.232C281.634 71.936 280.408 72.288 279 72.288ZM279.672 69.984C281.122 69.984 282.285 69.472 283.16 68.448C284.034 67.424 284.472 65.92 284.472 63.936C284.472 61.952 284.034 60.4587 283.16 59.456C282.285 58.4533 281.122 57.952 279.672 57.952C278.221 57.952 277.048 58.4533 276.152 59.456C275.277 60.4587 274.84 61.952 274.84 63.936C274.84 65.92 275.277 67.424 276.152 68.448C277.026 69.472 278.2 69.984 279.672 69.984ZM297.959 72.288C296.017 72.288 294.556 71.7653 293.575 70.72C292.615 69.6747 292.135 68.064 292.135 65.888V55.904H295.047V65.824C295.047 67.232 295.335 68.2667 295.911 68.928C296.487 69.5893 297.383 69.92 298.599 69.92C299.921 69.92 300.988 69.4827 301.799 68.608C302.631 67.712 303.047 66.528 303.047 65.056V55.904H305.959V72H303.143V68.448H303.559C303.111 69.664 302.396 70.6133 301.415 71.296C300.433 71.9573 299.281 72.288 297.959 72.288ZM310.856 72V59.712C310.856 59.0933 310.834 58.464 310.792 57.824C310.749 57.184 310.685 56.544 310.6 55.904H313.416L313.736 59.36H313.352C313.842 58.144 314.6 57.216 315.624 56.576C316.648 55.936 317.842 55.616 319.208 55.616C321.106 55.616 322.536 56.1387 323.496 57.184C324.456 58.208 324.936 59.808 324.936 61.984V72H322.024V62.144C322.024 60.672 321.736 59.616 321.16 58.976C320.584 58.3147 319.688 57.984 318.472 57.984C317.021 57.984 315.869 58.4213 315.016 59.296C314.184 60.1707 313.768 61.3547 313.768 62.848V72H310.856ZM336.612 72.288C335.012 72.288 333.625 71.9573 332.452 71.296C331.278 70.6133 330.361 69.6427 329.7 68.384C329.06 67.104 328.74 65.5893 328.74 63.84C328.74 62.112 329.07 60.64 329.732 59.424C330.393 58.1867 331.31 57.248 332.484 56.608C333.657 55.9467 335.033 55.616 336.612 55.616C337.657 55.616 338.67 55.7973 339.652 56.16C340.633 56.5013 341.433 57.0027 342.052 57.664L341.06 59.712C340.441 59.1147 339.758 58.6773 339.012 58.4C338.265 58.1013 337.529 57.952 336.804 57.952C335.225 57.952 333.988 58.464 333.092 59.488C332.196 60.4907 331.748 61.952 331.748 63.872C331.748 65.8133 332.196 67.3067 333.092 68.352C333.988 69.3973 335.225 69.92 336.804 69.92C337.508 69.92 338.233 69.7813 338.98 69.504C339.726 69.2267 340.42 68.7893 341.06 68.192L342.052 70.208C341.412 70.8907 340.59 71.4133 339.588 71.776C338.606 72.1173 337.614 72.288 336.612 72.288ZM345.606 72V48.448H348.518V59.392H348.102C348.571 58.1547 349.328 57.216 350.374 56.576C351.419 55.936 352.624 55.616 353.99 55.616C355.931 55.616 357.36 56.1387 358.278 57.184C359.216 58.2293 359.686 59.808 359.686 61.92V72H356.774V62.08C356.774 60.6507 356.496 59.616 355.942 58.976C355.387 58.3147 354.48 57.984 353.222 57.984C351.814 57.984 350.672 58.4213 349.798 59.296C348.944 60.1707 348.518 61.3333 348.518 62.784V72H345.606ZM372.887 72V59.712C372.887 59.0933 372.866 58.464 372.823 57.824C372.78 57.184 372.716 56.544 372.631 55.904H375.447L375.767 59.36H375.383C375.81 58.1653 376.492 57.248 377.431 56.608C378.37 55.9467 379.49 55.616 380.791 55.616C382.114 55.616 383.202 55.936 384.055 56.576C384.908 57.1947 385.484 58.176 385.783 59.52H385.303C385.708 58.3253 386.423 57.376 387.447 56.672C388.471 55.968 389.666 55.616 391.031 55.616C392.802 55.616 394.135 56.1387 395.031 57.184C395.927 58.208 396.375 59.808 396.375 61.984V72H393.463V62.144C393.463 60.672 393.207 59.616 392.695 58.976C392.183 58.3147 391.372 57.984 390.263 57.984C388.962 57.984 387.938 58.432 387.191 59.328C386.444 60.2027 386.071 61.3973 386.071 62.912V72H383.159V62.144C383.159 60.672 382.903 59.616 382.391 58.976C381.9 58.3147 381.09 57.984 379.959 57.984C378.658 57.984 377.634 58.432 376.887 59.328C376.162 60.2027 375.799 61.3973 375.799 62.912V72H372.887ZM407.281 72.288C405.873 72.288 404.636 71.9573 403.569 71.296C402.502 70.6347 401.67 69.6747 401.073 68.416C400.476 67.1573 400.177 65.664 400.177 63.936C400.177 62.208 400.476 60.7253 401.073 59.488C401.67 58.2293 402.502 57.2693 403.569 56.608C404.636 55.9467 405.873 55.616 407.281 55.616C408.71 55.616 409.948 55.9787 410.993 56.704C412.06 57.408 412.764 58.3787 413.105 59.616H412.721L413.073 55.904H415.889C415.825 56.544 415.761 57.184 415.697 57.824C415.654 58.464 415.633 59.0933 415.633 59.712V72H412.721V68.32H413.073C412.732 69.536 412.028 70.5067 410.961 71.232C409.916 71.936 408.689 72.288 407.281 72.288ZM407.953 69.984C409.404 69.984 410.566 69.472 411.441 68.448C412.316 67.424 412.753 65.92 412.753 63.936C412.753 61.952 412.316 60.4587 411.441 59.456C410.566 58.4533 409.404 57.952 407.953 57.952C406.502 57.952 405.329 58.4533 404.433 59.456C403.558 60.4587 403.121 61.952 403.121 63.936C403.121 65.92 403.558 67.424 404.433 68.448C405.308 69.472 406.481 69.984 407.953 69.984ZM420.512 72V55.904H423.424V72H420.512ZM420.256 52.384V49.248H423.712V52.384H420.256ZM428.293 72V59.712C428.293 59.0933 428.272 58.464 428.229 57.824C428.187 57.184 428.123 56.544 428.037 55.904H430.853L431.173 59.36H430.789C431.28 58.144 432.037 57.216 433.061 56.576C434.085 55.936 435.28 55.616 436.645 55.616C438.544 55.616 439.973 56.1387 440.933 57.184C441.893 58.208 442.373 59.808 442.373 61.984V72H439.461V62.144C439.461 60.672 439.173 59.616 438.597 58.976C438.021 58.3147 437.125 57.984 435.909 57.984C434.459 57.984 433.307 58.4213 432.453 59.296C431.621 60.1707 431.205 61.3547 431.205 62.848V72H428.293ZM447.137 72V59.712C447.137 59.0933 447.116 58.464 447.073 57.824C447.03 57.184 446.966 56.544 446.881 55.904H449.697L450.017 59.36H449.633C450.124 58.144 450.881 57.216 451.905 56.576C452.929 55.936 454.124 55.616 455.489 55.616C457.388 55.616 458.817 56.1387 459.777 57.184C460.737 58.208 461.217 59.808 461.217 61.984V72H458.305V62.144C458.305 60.672 458.017 59.616 457.441 58.976C456.865 58.3147 455.969 57.984 454.753 57.984C453.302 57.984 452.15 58.4213 451.297 59.296C450.465 60.1707 450.049 61.3547 450.049 62.848V72H447.137ZM473.309 72.288C470.749 72.288 468.722 71.552 467.229 70.08C465.757 68.608 465.021 66.5813 465.021 64C465.021 62.2933 465.341 60.8213 465.981 59.584C466.642 58.3253 467.549 57.3547 468.701 56.672C469.853 55.968 471.197 55.616 472.733 55.616C474.205 55.616 475.453 55.936 476.477 56.576C477.501 57.1947 478.279 58.08 478.813 59.232C479.346 60.384 479.613 61.7493 479.613 63.328V64.288H467.293V62.56H477.629L477.085 62.976C477.085 61.312 476.711 60.0213 475.965 59.104C475.239 58.1867 474.162 57.728 472.733 57.728C471.175 57.728 469.97 58.272 469.117 59.36C468.263 60.4267 467.837 61.888 467.837 63.744V64.032C467.837 65.9947 468.317 67.4773 469.277 68.48C470.258 69.4827 471.613 69.984 473.341 69.984C474.301 69.984 475.197 69.8453 476.029 69.568C476.861 69.2907 477.661 68.832 478.429 68.192L479.389 70.208C478.663 70.8693 477.757 71.3813 476.669 71.744C475.602 72.1067 474.482 72.288 473.309 72.288ZM489.403 72.288C487.718 72.288 486.438 71.8293 485.563 70.912C484.71 69.9733 484.283 68.5653 484.283 66.688V58.144H481.147V55.904H484.283V51.584L487.195 50.784V55.904H491.739V58.144H487.195V66.432C487.195 67.6693 487.408 68.5547 487.835 69.088C488.283 69.6 488.923 69.856 489.755 69.856C490.182 69.856 490.544 69.824 490.843 69.76C491.163 69.6747 491.451 69.5787 491.707 69.472V71.872C491.387 72 491.014 72.096 490.587 72.16C490.182 72.2453 489.787 72.288 489.403 72.288ZM93.2163 109.152C92.171 109.152 91.2003 108.907 90.3043 108.416C89.4083 107.904 88.6937 107.211 88.1603 106.336C87.627 105.461 87.3603 104.491 87.3603 103.424C87.3603 102.443 87.6057 101.515 88.0963 100.64C88.6083 99.7653 89.3017 99.0613 90.1763 98.528C91.0723 97.9733 92.0857 97.696 93.2163 97.696C94.2617 97.696 95.2217 97.952 96.0963 98.464C96.971 98.9547 97.675 99.6267 98.2083 100.48C98.763 101.333 99.0403 102.315 99.0403 103.424C99.0403 104.469 98.7737 105.429 98.2403 106.304C97.7283 107.179 97.0243 107.872 96.1283 108.384C95.2537 108.896 94.283 109.152 93.2163 109.152ZM119.957 112V89.44H129.141C131.573 89.44 133.44 89.952 134.741 90.976C136.042 92 136.693 93.44 136.693 95.296C136.693 96.704 136.266 97.8773 135.413 98.816C134.581 99.7547 133.44 100.384 131.989 100.704V100.224C133.653 100.416 134.944 100.992 135.861 101.952C136.8 102.912 137.269 104.181 137.269 105.76C137.269 107.765 136.597 109.312 135.253 110.4C133.909 111.467 132.01 112 129.557 112H119.957ZM122.837 109.632H129.269C130.848 109.632 132.085 109.333 132.981 108.736C133.898 108.117 134.357 107.104 134.357 105.696C134.357 104.267 133.898 103.253 132.981 102.656C132.085 102.059 130.848 101.76 129.269 101.76H122.837V109.632ZM122.837 99.392H128.725C130.41 99.392 131.669 99.072 132.501 98.432C133.333 97.7707 133.749 96.8213 133.749 95.584C133.749 94.3467 133.333 93.408 132.501 92.768C131.669 92.1067 130.41 91.776 128.725 91.776H122.837V99.392ZM148.809 112.288C146.249 112.288 144.222 111.552 142.729 110.08C141.257 108.608 140.521 106.581 140.521 104C140.521 102.293 140.841 100.821 141.481 99.584C142.142 98.3253 143.049 97.3547 144.201 96.672C145.353 95.968 146.697 95.616 148.233 95.616C149.705 95.616 150.953 95.936 151.977 96.576C153.001 97.1947 153.779 98.08 154.313 99.232C154.846 100.384 155.113 101.749 155.113 103.328V104.288H142.793V102.56H153.129L152.585 102.976C152.585 101.312 152.211 100.021 151.465 99.104C150.739 98.1867 149.662 97.728 148.233 97.728C146.675 97.728 145.47 98.272 144.617 99.36C143.763 100.427 143.337 101.888 143.337 103.744V104.032C143.337 105.995 143.817 107.477 144.777 108.48C145.758 109.483 147.113 109.984 148.841 109.984C149.801 109.984 150.697 109.845 151.529 109.568C152.361 109.291 153.161 108.832 153.929 108.192L154.889 110.208C154.163 110.869 153.257 111.381 152.169 111.744C151.102 112.107 149.982 112.288 148.809 112.288ZM164.903 112.288C163.218 112.288 161.938 111.829 161.063 110.912C160.21 109.973 159.783 108.565 159.783 106.688V98.144H156.647V95.904H159.783V91.584L162.695 90.784V95.904H167.239V98.144H162.695V106.432C162.695 107.669 162.908 108.555 163.335 109.088C163.783 109.6 164.423 109.856 165.255 109.856C165.682 109.856 166.044 109.824 166.343 109.76C166.663 109.675 166.951 109.579 167.207 109.472V111.872C166.887 112 166.514 112.096 166.087 112.16C165.682 112.245 165.287 112.288 164.903 112.288ZM176.437 112.288C175.029 112.288 173.792 111.957 172.725 111.296C171.659 110.635 170.827 109.675 170.229 108.416C169.632 107.157 169.333 105.664 169.333 103.936C169.333 102.208 169.632 100.725 170.229 99.488C170.827 98.2293 171.659 97.2693 172.725 96.608C173.792 95.9467 175.029 95.616 176.437 95.616C177.867 95.616 179.104 95.9787 180.149 96.704C181.216 97.408 181.92 98.3787 182.261 99.616H181.877L182.229 95.904H185.045C184.981 96.544 184.917 97.184 184.853 97.824C184.811 98.464 184.789 99.0933 184.789 99.712V112H181.877V108.32H182.229C181.888 109.536 181.184 110.507 180.117 111.232C179.072 111.936 177.845 112.288 176.437 112.288ZM177.109 109.984C178.56 109.984 179.723 109.472 180.597 108.448C181.472 107.424 181.909 105.92 181.909 103.936C181.909 101.952 181.472 100.459 180.597 99.456C179.723 98.4533 178.56 97.952 177.109 97.952C175.659 97.952 174.485 98.4533 173.589 99.456C172.715 100.459 172.277 101.952 172.277 103.936C172.277 105.92 172.715 107.424 173.589 108.448C174.464 109.472 175.637 109.984 177.109 109.984ZM198.426 112V89.44H200.73L214.874 108.128H214.106V89.44H216.89V112H214.618L200.474 93.312H201.21V112H198.426ZM222.363 112V89.44H236.635V91.872H225.339V99.424H235.899V101.856H225.339V112H222.363ZM245.959 112V91.968H238.151V89.44H256.807V91.968H248.967V112H245.959ZM268.426 112V89.44H271.05L279.946 109.472H278.986L287.882 89.44H290.474V112H287.754V93.408H288.746L280.394 112H278.506L270.154 93.408H271.146V112H268.426ZM301.812 112.288C300.404 112.288 299.167 111.957 298.1 111.296C297.034 110.635 296.202 109.675 295.604 108.416C295.007 107.157 294.708 105.664 294.708 103.936C294.708 102.208 295.007 100.725 295.604 99.488C296.202 98.2293 297.034 97.2693 298.1 96.608C299.167 95.9467 300.404 95.616 301.812 95.616C303.242 95.616 304.479 95.9787 305.524 96.704C306.591 97.408 307.295 98.3787 307.636 99.616H307.252L307.604 95.904H310.42C310.356 96.544 310.292 97.184 310.228 97.824C310.186 98.464 310.164 99.0933 310.164 99.712V112H307.252V108.32H307.604C307.263 109.536 306.559 110.507 305.492 111.232C304.447 111.936 303.22 112.288 301.812 112.288ZM302.484 109.984C303.935 109.984 305.098 109.472 305.972 108.448C306.847 107.424 307.284 105.92 307.284 103.936C307.284 101.952 306.847 100.459 305.972 99.456C305.098 98.4533 303.935 97.952 302.484 97.952C301.034 97.952 299.86 98.4533 298.964 99.456C298.09 100.459 297.652 101.952 297.652 103.936C297.652 105.92 298.09 107.424 298.964 108.448C299.839 109.472 301.012 109.984 302.484 109.984ZM315.011 112V99.84C315.011 99.2 314.99 98.5493 314.947 97.888C314.926 97.2053 314.873 96.544 314.787 95.904H317.603L317.955 99.936L317.475 99.968C317.689 98.9867 318.051 98.176 318.563 97.536C319.097 96.8747 319.726 96.3947 320.451 96.096C321.198 95.776 321.966 95.616 322.755 95.616C323.097 95.616 323.385 95.6267 323.619 95.648C323.854 95.6693 324.089 95.7227 324.323 95.808L324.259 98.4C323.939 98.272 323.641 98.1973 323.363 98.176C323.107 98.1333 322.787 98.112 322.403 98.112C321.465 98.112 320.654 98.3253 319.971 98.752C319.31 99.1787 318.798 99.744 318.435 100.448C318.094 101.152 317.923 101.909 317.923 102.72V112H315.011ZM326.887 112V88.448H329.799V103.008H329.863L337.127 95.904H340.743L332.103 104.352L332.135 102.976L341.511 112H337.799L329.863 104.512H329.799V112H326.887ZM350.59 112.288C348.03 112.288 346.003 111.552 344.51 110.08C343.038 108.608 342.302 106.581 342.302 104C342.302 102.293 342.622 100.821 343.262 99.584C343.923 98.3253 344.83 97.3547 345.982 96.672C347.134 95.968 348.478 95.616 350.014 95.616C351.486 95.616 352.734 95.936 353.758 96.576C354.782 97.1947 355.561 98.08 356.094 99.232C356.627 100.384 356.894 101.749 356.894 103.328V104.288H344.574V102.56H354.91L354.366 102.976C354.366 101.312 353.993 100.021 353.246 99.104C352.521 98.1867 351.443 97.728 350.014 97.728C348.457 97.728 347.251 98.272 346.398 99.36C345.545 100.427 345.118 101.888 345.118 103.744V104.032C345.118 105.995 345.598 107.477 346.558 108.48C347.539 109.483 348.894 109.984 350.622 109.984C351.582 109.984 352.478 109.845 353.31 109.568C354.142 109.291 354.942 108.832 355.71 108.192L356.67 110.208C355.945 110.869 355.038 111.381 353.95 111.744C352.883 112.107 351.763 112.288 350.59 112.288ZM366.684 112.288C364.999 112.288 363.719 111.829 362.844 110.912C361.991 109.973 361.564 108.565 361.564 106.688V98.144H358.428V95.904H361.564V91.584L364.476 90.784V95.904H369.02V98.144H364.476V106.432C364.476 107.669 364.69 108.555 365.116 109.088C365.564 109.6 366.204 109.856 367.036 109.856C367.463 109.856 367.826 109.824 368.124 109.76C368.444 109.675 368.732 109.579 368.988 109.472V111.872C368.668 112 368.295 112.096 367.868 112.16C367.463 112.245 367.068 112.288 366.684 112.288ZM372.075 118.912V99.712C372.075 99.0933 372.053 98.464 372.011 97.824C371.968 97.184 371.904 96.544 371.819 95.904H374.635L374.987 99.616H374.635C374.955 98.3787 375.637 97.408 376.683 96.704C377.728 95.9787 378.976 95.616 380.427 95.616C381.856 95.616 383.104 95.9467 384.171 96.608C385.237 97.2693 386.059 98.2293 386.635 99.488C387.232 100.725 387.531 102.208 387.531 103.936C387.531 105.664 387.232 107.157 386.635 108.416C386.059 109.675 385.237 110.635 384.171 111.296C383.104 111.957 381.856 112.288 380.427 112.288C378.997 112.288 377.76 111.936 376.715 111.232C375.691 110.507 374.997 109.536 374.635 108.32H374.987V118.912H372.075ZM379.755 109.984C381.227 109.984 382.4 109.472 383.275 108.448C384.149 107.424 384.587 105.92 384.587 103.936C384.587 101.952 384.149 100.459 383.275 99.456C382.4 98.4533 381.227 97.952 379.755 97.952C378.283 97.952 377.109 98.4533 376.235 99.456C375.381 100.459 374.955 101.952 374.955 103.936C374.955 105.92 375.381 107.424 376.235 108.448C377.109 109.472 378.283 109.984 379.755 109.984ZM391.45 112V88.448H394.362V112H391.45ZM405.375 112.288C403.967 112.288 402.729 111.957 401.663 111.296C400.596 110.635 399.764 109.675 399.167 108.416C398.569 107.157 398.271 105.664 398.271 103.936C398.271 102.208 398.569 100.725 399.167 99.488C399.764 98.2293 400.596 97.2693 401.663 96.608C402.729 95.9467 403.967 95.616 405.375 95.616C406.804 95.616 408.041 95.9787 409.087 96.704C410.153 97.408 410.857 98.3787 411.199 99.616H410.815L411.167 95.904H413.983C413.919 96.544 413.855 97.184 413.791 97.824C413.748 98.464 413.727 99.0933 413.727 99.712V112H410.815V108.32H411.167C410.825 109.536 410.121 110.507 409.055 111.232C408.009 111.936 406.783 112.288 405.375 112.288ZM406.047 109.984C407.497 109.984 408.66 109.472 409.535 108.448C410.409 107.424 410.847 105.92 410.847 103.936C410.847 101.952 410.409 100.459 409.535 99.456C408.66 98.4533 407.497 97.952 406.047 97.952C404.596 97.952 403.423 98.4533 402.527 99.456C401.652 100.459 401.215 101.952 401.215 103.936C401.215 105.92 401.652 107.424 402.527 108.448C403.401 109.472 404.575 109.984 406.047 109.984ZM425.518 112.288C423.918 112.288 422.531 111.957 421.358 111.296C420.184 110.613 419.267 109.643 418.606 108.384C417.966 107.104 417.646 105.589 417.646 103.84C417.646 102.112 417.976 100.64 418.638 99.424C419.299 98.1867 420.216 97.248 421.39 96.608C422.563 95.9467 423.939 95.616 425.518 95.616C426.563 95.616 427.576 95.7973 428.558 96.16C429.539 96.5013 430.339 97.0027 430.958 97.664L429.966 99.712C429.347 99.1147 428.664 98.6773 427.918 98.4C427.171 98.1013 426.435 97.952 425.71 97.952C424.131 97.952 422.894 98.464 421.998 99.488C421.102 100.491 420.654 101.952 420.654 103.872C420.654 105.813 421.102 107.307 421.998 108.352C422.894 109.397 424.131 109.92 425.71 109.92C426.414 109.92 427.139 109.781 427.886 109.504C428.632 109.227 429.326 108.789 429.966 108.192L430.958 110.208C430.318 110.891 429.496 111.413 428.494 111.776C427.512 112.117 426.52 112.288 425.518 112.288ZM441.528 112.288C438.968 112.288 436.941 111.552 435.448 110.08C433.976 108.608 433.24 106.581 433.24 104C433.24 102.293 433.56 100.821 434.2 99.584C434.861 98.3253 435.768 97.3547 436.92 96.672C438.072 95.968 439.416 95.616 440.952 95.616C442.424 95.616 443.672 95.936 444.696 96.576C445.72 97.1947 446.498 98.08 447.032 99.232C447.565 100.384 447.832 101.749 447.832 103.328V104.288H435.512V102.56H445.848L445.304 102.976C445.304 101.312 444.93 100.021 444.184 99.104C443.458 98.1867 442.381 97.728 440.952 97.728C439.394 97.728 438.189 98.272 437.336 99.36C436.482 100.427 436.056 101.888 436.056 103.744V104.032C436.056 105.995 436.536 107.477 437.496 108.48C438.477 109.483 439.832 109.984 441.56 109.984C442.52 109.984 443.416 109.845 444.248 109.568C445.08 109.291 445.88 108.832 446.648 108.192L447.608 110.208C446.882 110.869 445.976 111.381 444.888 111.744C443.821 112.107 442.701 112.288 441.528 112.288ZM460.075 112V99.712C460.075 99.0933 460.053 98.464 460.011 97.824C459.968 97.184 459.904 96.544 459.819 95.904H462.635L462.955 99.36H462.571C462.997 98.1653 463.68 97.248 464.619 96.608C465.557 95.9467 466.677 95.616 467.979 95.616C469.301 95.616 470.389 95.936 471.243 96.576C472.096 97.1947 472.672 98.176 472.971 99.52H472.491C472.896 98.3253 473.611 97.376 474.635 96.672C475.659 95.968 476.853 95.616 478.219 95.616C479.989 95.616 481.323 96.1387 482.219 97.184C483.115 98.208 483.563 99.808 483.563 101.984V112H480.651V102.144C480.651 100.672 480.395 99.616 479.883 98.976C479.371 98.3147 478.56 97.984 477.451 97.984C476.149 97.984 475.125 98.432 474.379 99.328C473.632 100.203 473.259 101.397 473.259 102.912V112H470.347V102.144C470.347 100.672 470.091 99.616 469.579 98.976C469.088 98.3147 468.277 97.984 467.147 97.984C465.845 97.984 464.821 98.432 464.075 99.328C463.349 100.203 462.987 101.397 462.987 102.912V112H460.075ZM494.469 112.288C493.061 112.288 491.823 111.957 490.757 111.296C489.69 110.635 488.858 109.675 488.261 108.416C487.663 107.157 487.365 105.664 487.365 103.936C487.365 102.208 487.663 100.725 488.261 99.488C488.858 98.2293 489.69 97.2693 490.757 96.608C491.823 95.9467 493.061 95.616 494.469 95.616C495.898 95.616 497.135 95.9787 498.181 96.704C499.247 97.408 499.951 98.3787 500.293 99.616H499.909L500.261 95.904H503.077C503.013 96.544 502.949 97.184 502.885 97.824C502.842 98.464 502.821 99.0933 502.821 99.712V112H499.909V108.32H500.261C499.919 109.536 499.215 110.507 498.149 111.232C497.103 111.936 495.877 112.288 494.469 112.288ZM495.141 109.984C496.591 109.984 497.754 109.472 498.629 108.448C499.503 107.424 499.941 105.92 499.941 103.936C499.941 101.952 499.503 100.459 498.629 99.456C497.754 98.4533 496.591 97.952 495.141 97.952C493.69 97.952 492.517 98.4533 491.621 99.456C490.746 100.459 490.309 101.952 490.309 103.936C490.309 105.92 490.746 107.424 491.621 108.448C492.495 109.472 493.669 109.984 495.141 109.984ZM507.7 112V95.904H510.612V112H507.7ZM507.444 92.384V89.248H510.9V92.384H507.444ZM515.481 112V99.712C515.481 99.0933 515.459 98.464 515.417 97.824C515.374 97.184 515.31 96.544 515.225 95.904H518.041L518.361 99.36H517.977C518.467 98.144 519.225 97.216 520.249 96.576C521.273 95.936 522.467 95.616 523.833 95.616C525.731 95.616 527.161 96.1387 528.121 97.184C529.081 98.208 529.561 99.808 529.561 101.984V112H526.649V102.144C526.649 100.672 526.361 99.616 525.785 98.976C525.209 98.3147 524.313 97.984 523.097 97.984C521.646 97.984 520.494 98.4213 519.641 99.296C518.809 100.171 518.393 101.355 518.393 102.848V112H515.481ZM534.325 112V99.712C534.325 99.0933 534.303 98.464 534.261 97.824C534.218 97.184 534.154 96.544 534.069 95.904H536.885L537.205 99.36H536.821C537.311 98.144 538.069 97.216 539.093 96.576C540.117 95.936 541.311 95.616 542.677 95.616C544.575 95.616 546.005 96.1387 546.965 97.184C547.925 98.208 548.405 99.808 548.405 101.984V112H545.493V102.144C545.493 100.672 545.205 99.616 544.629 98.976C544.053 98.3147 543.157 97.984 541.941 97.984C540.49 97.984 539.338 98.4213 538.485 99.296C537.653 100.171 537.237 101.355 537.237 102.848V112H534.325ZM560.496 112.288C557.936 112.288 555.91 111.552 554.416 110.08C552.944 108.608 552.208 106.581 552.208 104C552.208 102.293 552.528 100.821 553.168 99.584C553.83 98.3253 554.736 97.3547 555.888 96.672C557.04 95.968 558.384 95.616 559.92 95.616C561.392 95.616 562.64 95.936 563.664 96.576C564.688 97.1947 565.467 98.08 566 99.232C566.534 100.384 566.8 101.749 566.8 103.328V104.288H554.48V102.56H564.816L564.272 102.976C564.272 101.312 563.899 100.021 563.152 99.104C562.427 98.1867 561.35 97.728 559.92 97.728C558.363 97.728 557.158 98.272 556.304 99.36C555.451 100.427 555.024 101.888 555.024 103.744V104.032C555.024 105.995 555.504 107.477 556.464 108.48C557.446 109.483 558.8 109.984 560.528 109.984C561.488 109.984 562.384 109.845 563.216 109.568C564.048 109.291 564.848 108.832 565.616 108.192L566.576 110.208C565.851 110.869 564.944 111.381 563.856 111.744C562.79 112.107 561.67 112.288 560.496 112.288ZM576.591 112.288C574.905 112.288 573.625 111.829 572.751 110.912C571.897 109.973 571.471 108.565 571.471 106.688V98.144H568.335V95.904H571.471V91.584L574.383 90.784V95.904H578.927V98.144H574.383V106.432C574.383 107.669 574.596 108.555 575.023 109.088C575.471 109.6 576.111 109.856 576.943 109.856C577.369 109.856 577.732 109.824 578.031 109.76C578.351 109.675 578.639 109.579 578.895 109.472V111.872C578.575 112 578.201 112.096 577.775 112.16C577.369 112.245 576.975 112.288 576.591 112.288ZM93.2163 149.152C92.171 149.152 91.2003 148.907 90.3043 148.416C89.4083 147.904 88.6937 147.211 88.1603 146.336C87.627 145.461 87.3603 144.491 87.3603 143.424C87.3603 142.443 87.6057 141.515 88.0963 140.64C88.6083 139.765 89.3017 139.061 90.1763 138.528C91.0723 137.973 92.0857 137.696 93.2163 137.696C94.2617 137.696 95.2217 137.952 96.0963 138.464C96.971 138.955 97.675 139.627 98.2083 140.48C98.763 141.333 99.0403 142.315 99.0403 143.424C99.0403 144.469 98.7737 145.429 98.2403 146.304C97.7283 147.179 97.0243 147.872 96.1283 148.384C95.2537 148.896 94.283 149.152 93.2163 149.152ZM119.957 152V129.44H122.261L136.405 148.128H135.637V129.44H138.421V152H136.149L122.005 133.312H122.741V152H119.957ZM149.719 152.288C148.311 152.288 147.073 151.957 146.007 151.296C144.94 150.635 144.108 149.675 143.511 148.416C142.913 147.157 142.615 145.664 142.615 143.936C142.615 142.208 142.913 140.725 143.511 139.488C144.108 138.229 144.94 137.269 146.007 136.608C147.073 135.947 148.311 135.616 149.719 135.616C151.148 135.616 152.385 135.979 153.431 136.704C154.497 137.408 155.201 138.379 155.543 139.616H155.159L155.511 135.904H158.327C158.263 136.544 158.199 137.184 158.135 137.824C158.092 138.464 158.071 139.093 158.071 139.712V152H155.159V148.32H155.511C155.169 149.536 154.465 150.507 153.399 151.232C152.353 151.936 151.127 152.288 149.719 152.288ZM150.391 149.984C151.841 149.984 153.004 149.472 153.879 148.448C154.753 147.424 155.191 145.92 155.191 143.936C155.191 141.952 154.753 140.459 153.879 139.456C153.004 138.453 151.841 137.952 150.391 137.952C148.94 137.952 147.767 138.453 146.871 139.456C145.996 140.459 145.559 141.952 145.559 143.936C145.559 145.92 145.996 147.424 146.871 148.448C147.745 149.472 148.919 149.984 150.391 149.984ZM168.966 152.288C167.28 152.288 166 151.829 165.126 150.912C164.272 149.973 163.846 148.565 163.846 146.688V138.144H160.71V135.904H163.846V131.584L166.758 130.784V135.904H171.302V138.144H166.758V146.432C166.758 147.669 166.971 148.555 167.398 149.088C167.846 149.6 168.486 149.856 169.318 149.856C169.744 149.856 170.107 149.824 170.406 149.76C170.726 149.675 171.014 149.579 171.27 149.472V151.872C170.95 152 170.576 152.096 170.15 152.16C169.744 152.245 169.35 152.288 168.966 152.288ZM174.356 152V135.904H177.268V152H174.356ZM174.1 132.384V129.248H177.556V132.384H174.1ZM186.873 152L179.993 135.904H183.129L188.729 149.728H187.833L193.529 135.904H196.505L189.593 152H186.873ZM206.309 152.288C203.749 152.288 201.722 151.552 200.229 150.08C198.757 148.608 198.021 146.581 198.021 144C198.021 142.293 198.341 140.821 198.981 139.584C199.642 138.325 200.549 137.355 201.701 136.672C202.853 135.968 204.197 135.616 205.733 135.616C207.205 135.616 208.453 135.936 209.477 136.576C210.501 137.195 211.279 138.08 211.813 139.232C212.346 140.384 212.613 141.749 212.613 143.328V144.288H200.293V142.56H210.629L210.085 142.976C210.085 141.312 209.711 140.021 208.965 139.104C208.239 138.187 207.162 137.728 205.733 137.728C204.175 137.728 202.97 138.272 202.117 139.36C201.263 140.427 200.837 141.888 200.837 143.744V144.032C200.837 145.995 201.317 147.477 202.277 148.48C203.258 149.483 204.613 149.984 206.341 149.984C207.301 149.984 208.197 149.845 209.029 149.568C209.861 149.291 210.661 148.832 211.429 148.192L212.389 150.208C211.663 150.869 210.757 151.381 209.669 151.744C208.602 152.107 207.482 152.288 206.309 152.288ZM231.768 152.288C230.168 152.288 228.781 151.957 227.608 151.296C226.434 150.613 225.517 149.643 224.856 148.384C224.216 147.104 223.896 145.589 223.896 143.84C223.896 142.112 224.226 140.64 224.888 139.424C225.549 138.187 226.466 137.248 227.64 136.608C228.813 135.947 230.189 135.616 231.768 135.616C232.813 135.616 233.826 135.797 234.808 136.16C235.789 136.501 236.589 137.003 237.208 137.664L236.216 139.712C235.597 139.115 234.914 138.677 234.168 138.4C233.421 138.101 232.685 137.952 231.96 137.952C230.381 137.952 229.144 138.464 228.248 139.488C227.352 140.491 226.904 141.952 226.904 143.872C226.904 145.813 227.352 147.307 228.248 148.352C229.144 149.397 230.381 149.92 231.96 149.92C232.664 149.92 233.389 149.781 234.136 149.504C234.882 149.227 235.576 148.789 236.216 148.192L237.208 150.208C236.568 150.891 235.746 151.413 234.744 151.776C233.762 152.117 232.77 152.288 231.768 152.288ZM240.73 152V139.84C240.73 139.2 240.709 138.549 240.666 137.888C240.645 137.205 240.591 136.544 240.506 135.904H243.322L243.674 139.936L243.194 139.968C243.407 138.987 243.77 138.176 244.282 137.536C244.815 136.875 245.445 136.395 246.17 136.096C246.917 135.776 247.685 135.616 248.474 135.616C248.815 135.616 249.103 135.627 249.338 135.648C249.573 135.669 249.807 135.723 250.042 135.808L249.978 138.4C249.658 138.272 249.359 138.197 249.082 138.176C248.826 138.133 248.506 138.112 248.122 138.112C247.183 138.112 246.373 138.325 245.69 138.752C245.029 139.179 244.517 139.744 244.154 140.448C243.813 141.152 243.642 141.909 243.642 142.72V152H240.73ZM252.606 152V135.904H255.518V152H252.606ZM252.35 132.384V129.248H255.806V132.384H252.35ZM267.299 152.288C265.699 152.288 264.312 151.957 263.139 151.296C261.966 150.613 261.048 149.643 260.387 148.384C259.747 147.104 259.427 145.589 259.427 143.84C259.427 142.112 259.758 140.64 260.419 139.424C261.08 138.187 261.998 137.248 263.171 136.608C264.344 135.947 265.72 135.616 267.299 135.616C268.344 135.616 269.358 135.797 270.339 136.16C271.32 136.501 272.12 137.003 272.739 137.664L271.747 139.712C271.128 139.115 270.446 138.677 269.699 138.4C268.952 138.101 268.216 137.952 267.491 137.952C265.912 137.952 264.675 138.464 263.779 139.488C262.883 140.491 262.435 141.952 262.435 143.872C262.435 145.813 262.883 147.307 263.779 148.352C264.675 149.397 265.912 149.92 267.491 149.92C268.195 149.92 268.92 149.781 269.667 149.504C270.414 149.227 271.107 148.789 271.747 148.192L272.739 150.208C272.099 150.891 271.278 151.413 270.275 151.776C269.294 152.117 268.302 152.288 267.299 152.288ZM276.293 152V128.448H279.205V143.008H279.269L286.533 135.904H290.149L281.509 144.352L281.541 142.976L290.917 152H287.205L279.269 144.512H279.205V152H276.293ZM299.996 152.288C297.436 152.288 295.41 151.552 293.916 150.08C292.444 148.608 291.708 146.581 291.708 144C291.708 142.293 292.028 140.821 292.668 139.584C293.33 138.325 294.236 137.355 295.388 136.672C296.54 135.968 297.884 135.616 299.42 135.616C300.892 135.616 302.14 135.936 303.164 136.576C304.188 137.195 304.967 138.08 305.5 139.232C306.034 140.384 306.3 141.749 306.3 143.328V144.288H293.98V142.56H304.316L303.772 142.976C303.772 141.312 303.399 140.021 302.652 139.104C301.927 138.187 300.85 137.728 299.42 137.728C297.863 137.728 296.658 138.272 295.804 139.36C294.951 140.427 294.524 141.888 294.524 143.744V144.032C294.524 145.995 295.004 147.477 295.964 148.48C296.946 149.483 298.3 149.984 300.028 149.984C300.988 149.984 301.884 149.845 302.716 149.568C303.548 149.291 304.348 148.832 305.116 148.192L306.076 150.208C305.351 150.869 304.444 151.381 303.356 151.744C302.29 152.107 301.17 152.288 299.996 152.288ZM316.091 152.288C314.405 152.288 313.125 151.829 312.251 150.912C311.397 149.973 310.971 148.565 310.971 146.688V138.144H307.835V135.904H310.971V131.584L313.883 130.784V135.904H318.427V138.144H313.883V146.432C313.883 147.669 314.096 148.555 314.523 149.088C314.971 149.6 315.611 149.856 316.443 149.856C316.869 149.856 317.232 149.824 317.531 149.76C317.851 149.675 318.139 149.579 318.395 149.472V151.872C318.075 152 317.701 152.096 317.275 152.16C316.869 152.245 316.475 152.288 316.091 152.288ZM330.238 152V129.44H332.542L346.686 148.128H345.918V129.44H348.702V152H346.43L332.286 133.312H333.022V152H330.238ZM354.176 152V129.44H368.448V131.872H357.152V139.424H367.712V141.856H357.152V152H354.176ZM377.771 152V131.968H369.963V129.44H388.619V131.968H380.779V152H377.771ZM407.694 152.288C405.881 152.288 404.249 152.053 402.798 151.584C401.348 151.115 400.089 150.453 399.022 149.6L400.046 147.232C400.793 147.787 401.55 148.256 402.318 148.64C403.086 149.003 403.908 149.28 404.782 149.472C405.678 149.643 406.649 149.728 407.694 149.728C409.55 149.728 410.916 149.397 411.79 148.736C412.686 148.053 413.134 147.157 413.134 146.048C413.134 145.088 412.825 144.352 412.206 143.84C411.588 143.328 410.51 142.923 408.974 142.624L405.55 141.92C403.481 141.493 401.934 140.8 400.91 139.84C399.908 138.859 399.406 137.536 399.406 135.872C399.406 134.528 399.758 133.355 400.462 132.352C401.188 131.328 402.18 130.539 403.438 129.984C404.718 129.429 406.212 129.152 407.918 129.152C409.497 129.152 410.958 129.387 412.302 129.856C413.646 130.325 414.777 131.019 415.694 131.936L414.67 134.208C413.71 133.333 412.676 132.704 411.566 132.32C410.478 131.915 409.241 131.712 407.854 131.712C406.169 131.712 404.836 132.075 403.854 132.8C402.873 133.525 402.382 134.507 402.382 135.744C402.382 136.725 402.692 137.504 403.31 138.08C403.929 138.635 404.953 139.061 406.382 139.36L409.806 140.032C411.982 140.459 413.572 141.131 414.574 142.048C415.598 142.965 416.11 144.235 416.11 145.856C416.11 147.136 415.769 148.267 415.086 149.248C414.404 150.208 413.433 150.955 412.174 151.488C410.916 152.021 409.422 152.288 407.694 152.288ZM420.332 152V129.44H422.636L436.78 148.128H436.012V129.44H438.796V152H436.524L422.38 133.312H423.116V152H420.332ZM444.27 152V129.44H458.862V131.872H447.15V139.328H458.126V141.76H447.15V149.568H458.862V152H444.27ZM463.145 152V129.44H477.737V131.872H466.025V139.328H477.001V141.76H466.025V149.568H477.737V152H463.145ZM482.02 152V129.44H484.996V139.648H485.06L495.652 129.44H499.396L487.108 141.12L487.14 139.68L500.26 152H496.388L485.06 141.408H484.996V152H482.02ZM510.957 152V129.44H520.301C522.712 129.44 524.557 130.016 525.837 131.168C527.117 132.32 527.757 133.909 527.757 135.936C527.757 137.963 527.117 139.563 525.837 140.736C524.557 141.888 522.712 142.464 520.301 142.464H513.933V152H510.957ZM513.933 140.032H520.013C521.592 140.032 522.786 139.68 523.597 138.976C524.408 138.251 524.813 137.237 524.813 135.936C524.813 134.635 524.408 133.632 523.597 132.928C522.786 132.224 521.592 131.872 520.013 131.872H513.933V140.032ZM531.926 152V129.44H546.518V131.872H534.806V139.328H545.782V141.76H534.806V149.568H546.518V152H531.926ZM548.059 152L558.043 129.44H560.635L570.779 152H567.707L564.923 145.6L566.203 146.368H552.475L553.883 145.6L551.099 152H548.059ZM559.291 132.768L554.299 144.608L553.531 143.936H565.147L564.539 144.608L559.419 132.768H559.291ZM573.988 152V129.44H576.964V139.648H577.028L587.62 129.44H591.364L579.076 141.12L579.108 139.68L592.228 152H588.356L577.028 141.408H576.964V152H573.988ZM93.2163 189.152C92.171 189.152 91.2003 188.907 90.3043 188.416C89.4083 187.904 88.6937 187.211 88.1603 186.336C87.627 185.461 87.3603 184.491 87.3603 183.424C87.3603 182.443 87.6057 181.515 88.0963 180.64C88.6083 179.765 89.3017 179.061 90.1763 178.528C91.0723 177.973 92.0857 177.696 93.2163 177.696C94.2617 177.696 95.2217 177.952 96.0963 178.464C96.971 178.955 97.675 179.627 98.2083 180.48C98.763 181.333 99.0403 182.315 99.0403 183.424C99.0403 184.469 98.7737 185.429 98.2403 186.304C97.7283 187.179 97.0243 187.872 96.1283 188.384C95.2537 188.896 94.283 189.152 93.2163 189.152ZM119.957 192V169.44H122.261L136.405 188.128H135.637V169.44H138.421V192H136.149L122.005 173.312H122.741V192H119.957ZM149.719 192.288C148.311 192.288 147.073 191.957 146.007 191.296C144.94 190.635 144.108 189.675 143.511 188.416C142.913 187.157 142.615 185.664 142.615 183.936C142.615 182.208 142.913 180.725 143.511 179.488C144.108 178.229 144.94 177.269 146.007 176.608C147.073 175.947 148.311 175.616 149.719 175.616C151.148 175.616 152.385 175.979 153.431 176.704C154.497 177.408 155.201 178.379 155.543 179.616H155.159L155.511 175.904H158.327C158.263 176.544 158.199 177.184 158.135 177.824C158.092 178.464 158.071 179.093 158.071 179.712V192H155.159V188.32H155.511C155.169 189.536 154.465 190.507 153.399 191.232C152.353 191.936 151.127 192.288 149.719 192.288ZM150.391 189.984C151.841 189.984 153.004 189.472 153.879 188.448C154.753 187.424 155.191 185.92 155.191 183.936C155.191 181.952 154.753 180.459 153.879 179.456C153.004 178.453 151.841 177.952 150.391 177.952C148.94 177.952 147.767 178.453 146.871 179.456C145.996 180.459 145.559 181.952 145.559 183.936C145.559 185.92 145.996 187.424 146.871 188.448C147.745 189.472 148.919 189.984 150.391 189.984ZM168.966 192.288C167.28 192.288 166 191.829 165.126 190.912C164.272 189.973 163.846 188.565 163.846 186.688V178.144H160.71V175.904H163.846V171.584L166.758 170.784V175.904H171.302V178.144H166.758V186.432C166.758 187.669 166.971 188.555 167.398 189.088C167.846 189.6 168.486 189.856 169.318 189.856C169.744 189.856 170.107 189.824 170.406 189.76C170.726 189.675 171.014 189.579 171.27 189.472V191.872C170.95 192 170.576 192.096 170.15 192.16C169.744 192.245 169.35 192.288 168.966 192.288ZM174.356 192V175.904H177.268V192H174.356ZM174.1 172.384V169.248H177.556V172.384H174.1ZM186.873 192L179.993 175.904H183.129L188.729 189.728H187.833L193.529 175.904H196.505L189.593 192H186.873ZM206.309 192.288C203.749 192.288 201.722 191.552 200.229 190.08C198.757 188.608 198.021 186.581 198.021 184C198.021 182.293 198.341 180.821 198.981 179.584C199.642 178.325 200.549 177.355 201.701 176.672C202.853 175.968 204.197 175.616 205.733 175.616C207.205 175.616 208.453 175.936 209.477 176.576C210.501 177.195 211.279 178.08 211.813 179.232C212.346 180.384 212.613 181.749 212.613 183.328V184.288H200.293V182.56H210.629L210.085 182.976C210.085 181.312 209.711 180.021 208.965 179.104C208.239 178.187 207.162 177.728 205.733 177.728C204.175 177.728 202.97 178.272 202.117 179.36C201.263 180.427 200.837 181.888 200.837 183.744V184.032C200.837 185.995 201.317 187.477 202.277 188.48C203.258 189.483 204.613 189.984 206.341 189.984C207.301 189.984 208.197 189.845 209.029 189.568C209.861 189.291 210.661 188.832 211.429 188.192L212.389 190.208C211.663 190.869 210.757 191.381 209.669 191.744C208.602 192.107 207.482 192.288 206.309 192.288ZM231.768 192.288C230.168 192.288 228.781 191.957 227.608 191.296C226.434 190.613 225.517 189.643 224.856 188.384C224.216 187.104 223.896 185.589 223.896 183.84C223.896 182.112 224.226 180.64 224.888 179.424C225.549 178.187 226.466 177.248 227.64 176.608C228.813 175.947 230.189 175.616 231.768 175.616C232.813 175.616 233.826 175.797 234.808 176.16C235.789 176.501 236.589 177.003 237.208 177.664L236.216 179.712C235.597 179.115 234.914 178.677 234.168 178.4C233.421 178.101 232.685 177.952 231.96 177.952C230.381 177.952 229.144 178.464 228.248 179.488C227.352 180.491 226.904 181.952 226.904 183.872C226.904 185.813 227.352 187.307 228.248 188.352C229.144 189.397 230.381 189.92 231.96 189.92C232.664 189.92 233.389 189.781 234.136 189.504C234.882 189.227 235.576 188.789 236.216 188.192L237.208 190.208C236.568 190.891 235.746 191.413 234.744 191.776C233.762 192.117 232.77 192.288 231.768 192.288ZM240.73 192V179.84C240.73 179.2 240.709 178.549 240.666 177.888C240.645 177.205 240.591 176.544 240.506 175.904H243.322L243.674 179.936L243.194 179.968C243.407 178.987 243.77 178.176 244.282 177.536C244.815 176.875 245.445 176.395 246.17 176.096C246.917 175.776 247.685 175.616 248.474 175.616C248.815 175.616 249.103 175.627 249.338 175.648C249.573 175.669 249.807 175.723 250.042 175.808L249.978 178.4C249.658 178.272 249.359 178.197 249.082 178.176C248.826 178.133 248.506 178.112 248.122 178.112C247.183 178.112 246.373 178.325 245.69 178.752C245.029 179.179 244.517 179.744 244.154 180.448C243.813 181.152 243.642 181.909 243.642 182.72V192H240.73ZM252.606 192V175.904H255.518V192H252.606ZM252.35 172.384V169.248H255.806V172.384H252.35ZM267.299 192.288C265.699 192.288 264.312 191.957 263.139 191.296C261.966 190.613 261.048 189.643 260.387 188.384C259.747 187.104 259.427 185.589 259.427 183.84C259.427 182.112 259.758 180.64 260.419 179.424C261.08 178.187 261.998 177.248 263.171 176.608C264.344 175.947 265.72 175.616 267.299 175.616C268.344 175.616 269.358 175.797 270.339 176.16C271.32 176.501 272.12 177.003 272.739 177.664L271.747 179.712C271.128 179.115 270.446 178.677 269.699 178.4C268.952 178.101 268.216 177.952 267.491 177.952C265.912 177.952 264.675 178.464 263.779 179.488C262.883 180.491 262.435 181.952 262.435 183.872C262.435 185.813 262.883 187.307 263.779 188.352C264.675 189.397 265.912 189.92 267.491 189.92C268.195 189.92 268.92 189.781 269.667 189.504C270.414 189.227 271.107 188.789 271.747 188.192L272.739 190.208C272.099 190.891 271.278 191.413 270.275 191.776C269.294 192.117 268.302 192.288 267.299 192.288ZM276.293 192V168.448H279.205V183.008H279.269L286.533 175.904H290.149L281.509 184.352L281.541 182.976L290.917 192H287.205L279.269 184.512H279.205V192H276.293ZM299.996 192.288C297.436 192.288 295.41 191.552 293.916 190.08C292.444 188.608 291.708 186.581 291.708 184C291.708 182.293 292.028 180.821 292.668 179.584C293.33 178.325 294.236 177.355 295.388 176.672C296.54 175.968 297.884 175.616 299.42 175.616C300.892 175.616 302.14 175.936 303.164 176.576C304.188 177.195 304.967 178.08 305.5 179.232C306.034 180.384 306.3 181.749 306.3 183.328V184.288H293.98V182.56H304.316L303.772 182.976C303.772 181.312 303.399 180.021 302.652 179.104C301.927 178.187 300.85 177.728 299.42 177.728C297.863 177.728 296.658 178.272 295.804 179.36C294.951 180.427 294.524 181.888 294.524 183.744V184.032C294.524 185.995 295.004 187.477 295.964 188.48C296.946 189.483 298.3 189.984 300.028 189.984C300.988 189.984 301.884 189.845 302.716 189.568C303.548 189.291 304.348 188.832 305.116 188.192L306.076 190.208C305.351 190.869 304.444 191.381 303.356 191.744C302.29 192.107 301.17 192.288 299.996 192.288ZM316.091 192.288C314.405 192.288 313.125 191.829 312.251 190.912C311.397 189.973 310.971 188.565 310.971 186.688V178.144H307.835V175.904H310.971V171.584L313.883 170.784V175.904H318.427V178.144H313.883V186.432C313.883 187.669 314.096 188.555 314.523 189.088C314.971 189.6 315.611 189.856 316.443 189.856C316.869 189.856 317.232 189.824 317.531 189.76C317.851 189.675 318.139 189.579 318.395 189.472V191.872C318.075 192 317.701 192.096 317.275 192.16C316.869 192.245 316.475 192.288 316.091 192.288ZM330.238 192V169.44H332.542L346.686 188.128H345.918V169.44H348.702V192H346.43L332.286 173.312H333.022V192H330.238ZM354.176 192V169.44H368.448V171.872H357.152V179.424H367.712V181.856H357.152V192H354.176ZM377.771 192V171.968H369.963V169.44H388.619V171.968H380.779V192H377.771ZM406.062 192.288C404.654 192.288 403.417 191.957 402.35 191.296C401.284 190.635 400.452 189.675 399.854 188.416C399.257 187.157 398.958 185.664 398.958 183.936C398.958 182.208 399.257 180.725 399.854 179.488C400.452 178.229 401.284 177.269 402.35 176.608C403.417 175.947 404.654 175.616 406.062 175.616C407.47 175.616 408.697 175.968 409.742 176.672C410.809 177.376 411.524 178.347 411.886 179.584H411.502V168.448H414.414V192H411.534V188.256H411.886C411.545 189.515 410.841 190.507 409.774 191.232C408.729 191.936 407.492 192.288 406.062 192.288ZM406.734 189.984C408.185 189.984 409.348 189.472 410.222 188.448C411.118 187.424 411.566 185.92 411.566 183.936C411.566 181.952 411.118 180.459 410.222 179.456C409.348 178.453 408.185 177.952 406.734 177.952C405.284 177.952 404.11 178.453 403.214 179.456C402.34 180.459 401.902 181.952 401.902 183.936C401.902 185.92 402.34 187.424 403.214 188.448C404.11 189.472 405.284 189.984 406.734 189.984ZM419.261 192V179.84C419.261 179.2 419.24 178.549 419.197 177.888C419.176 177.205 419.123 176.544 419.037 175.904H421.853L422.205 179.936L421.725 179.968C421.939 178.987 422.301 178.176 422.813 177.536C423.347 176.875 423.976 176.395 424.701 176.096C425.448 175.776 426.216 175.616 427.005 175.616C427.347 175.616 427.635 175.627 427.869 175.648C428.104 175.669 428.339 175.723 428.573 175.808L428.509 178.4C428.189 178.272 427.891 178.197 427.613 178.176C427.357 178.133 427.037 178.112 426.653 178.112C425.715 178.112 424.904 178.325 424.221 178.752C423.56 179.179 423.048 179.744 422.685 180.448C422.344 181.152 422.173 181.909 422.173 182.72V192H419.261ZM437.702 192.288C436.124 192.288 434.758 191.957 433.606 191.296C432.454 190.613 431.558 189.653 430.918 188.416C430.278 187.157 429.958 185.664 429.958 183.936C429.958 182.229 430.278 180.757 430.918 179.52C431.558 178.261 432.454 177.301 433.606 176.64C434.758 175.957 436.124 175.616 437.702 175.616C439.281 175.616 440.646 175.957 441.798 176.64C442.972 177.301 443.868 178.261 444.486 179.52C445.126 180.757 445.446 182.229 445.446 183.936C445.446 185.664 445.126 187.157 444.486 188.416C443.868 189.653 442.972 190.613 441.798 191.296C440.646 191.957 439.281 192.288 437.702 192.288ZM437.702 189.984C439.153 189.984 440.316 189.472 441.19 188.448C442.065 187.424 442.502 185.92 442.502 183.936C442.502 181.952 442.065 180.459 441.19 179.456C440.316 178.453 439.153 177.952 437.702 177.952C436.23 177.952 435.057 178.453 434.182 179.456C433.329 180.459 432.902 181.952 432.902 183.936C432.902 185.92 433.329 187.424 434.182 188.448C435.057 189.472 436.23 189.984 437.702 189.984ZM449.356 198.912V179.712C449.356 179.093 449.334 178.464 449.292 177.824C449.249 177.184 449.185 176.544 449.1 175.904H451.916L452.268 179.616H451.916C452.236 178.379 452.918 177.408 453.964 176.704C455.009 175.979 456.257 175.616 457.708 175.616C459.137 175.616 460.385 175.947 461.452 176.608C462.518 177.269 463.34 178.229 463.916 179.488C464.513 180.725 464.812 182.208 464.812 183.936C464.812 185.664 464.513 187.157 463.916 188.416C463.34 189.675 462.518 190.635 461.452 191.296C460.385 191.957 459.137 192.288 457.708 192.288C456.278 192.288 455.041 191.936 453.996 191.232C452.972 190.507 452.278 189.536 451.916 188.32H452.268V198.912H449.356ZM457.036 189.984C458.508 189.984 459.681 189.472 460.556 188.448C461.43 187.424 461.868 185.92 461.868 183.936C461.868 181.952 461.43 180.459 460.556 179.456C459.681 178.453 458.508 177.952 457.036 177.952C455.564 177.952 454.39 178.453 453.516 179.456C452.662 180.459 452.236 181.952 452.236 183.936C452.236 185.92 452.662 187.424 453.516 188.448C454.39 189.472 455.564 189.984 457.036 189.984ZM93.2163 229.152C92.171 229.152 91.2003 228.907 90.3043 228.416C89.4083 227.904 88.6937 227.211 88.1603 226.336C87.627 225.461 87.3603 224.491 87.3603 223.424C87.3603 222.443 87.6057 221.515 88.0963 220.64C88.6083 219.765 89.3017 219.061 90.1763 218.528C91.0723 217.973 92.0857 217.696 93.2163 217.696C94.2617 217.696 95.2217 217.952 96.0963 218.464C96.971 218.955 97.675 219.627 98.2083 220.48C98.763 221.333 99.0403 222.315 99.0403 223.424C99.0403 224.469 98.7737 225.429 98.2403 226.304C97.7283 227.179 97.0243 227.872 96.1283 228.384C95.2537 228.896 94.283 229.152 93.2163 229.152ZM126.133 232L118.229 209.44H121.365L128.053 229.344H126.901L134.005 209.44H136.341L142.997 229.344H141.973L148.885 209.44H151.829L143.861 232H141.269L134.773 212.96H135.445L128.693 232H126.133ZM155.293 232V208.448H158.205V219.392H157.789C158.259 218.155 159.016 217.216 160.061 216.576C161.107 215.936 162.312 215.616 163.677 215.616C165.619 215.616 167.048 216.139 167.965 217.184C168.904 218.229 169.373 219.808 169.373 221.92V232H166.461V222.08C166.461 220.651 166.184 219.616 165.629 218.976C165.075 218.315 164.168 217.984 162.909 217.984C161.501 217.984 160.36 218.421 159.485 219.296C158.632 220.171 158.205 221.333 158.205 222.784V232H155.293ZM174.137 232V215.904H177.049V232H174.137ZM173.881 212.384V209.248H177.337V212.384H173.881ZM187.934 232.288C186.249 232.288 184.969 231.829 184.094 230.912C183.241 229.973 182.814 228.565 182.814 226.688V218.144H179.678V215.904H182.814V211.584L185.726 210.784V215.904H190.27V218.144H185.726V226.432C185.726 227.669 185.94 228.555 186.366 229.088C186.814 229.6 187.454 229.856 188.286 229.856C188.713 229.856 189.076 229.824 189.374 229.76C189.694 229.675 189.982 229.579 190.238 229.472V231.872C189.918 232 189.545 232.096 189.118 232.16C188.713 232.245 188.318 232.288 187.934 232.288ZM200.496 232.288C197.936 232.288 195.91 231.552 194.416 230.08C192.944 228.608 192.208 226.581 192.208 224C192.208 222.293 192.528 220.821 193.168 219.584C193.83 218.325 194.736 217.355 195.888 216.672C197.04 215.968 198.384 215.616 199.92 215.616C201.392 215.616 202.64 215.936 203.664 216.576C204.688 217.195 205.467 218.08 206 219.232C206.534 220.384 206.8 221.749 206.8 223.328V224.288H194.48V222.56H204.816L204.272 222.976C204.272 221.312 203.899 220.021 203.152 219.104C202.427 218.187 201.35 217.728 199.92 217.728C198.363 217.728 197.158 218.272 196.304 219.36C195.451 220.427 195.024 221.888 195.024 223.744V224.032C195.024 225.995 195.504 227.477 196.464 228.48C197.446 229.483 198.8 229.984 200.528 229.984C201.488 229.984 202.384 229.845 203.216 229.568C204.048 229.291 204.848 228.832 205.616 228.192L206.576 230.208C205.851 230.869 204.944 231.381 203.856 231.744C202.79 232.107 201.67 232.288 200.496 232.288ZM210.606 238.912V219.712C210.606 219.093 210.584 218.464 210.542 217.824C210.499 217.184 210.435 216.544 210.35 215.904H213.166L213.518 219.616H213.166C213.486 218.379 214.168 217.408 215.214 216.704C216.259 215.979 217.507 215.616 218.958 215.616C220.387 215.616 221.635 215.947 222.702 216.608C223.768 217.269 224.59 218.229 225.166 219.488C225.763 220.725 226.062 222.208 226.062 223.936C226.062 225.664 225.763 227.157 225.166 228.416C224.59 229.675 223.768 230.635 222.702 231.296C221.635 231.957 220.387 232.288 218.958 232.288C217.528 232.288 216.291 231.936 215.246 231.232C214.222 230.507 213.528 229.536 213.166 228.32H213.518V238.912H210.606ZM218.286 229.984C219.758 229.984 220.931 229.472 221.806 228.448C222.68 227.424 223.118 225.92 223.118 223.936C223.118 221.952 222.68 220.459 221.806 219.456C220.931 218.453 219.758 217.952 218.286 217.952C216.814 217.952 215.64 218.453 214.766 219.456C213.912 220.459 213.486 221.952 213.486 223.936C213.486 225.92 213.912 227.424 214.766 228.448C215.64 229.472 216.814 229.984 218.286 229.984ZM236.125 232.288C234.717 232.288 233.479 231.957 232.413 231.296C231.346 230.635 230.514 229.675 229.917 228.416C229.319 227.157 229.021 225.664 229.021 223.936C229.021 222.208 229.319 220.725 229.917 219.488C230.514 218.229 231.346 217.269 232.413 216.608C233.479 215.947 234.717 215.616 236.125 215.616C237.554 215.616 238.791 215.979 239.837 216.704C240.903 217.408 241.607 218.379 241.949 219.616H241.565L241.917 215.904H244.733C244.669 216.544 244.605 217.184 244.541 217.824C244.498 218.464 244.477 219.093 244.477 219.712V232H241.565V228.32H241.917C241.575 229.536 240.871 230.507 239.805 231.232C238.759 231.936 237.533 232.288 236.125 232.288ZM236.797 229.984C238.247 229.984 239.41 229.472 240.285 228.448C241.159 227.424 241.597 225.92 241.597 223.936C241.597 221.952 241.159 220.459 240.285 219.456C239.41 218.453 238.247 217.952 236.797 217.952C235.346 217.952 234.173 218.453 233.277 219.456C232.402 220.459 231.965 221.952 231.965 223.936C231.965 225.92 232.402 227.424 233.277 228.448C234.151 229.472 235.325 229.984 236.797 229.984ZM249.356 238.912V219.712C249.356 219.093 249.334 218.464 249.292 217.824C249.249 217.184 249.185 216.544 249.1 215.904H251.916L252.268 219.616H251.916C252.236 218.379 252.918 217.408 253.964 216.704C255.009 215.979 256.257 215.616 257.708 215.616C259.137 215.616 260.385 215.947 261.452 216.608C262.518 217.269 263.34 218.229 263.916 219.488C264.513 220.725 264.812 222.208 264.812 223.936C264.812 225.664 264.513 227.157 263.916 228.416C263.34 229.675 262.518 230.635 261.452 231.296C260.385 231.957 259.137 232.288 257.708 232.288C256.278 232.288 255.041 231.936 253.996 231.232C252.972 230.507 252.278 229.536 251.916 228.32H252.268V238.912H249.356ZM257.036 229.984C258.508 229.984 259.681 229.472 260.556 228.448C261.43 227.424 261.868 225.92 261.868 223.936C261.868 221.952 261.43 220.459 260.556 219.456C259.681 218.453 258.508 217.952 257.036 217.952C255.564 217.952 254.39 218.453 253.516 219.456C252.662 220.459 252.236 221.952 252.236 223.936C252.236 225.92 252.662 227.424 253.516 228.448C254.39 229.472 255.564 229.984 257.036 229.984ZM276.059 232.288C273.499 232.288 271.472 231.552 269.979 230.08C268.507 228.608 267.771 226.581 267.771 224C267.771 222.293 268.091 220.821 268.731 219.584C269.392 218.325 270.299 217.355 271.451 216.672C272.603 215.968 273.947 215.616 275.483 215.616C276.955 215.616 278.203 215.936 279.227 216.576C280.251 217.195 281.029 218.08 281.563 219.232C282.096 220.384 282.363 221.749 282.363 223.328V224.288H270.043V222.56H280.379L279.835 222.976C279.835 221.312 279.461 220.021 278.715 219.104C277.989 218.187 276.912 217.728 275.483 217.728C273.925 217.728 272.72 218.272 271.867 219.36C271.013 220.427 270.587 221.888 270.587 223.744V224.032C270.587 225.995 271.067 227.477 272.027 228.48C273.008 229.483 274.363 229.984 276.091 229.984C277.051 229.984 277.947 229.845 278.779 229.568C279.611 229.291 280.411 228.832 281.179 228.192L282.139 230.208C281.413 230.869 280.507 231.381 279.419 231.744C278.352 232.107 277.232 232.288 276.059 232.288ZM286.136 232V219.84C286.136 219.2 286.115 218.549 286.072 217.888C286.051 217.205 285.998 216.544 285.912 215.904H288.728L289.08 219.936L288.6 219.968C288.814 218.987 289.176 218.176 289.688 217.536C290.222 216.875 290.851 216.395 291.576 216.096C292.323 215.776 293.091 215.616 293.88 215.616C294.222 215.616 294.51 215.627 294.744 215.648C294.979 215.669 295.214 215.723 295.448 215.808L295.384 218.4C295.064 218.272 294.766 218.197 294.488 218.176C294.232 218.133 293.912 218.112 293.528 218.112C292.59 218.112 291.779 218.325 291.096 218.752C290.435 219.179 289.923 219.744 289.56 220.448C289.219 221.152 289.048 221.909 289.048 222.72V232H286.136ZM311.186 232L304.306 215.904H307.442L313.042 229.728H312.146L317.842 215.904H320.818L313.906 232H311.186ZM325.079 232V229.472H330.359V211.968H331.863L325.559 215.872V212.96L331.191 209.44H333.335V229.472H338.295V232H325.079Z" fill="#4CC9F0"/>
<line x1="93.7051" y1="20" x2="93.7051" y2="335" stroke="#0FA9D9"/>
</svg>
